<!-- Generator: Adobe Illustrator 21.0.2, SVG Export Plug-In  -->
<svg version="1.1"
	 xmlns="http://www.w3.org/2000/svg" xmlns:xlink="http://www.w3.org/1999/xlink" xmlns:a="http://ns.adobe.com/AdobeSVGViewerExtensions/3.0/"
	 x="0px" y="0px" width="2700.9px" height="340px" viewBox="0 0 2700.9 340" style="enable-background:new 0 0 2700.9 340;"
	 xml:space="preserve">
<style type="text/css">
	.st0{fill-rule:evenodd;clip-rule:evenodd;fill:url(#SVGID_1_);}
	.st1{fill-rule:evenodd;clip-rule:evenodd;fill:#FFFADC;}
	.st2{fill-rule:evenodd;clip-rule:evenodd;fill:url(#SVGID_2_);}
</style>
<defs>
</defs>
<g id="Layer_1_copy">
	<linearGradient id="SVGID_1_" gradientUnits="userSpaceOnUse" x1="1350.9961" y1="424.4473" x2="1350.9961" y2="172.963">
		<stop  offset="0" style="stop-color:#FFFADC"/>
		<stop  offset="1" style="stop-color:#58BAC6"/>
	</linearGradient>
	<rect x="1.1" class="st0" width="2699.7" height="338"/>
	<path class="st1" d="M459.5,255.9l6.5,1l-3.6,2.4l0.3,12.5l122.4,17.8l3.7-156.3l-0.7-6l-7.9-0.1l-5.9-15l1.9-1.4l1.7-2.8l1.4-4.8
		l1.6,5.6l5-0.1l0.3-7.2l4.1,0l0.2-6.7l1.3-0.7l1.7-63.1l2,0.2l1.9,63.6l1.6,0.7l-0.2,3.8l2.6-0.4l0.9,5L599,104l0.6,4.3l3-3.1
		l2.3,4.1l2.3,1.3l3.7-2.7l2.8,4.6l-6.5,14.6l-7,0.5l0.4,133.2l7.6-2.1l2.1,3.4l2.1-4.3l3,5.8l2-4.9l2.8,4.6l2.3-4.8l2.4,2.5
		l1.5-1.5l10.5,0.1l-0.3,10.6l217.1,0.2l0-10.6l3.1,1l-0.4-37.3l13.4-34.7l2.4-11.5l4.4,12.4l14.2,31.4l-0.4,27.6l3-0.1l0.6,25.6
		l4.9,0.2l0.6-5.6l16.7-0.3l0.3,5.4l7.6-0.2l0-13.3l54.7,0.2l0,20.8l278.1,0.3l-0.3-17.2l18.8-12.6l0-57.3l5.8-8.9l-0.1-5l1-0.2
		l0.2,5.1l5.2,7.8l-0.1,5.8l1.6,0.9l-0.1,6.8l1.2,0l-0.1-7.3l1.2-0.1l-0.2-7.2h1.6v-7.2l1.7,0.1l-0.1-8.6l1.3-0.1l0-7.5l1-0.1
		l0.1-8.1l1.2-0.2l-0.1-9.6l1.4,0l0.1-11.6h-1.7l-0.1-1.4h2l0-1.6l1.6,0l0,1.6h2l0,1.4h-1.6l0.1,11.5l1.4,0l0.2,9.6l1.4,0.2l0.1,8.3
		l1.1,0.1l0.2,7.1l1.2,0.1l0.3,8.4l1.2,0l0.1,7.4h1.2l0.2,11.1l1.5,0.1l0.1,2.9l1.2-0.2l0-8l1,0l0-5l1.1,0l0.1-2.6l1.1,0.1l0-2.5
		l1.8,0l0.1-2.8l1.2-0.1l-0.1-4l1.1,0.1l0.2,3.7l1.4,0.2l0,2.5l1.4,0.2l0,2.3l1.4,0l0.1,2.5l1.2,0.2l-0.2,59.3l14.1,9.3l5.4-4.3
		l17.1,19.6l2.5,0.9l1.5-2.4l12.9-5l9.3,3.5l1.3,4.2h246.8l0.4-2.7l3.5-0.6l11.1-11.7l0-3.1l1.6-0.1l0.1,3.2l6.7,7.3l1.8-1.2
		l5.1,3.7l12.2-11.9l0.2-3.3l1.5-0.1l0.1,3.3l8,8l12.3-10.8l0-2.7l2.1-0.1l0.2,2.8l21,19.3l3.7,0.1l5.4-5.7l-2.8-83.4l19.1-111.8
		l8.8,53.5l9.5-49.3l19.4,94.4l0.2,27.8l39.1,0.6l0.3-29l7.5-35.6l9.5,35.3l1.8,28.3l13.8-1.3l1.4,4.2l24.6,0.6l6.8,11.7l5.8,1.4
		l1.5-6.8l2.4,16.1l2.3,9.7l3.3-7.9l4.1,13l2.3-3.1l1.6,12.1l2.7-11.7l1.7,14.8l3-6.1l0.1,34.3l8.7-2.7l9.9,4.5l-0.1,6l282.8,0.4
		l1.2-5.5l3.9-0.1l10-11.3l-0.2-6.6l5.3-0.7l0.2-6.5l5.2,1.1l-0.7-61.2l4.7,0.3l1.2-15.5l6.1-6.8l2.1,3.2l7.2-3.7l9.4,0.8l2.8,8.1
		l0.2,14.4l4.6-0.9l0.5,54.6l254-0.1l1.3-4.4l9.5,1l1.3-51.5l36.9,0.5l1.5-57.4l14.2,0.4l0.1,10l32.6-0.1l0.7,91.8l8.4,0.1
		l-0.9-96.7l6.4-0.5l-3.1-60.8l19.3-6.9l21,7l0.2,60l8.3,1l0.1,131.9l-0.6,56.9L0.4,340L0,290.5l239.8-0.9
		c2.2-9.2,4.2-18.4,6.8-29.3c3.2-0.4,6.3-0.7,9.4-1.1c20.6-28.7,43.8-36.9,67.7-43.3c26.2-7,55-4.3,83.3,9.3
		c14.6,7.1,28.6,17.8,43,30.1C452.5,255.5,457,255.7,459.5,255.9L459.5,255.9z M288.9,239.5l1.1,0l2.4,16.9
		c5.2-0.6,10.4-0.9,14.5-1.2l0.5-25.9c-19.6,7.9-34.6,18-41.6,29.8c7.5-1,13.8-1.4,21-2.3L288.9,239.5L288.9,239.5z M291.3,256.5
		l-1.7-15l-1.4,15.2L291.3,256.5L291.3,256.5z M421.9,241.8l2.2,11.7c4.1,0.2,8.4,0.5,12.7,0.8C432.8,249.9,427.7,245.7,421.9,241.8
		L421.9,241.8z M423,253.5l-2.4-12.5c-0.4-0.2-0.7-0.5-1.1-0.7l-2.3,12.9C419.2,253.3,421.1,253.4,423,253.5L423,253.5z
		 M415.9,253.1l2.4-13.6c-5.6-3.4-11.7-6.5-18.1-9l3.2,22.2C407.5,252.8,411.6,253,415.9,253.1L415.9,253.1z M402.4,252.6l-3.4-22.4
		l-3.1,22.2C398.1,252.5,400.2,252.6,402.4,252.6L402.4,252.6z M394.5,252.4l3.2-22.9c-4.4-1.7-8.9-3.1-13.3-4.2
		c-2.2-0.6-4.4-1.1-6.4-1.5l3.4,28.5C385.6,252.3,390,252.4,394.5,252.4L394.5,252.4z M380.8,252.3l-0.5-0.3l-3.5-28.1l-3.2,28.3
		l-1,0.2C375.3,252.3,378,252.3,380.8,252.3L380.8,252.3z M372.1,252.4l3.4-29.1c-4.1-0.8-7.8-1.5-11.1-1.9c-1.8-0.2-5-0.2-8.5-0.1
		l1.5,31.5C362.2,252.6,367.1,252.5,372.1,252.4L372.1,252.4z M356.3,252.8l-1.4-31.5l0,0l-2.8,31.7
		C353.5,252.9,354.9,252.9,356.3,252.8L356.3,252.8z M350.7,253.1l2.9-31.7c-6,0.3-12.6,0.8-15.7,1c-2,0.1-3.9,0.3-5.9,0.5v30.8
		C338.1,253.1,344.3,253.4,350.7,253.1L350.7,253.1z M309.3,228.6l0.5,26.7c7-0.8,18.8-1.3,20.1-1.4l0.2-30.8
		C322.9,224.2,315.9,226.1,309.3,228.6z"/>
</g>
</svg>
