<!-- Generator: Adobe Illustrator 21.0.2, SVG Export Plug-In  -->
<svg version="1.1"
	 xmlns="http://www.w3.org/2000/svg" xmlns:xlink="http://www.w3.org/1999/xlink" xmlns:a="http://ns.adobe.com/AdobeSVGViewerExtensions/3.0/"
	 x="0px" y="0px" width="297.9px" height="110.9px" viewBox="0 0 297.9 110.9" style="enable-background:new 0 0 297.9 110.9;"
	 xml:space="preserve">
<style type="text/css">
	.st0{fill-rule:evenodd;clip-rule:evenodd;}
	.st1{fill-rule:evenodd;clip-rule:evenodd;fill:#F1F8F7;stroke:#485155;stroke-width:0.216;stroke-miterlimit:22.9256;}
	.st2{fill-rule:evenodd;clip-rule:evenodd;fill:none;stroke:#485155;stroke-width:0.216;stroke-miterlimit:22.9256;}
	.st3{fill-rule:evenodd;clip-rule:evenodd;fill:#C5C6C6;stroke:#485155;stroke-width:0.216;stroke-miterlimit:22.9256;}
	.st4{fill-rule:evenodd;clip-rule:evenodd;fill:#D9DADA;stroke:#717E85;stroke-width:0.216;stroke-miterlimit:22.9256;}
	.st5{fill-rule:evenodd;clip-rule:evenodd;fill:#F1F8F7;stroke:#717E85;stroke-width:0.216;stroke-miterlimit:22.9256;}
	.st6{fill-rule:evenodd;clip-rule:evenodd;fill:#ECECED;stroke:#717E85;stroke-width:0.216;stroke-miterlimit:22.9256;}
	
		.st7{fill-rule:evenodd;clip-rule:evenodd;fill:#95A6B0;stroke:#717E85;stroke-width:0.216;stroke-linejoin:round;stroke-miterlimit:22.9256;}
	.st8{fill-rule:evenodd;clip-rule:evenodd;fill:#B7CBD7;stroke:#717E85;stroke-width:0.216;stroke-miterlimit:22.9256;}
	.st9{fill-rule:evenodd;clip-rule:evenodd;fill:#717E85;stroke:#717E85;stroke-width:0.216;stroke-miterlimit:22.9256;}
	.st10{fill-rule:evenodd;clip-rule:evenodd;fill:#717E85;stroke:#485155;stroke-width:0.216;stroke-miterlimit:22.9256;}
	.st11{fill-rule:evenodd;clip-rule:evenodd;fill:#9C9D9D;stroke:#717E85;stroke-width:0.216;stroke-miterlimit:22.9256;}
	.st12{fill-rule:evenodd;clip-rule:evenodd;fill:#ED7C1E;stroke:#485155;stroke-width:0.216;stroke-miterlimit:22.9256;}
	.st13{fill-rule:evenodd;clip-rule:evenodd;fill:#535E62;stroke:#485155;stroke-width:0.216;stroke-miterlimit:22.9256;}
	.st14{fill-rule:evenodd;clip-rule:evenodd;fill:#ED7C1E;}
	.st15{fill-rule:evenodd;clip-rule:evenodd;fill:#717E85;}
	.st16{fill-rule:evenodd;clip-rule:evenodd;fill:#95A6B0;stroke:#485155;stroke-width:0.216;stroke-miterlimit:22.9256;}
	.st17{fill-rule:evenodd;clip-rule:evenodd;fill:#535E62;stroke:#717E85;stroke-width:0.216;stroke-miterlimit:22.9256;}
	.st18{fill-rule:evenodd;clip-rule:evenodd;fill:none;stroke:#717E85;stroke-width:0.216;stroke-miterlimit:22.9256;}
	.st19{fill-rule:evenodd;clip-rule:evenodd;fill:#E10A29;}
	.st20{fill-rule:evenodd;clip-rule:evenodd;fill:#485155;}
	.st21{fill-rule:evenodd;clip-rule:evenodd;fill:#76888F;stroke:#717E85;stroke-width:0.216;stroke-miterlimit:22.9256;}
	.st22{fill-rule:evenodd;clip-rule:evenodd;fill:#20282B;}
	.st23{fill-rule:evenodd;clip-rule:evenodd;stroke:#717E85;stroke-width:0.216;stroke-miterlimit:22.9256;}
	.st24{fill-rule:evenodd;clip-rule:evenodd;fill:#B7CBD7;stroke:#485155;stroke-width:0.216;stroke-miterlimit:22.9256;}
	.st25{fill-rule:evenodd;clip-rule:evenodd;stroke:#3D474C;stroke-width:0.216;stroke-miterlimit:22.9256;}
	.st26{fill-rule:evenodd;clip-rule:evenodd;fill:#3D474C;}
</style>
<defs>
</defs>
<g>
	<path class="st0" d="M288.6,68.6L10.1,67.8L10,89.6L0,91.5L0.1,97l2.6,0.2l3.2-3.7l11.4,0l0.3-1l2.4,0.1L20,91l2.3-0.8l34,0
		c0.5,0.4-0.3,0.4-0.5,0.6c-1.1,1.5-0.5,2.2,0.8,2l5.1-0.5l1.3,1.7l35.3,1.7l4.6,0.2l50.6-4.3l14-0.5c-0.1,0.8-0.1,1.9,0.1,2.5
		c0.4,1.4,1.2,2.1,1.5,3.4l16.3-0.1c2.3,2,5.3,1,6.6-0.3l2.2-0.2c2.5,1.9,4.2,2.1,6.5,0.5l2-0.3c2.7,1.9,4.9,1.8,6.7,0.1
		c1.1-1,2.5-2.6-0.1-5.8l5.2,0l0.3,2.1l13.5,0.2v5.4l1.6,0l0.3-1.5l2.1,0.2l-0.3,2.9l56.6-0.2V68.6L288.6,68.6z M121.5,89.9
		l-0.4,0.9l-15.3,1l-0.7-1.9H121.5z"/>
	<path class="st1" d="M238.4,0.1H1.8C1,0.1,0.3,0.8,0.3,1.7v71.5c0,0.6,0.5,0.4,0.6,1c0.1,0.7-0.1,2.1,0.8,2.1l234.7-0.1
		c0.9,0,3.2-2.5,3.7-2.2L240,1.7C240,0.8,239.3,0.1,238.4,0.1z"/>
	<rect x="3.4" y="2.4" class="st2" width="234.8" height="66.2"/>
	<polygon class="st2" points="239.3,74.2 1,74.2 1,76.4 236.9,76.4 	"/>
	<path class="st3" d="M243.6,25.4l-3.5,2.8l-0.1,40.2c1.5,0,3-0.2,5.7,0.1l0.4-42.2L243.6,25.4z"/>
	<polygon class="st4" points="247,26.2 243.2,25.8 242.6,68.3 245.6,68.6 	"/>
	<path class="st5" d="M285.6,30.9c-3.2-4.8-10.4-4.7-14.2-5.6l-0.9-1.6l-14.7-0.1l-2,1.3l-8.9,0l-1.6,0.8l3.6,0.5l-1.4,42.3l0.1,0.7
		l8.2-0.1l42.1,0.1l-0.3-12L285.6,30.9z"/>
	<polygon class="st6" points="296,69.1 289.3,69.1 289.3,80.5 297.8,80.5 297.7,76.3 296.8,72.2 296.9,70 	"/>
	<path class="st6" d="M289.1,69.2l-29.4-0.2c5.5,1.6,9.9,4.9,13.4,10.4h16.1V69.2z"/>
	<path class="st7" d="M293.2,80.5c-1.6,0-2.9,0-4.5,0c0,0.6-0.1,1.5,0.1,2.1c0.1,0.5,0.4,0.6,0.4,1.4c2.5,0.1,4.4,0.1,6.9,0.2
		c-1-0.2-2-0.6-3.1-1.5C293.1,81.9,293.1,81.3,293.2,80.5z"/>
	<polygon class="st8" points="296.2,84.2 288.5,84 288.6,94.6 296.2,94.6 	"/>
	<polygon class="st8" points="296.1,94.6 288.7,94.6 288.7,100.2 296.1,100.2 296.1,98.8 297.1,97.8 297,95.5 	"/>
	<path class="st9" d="M285.4,82.9l-11.6,0.1l-0.1,3.4l12.3-0.1c0.5-0.4,0.4-0.6,0.9-1.2l1.6,0.1l0-5.9l-0.7,0.2l0,4l-1.4,0
		L285.4,82.9z"/>
	<polygon class="st9" points="286.1,91.1 274,91.1 274,92.9 286.1,92.9 288.6,93.7 288.6,91.8 	"/>
	<polygon class="st9" points="274.7,100.6 274.8,102.1 286.9,102.1 288.7,100.9 288.9,99.7 286.9,100.6 	"/>
	<path class="st9" d="M273.5,89.7l-1.8,0.1c0.1,1.7,0.2,3.6,0.5,5.4c0.8,5.4,1.4,5.3,2.4,6.9l-0.1-1.4l0.3-6.6l-1-0.8L273.5,89.7z"
		/>
	<path class="st9" d="M273.1,80.5c-4.1-6.1-8.9-9.4-13.6-10.4l-5.3-0.1l-0.2,4.3c2.1,0.4,5.4,0.2,8.6,1.6c5,2.3,8,6.3,9.5,10.4
		c0,0.2,1.2,0.1,1.6,0.3l0.2-3.1L273.1,80.5z"/>
	<path class="st10" d="M246,72.6l2.4,2.6c-13.8,6-13.6,16.8-13.3,25.6c-0.2,0.1-2.2,0.6-3.3-0.2C231.9,100.3,229.2,79.3,246,72.6z"
		/>
	<polygon class="st9" points="253,69.9 246.2,69.9 246.4,71.7 249.4,74.8 253,74.5 253,71.4 	"/>
	<path class="st11" d="M277.7,34.3c-6.4-0.2-12-0.7-18.4-0.7c-0.8,0.4-1.2,1.1-1.4,1.9l1.1,12.6c-0.2,1.7,2.1,2.4,3.6,2.5l17.4,3
		c2.4,0.3,3.1,0.9,3.2-0.9L280,37.3C279.7,36,279.4,34.9,277.7,34.3z"/>
	<ellipse class="st12" cx="269.4" cy="78" rx="1.1" ry="1"/>
	<ellipse class="st12" cx="233.3" cy="98.8" rx="1.1" ry="1.1"/>
	<path class="st13" d="M227.3,80.6h-8.3c-1,0-1.7,0.8-1.7,1.7v8.8c0,1,0.8,1.7,1.7,1.7h8.3c1,0,1.7-0.8,1.7-1.7v-8.8
		C229,81.4,228.3,80.6,227.3,80.6z"/>
	<rect x="221.3" y="77.5" class="st14" width="2.3" height="1.2"/>
	<rect x="114.3" y="77.5" class="st14" width="2.6" height="1"/>
	<path class="st10" d="M91.3,76.2l-3.8,0.3c5.5,3.5,9.9,9.1,10.2,19.3l2.1,0.1C100.1,87.7,95.8,78.8,91.3,76.2z"/>
	<path class="st15" d="M66.5,76.3l4.2,0.2c-5.4,3.4-10,8.8-10.1,18.6l-2.1,0.1C57.5,87.1,61.3,80.8,66.5,76.3z"/>
	<rect x="52.7" y="76.4" class="st16" width="1.3" height="17.3"/>
	<rect x="8.1" y="76.6" class="st16" width="1.2" height="17.1"/>
	<polygon class="st17" points="286.4,31.7 283.6,31.9 290.3,55.6 295.3,56.6 	"/>
	<path class="st18" d="M284.2,34.1c-1.7-1.1-1.8-2.6-5-3.4l-21.7-0.2c-4.7-0.6-4.7,2.7-4.3,5.9l0.1,32.5l35.4,0.2l0-13.3L284.2,34.1
		z"/>
	<rect x="255.7" y="60.9" class="st18" width="7.4" height="1.5"/>
	<path class="st18" d="M288.3,65.3c-6.5-0.8-36.2-1.9-42.2-2.7"/>
	<path class="st18" d="M290.8,56c0.7,6.6,1.1,18.5,0.9,24.5"/>
	<g>
		<circle class="st19" cx="41.7" cy="17.5" r="2.7"/>
		<path class="st19" d="M26.9,54.7c0.5,0,0.9-0.4,0.9-0.9c0-0.1,0-0.1,0-0.2c-0.1-0.6-0.6-5.1,0.1-9.3c0.9-5.8,3.6-10.2,5.8-9.9
			c1.9,0.3,4.4,3.7,6,4c1.2,0.2,1.9-0.7,2.3-3.1c0.8-5.2-1.3-14.3-3.9-14.7c-4.6-0.7-16.7,3.9-17.1,6.2c-0.3,1.7,3.1,2.3,3.9,2.4
			c0.8,0.1,3.1,0.2,3.2-0.7c0.2-1.1-1.7-1.1-1.2-1.8c0.7-0.9,7-3.8,9.8-3.3c1.6,0.3,2.3,4.9,1.8,8c-0.1,0.6-0.4,0.7-0.7,0.7
			c-0.6-0.1-2.7-3.2-5.1-3.6c-4.2-0.7-7.6,6.3-8.3,10.8c-1.3,8,1.6,14.4,1.8,14.9C26.3,54.5,26.6,54.7,26.9,54.7z"/>
		<path class="st20" d="M69,29.9c-0.2,0-0.2,0.2-0.2,0.4v16.9c0,0.3,0.1,0.4,0.4,0.4h1.7c0.3,0,0.4-0.1,0.4-0.4v-5.6h0.1
			c0,0,0.3,0.6,0.6,1l3.6,4.6c0.2,0.2,0.3,0.4,0.6,0.4h2c0.3,0,0.4-0.1,0.4-0.4c0-0.1,0-0.2-0.1-0.3L73.7,41l4.3-4.5
			c0.1-0.1,0.2-0.2,0.2-0.3c0-0.3-0.1-0.4-0.4-0.4h-1.7c-0.3,0-0.4,0.2-0.6,0.4l-4.1,4.7h-0.1V30.3c0-0.3-0.1-0.4-0.4-0.4h-1.7
			C69.1,29.9,69.1,29.9,69,29.9z"/>
		<path class="st20" d="M80.7,29.9c-0.2,0-0.3,0.2-0.3,0.4v16.9c0,0.3,0.1,0.4,0.4,0.4h1.8c0.3,0,0.4-0.1,0.4-0.4v-5.6h0
			c0,0,0.3,0.6,0.6,1l3.6,4.6c0.2,0.2,0.3,0.4,0.6,0.4h2c0.3,0,0.4-0.1,0.4-0.4c0-0.1,0-0.2-0.1-0.3L85.4,41l4.3-4.5
			c0.1-0.1,0.2-0.2,0.2-0.3c0-0.3-0.1-0.4-0.4-0.4h-1.6c-0.3,0-0.4,0.2-0.6,0.4L83,40.9h0V30.3c0-0.3-0.1-0.4-0.4-0.4h-1.8
			C80.7,29.9,80.7,29.9,80.7,29.9z"/>
		<path class="st20" d="M111.3,29.9c-0.1,0-0.2,0.2-0.2,0.4v16.9c0,0.3,0.1,0.4,0.4,0.4h1.8c0.3,0,0.4-0.1,0.4-0.4V30.3
			c0-0.3-0.1-0.4-0.4-0.4h-1.8C111.4,29.9,111.4,29.9,111.3,29.9z"/>
		<path class="st20" d="M146,29.9c-0.2,0-0.2,0.2-0.2,0.4V45c0,0.8-0.6,1.3-1.7,1.3c-1.6,0-3.2-1.5-3.2-4.6c0-2.9,1.3-4.8,3.2-4.8
			c0.2,0,0.4,0,0.5,0c0,0,0.1,0,0.1,0c0.3,0,0.4-0.1,0.4-0.4v-0.5c0-0.2-0.1-0.3-0.2-0.4c-0.4-0.1-0.8-0.2-1.3-0.2
			c-3.6,0-5.3,3.3-5.3,6.5c0,3.2,1.6,5.9,5.8,5.9c1.4,0,2.9-0.4,3.5-0.8c0.6-0.4,0.8-0.8,0.8-1.7V30.3c0-0.3-0.1-0.4-0.4-0.4h-1.8
			C146.1,29.9,146,29.9,146,29.9z"/>
		<path class="st20" d="M49.6,31.2c-0.3,0-0.4,0.1-0.4,0.4v15.5c0,0.3,0.1,0.4,0.4,0.4h6.3c0.3,0,0.4-0.1,0.4-0.4v-1.1
			c0-0.3-0.1-0.4-0.4-0.4h-3.8v-14c0-0.3-0.1-0.4-0.4-0.4H49.6z"/>
		<path class="st20" d="M62.5,35.5c-2.7,0-5.2,1.9-5.2,6.1c0,4.5,2.5,6.2,5.2,6.2c2.9,0,4.5-2.5,4.5-3.8c0-0.3-0.2-0.6-0.5-0.6
			c-0.3,0-0.5,0.2-0.6,0.4c-0.5,0.8-1.4,2-2.9,2c-2.2,0-3.3-1.7-3.5-4.6c-0.1-2.3,0.8-4.3,2.7-4.3c1.6,0,2.2,1.3,2.2,2.8l-3.9,0.7
			c-0.2,0-0.3,0.2-0.3,0.4v0.5c0,0.3,0.1,0.4,0.4,0.4c0,0,0.1,0,0.1,0l5.5-0.9c0.5-0.1,0.7-0.2,0.7-0.7
			C66.9,37.7,65.3,35.5,62.5,35.5z"/>
		<path class="st20" d="M95.8,35.5c-2.7,0-5.2,1.9-5.2,6.1c0,4.5,2.5,6.2,5.2,6.2c2.9,0,4.5-2.5,4.5-3.8c0-0.3-0.2-0.6-0.5-0.6
			c-0.3,0-0.5,0.2-0.6,0.4c-0.5,0.8-1.4,2-2.9,2c-2.2,0-3.3-1.7-3.5-4.6c-0.1-2.3,0.8-4.3,2.7-4.3c1.6,0,2.2,1.3,2.2,2.8l-3.9,0.7
			c-0.2,0-0.3,0.2-0.3,0.4v0.5c0,0.3,0.1,0.4,0.4,0.4c0,0,0.1,0,0.1,0l5.5-0.9c0.5-0.1,0.7-0.2,0.7-0.7
			C100.3,37.7,98.7,35.5,95.8,35.5z"/>
		<path class="st20" d="M106.6,35.5c-1.5,0-2.8,0.4-3.5,0.7c-0.7,0.3-0.9,0.7-0.9,1.4v9.6c0,0.3,0.1,0.4,0.4,0.4h1.8
			c0.3,0,0.4-0.1,0.4-0.4v-9.1c0-0.7,0.6-1.2,1.4-1.2c1.3,0,1,1.4,2.3,1.4c0.7,0,1.1-0.5,1.1-1.2C109.6,36.3,108.7,35.5,106.6,35.5z
			"/>
		<path class="st20" d="M120.8,35.5c-3.4,0-4.8,1.9-4.8,2.9c0,0.7,0.5,1.1,1.2,1.1c0.6,0,1-0.3,1.2-0.8c0.2-0.7,0.8-1.8,2.1-1.8
			c1,0,1.7,0.7,1.7,1.9v6.5c0,1-0.9,1.3-1.8,1.3c-1.5,0-2.3-0.9-2.3-2c0-1.7,1.4-2.4,3.1-2.8c0.2,0,0.2-0.1,0.2-0.4v-0.4
			c0-0.3-0.1-0.4-0.4-0.4c-0.1,0-0.1,0-0.2,0c-2.6,0.6-5.3,1.5-5.3,4.2c0,2.2,2.2,3.2,4.8,3.2c1.4,0,2.9-0.4,3.4-0.7
			c0.6-0.4,0.9-0.8,0.9-1.8v-6.4C124.6,36.6,122.9,35.5,120.8,35.5z"/>
		<path class="st20" d="M131.5,35.5c-1.7,0-3.1,0.3-3.8,0.7c-0.7,0.3-0.9,0.7-0.9,1.4v9.6c0,0.3,0.1,0.4,0.4,0.4h1.8
			c0.3,0,0.4-0.1,0.4-0.4v-8.8c0-0.7,0.2-1.5,2-1.5c1.8,0,2.4,1.1,2.4,2.2v8.1c0,0.3,0.1,0.4,0.4,0.4h1.8c0.3,0,0.4-0.1,0.4-0.4V39
			C136.4,36.3,133.9,35.5,131.5,35.5z"/>
	</g>
	<path class="st21" d="M277.7,34.3c-6.4-0.2-12-0.7-18.4-0.7c-0.8,0.4-1.2,1.1-1.4,1.9l1.1,12.6c-0.2,1.7,2.1,2.4,3.6,2.5l17.4,3
		c2.4,0.3,3.1,0.9,3.2-0.9L280,37.3C279.7,36,279.4,34.9,277.7,34.3z"/>
	<path class="st22" d="M282.5,32.8c-0.5,0-0.8,0.4-0.8,0.8c0,0.5,0.4,0.8,0.8,0.8c0.5,0,0.4-0.8,0.8-0.8c1.9,0,3.7,0,4.4-0.1
		c-0.1-0.1,0.1-0.4-0.4-0.5c-0.5-0.1-4.1,0.1-4.2,0.1C283,33,282.8,32.8,282.5,32.8z"/>
	<path class="st18" d="M278.8,33.6c-6.7-0.2-13.4-0.6-20.2-0.6c-0.8,0.4-1.3,1.1-1.4,2l1.1,13.5c-0.2,1.8,2.2,2.5,3.8,2.7l18.2,3.3
		c2,0.3,4,0.9,4.1-1l-3.2-16.7C281,35.5,280.6,34.3,278.8,33.6L278.8,33.6z M277.7,34.3c-6.4-0.2-12-0.7-18.4-0.7
		c-0.8,0.4-1.2,1.1-1.4,1.9l1.1,12.6c-0.2,1.7,2.1,2.4,3.6,2.5l17.4,3c2.4,0.3,3.1,0.9,3.2-0.9L280,37.3
		C279.7,36,279.4,34.9,277.7,34.3z"/>
	<path class="st23" d="M277.7,34.3c-6.4-0.2-12-0.7-18.4-0.7c-0.8,0.4-1.2,1.1-1.4,1.9l1.1,12.6c-0.2,1.7,2.1,2.4,3.6,2.5l17.4,3
		c2.4,0.3,3.1,0.9,3.2-0.9L280,37.3C279.7,36,279.4,34.9,277.7,34.3z"/>
	<path class="st20" d="M280,53.7c2.5,0.3,3.1,0.9,3.2-0.9L280,37.3c-0.3-1.3-0.6-2.4-2.3-3c-6.4-0.2-12-0.7-18.5-0.7
		c-0.9,0.6-1.1,1.4-0.8,2.2C259.7,37.2,275.9,50.7,280,53.7z"/>
	<rect x="215.3" y="76.1" class="st24" width="1.4" height="16.8"/>
	<rect x="153.3" y="76.5" class="st24" width="1.4" height="16.8"/>
	<rect x="109.3" y="76.2" class="st24" width="1.4" height="16.8"/>
	<rect x="5.8" y="84.2" class="st24" width="50.2" height="3.1"/>
	<rect x="5.7" y="92.5" class="st24" width="50.5" height="3.6"/>
	<polygon class="st24" points="2.3,76.2 66.4,76.2 63.1,79.4 2.3,79.4 	"/>
	<rect x="102.9" y="84.2" class="st24" width="127.6" height="3"/>
	<polygon class="st24" points="230.5,93.3 102.8,93 102.8,96 230.5,96.4 	"/>
	<path class="st22" d="M286.8,34.8h-1.6c-0.7,0-1.2,0.5-1.2,1.2v8.8c0,0.7,0.5,1.2,1.2,1.2h1.6c0.7,0,1.2-0.5,1.2-1.2V36
		C288,35.4,287.4,34.8,286.8,34.8z"/>
	<path class="st22" d="M286.6,46.6h-1.6c-0.7,0-1.2,0.5-1.2,1.2v4.7c0,0.7,0.5,1.2,1.2,1.2h1.6c0.7,0,1.2-0.5,1.2-1.2v-4.7
		C287.8,47.2,287.3,46.6,286.6,46.6z"/>
	<path class="st22" d="M286,54.4c-0.5,0-0.8,0.4-0.8,0.8c0,0.5,0.4,0.8,0.8,0.8c0.5,0,0.7-0.6,0.7-1c0.6-0.6,0.8-0.7,1.3-1.3
		c-0.1-0.1,0.1-0.1,0-0.5C287.3,53.7,286.6,54.5,286,54.4z"/>
	<g>
		
			<ellipse transform="matrix(0.9273 -0.3744 0.3744 0.9273 -29.5977 36.7134)" class="st25" cx="79.7" cy="94.5" rx="16.2" ry="16.3"/>
		<g>
			
				<ellipse transform="matrix(0.9273 -0.3744 0.3744 0.9273 -29.5975 36.7131)" class="st16" cx="79.7" cy="94.5" rx="9.2" ry="9.3"/>
			
				<ellipse transform="matrix(0.9273 -0.3744 0.3744 0.9273 -29.6283 36.7402)" class="st24" cx="79.7" cy="94.6" rx="4.4" ry="4.3"/>
			
				<ellipse transform="matrix(0.9273 -0.3744 0.3744 0.9273 -29.5849 36.7246)" class="st2" cx="79.7" cy="94.5" rx="6.7" ry="6.5"/>
			<ellipse transform="matrix(0.9273 -0.3744 0.3744 0.9273 -29.6585 36.7262)" class="st2" cx="79.7" cy="94.7" rx="8" ry="8.1"/>
			
				<rect x="85.5" y="96.9" transform="matrix(0.4372 -0.8994 0.8994 0.4372 -38.9416 132.5807)" class="st22" width="1.9" height="1"/>
			
				<rect x="82.7" y="100.2" transform="matrix(0.8223 -0.569 0.569 0.8223 -42.4598 65.4673)" class="st22" width="1.9" height="1"/>
			
				<rect x="78.7" y="101" transform="matrix(7.388359e-02 -0.9973 0.9973 7.388359e-02 -28.344 173.3663)" class="st22" width="1" height="1.9"/>
			
				<rect x="74.5" y="99.3" transform="matrix(0.6154 -0.7882 0.7882 0.6154 -50.1397 97.6962)" class="st22" width="1" height="1.9"/>
			
				<rect x="72.1" y="95.3" transform="matrix(0.9676 -0.2526 0.2526 0.9676 -21.9601 21.4677)" class="st22" width="1" height="1.9"/>
			
				<rect x="72.1" y="91" transform="matrix(0.4083 -0.9129 0.9129 0.4083 -40.3618 120.8239)" class="st22" width="1.9" height="1"/>
			
				<rect x="75.3" y="87.7" transform="matrix(0.8696 -0.4937 0.4937 0.8696 -33.6119 49.1232)" class="st22" width="1.9" height="1"/>
			
				<rect x="80" y="86.4" transform="matrix(8.197565e-02 -0.9966 0.9966 8.197565e-02 -13.1251 160.4157)" class="st22" width="1" height="1.9"/>
			
				<ellipse transform="matrix(0.9273 -0.3744 0.3744 0.9273 -29.6395 36.786)" class="st10" cx="79.9" cy="94.7" rx="3.2" ry="3.1"/>
			
				<ellipse transform="matrix(0.9272 -0.3745 0.3745 0.9272 -29.6417 36.7901)" class="st24" cx="79.8" cy="94.7" rx="1.7" ry="1.7"/>
			<polygon class="st22" points="83.7,88.9 85.1,90.2 85.6,89.6 84.3,88.3 			"/>
			<polygon class="st22" points="86.5,92.6 86.7,94.4 87.5,94.3 87.3,92.5 			"/>
		</g>
		<path class="st26" d="M73.7,79.3c-3.1,1.2-5.6,3.3-7.3,5.9c1.6-2,3.8-3.6,6.3-4.6c8.3-3.3,17.7,0.7,21.1,9
			c2.1,5.2,1.3,10.9-1.6,15.3c3.7-4.4,4.9-10.8,2.6-16.5C91.4,80,82,76,73.7,79.3z"/>
	</g>
	<g>
		
			<ellipse transform="matrix(0.9273 -0.3744 0.3744 0.9273 -16.8446 102.0393)" class="st25" cx="254.2" cy="94.4" rx="16.2" ry="16.3"/>
		<g>
			
				<ellipse transform="matrix(0.9273 -0.3744 0.3744 0.9273 -16.8447 102.0381)" class="st16" cx="254.2" cy="94.4" rx="9.2" ry="9.3"/>
			
				<ellipse transform="matrix(0.9273 -0.3744 0.3744 0.9273 -16.8751 102.0661)" class="st24" cx="254.2" cy="94.5" rx="4.4" ry="4.3"/>
			
				<ellipse transform="matrix(0.9273 -0.3744 0.3744 0.9273 -16.8315 102.0508)" class="st2" cx="254.2" cy="94.3" rx="6.7" ry="6.5"/>
			
				<ellipse transform="matrix(0.9273 -0.3744 0.3744 0.9273 -16.9051 102.0526)" class="st2" cx="254.2" cy="94.5" rx="8" ry="8.1"/>
			
				<rect x="260" y="96.7" transform="matrix(0.4372 -0.8994 0.8994 0.4372 59.4096 289.4314)" class="st22" width="1.9" height="1"/>
			
				<rect x="257.2" y="100.1" transform="matrix(0.8223 -0.569 0.569 0.8223 -11.3637 164.7273)" class="st22" width="1.9" height="1"/>
			
				<rect x="253.2" y="100.9" transform="matrix(7.388359e-02 -0.9973 0.9973 7.388359e-02 133.4245 347.2444)" class="st22" width="1" height="1.9"/>
			
				<rect x="249" y="99.1" transform="matrix(0.6154 -0.7882 0.7882 0.6154 17.1057 235.1894)" class="st22" width="1" height="1.9"/>
			
				<rect x="246.6" y="95.2" transform="matrix(0.9675 -0.2527 0.2527 0.9675 -16.2609 65.5616)" class="st22" width="1" height="1.9"/>
			
				<rect x="246.6" y="90.9" transform="matrix(0.4083 -0.9129 0.9129 0.4083 63.0408 280.0257)" class="st22" width="1.9" height="1"/>
			
				<rect x="249.8" y="87.5" transform="matrix(0.8696 -0.4937 0.4937 0.8696 -10.7808 135.2595)" class="st22" width="1.9" height="1"/>
			
				<rect x="254.5" y="86.2" transform="matrix(8.197565e-02 -0.9966 0.9966 8.197565e-02 147.2312 334.1847)" class="st22" width="1" height="1.9"/>
			
				<ellipse transform="matrix(0.9273 -0.3744 0.3744 0.9273 -16.8852 102.1131)" class="st10" cx="254.4" cy="94.5" rx="3.2" ry="3.1"/>
			
				<ellipse transform="matrix(0.9272 -0.3745 0.3745 0.9272 -16.8848 102.1251)" class="st24" cx="254.4" cy="94.5" rx="1.7" ry="1.7"/>
			<polygon class="st22" points="258.2,88.7 259.6,90 260.1,89.4 258.8,88.1 			"/>
			<polygon class="st22" points="261,92.4 261.2,94.3 262,94.1 261.8,92.3 			"/>
		</g>
		<path class="st26" d="M248.2,79.1c-3.1,1.2-5.6,3.3-7.3,5.9c1.6-2,3.8-3.6,6.3-4.6c8.3-3.3,17.7,0.7,21.1,9
			c2.1,5.2,1.3,10.9-1.6,15.3c3.7-4.4,4.9-10.8,2.6-16.5C265.9,79.9,256.5,75.8,248.2,79.1z"/>
	</g>
</g>
</svg>
