<svg width="162" height="157" viewBox="0 0 162 157" xmlns="http://www.w3.org/2000/svg"><title>Group</title><g fill="none" fill-rule="evenodd"><path d="M32.267 17.656c-.687 1.237-1.85 1.863-2.894 2.54-1.062.689-2.112 1.42-3.32 1.449-1.24.029-1.96-.758-3.123-2.207-.745-.929-2.086-2.249-2.504-3.41-.751-2.082-.569-4.263-.534-6.072.056-2.907-.68-6.149 1.18-7.946.982-.951 2.737-1.492 5.384-1.59 2.626-.098 4.562.244 5.75 1.219 1.668 1.369 1.959 3.889 1.481 7.338m-.094.135c.098-.058.19-.106.276-.144 1.74-.784 1.317 2.005.963 2.962-.295.796-.504 2.026-1.494 1.135" stroke="#5B5B5B" stroke-width=".436"/><path d="M33.626 10.12c.895-.526.543.449.382.886-.128.346-.023 1.307-.454.92" stroke="#5B5B5B" stroke-width=".174"/><path d="M21.032 9.64c.502-.304 1.11-.698 1.683-.678.716.077 1.92 1.145 1.933 1.18.23.626.026.765-.141 3.463m5.578-4.318c-.252-.399-1.138-.697-1.711-.676-.716.076-2.077 1.201-2.26 1.257" stroke="#5B5B5B" stroke-width=".436"/><path d="M12.577 48.226c-.35.581-2.22 1.642-2.799 2.815-2.766-.775-7.292-5.187-9.137-7.79 3.313-5.36 9.388-13.693 11.271-15.76 2.146-1.674 6.835-3.191 8.07-3.63" stroke="#5B5B5B" stroke-width=".724"/><path d="M39.769 44.725c-.822.14-2.066.294-3.576.057" stroke="#5B5B5B" stroke-width=".174"/><path d="M44.36 50.863c.156.265.072 2.673.44 5.21.052.372.673 5.046.117 6.866-.315.097-.677.011-1.322.09-.089.176-.067.82-.1 1.18-.52-.039-1.19.075-1.94-.018-.994.608-2.046.931-3.18 1.461-.46-.043-1.735.273-2.87.426-.796.108-2.812.58-4.964.764-1.15.098-2.195.265-3.352.222-1-.036-2.178.346-3.239.383-2.978.103-3.597.32-7.102-.178-2.072-.294-2.444-.704-3.552-.737-2.81-1.263-1.404-7.236-1.16-10.318.154-1.94.22-3.499.253-5.221.161-8.524.484-13.73.483-13.604" stroke="#5B5B5B" stroke-width=".724"/><path d="M39.652 46.996c-.749.175-1.507.372-3.164.14m3.796 1.781c-.685.207-1.294.434-2.979.302" stroke="#5B5B5B" stroke-width=".174"/><path d="M25.985 27.818c.191.15 6.931-5.198 8.881-7.444-.146-.191-.531-1.802-.289-1.671 1.883 1.01 4.45 2.145 4.057 2.323-.709 1.144-2.08 3.331-5.054 6.033-.552.374-4.694-.857-4.387-.245.486.964 0 .908-.215 1.057-.922.675-2.662 1.207-4.065 2.179-1.509 1.046-1.512 1.966-2.322 4.019.156-4.353 3.028-5.905 3.394-6.251z" stroke="#5B5B5B" stroke-width=".724" stroke-linejoin="round"/><path d="M23.283 14.557c.47.303.773.062 1.08.21.835.404 1.351.547 2.208.097.684-.36 1.09.02 1.477-.543" stroke="#5B5B5B" stroke-width=".348" stroke-linejoin="round"/><path d="M33.633 13.372c-.254 2.58.129 5.804.973 6.982.148.207-5.112 5.182-8.555 7.496" stroke="#5B5B5B" stroke-width=".436" stroke-linejoin="round"/><path d="M38.062 21.71c2.17 1.816 7.013 3.761 8.545 6.315 2.054 3.424 4.114 7.232 6.296 14.35-.393-.69-2.28-1.083-2.982-.971-1.141.182-2.828.812-3.997 1.934-.108.17-2.782-.327-3.312-.25.047-.592-.088-.85-.43-1.533-.266-.528-.445-.625-.914-.848-.327-.182-.286-2.765-.342-3.3-.15-1.425-.632-1.69-1.37-1.765-.543-.055-1.031.508-1.092 1.318-.059.77.18 1.771.153 3.097-.008.37.052.786-.184 1.38.014.509-2.033.756-2.164 1.275-.293.627-.405 1.372-.004 2.021-.58 1.02-.395 1.84.335 2.35-.316.76.195 1.808.73 2.07.083.546-.519 1.291 1.183 1.724.258.156 2.523.058 3.892-.433 1.508-.143 4.48 2.092 6.18 1.538.974-.318 4.361-1.928 4.53-3.097.222-.135.708-2.721-.352-6.72" stroke="#5B5B5B" stroke-width=".435" stroke-linejoin="round"/><path d="M38.503 21.655c2.17 1.816 6.562 3.679 8.093 6.232 1.864 3.108 4.332 8.19 6.279 14.1.197.598-2.51-2.456-7.04 1.542" stroke="#5B5B5B" stroke-width=".724" stroke-linejoin="round"/><path d="M45.549 86.204c-1.34.958-7.486 3.019-7.996 3.177" stroke="#5B5B5B" stroke-width=".435" stroke-linejoin="round"/><path d="M19.842 7.67c.004-.806.877-3.746 1.598-4.188 1.196-.73 2.587 1.509 3.422 1.74 1.55.43 2.978-2.252 3.987-2.377 1.916-.076 2.973 1.408 3.246 4.371.115 1.234 1.327 2.989.797 5.087" stroke="#5B5B5B" stroke-width=".436" stroke-linejoin="round"/><path d="M28.375 16.488l-.096.114c-.54.645-1.444 1.403-2.542 1.384-.704.029-2.717-.88-2.658-1.597l.005-.032.002-.007c.021-.093.096-.156.171-.148.754-.002 1.637-.037 2.507-.044.883-.007 1.758.01 2.527.021.082.001.142.085.134.186a.223.223 0 0 1-.05.123zm-.318-.029c-2.798.249-1.912.341-4.614-.007.388.131 1.105.692 2.294.676.641-.009 1.578-.383 2.32-.669z" fill="#5B5B5B"/><path d="M19.98 23.198c.141 1.081.252 3.314 1.544 3.721.005-.047.24-1.072.664-1.31.243-.037 2.2 1.676 3.456 2.41-1.15-1.372-1.904-2.995-2.01-5.023-.025-.487.009-.977.027-1.576-.954 1.497-2.76 1.34-3.681 1.778z" stroke="#5B5B5B" stroke-width=".724" stroke-linejoin="round"/><path d="M21.52 67.616c1.096-.052 2.396-.064 3.405-.148l.073 2.548-3.415.012-.063-2.412zm.628.428c.737-.035 1.457.051 2.135-.006l.068 1.474-2.163.056-.04-1.524z" fill="#5B5B5B"/><path d="M13.853 66.523c.173-.132 1.108.593 3.898.926 1.297.154 3.747.289 5.21.102.743-.094.903-.02 1.48-.099 1.15-.16 2.188-.332 2.359-.338 6.197-.175 8.184-1.323 11.318-1.35l1.153 3.412c-1.849-.66-4.631-.197-6.437.023-2.488.304-6.391.872-11.13.857-2.598-.01-6.586-.286-7.893-.365l.042-3.168z" stroke="#5B5B5B" stroke-width=".537" stroke-linejoin="round"/><path stroke="#5B5B5B" stroke-width=".436" stroke-linejoin="round" d="M41.707 64.268l1.746-.05.099-1.212 1.56-.007.02 1.157 1.892.1-.047 2.945-3.378.078-1.643.144z"/><path fill="#FEFEFE" d="M38.064 65.683l3.535-1.352.443 3.172 5.676-.272-.06 10.422-4.538.953z"/><path stroke="#5B5B5B" stroke-width=".724" stroke-linejoin="round" d="M38.064 65.683l3.535-1.352.443 3.172 5.676-.272-.06 10.422-4.538.953z"/><path d="M43.313 65.768l2.994-.003-.012 1.38-2.95.048-.032-1.425zM12.43 48.354c-2.6-2.051-2.644-11.882-2.553-14.332l2.553 14.332zm28.888-7.746c-.026-1.09.082-7.943 2.454-8.873" stroke="#5B5B5B" stroke-width=".174"/><path d="M42.357 50.358c1.13-.407 1.682-1.112 3.072-1.06" stroke="#5B5B5B" stroke-width=".175"/><path d="M12.172 48.522c-1.155-.11-5.605-3.282-5.926-4.798" stroke="#5B5B5B" stroke-width=".174"/><path d="M13.857 69.66c3.23.124 5.94.395 8.768.441.937.015 1.943-.098 2.96-.113 3.037-.267 7.313-.854 10.313-1.091 1.05-.083 2.4.036 3.424.2l3.726 9.408 1.818-.233.699 8.99.759 3.488-.977.86c-.331 4.847-.133 8.278-.59 11.329-.185.142-1.154.363-1.44.979.48 2.1 1.004 3.472 1.633 4.57l-.664 15.676 1.108 3.533c-.792 4.721.793 9.477-.052 15.322-.125 2.34-.602 4.676-1.426 7.011-2.695-2.114-6.279-4.396-12.507-3.215-.99-3.739.275-5.83-1.553-8.92a17.935 17.935 0 0 1-2.098-5.175c-1.136-4.688-.18-18.98-.937-24.318l-.566 20.509c.423 3.23-.674 8.295-.541 13.381.028 1.08-2.399 4.235-3.026 4.558l-.65-1.558c-3.628-1.59-5.61.142-10.862-4.796.517-1.023.347-1.337.855-2.938.38-1.194.83-3.482 1.242-4.822-.087-3.327.41-5.81.704-8.892.111-1.16-.563-2.757-.472-3.81.129-1.488.785-1.655.766-3.036-.014-1.021-.547-1.393-.608-2.38-.018-2.697-.119-5.284-1.034-8.828-1.478-5.727-.868-21.847-1.117-29.615 1.049-1.939 1.69-3.376 2.345-6.516z" stroke="#5B5B5B" stroke-width=".724" stroke-linejoin="round"/><path d="M25.665 90.697c.091.384 1.259 18.403 1.247 18.643" stroke="#5B5B5B" stroke-width=".724"/><path d="M45.75 91.243c-.673.451-3.257 2.029-3.818 2.546-1.593-.818-3.5-3.86-4.35-4.495.491.96.198 6.768.107 8.357-.183 3.175-.895 6.207-.91 6.617 2.923.452 6.195-.164 7.49-1.105" stroke="#5B5B5B" stroke-width=".436" stroke-linejoin="round"/><path d="M13.488 127.909c1.375.7 3.01 2.149 4.424 2.6 2.272.726 6.937.577 8.506-1.003m1.392 3.558c1.377.7 1.79 1.226 3.205 1.679.786.25 2.991-.484 5.039-.756 3.862-.516 8.27-1.072 9.295-2.104m-17.014 2.645c.735.848 1.645 2.09 3.059 2.54.339.109.781-.808 1.644-.81 1.14-.002 3.618 3.186 4.683 2.244a8.655 8.655 0 0 1 1.87-1.24c1.037-.52 2.2.35 3.215.073 1.643-.449 2.004-1.229 2.657-1.502M30.98 142.44c.338.107 5.111-.741 5.973-.743 3.436-.006 1.507.791 2.61.681 1.142-.114 3.611.2 4.095.283.582.1 1.312-.204 1.82-.732m-32.213-10.311c.153-.018 1.013.315 1.113.365 1.7.87-.87 1.922 2.456 2.268 1.24.13 4.162.012 5.91 1.437 1.388 1.13 2.62-.875 3.39-1.651m-14.017 3.511c.717.394.751 1.439 2.23 1.408.651-.013 2.371.415 3.37 1.106.99.685 3.013 1.39 3.933 1.627.864.224 3.623-1.435 4.095-1.941" stroke="#5B5B5B" stroke-width=".362"/><path d="M32.667 146.611c-1.587 2.409-3.213 6.301-2.985 6.255 1.77 1.205 8.834.76 12.073-.313.675-1.26 1.08-2.436 1.585-3.006m-32.088-8.966c-1.76.837-6.282 2.94-5.872 3.005 3.284.535 2.488 3.868 2.835 3.998 1.536.162 5.634-.145 8.811-1.158 1.65-.37 3.877-.386 5.102-1.133m-16.711-1.775c-1.758.837-3.861 1.88-4.226 2.233-.382.37-.442.711-.63 1.026-.247.976.077 2.027.158 2.244 2.82 1.013 7.444.24 10.562.194 1.058-.016 3.74-.67 6.015-1.125 3.044-.609 5.622-1.086 5.342-1.38m6.982 6.131c-.241.895-.392 1.787.187 2.56 1.717.587 6.313 1.072 9.144-.095 1.34-.553 2.537-1.814 2.812-2.925m-10.773-2.676c1.127-1.251 7.213-.983 8.015 3.497" stroke="#5B5B5B" stroke-width=".724"/><path d="M31.432 33.932c1.833-1.172 3.478-1.412 3.894-1.134.657.458.792 1.771.429 3.769-.281.308-.86-.298-1.306-.626-.52-.38-1.079-.298-1.584 1.566-.171.633-.182 1.526-.305 2.916-.634-.502-1.349-4.724 1.235-5.897.433-.079.826.284 1.355.758.179-.883.352-1.728-.245-1.909-.347-.106-1.153-.091-2.333.564.245.266.274.361.392.463-.592.354-1.579.167-1.532-.47m4.621-2.555a.535.535 0 0 1 .536.56.58.58 0 0 1-.578.555.537.537 0 0 1-.536-.56.58.58 0 0 1 .578-.555" fill="#E31E24"/><path d="M.611 146.805c.772.743 1.23.869 7.763.826" stroke="#5B5B5B" stroke-width=".724"/><path d="M22.665 9.957c.8-.016 1.48.46 1.583.777-.456-.087-.413-.265-.943-.279-.176-.005 0 .482-.178.522-.14.032-.623.098-.769-.096-.06-.079-.029-.427-.14-.417-.373.035-.938.395-.984.409.05-.302.631-.899 1.431-.916m5.756-.17c-.8.01-1.369.454-1.482.793.101.062.683-.359.906-.296.12.034.025.391.091.463.183.197.689.2.956.062.111-.058-.057-.658.042-.619.42.163.828.479 1.019.412-.042-.316-.732-.826-1.532-.815" fill="#5B5B5B"/><path d="M1.026 43.99c2.25 2.897 5.182 5.486 8.168 6.684.763 3.896 1.414 6.172 2.195 9.337-.553 4.762.613 6.324 2.137 6.84l.326 3.82-1 3.193-1.048 2.036c-1.806-3.305-2.836-4.01-4.41-7.954-.469-1.173-.63-5.276-.827-6.124-1.48-3.737-4.145-7.695-4.969-10.3-.672-2.128-1.055-3.865-.572-7.531z" stroke="#5B5B5B" stroke-width=".461"/><path d="M9.539 69.523c.402.877 2.395 6.04 2.511 6.451m-1.1-7.849c.04 1.092 2.028 5.268 2.144 5.679" stroke="#5B5B5B" stroke-width=".185"/><path d="M63.888 136.112c-1.71-.345-3.068.861-3.031 2.696.036 1.833 1.453 3.6 3.162 3.945 1.71.345 3.067-.862 3.03-2.695-.036-1.834-1.451-3.6-3.161-3.946z" stroke="#5B5B5B" stroke-width=".73"/><path d="M64.853 136.695l-2.075-.675.045 4.077c.826.658 1.5.684 2.064.268l-.034-3.67z" fill="#FEFEFE"/><path d="M64.853 136.695l-2.075-.675.045 4.077c.826.658 1.5.684 2.064.268l-.034-3.67z" stroke="#5B5B5B" stroke-width=".342"/><path stroke="#5B5B5B" stroke-width="1.073" stroke-linejoin="round" d="M88.252 141.232L61.31 129.245l.047 5.804 27.04 12.656z"/><path d="M97.268 145.338c1.06.607 1.78 2.157 1.802 3.52.033 1.999-1.468 3.634-3.353 3.65-1.884.018-3.44-1.589-3.473-3.588-.013-.805.221-1.78.632-2.386.709-.326 3.69-1.06 4.392-1.196z" stroke="#5B5B5B" stroke-width=".726"/><path d="M158.397 132.478c.875.628 1.454 1.76 1.436 3.028-.027 1.89-1.372 3.367-3.004 3.297-1.632-.069-2.933-1.69-2.905-3.548a3.63 3.63 0 0 1 .73-2.16c.589-.763 3.136-1.053 3.743-.617z" stroke="#5B5B5B" stroke-width=".64"/><path d="M94.616 146.323l2.029-.46.09 4.104c-.788.643-1.455.563-2.036-.02l-.083-3.624z" fill="#FEFEFE"/><path d="M94.616 146.323l2.029-.46.09 4.104c-.788.643-1.455.563-2.036-.02l-.083-3.624z" stroke="#5B5B5B" stroke-width=".301"/><path d="M155.728 132.456l1.943-.401.176 4.122c-.758.546-1.397.515-1.954-.027l-.165-3.694z" fill="#FEFEFE"/><path d="M155.728 132.456l1.943-.401.176 4.122c-.758.546-1.397.515-1.954-.027l-.165-3.694z" stroke="#5B5B5B" stroke-width=".277"/><path d="M85.987 28.498c.627-4.705 2.178-9.742 7.457-10.483l59.547-3.017c4.79-.063 5.651 3.003 6.329 7.858l1.637 108.775-72.617 16.052-2.353-119.185z" stroke="#5B5B5B" stroke-width="1.075" stroke-linejoin="round"/><path d="M61.437 135.381l.484-111.526c.628-4.705 2.18-9.742 7.459-10.483l59.546-3.016c3.928-.052 5.213 2 5.924 5.418" stroke="#5B5B5B" stroke-width="1.075"/><path stroke="#5B5B5B" stroke-width="1.073" stroke-linejoin="round" d="M88.227 140.93l72.597-14.82.047 5.488-72.411 15.944z"/><path d="M87.749 101.607l31.708-3.62.295 36.402-32.064 6.247.06-39.03zm-.106-15.26l21.285-2.268.427 12.514L87.91 99.37l-.267-13.023z" stroke="#5B5B5B" stroke-width=".429"/><path d="M135.36 77.601l22.883-2.223.072 16.072-22.648 2.744-.307-16.593zM108.716 38.77l26.137-1.564.441 18.091-26.083 2.59-.495-19.117z" stroke="#5B5B5B" stroke-width=".428"/><path stroke="#5B5B5B" stroke-width=".429" d="M120.842 97.707l18.688-2.365.147 35.09-18.78 3.736z"/><path stroke="#5B5B5B" stroke-width=".455" d="M141.093 117.111l18.397-3.113.021 12.151-18.035 3.628z"/><path stroke="#5B5B5B" stroke-width=".366" d="M74.574 120.081l-10.931-4.538.127 15.102 10.63 4.041z"/><path stroke="#5B5B5B" stroke-width=".427" d="M87.667 101.782L76.3 98.445l-.011 36.868 11.704 6.277z"/><path stroke="#5B5B5B" stroke-width=".429" d="M87.028 86.67l-23.084-6.291-.183 12.092 23.208 6.74zm18.949-47.623l-20.01 1.184-21.472-4.306.083 4.716 22.362 4.982 19.14-1.126-.103-5.45zm-.538-17.08l-20.125 1.334-19.94-3.674-.084 6.894 19.846 4.743 20.405-1.318-.102-7.979z"/><path stroke="#5B5B5B" stroke-width=".429" stroke-linejoin="round" d="M82.783 18.547l-17.513.982 19.883 3.918 20.139-1.7z"/><path stroke="#5B5B5B" stroke-width=".269" stroke-linejoin="round" d="M156.798 20.106l-13.45.4.11 14.403 13.753-.587z"/><path d="M157.322 40.805c-.157-1.921-.696-2.863-1.543-3.048l-1.813.08c-.772.252-1.263 1.3-1.447 3.22l.111 13.678c.496.42 3.576.407 4.803-.252l-.111-13.678zm-3.349-3.162l1.842-.097c-.01-1.152-.296-1.676-1.024-1.617-.622.051-.826.639-.818 1.714zm-1.469 3.415c-.158-1.921-.696-2.863-1.543-3.049l-1.813.08c-.773.253-1.264 1.301-1.447 3.22l.111 13.679c.496.42 3.576.407 4.802-.252l-.11-13.678zm-3.35-3.161l1.843-.097c-.01-1.153-.296-1.677-1.025-1.618-.622.05-.827.639-.818 1.715z" stroke="#5B5B5B" stroke-width=".428"/><path d="M147.723 41.308c-.157-1.92-.695-2.863-1.543-3.048l-1.813.08c-.773.252-1.263 1.3-1.446 3.22l.11 13.678c.497.42 3.577.408 4.803-.252l-.111-13.678zm-3.349-3.16l1.841-.097c-.009-1.153-.296-1.677-1.022-1.618-.623.05-.828.64-.82 1.715zm-1.547 3.417c-.157-1.92-.695-2.862-1.542-3.049l-1.814.08c-.772.253-1.263 1.302-1.446 3.22l.111 13.679c.496.42 3.576.408 4.802-.252l-.111-13.678zm-3.349-3.16l1.842-.098c-.01-1.152-.296-1.677-1.023-1.617-.623.05-.827.639-.82 1.715z" stroke="#5B5B5B" stroke-width=".428"/><path d="M112.238 62.81c.134-1.268.666-1.944 1.516-2.165l1.827-.162c.782.073 1.287.697 1.495 1.924l.052 8.907c-.495.332-3.596.687-4.84.403l-.05-8.908z" stroke="#5B5B5B" stroke-width=".343"/><path d="M115.578 60.36l-1.856.155c-.004-.75.278-1.125 1.012-1.173.627-.04.84.318.844 1.019z" stroke="#5B5B5B" stroke-width=".342"/><path d="M117.092 62.405c.136-1.267.666-1.943 1.517-2.164l1.827-.161c.78.072 1.287.696 1.495 1.923l.051 8.907c-.494.332-3.595.687-4.838.403l-.052-8.908z" stroke="#5B5B5B" stroke-width=".343"/><path d="M120.433 59.957l-1.856.154c-.004-.75.278-1.125 1.01-1.173.63-.04.842.318.846 1.019z" stroke="#5B5B5B" stroke-width=".342"/><path d="M121.908 62.005c.136-1.268.667-1.944 1.517-2.165l1.828-.162c.78.073 1.286.697 1.494 1.924l.052 8.907c-.495.332-3.596.687-4.839.403l-.052-8.907z" stroke="#5B5B5B" stroke-width=".343"/><path d="M125.248 59.556l-1.855.154c-.004-.75.278-1.125 1.012-1.173.627-.04.84.318.843 1.019z" stroke="#5B5B5B" stroke-width=".342"/><path d="M126.842 61.594c.134-1.267.666-1.944 1.515-2.164l1.828-.162c.781.073 1.287.696 1.494 1.923l.052 8.908c-.495.331-3.595.686-4.838.402l-.051-8.907z" stroke="#5B5B5B" stroke-width=".343"/><path d="M130.18 59.145l-1.855.154c-.004-.75.278-1.125 1.011-1.172.628-.04.841.317.845 1.018z" stroke="#5B5B5B" stroke-width=".342"/><path d="M113.033 81.654c.134-1.269.665-1.95 1.515-2.179l1.827-.18c.782.066 1.288.685 1.494 1.91l.052 8.907c-.495.337-3.596.722-4.838.45l-.05-8.908z" stroke="#5B5B5B" stroke-width=".343"/><path d="M116.37 79.162l-1.855.173c-.004-.75.278-1.128 1.01-1.183.627-.046.841.31.845 1.01z" stroke="#5B5B5B" stroke-width=".342"/><path d="M117.886 81.203c.136-1.27.666-1.951 1.517-2.18l1.827-.179c.78.065 1.287.684 1.494 1.909l.05 8.908c-.494.337-3.594.722-4.837.45l-.051-8.908z" stroke="#5B5B5B" stroke-width=".343"/><path d="M121.224 78.71l-1.856.173c-.004-.75.278-1.128 1.012-1.183.627-.046.84.31.844 1.01z" stroke="#5B5B5B" stroke-width=".342"/><path d="M122.701 80.755c.136-1.269.667-1.95 1.517-2.18l1.827-.18c.78.067 1.287.686 1.494 1.91l.05 8.908c-.493.337-3.594.722-4.836.45l-.052-8.908z" stroke="#5B5B5B" stroke-width=".343"/><path d="M126.04 78.262l-1.856.173c-.004-.75.278-1.128 1.011-1.182.627-.047.84.31.844 1.01z" stroke="#5B5B5B" stroke-width=".342"/><path d="M127.634 80.296c.135-1.268.666-1.95 1.516-2.179l1.827-.18c.781.066 1.287.685 1.494 1.91l.051 8.908c-.495.336-3.595.722-4.838.45l-.05-8.909z" stroke="#5B5B5B" stroke-width=".343"/><path d="M130.972 77.804l-1.855.172c-.004-.75.276-1.128 1.01-1.182.627-.047.84.31.845 1.01z" stroke="#5B5B5B" stroke-width=".342"/><path d="M141.05 101.395c.115-2.176.6-3.344 1.382-3.737l1.683-.308c.72.112 1.191 1.173 1.393 3.272l.119 15.272c-.453.577-3.308 1.238-4.457.773l-.12-15.272z" stroke="#5B5B5B" stroke-width=".43"/><path d="M144.106 97.138l-1.708.297c-.01-1.287.247-1.935.922-2.028.579-.08.777.53.786 1.731z" stroke="#5B5B5B" stroke-width=".428"/><path d="M145.523 100.62c.115-2.176.598-3.344 1.38-3.738l1.683-.308c.72.112 1.193 1.173 1.394 3.272l.119 15.272c-.454.578-3.31 1.24-4.456.773l-.12-15.272z" stroke="#5B5B5B" stroke-width=".43"/><path d="M148.579 96.362l-1.71.296c-.01-1.286.247-1.933.923-2.027.578-.08.777.53.787 1.731z" stroke="#5B5B5B" stroke-width=".428"/><path d="M149.959 99.85c.114-2.176.598-3.344 1.38-3.737l1.683-.309c.72.112 1.193 1.173 1.394 3.273l.12 15.272c-.454.576-3.31 1.239-4.458.773l-.12-15.272z" stroke="#5B5B5B" stroke-width=".43"/><path d="M153.015 95.593l-1.71.296c-.01-1.286.247-1.933.923-2.027.578-.08.777.53.787 1.73z" stroke="#5B5B5B" stroke-width=".428"/><path d="M154.502 99.061c.115-2.175.599-3.344 1.381-3.736l1.683-.308c.72.11 1.192 1.173 1.394 3.272l.12 15.271c-.455.578-3.31 1.24-4.458.774l-.12-15.273z" stroke="#5B5B5B" stroke-width=".43"/><path d="M157.558 94.805l-1.709.296c-.01-1.287.246-1.934.922-2.028.579-.08.778.53.787 1.732z" stroke="#5B5B5B" stroke-width=".428"/><path d="M74.057 104.48c-.111-2.143-.502-3.36-1.118-3.867l-1.323-.567c-.562-.004-.923.957-1.06 2.975l.056 14.894c.361.636 2.605 1.732 3.5 1.459l-.055-14.894z" stroke="#5B5B5B" stroke-width=".376"/><path d="M71.622 99.84l1.343.56c-.005-1.255-.213-1.928-.743-2.126-.454-.17-.603.395-.6 1.566z" stroke="#5B5B5B" stroke-width=".374"/><path d="M70.545 103.016c-.111-2.142-.501-3.36-1.119-3.867l-1.321-.567c-.564-.004-.923.958-1.06 2.977l.055 14.894c.36.634 2.605 1.73 3.5 1.457l-.055-14.894z" stroke="#5B5B5B" stroke-width=".376"/><path d="M68.11 98.378l1.343.559c-.005-1.256-.213-1.927-.742-2.126-.454-.17-.605.395-.6 1.567z" stroke="#5B5B5B" stroke-width=".374"/><path d="M67.06 101.565c-.11-2.142-.5-3.36-1.118-3.867l-1.321-.566c-.563-.005-.923.957-1.06 2.975l.055 14.894c.361.635 2.605 1.731 3.5 1.459l-.055-14.895z" stroke="#5B5B5B" stroke-width=".376"/><path d="M64.627 96.926l1.341.56c-.004-1.255-.212-1.928-.742-2.126-.454-.17-.604.395-.6 1.566z" stroke="#5B5B5B" stroke-width=".374"/><path d="M136.013 62.872c.426-.763 1.44-1.457 2.014-2.3l-.024-1.437 1.018-.085.027 1.431c.737.904 1.718 1.39 1.998 1.99l.068 9.35c-.514.346-3.74.704-5.032.4l-.07-9.349z" stroke="#5B5B5B" stroke-width=".261"/><path d="M139.1 59.015l-1.17.094c-.008-1.075.124-1.561.586-1.593.433-.03.576.497.584 1.5z" stroke="#5B5B5B" stroke-width=".262"/><path d="M136.013 62.872c.426-.763 1.44-1.457 2.014-2.3l-.024-1.437 1.018-.085.027 1.431c.737.904 1.718 1.39 1.998 1.99l.068 9.35c-.514.346-3.74.704-5.032.4l-.07-9.349z" stroke="#5B5B5B" stroke-width=".261"/><path d="M139.1 59.015l-1.17.094c-.008-1.075.124-1.561.586-1.593.433-.03.576.497.584 1.5z" stroke="#5B5B5B" stroke-width=".262"/><path d="M141.578 62.43c.426-.764 1.441-1.458 2.014-2.3l-.024-1.437 1.02-.086.025 1.432c.738.903 1.718 1.39 1.998 1.99l.069 9.35c-.514.345-3.74.703-5.033.4l-.069-9.35z" stroke="#5B5B5B" stroke-width=".261"/><path d="M144.665 58.573l-1.17.093c-.007-1.075.124-1.56.587-1.593.432-.03.576.497.583 1.5z" stroke="#5B5B5B" stroke-width=".262"/><path d="M152.797 61.537c.426-.763 1.44-1.457 2.013-2.3l-.023-1.437 1.018-.086.027 1.432c.738.904 1.718 1.39 1.998 1.99l.068 9.35c-.514.345-3.739.703-5.032.4l-.069-9.35z" stroke="#5B5B5B" stroke-width=".261"/><path d="M155.884 57.68l-1.17.094c-.007-1.075.125-1.56.587-1.593.432-.03.576.496.583 1.5z" stroke="#5B5B5B" stroke-width=".262"/><path d="M147.188 61.983c.425-.763 1.44-1.457 2.013-2.3l-.023-1.437 1.018-.086.026 1.432c.739.904 1.718 1.39 1.998 1.991l.069 9.349c-.514.345-3.74.704-5.033.4l-.068-9.349z" stroke="#5B5B5B" stroke-width=".261"/><path d="M150.275 58.127l-1.17.093c-.008-1.075.124-1.56.586-1.593.433-.03.576.497.584 1.5z" stroke="#5B5B5B" stroke-width=".262"/><path d="M88.517 74.93c.496-.903 1.678-1.739 2.346-2.736l-.027-1.675 1.186-.129.031 1.669c.86 1.033 2.003 1.572 2.329 2.264l.08 10.893c-.6.417-4.358.924-5.866.606l-.08-10.893zm3.579-4.585l-1.363.141c-.01-1.252.144-1.822.683-1.872.504-.048.672.562.68 1.731zm9.494 3.234c.496-.902 1.679-1.739 2.347-2.737l-.028-1.674 1.187-.128.03 1.667c.86 1.034 2.003 1.573 2.33 2.265l.078 10.893c-.598.417-4.357.924-5.864.606l-.08-10.892zm3.578-4.585l-1.363.14c-.01-1.252.145-1.82.684-1.872.503-.047.67.564.679 1.732zm-10.114 5.26c.495-.901 1.678-1.739 2.346-2.736l-.028-1.675 1.187-.128.031 1.669c.86 1.032 2.002 1.571 2.329 2.264l.08 10.893c-.6.416-4.358.924-5.866.606l-.08-10.893zm3.578-4.584l-1.363.14c-.01-1.252.145-1.822.684-1.872.503-.047.67.562.679 1.732z" stroke="#5B5B5B" stroke-width=".523"/><path d="M85.296 75.09c-.404-.964-1.363-1.948-1.905-3.03l.017-1.67-.96-.277-.019 1.665c-.69.926-1.61 1.324-1.872 1.976l-.026 10.885c.486.491 3.523 1.467 4.74 1.336l.025-10.885z" stroke="#5B5B5B" stroke-width=".516"/><path d="M82.378 70.056l1.102.311c.003-1.251-.124-1.84-.559-1.958-.407-.11-.54.48-.543 1.647z" stroke="#5B5B5B" stroke-width=".52"/><path d="M80.014 73.6c-.404-.963-1.362-1.948-1.904-3.028l.016-1.672-.96-.276-.018 1.665c-.691.927-1.611 1.324-1.873 1.975L75.25 83.15c.485.492 3.522 1.466 4.738 1.336l.026-10.886z" stroke="#5B5B5B" stroke-width=".516"/><path d="M77.097 68.568l1.101.31c.003-1.252-.122-1.84-.558-1.958-.406-.11-.54.48-.543 1.648z" stroke="#5B5B5B" stroke-width=".52"/><path d="M74.41 72.048c-.404-.963-1.362-1.948-1.905-3.029l.017-1.672-.959-.275-.019 1.664c-.692.927-1.612 1.324-1.873 1.976l-.026 10.885c.486.491 3.523 1.467 4.739 1.336l.026-10.885z" stroke="#5B5B5B" stroke-width=".516"/><path d="M71.493 67.016l1.102.31c.002-1.252-.124-1.841-.56-1.958-.406-.11-.539.48-.542 1.648z" stroke="#5B5B5B" stroke-width=".52"/><path d="M69.128 70.558c-.404-.963-1.361-1.947-1.905-3.028l.017-1.671-.959-.278-.018 1.666c-.692.926-1.612 1.323-1.873 1.975l-.026 10.886c.485.492 3.523 1.467 4.739 1.336l.025-10.886z" stroke="#5B5B5B" stroke-width=".516"/><path d="M66.212 65.526l1.101.31c.004-1.25-.123-1.84-.559-1.958-.406-.109-.54.48-.542 1.648z" stroke="#5B5B5B" stroke-width=".52"/><path d="M64.886 30.846c.372-.316 1.255-.464 1.756-.788l-.018-.773.885.176.02.77c.64.646 1.49 1.12 1.732 1.502l.04 5.008c-.447.072-3.252-.441-4.375-.886l-.04-5.01zm2.684-1.38l-1.017-.206c-.005-.576.11-.806.512-.722.376.077.5.391.505.928z" stroke="#5B5B5B" stroke-width=".278"/><path d="M64.886 30.846c.372-.316 1.255-.464 1.756-.788l-.018-.773.885.176.02.77c.64.646 1.49 1.12 1.732 1.502l.04 5.008c-.447.072-3.252-.441-4.375-.886l-.04-5.01zm2.684-1.38l-1.017-.206c-.005-.576.11-.806.512-.722.376.077.5.391.505.928zm2.155 2.361c.371-.315 1.255-.464 1.755-.788l-.018-.774.886.177.02.77c.64.646 1.49 1.12 1.732 1.502l.04 5.008c-.447.072-3.252-.442-4.375-.886l-.04-5.01zm2.683-1.38l-1.017-.206c-.005-.576.11-.806.513-.722.375.078.5.39.504.928zm7.07 3.357c.372-.314 1.256-.463 1.756-.788l-.018-.773.885.176.021.771c.639.645 1.49 1.119 1.732 1.501l.04 5.008c-.447.073-3.252-.442-4.376-.886l-.04-5.01zm2.684-1.378l-1.017-.207c-.005-.575.111-.806.514-.722.375.078.499.391.503.929zm-7.561.389c.372-.315 1.256-.463 1.756-.788l-.018-.773.886.177.02.771c.64.644 1.49 1.118 1.732 1.5l.04 5.009c-.447.072-3.252-.442-4.375-.887l-.04-5.01zm2.684-1.378l-1.017-.207c-.004-.576.111-.806.513-.722.375.078.5.39.504.929z" stroke="#5B5B5B" stroke-width=".278"/><path d="M87.967 35.04c.456-.402 1.546-.776 2.161-1.221l-.023-.751 1.092-.056.027.748c.79.465 1.84.71 2.139 1.02l.06 4.886c-.551.186-4.01.406-5.397.26l-.06-4.885z" stroke="#5B5B5B" stroke-width=".276"/><path d="M91.267 32.994l-1.254.06c-.007-.56.135-.816.63-.838.465-.02.618.254.624.778z" stroke="#5B5B5B" stroke-width=".278"/><path d="M87.967 35.04c.456-.402 1.546-.776 2.161-1.221l-.023-.751 1.092-.056.027.748c.79.465 1.84.71 2.139 1.02l.06 4.886c-.551.186-4.01.406-5.397.26l-.06-4.885z" stroke="#5B5B5B" stroke-width=".276"/><path d="M91.267 32.994l-1.254.06c-.007-.56.135-.816.63-.838.465-.02.618.254.624.778z" stroke="#5B5B5B" stroke-width=".278"/><path d="M93.934 34.753c.458-.404 1.546-.777 2.163-1.223l-.024-.75 1.092-.055.026.748c.79.465 1.84.71 2.14 1.02l.06 4.885c-.552.186-4.01.406-5.396.26l-.061-4.885z" stroke="#5B5B5B" stroke-width=".276"/><path d="M97.235 32.707l-1.254.06c-.007-.56.135-.817.631-.838.463-.02.617.254.623.778z" stroke="#5B5B5B" stroke-width=".278"/><path d="M99.95 34.463c.456-.404 1.546-.777 2.162-1.222l-.024-.752 1.093-.054.026.748c.79.465 1.84.71 2.139 1.02l.06 4.886c-.551.185-4.01.405-5.396.26l-.06-4.886z" stroke="#5B5B5B" stroke-width=".276"/><path d="M103.25 32.418l-1.254.06c-.007-.562.135-.817.631-.839.463-.02.617.255.623.779z" stroke="#5B5B5B" stroke-width=".278"/><path fill="#5B5B5B" d="M91.919 135.239l-.059-6.264-1.104.203.059 6.264 1.104-.203m3.547-.539c1.135-.209 1.789-1.092 2.147-1.938l-.954-.38c-.213.547-.676 1.037-1.204 1.134-.949.175-1.642-.573-1.653-1.756-.011-1.184.665-2.183 1.614-2.357.528-.098.999.22 1.221.688l.944-.739c-.373-.721-1.041-1.341-2.176-1.133-1.563.288-2.756 1.815-2.738 3.75.018 1.925 1.236 3.018 2.799 2.731m6.492-1.307l-.011-1.174-2.566.472-.014-1.428 2.512-.462-.011-1.174-2.512.462-.012-1.315 2.566-.472-.011-1.173-3.671.675.059 6.264 3.671-.675m5.171-.952l-.048-5.09 1.508-.278-.011-1.173-4.136.761.011 1.173 1.516-.278.048 5.09 1.112-.205m5.886-1.082l-.011-1.174-2.566.472-.013-1.428 2.511-.462-.011-1.173-2.512.462-.012-1.316 2.566-.472-.011-1.173-3.67.675.059 6.264 3.67-.675m5.7-1.049l-2.058-5.896-1.384.254-1.939 6.632 1.252-.23.316-1.121 2.224-.409.337 1.001 1.252-.231zm-1.903-1.889l-1.618.298.784-2.844.834 2.546zm-5.273-76.841l-.067-8.762 2.206-.132c.449-.027.81.039 1.084.2.272.161.486.422.642.782.158.357.237.738.24 1.142.003.373-.062.73-.196 1.069a1.984 1.984 0 0 1-.609.838c.357.134.633.383.826.747.194.361.293.798.297 1.308.004.412-.052.797-.166 1.156-.114.361-.255.64-.425.842-.17.2-.383.358-.64.471a2.75 2.75 0 0 1-.949.204l-2.243.135zm.742-5.125l1.271-.077c.345-.02.592-.07.741-.146a.959.959 0 0 0 .444-.466 1.79 1.79 0 0 0 .145-.775 1.888 1.888 0 0 0-.147-.761c-.095-.217-.23-.361-.405-.433-.174-.071-.473-.093-.894-.068l-1.176.07.021 2.656zm.031 4.05l1.464-.088c.252-.015.428-.04.531-.075.177-.057.327-.146.447-.265.119-.12.217-.289.293-.507.076-.219.113-.468.111-.748a1.933 1.933 0 0 0-.177-.844c-.114-.236-.271-.396-.472-.482-.199-.086-.487-.117-.86-.095l-1.361.082.024 3.022zm4.753.743l-.067-8.762 4.246-.255.008 1.028-3.466.208.021 2.693 3.243-.195.008 1.027-3.243.195.022 2.986 3.605-.216.008 1.027-4.385.264m5.477-.329l-.067-8.762 4.245-.255.008 1.028-3.465.208.021 2.692 3.243-.195.008 1.028-3.243.195.022 2.986 3.605-.217.008 1.028-4.385.264m5.477-.329l-.067-8.762 2.606-.157c.524-.031.923.025 1.196.165.274.141.493.405.66.793.165.388.25.824.253 1.305.005.622-.126 1.154-.393 1.597-.266.442-.68.737-1.243.887.208.134.365.272.473.408.229.296.447.673.652 1.128l1.035 2.325-.972.058-.791-1.776c-.23-.515-.42-.905-.569-1.176-.15-.27-.283-.456-.4-.562a.988.988 0 0 0-.357-.211 1.63 1.63 0 0 0-.432-.015l-.901.054.03 3.892-.78.047zm.743-4.942l1.669-.1c.356-.021.632-.093.831-.215.199-.12.35-.305.451-.554a2 2 0 0 0 .149-.794c-.003-.414-.105-.751-.309-1.006-.203-.255-.521-.369-.955-.343l-1.858.112.022 2.9zm-61.121 5.551l.507.121-.007-.891.953-.123.01 1.241.897.213.008 1.042-.897-.213.015 1.818c.002.329.03.57.082.724.053.154.15.249.292.282a.737.737 0 0 0 .254.023c.071-.009.15-.028.238-.057l.177.987a1.644 1.644 0 0 1-.462.098 1.688 1.688 0 0 1-.536-.042c-.338-.08-.588-.252-.749-.514-.161-.261-.243-.648-.247-1.16l-.019-2.387-.508-.12-.008-1.042m2.928.97c.195-.067.427-.101.696-.104.269-.002.55.032.845.102.254.06.468.151.64.27.172.12.309.264.411.434.101.169.174.359.217.571.043.212.066.444.068.697.002.278-.003.556-.015.833a17.57 17.57 0 0 0-.019.823c-.001.271.007.536.024.795s.056.509.116.751l-.779-.186-.159-.69-.037-.009c-.097.173-.231.31-.404.41-.173.101-.397.118-.671.053a1.304 1.304 0 0 1-.464-.209 1.447 1.447 0 0 1-.355-.368 1.826 1.826 0 0 1-.231-.49 2.022 2.022 0 0 1-.086-.583c-.002-.29.046-.523.145-.698a.859.859 0 0 1 .43-.38c.187-.078.412-.11.674-.095.262.015.554.071.878.166.032-.345.01-.604-.065-.776-.075-.172-.239-.289-.494-.349a2.58 2.58 0 0 0-.606-.069c-.213 0-.387.025-.524.074l-.235-.973zm1.241 3.812c.191.046.342.026.454-.057a.782.782 0 0 0 .248-.296l-.006-.616a2.22 2.22 0 0 0-.437-.113 1.15 1.15 0 0 0-.37-.003.438.438 0 0 0-.256.128c-.063.067-.095.164-.093.29a.765.765 0 0 0 .124.441.553.553 0 0 0 .336.226zm3.974.576a.497.497 0 0 0-.128-.333 2.01 2.01 0 0 0-.31-.282 11.497 11.497 0 0 0-.406-.29 2.05 2.05 0 0 1-.719-.889 1.907 1.907 0 0 1-.13-.726c-.004-.468.101-.799.315-.994.213-.195.524-.244.93-.147.28.066.532.164.758.294.226.129.404.256.532.381l-.206.84a5.516 5.516 0 0 0-.428-.282 1.83 1.83 0 0 0-.523-.218c-.284-.068-.425.04-.423.324a.438.438 0 0 0 .127.305c.084.089.188.178.311.267l.406.291c.147.104.283.226.406.366.123.139.227.308.312.504.085.197.128.434.131.712.004.48-.112.829-.348 1.047-.235.218-.591.271-1.066.158a2.512 2.512 0 0 1-.733-.302 2.83 2.83 0 0 1-.557-.43l.257-.856c.114.109.264.225.451.348.187.123.378.208.574.255.142.033.256.026.341-.023.085-.049.127-.156.126-.32m1.171-3.144l.507.121-.007-.891.953-.123.01 1.241.896.213.009 1.042-.897-.213.014 1.818c.003.329.031.57.083.724.053.155.15.249.292.282a.737.737 0 0 0 .254.023c.07-.008.15-.027.238-.057l.176.987a1.629 1.629 0 0 1-.461.098 1.66 1.66 0 0 1-.536-.042c-.338-.08-.588-.251-.749-.513-.161-.262-.243-.649-.248-1.161l-.019-2.387-.507-.12-.008-1.042"/><path d="M81.092 57.053l.139.771.044.01.089-.725.538-2.519.985.234-1.083 4.006c-.091.331-.177.633-.261.907a3.847 3.847 0 0 1-.277.695c-.101.19-.214.329-.338.416a.525.525 0 0 1-.443.069 1.31 1.31 0 0 1-.612-.306l.169-.943a.584.584 0 0 0 .221.109c.113.027.221-.009.326-.106.104-.099.182-.302.233-.612l-1.574-5.1 1.147.272.697 2.822m58.57 29.974a.902.902 0 0 1-.339.206c-.138.049-.28.082-.425.098a1.212 1.212 0 0 1-.501-.046.928.928 0 0 1-.419-.28 1.5 1.5 0 0 1-.292-.551 2.981 2.981 0 0 1-.114-.858 2.943 2.943 0 0 1 .113-.903c.077-.248.179-.452.305-.612a1.287 1.287 0 0 1 .89-.509 1.85 1.85 0 0 1 .425-.005c.116.015.212.037.288.067l-.108.611a.67.67 0 0 0-.229-.058 1.725 1.725 0 0 0-.321.01c-.231.025-.417.147-.556.366-.139.219-.207.542-.204.97.002.185.02.354.055.503.034.15.086.275.156.377.069.1.155.176.257.225a.653.653 0 0 0 .355.052.932.932 0 0 0 .542-.225l.122.562m.186-1.68c-.005-.603.099-1.078.311-1.427.213-.348.518-.545.918-.588.209-.023.392.001.549.074a.944.944 0 0 1 .392.339c.105.154.183.343.235.568.053.225.08.479.082.761.005.602-.099 1.077-.313 1.426a1.178 1.178 0 0 1-.915.589 1.042 1.042 0 0 1-.554-.074.94.94 0 0 1-.39-.339 1.71 1.71 0 0 1-.233-.569 3.554 3.554 0 0 1-.082-.76zm.603-.067c.002.183.016.349.042.499.026.151.066.278.118.383.053.104.12.183.201.236a.432.432 0 0 0 .29.061c.204-.022.361-.138.471-.346.11-.208.163-.533.159-.973a3.038 3.038 0 0 0-.039-.486 1.49 1.49 0 0 0-.114-.386.606.606 0 0 0-.199-.244.432.432 0 0 0-.298-.063c-.204.023-.361.141-.471.354-.11.213-.163.535-.16.965zm2.276-.249c-.005-.602.099-1.077.311-1.426s.518-.545.917-.589c.209-.023.392.002.549.074a.955.955 0 0 1 .393.34c.105.153.183.343.235.568.052.225.079.478.082.76.004.602-.1 1.078-.313 1.427a1.177 1.177 0 0 1-.915.588 1.043 1.043 0 0 1-.554-.073.942.942 0 0 1-.39-.34 1.704 1.704 0 0 1-.234-.568 3.503 3.503 0 0 1-.081-.761zm.603-.066c.001.182.015.349.042.499.026.15.065.278.118.382.052.105.12.183.201.236a.43.43 0 0 0 .29.062c.203-.023.36-.138.47-.346.11-.209.163-.533.16-.974a3.164 3.164 0 0 0-.04-.486 1.471 1.471 0 0 0-.114-.385.591.591 0 0 0-.199-.244.43.43 0 0 0-.298-.063c-.204.022-.361.14-.47.354-.11.213-.164.535-.16.965zm4.366 1.181a.906.906 0 0 1-.34.206c-.138.05-.279.082-.425.098-.175.02-.342.004-.5-.046a.916.916 0 0 1-.42-.279 1.496 1.496 0 0 1-.291-.552 2.9 2.9 0 0 1-.114-.857 2.956 2.956 0 0 1 .112-.904c.077-.248.179-.452.305-.612a1.316 1.316 0 0 1 .89-.508c.168-.018.31-.02.426-.005.115.015.212.037.287.066l-.108.612a.621.621 0 0 0-.229-.058 1.622 1.622 0 0 0-.32.009c-.232.025-.417.148-.557.367-.139.218-.207.541-.203.969.001.186.019.354.054.503.035.151.087.276.156.377a.653.653 0 0 0 .257.226.644.644 0 0 0 .355.051.943.943 0 0 0 .543-.225l.122.562m1.142-1.521l-.15.016.012 1.543-.573.063-.03-3.612.574-.063.013 1.6.133-.087.795-1.616.654-.072-.842 1.611-.225.221.237.175.989 1.591-.708.078-.879-1.448m1.987-2.289l.574-.063.029 3.612-.573.063-.03-3.612m1.209-.133l1.737-.19.005.629-1.164.128.007.841 1.059-.116.005.63-1.059.116.007.882 1.185-.13.005.63-1.758.193-.029-3.613m3.544 2.256a.337.337 0 0 0-.1-.257.924.924 0 0 0-.249-.162 7.82 7.82 0 0 0-.324-.14 1.345 1.345 0 0 1-.324-.187.924.924 0 0 1-.249-.3 1.052 1.052 0 0 1-.103-.49c-.001-.175.021-.33.068-.464a.93.93 0 0 1 .511-.57c.119-.055.253-.09.401-.106.17-.019.331-.018.482.001.151.02.275.059.373.117l-.175.613a.82.82 0 0 0-.277-.101 1.244 1.244 0 0 0-.398-.016.488.488 0 0 0-.307.132.376.376 0 0 0-.105.275.327.327 0 0 0 .101.247c.066.061.149.116.248.164.1.047.208.096.324.145.117.049.225.112.324.189a.94.94 0 0 1 .25.298.986.986 0 0 1 .102.472 1.5 1.5 0 0 1-.073.506.994.994 0 0 1-.552.616 1.449 1.449 0 0 1-.437.115c-.21.023-.394.019-.553-.012a1.347 1.347 0 0 1-.353-.105l.179-.625a.875.875 0 0 0 .12.055 1.327 1.327 0 0 0 .572.076.685.685 0 0 0 .391-.148.426.426 0 0 0 .133-.338" fill="#5B5B5B"/><path d="M103.037 109.944c10.053-4.478 13.803 11.954 1.052 12.837-13.189 2.833-10.437-14.57-1.052-12.837z" stroke="#5B5B5B" stroke-width=".694"/><path fill="#FEFEFE" d="M102.62 107.955l.523-.097.173 1.915-.24.192-.282-.094z"/><path stroke="#5B5B5B" stroke-width=".695" d="M102.62 107.955l.523-.097.173 1.915-.24.192-.282-.094z"/><path d="M111.447 102.243c-.133 3.312-1.505 6.658-7.774 6.057.289-4.847 3.896-5.822 7.774-6.057zm-9.41 6.37c-3.161 1.534-6.696 2.092-8.06-3.837 7.05-1.169 7.927.375 8.06 3.837z" stroke="#5B5B5B" stroke-width=".694"/><path d="M103.9 122.757c.165.017.983-.08 1.478 0 .014.098-.533.153-.624.32-.084.153.03.503-.161.57-.18.063-.39-.334-.638-.287-.277.052-.62.456-.796.467-.116.007.164-.478.101-.561-.103-.138-.63.007-.639-.12.107-.22.794-.125 1.28-.39z" fill="#2B2A29"/><path d="M103.9 122.757c.165.017.983-.08 1.478 0 .014.098-.533.153-.624.32-.084.153.03.503-.161.57-.18.063-.39-.334-.638-.287-.277.052-.62.456-.796.467-.116.007.164-.478.101-.561-.103-.138-.63.007-.639-.12.107-.22.794-.125 1.28-.39z" stroke="#5B5B5B" stroke-width=".694"/><path fill="#5B5B5B" d="M143.176 15.359h-.85l.923 114.016h.85l-.923-114.016m-18.142.848h-.849l.955 117.936h.849l-.955-117.936"/><path fill="#5B5B5B" d="M160.349 50.541l-.006-.783-73.303 5.537.006.783 73.303-5.537m.353 48.715l-.006-.783-73.242 11.058.006.783 73.242-11.058"/><path fill="#5B5B5B" d="M104.222 17.133h-.85l.977 120.689h.85l-.977-120.689"/><path d="M64.728 43.391l21.848 5.37 19.999-1.089.459 17.928-19.732 1.579-22.725-6.053.151-17.735zm46.738 28.615l21.041-1.737.026 4.779-21 2.047-.067-5.089zm.787 18.848l21.038-1.943.027 4.779-20.997 2.253-.068-5.089zm23.087-18.24l23.164-2.091.124 3.02-23.25 1.954-.038-2.883z" stroke="#5B5B5B" stroke-width=".283"/><path d="M108.85 21.194c.5-.14 1.003-.152 1.506-.115 1.94.271.844 2.903.74 3.64.72 2.118.916 5.543.664 7.591-.405.312-2.988.589-4.015.282-.664-2.066-.443-5.715.316-7.712-.011-.766-1.414-3.069.79-3.686z" stroke="#5B5B5B" stroke-width=".395"/><path d="M110.35 20.954a4.447 4.447 0 0 0-1.53.108c-.01-.734.22-1.095.824-1.124.518-.024.697.331.706 1.016z" stroke="#5B5B5B" stroke-width=".397"/><path d="M114.511 20.874c.5-.141 1.002-.153 1.505-.116 1.94.27.845 2.903.74 3.639.722 2.118.917 5.544.665 7.591-.406.313-2.988.59-4.016.283-.663-2.066-.442-5.715.316-7.712-.01-.766-1.413-3.068.79-3.685z" stroke="#5B5B5B" stroke-width=".395"/><path d="M116.011 20.633a4.453 4.453 0 0 0-1.53.107c-.01-.734.22-1.094.825-1.123.517-.025.695.33.705 1.016z" stroke="#5B5B5B" stroke-width=".397"/><path d="M120.172 20.551c.5-.14 1.003-.152 1.506-.115 1.939.27.843 2.903.74 3.64.721 2.118.916 5.543.664 7.59-.405.314-2.988.59-4.016.283-.664-2.065-.442-5.714.316-7.712-.01-.766-1.413-3.068.79-3.686z" stroke="#5B5B5B" stroke-width=".395"/><path d="M121.671 20.311a4.446 4.446 0 0 0-1.528.108c-.01-.734.22-1.095.823-1.123.518-.025.697.33.705 1.015z" stroke="#5B5B5B" stroke-width=".397"/><path d="M125.833 20.23c.5-.14 1.002-.153 1.504-.115 1.941.27.846 2.903.741 3.64.721 2.117.917 5.543.665 7.59-.405.313-2.988.59-4.015.283-.665-2.066-.444-5.715.315-7.713-.01-.766-1.413-3.068.79-3.685z" stroke="#5B5B5B" stroke-width=".395"/><path d="M127.333 19.99a4.423 4.423 0 0 0-1.53.107c-.009-.734.22-1.093.825-1.123.517-.025.696.33.705 1.017z" stroke="#5B5B5B" stroke-width=".397"/><path d="M131.493 19.909c.5-.141 1.003-.153 1.506-.116 1.94.27.845 2.903.74 3.64.722 2.117.917 5.542.664 7.59-.404.313-2.987.59-4.015.283-.664-2.066-.443-5.714.315-7.712-.01-.766-1.412-3.069.79-3.685z" stroke="#5B5B5B" stroke-width=".395"/><path d="M132.994 19.669a4.447 4.447 0 0 0-1.529.107c-.01-.734.22-1.094.824-1.123.517-.025.696.33.705 1.016z" stroke="#5B5B5B" stroke-width=".397"/><path d="M137.154 19.587c.5-.14 1.003-.152 1.506-.115 1.94.27.844 2.903.74 3.64.722 2.117.916 5.543.665 7.59-.406.313-2.99.59-4.016.283-.664-2.065-.443-5.715.315-7.713-.01-.765-1.412-3.067.79-3.685z" stroke="#5B5B5B" stroke-width=".395"/><path d="M138.656 19.348a4.43 4.43 0 0 0-1.53.107c-.01-.734.22-1.094.825-1.123.517-.026.695.33.705 1.016z" stroke="#5B5B5B" stroke-width=".397"/><path stroke="#5B5B5B" stroke-width=".567" d="M107.232 32.887l33.952-2.044.06 3.987-33.952 2.043z"/><path d="M97.649 16.082c.271-.08.541-.124.807-.142a5.69 5.69 0 0 1 .794.01l.015.002c1.512.224 1.425 1.695 1.172 2.889-.052.246-.114.49-.167.702l-.007.024-.432.026.038-.149c.051-.201.11-.432.163-.685.213-1.004.306-2.236-.824-2.406a5.104 5.104 0 0 0-.721-.008 3.283 3.283 0 0 0-.718.124c-1.527.452-1.133 1.916-.865 2.914.037.135.072.262.099.379l-.42.026-.078-.303c-.31-1.151-.765-2.839 1.144-3.403" fill="#5B5B5B"/><path d="M99.226 16.028a4.26 4.26 0 0 0-1.549.116c-.001-.788.235-1.174.848-1.205.523-.026.7.355.701 1.09z" stroke="#5B5B5B" stroke-width=".413"/><path d="M103.382 15.739c.271-.08.541-.124.808-.142.263-.017.528-.01.793.011l.015.001c1.511.224 1.425 1.695 1.172 2.889-.052.247-.114.489-.168.701l-.006.025-.433.026.038-.15c.052-.201.111-.432.164-.685.213-1.003.306-2.234-.825-2.404a5.088 5.088 0 0 0-.72-.01 3.335 3.335 0 0 0-.718.125c-1.527.451-1.134 1.915-.865 2.914.037.135.071.262.099.379l-.419.025-.08-.302c-.31-1.152-.764-2.839 1.145-3.403" fill="#5B5B5B"/><path d="M104.959 15.686a4.255 4.255 0 0 0-1.549.115c-.001-.788.235-1.173.848-1.204.523-.027.7.354.7 1.089z" stroke="#5B5B5B" stroke-width=".413"/><path d="M109.114 15.396c.272-.08.542-.124.808-.142.263-.017.529-.01.794.011l.014.001c1.513.224 1.426 1.695 1.173 2.889-.052.246-.114.489-.168.7l.001.001-.007.025-.433.026.038-.151h.001c.051-.202.11-.432.163-.684.213-1.002.306-2.235-.825-2.405a5.254 5.254 0 0 0-.721-.009c-.24.017-.48.055-.716.125-1.528.452-1.134 1.916-.866 2.914.036.135.071.261.099.379l-.419.025-.08-.302c-.309-1.151-.764-2.839 1.144-3.403" fill="#5B5B5B"/><path d="M110.692 15.343a4.276 4.276 0 0 0-1.549.114c0-.787.235-1.172.847-1.203.524-.027.7.354.702 1.089z" stroke="#5B5B5B" stroke-width=".413"/><path d="M114.847 15.052c.272-.079.542-.123.808-.142.263-.017.529-.01.794.011l.015.001c1.513.224 1.425 1.695 1.172 2.89-.052.246-.114.489-.168.7l-.006.026-.433.026.039-.151c.051-.201.11-.432.163-.684.212-1.003.306-2.236-.825-2.406a5.253 5.253 0 0 0-.721-.008 3.2 3.2 0 0 0-.716.125c-1.529.452-1.135 1.916-.866 2.914.036.134.071.261.099.379l-.419.025-.08-.302c-.309-1.151-.764-2.839 1.144-3.404" fill="#5B5B5B"/><path d="M116.425 15a4.26 4.26 0 0 0-1.55.115c0-.787.236-1.174.848-1.205.523-.026.7.355.702 1.09z" stroke="#5B5B5B" stroke-width=".413"/><path d="M120.58 14.709a3.81 3.81 0 0 1 .808-.142c.263-.017.529-.01.794.011l.014.001c1.513.224 1.426 1.695 1.173 2.89-.052.246-.114.489-.168.701l-.006.025-.432.026.038-.15c.05-.201.109-.432.164-.685.211-1.004.305-2.235-.826-2.406a5.1 5.1 0 0 0-.721-.008 3.256 3.256 0 0 0-.716.124c-1.529.452-1.134 1.917-.866 2.915.036.134.071.261.099.379l-.42.025-.079-.302c-.31-1.152-.764-2.839 1.144-3.404" fill="#5B5B5B"/><path d="M122.158 14.657a4.26 4.26 0 0 0-1.55.115c0-.788.236-1.173.849-1.204.523-.027.7.354.701 1.089z" stroke="#5B5B5B" stroke-width=".413"/><path d="M126.313 14.366c.272-.08.542-.124.808-.142.263-.017.529-.01.794.011l.014.001c1.513.224 1.426 1.695 1.173 2.889-.052.246-.115.49-.168.702l-.006.025-.432.025.038-.149c.051-.201.109-.432.163-.685.212-1.004.305-2.236-.825-2.406a5.1 5.1 0 0 0-.721-.008 3.264 3.264 0 0 0-.717.124c-1.528.452-1.134 1.916-.865 2.914.036.135.071.262.099.38l-.42.025-.079-.303c-.31-1.151-.764-2.839 1.144-3.403" fill="#5B5B5B"/><path d="M127.89 14.314a4.276 4.276 0 0 0-1.548.114c-.001-.787.235-1.172.847-1.203.524-.027.7.354.702 1.089z" stroke="#5B5B5B" stroke-width=".413"/><path stroke="#5B5B5B" stroke-width=".283" stroke-linejoin="round" d="M139.22 18.687l11.373-.249 6.22 1.704-13.092.406z"/></g></svg>