<svg width="155" height="158" viewBox="0 0 155 158" xmlns="http://www.w3.org/2000/svg"><title>Group 2</title><g fill="none" fill-rule="evenodd"><path d="M79.314 46.901l1.604-4.33 3.66 2.907c5.61-.191 11.267-.38 16.698-.572l-.84 11.574c-6.346 0-13.261.282-20.071.063-.57-.017-.25-2.074-.832-2.074-2.096 0-5.541-.658-7.661-.658.083-2.522 1.972-5.66 7.442-6.91" fill="#FEFEFE"/><path fill="#FEFEFE" d="M88.12 45.522l5.92-.161.273 10.851-6.329-.01.136-10.68"/><path d="M119.294 69.385c1.051.178 2.288.447 3.262.57l-.476 2.902-3.243-.726.457-2.746zm.385.594c.707.12 1.538.363 2.194.444l-.251 1.686-2.232-.394.289-1.736z" fill="#5B5B5B"/><path d="M132.847 18.914c-1.034 1.608-1.343 2.417-2.33 2.809-2.08.827-6.038.772-7.473-.931-.382-.454-2.066-3.479-2.374-4.166m-1.134-4.86c-.4-2.624-.147-4.446-.13-4.638.134-1.609.592-2.883 1.438-3.924 1.576-1.939 4.193-2.559 6.98-2.491 2.504.059 5.142.806 6.686 3 1.213 1.772 1.295 4.154 1.276 7.55m-1.263.55c.052-.03.722-.396 1.051-.52 1.96-.74.89 2.905.39 3.964-.416.881-.488 2.162-1.652 1.164m.099.286c-.522.88-.31 3.687-.243 6.383-1.414.856-6.81 3.852-8.288 3.753-.613-.443-2.486-1.29-3.516-2.628.078-1.307.219-3.145.095-4.287m-2.723-7.89c-.694-.254-1.253-.218-1.336.24-.155.838.68 2.614.972 3.275.394.892.166 2.037 1.28.984" stroke="#5B5B5B" stroke-width=".495"/><path d="M134.802 12.743c1.088-.782 1.079.797.474 1.435-.135.5-.02 1.764-.53 1.222" stroke="#5B5B5B" stroke-width=".286"/><path d="M120.82 16.932c-.66-1.322-1.13-4.176-1.04-4.932.284-2.354.454-3.524.577-4.29.723-4.507 3.143-4.99 7.508-4.93 4.78.066 5.658 1.224 6.501 5.484.313 1.58.46 2.627.259 3.512" stroke="#5B5B5B" stroke-width=".495" stroke-linejoin="round"/><path d="M121.728 11.044c.276-.225 1.503-1.397 2.38-1.658 1.152-.343 1.776.12 2.025.553.265.562-.506 2.34-.551 3.84m6.516-2.63c-.452-.5-.775-1.372-1.637-1.853-.445-.248-1.86-.164-2.882.736" stroke="#5B5B5B" stroke-width=".495"/><path d="M124.25 14.952c.369.297.895.108 1.13.278.687.501 1.137.692 2.032.05.665-.476 1.263.002 1.75-.577" stroke="#5B5B5B" stroke-width=".333" stroke-linejoin="round"/><path d="M124.13 10.393c.383-.08 1.058.048 1.205.177.193.169.105.591.054.901-.022.008-.09-.367-.206-.55a.305.305 0 0 0-.318-.152c-.067.011-.02.703-.113.728-.448.124-1.109.121-1.126-.019-.07-.087.09-.565-.034-.55-.42.047-1.014.723-1.066.74.049-.343.716-1.085 1.605-1.275m5.551.019c-.362-.063-1.076.098-1.26.235-.242.18-.27.6-.303.91.02.007.19-.374.359-.564.16-.181.318-.174.362-.168.063.008-.174.706-.088.727.417.103 1.083.068 1.139-.073.094-.092.066-.564.186-.556.41.027.822.68.868.695.047-.342-.42-1.06-1.263-1.206m.106 6.948c-1.05.937-1.84 1.121-2.738 1.084-.917-.04-1.965-.403-3.073-1.317 1.711.21 4.065.331 5.81.233" fill="#5B5B5B"/><path d="M130.645 16.796c-.24.114-.558.438-.88.594-1.544.621-4.446.034-5.67-.196-.307-.188-.405-.436-.542-.525 1.539.107 6.922.102 7.092.127" fill="#5B5B5B"/><path d="M138.158 75.727c.267.106 6.648 5.676 7.838 5.914 2.512-5.922 8.429-20.987 7.891-23.342-.473-13.598-4.286-27.47-4.516-28.794-2.884-2.14-12.258-3.202-15.431-6.457" stroke="#5B5B5B" stroke-width=".823"/><path d="M112.641 86.286c-3.024-.432-6.487-1.743-6.833-2.697 2.799-11.586 3.473-21.92 5.805-34.38-.557.584-1.777 1.797-7.205 5.6-7.868.887-22.246.4-23.228.293-.252-2.009 1.33-6.124 2.79-8.487 4.173-.206 14.641-.122 18.083-1.019 5.895-6.576 10.501-14.595 12.133-17.671 2.927-1.404 5.616-1.274 8.094-3.96M109.982 86.37c-.305 2.192-1.526 13.37-1.829 28.877-.017.877 2.237 12.518 3.199 21.75.164 1.586.295 3.1.375 4.476.203 3.485.95 6.026 1.127 6.66 7.177 3.072 12.585 1.504 13.447 1.316.8-3.322-1.004-3.84-.684-7.02.215-2.16-1.567-6.641-2.017-8.418-1.65-6.506-2.494-13.026-2.785-15.44.08-7.66 3.605-19.485 2.974-24.464 1.51 5.142 3.214 11.454 3.614 19.214.042.812-.25 7.24-.205 8.026.41 7.028 1.334 14.427 1.678 15.285-.404 7.625-1.28 9.509.07 13.443 2.044-1.387 5.335-1.116 10.998-.433.449-3.71.174-5.992.605-8.24 1.272-1.726-.519-17.417-.492-23.523.033-7.964 1.022-20.874 1.83-28.42" stroke="#5B5B5B" stroke-width=".823" stroke-linejoin="round"/><path d="M137.94 75.715c.72-1.02 2.44-4.699 3.57-7.94 1.473-4.23 2.948-8.65 3.342-10.685.31-1.6-.545-5.72-.614-6.648.423-6.016 1.346-9.258 1.76-13.025.448-4.09 2.873-6.952 2.888-8.028" stroke="#5B5B5B" stroke-width=".802"/><path d="M111.47 50.127c.11-.694 1.5-9.666 2.09-14.009" stroke="#5B5B5B" stroke-width=".967"/><path d="M127.51 64.364c-.04-2.759.555-13.787 1.761-20.461 1.755-9.706 4.234-20.093 5.057-20.757" stroke="#5B5B5B" stroke-width=".802"/><path d="M144.671 81.314c.252.058.475 6.636.356 7.872-1.735.345-14.338.255-17.91-1.35-.292-1.005-.206-7.747-.093-8.721" stroke="#5B5B5B" stroke-width=".731"/><path d="M112.854 86.02c.7-10.627 2.786-22.182 3.557-31.807 1.245-15.56 6.142-29.687 5.66-30.04" stroke="#5B5B5B" stroke-width=".802"/><path d="M124.607 70.134c-.912.035-7.247-.582-9.09-2.18" stroke="#5B5B5B" stroke-width=".155"/><path d="M123.629 73.148c-1.323-.092-6.257-1.04-8.35-2.08" stroke="#5B5B5B" stroke-width=".177"/><path d="M128.35 51.794c.756-3.647 8.21-15.428 10.325-20.903-.274-.175-2.622-1.254-2.64-1.796.461-.307 2.333-1.981 3.083-3.534m-22.546 26.762c-.93-3.606 2.464-16.918.088-22.285.342-.423 1.9-1.065 2.91-1.56-.4-.984-.822-1.364-1.223-2.34" stroke="#5B5B5B" stroke-width=".802"/><path d="M121.849 26.104c.334-.457.811 5.538 1.177 4.892.684-1.207 1.907-4.046 2.951-4.382.901.498 1.272 5.24 2.477 5.715 1.083-1.558 3.47-2.934 4.062-3.959" stroke="#5B5B5B" stroke-width=".321"/><path d="M123.932 29.47c.094.431.176 1.308.296 1.503-1.761 3.853-3.818 14.845-6.161 32.369.07.871 1.6 4.193 2.849 5.18 1.402-.185 4.856-3.6 4.68-4.28-.427-11.994 1.796-27.013.81-33.037.2-.275.607-.954.867-1.41" stroke="#5B5B5B" stroke-width=".571"/><path d="M107.117 44.626c-1.662.406-3.31.63-4.794.855" stroke="#5B5B5B" stroke-width=".683"/><path d="M149.554 55.31c-1.711.322-1.765.559-4.908 1.449" stroke="#5B5B5B" stroke-width=".695"/><path d="M149.073 57.987c-1.4-.376-1.518-.293-4.182-.708m2.277 2.078c-1.23-.766.093-.078-2.338-1.249" stroke="#5B5B5B" stroke-width=".63"/><path d="M105.43 46.64c-1.053-.24-3.153-.752-3.4-.868" stroke="#5B5B5B" stroke-width=".593"/><path d="M137.064 82.403c-.635.617-1.772 1.406-2.672 1.675m4.078-.503c-.635.617-1.018.784-1.918 1.052m3.364-.541c-.636.618-1.019.785-1.92 1.053" stroke="#5B5B5B" stroke-width=".136"/><path d="M81.644 42.808c1.19.141.4.97.279 1.445.526.424 1.17.662 1.506 1.096.343.443.37.884.307.96-.253.564-2.445 4.573-2.771 7.095-.2.012-1.087.09-2.43.086-1.333-.004-2.303-.044-3.522-.567-1-.08-1.872-.02-2.12-.167-.53-.392.042-1.302.553-1.293.075-.71.779-1.167 1.33-1.114-.084-.547.817-1.241 1.362-1.2.091-.448.486-.544.815-.591.908-.132 2.305.188 3.325-.386.557-.252.63-1.183.559-1.52-.09-.423-.7-1.552-.574-2.284.179-1.034.96-1.61 1.381-1.56z" stroke="#5B5B5B" stroke-width=".283" stroke-linejoin="round"/><path d="M77.255 51.59c-.946-.06-2.4-.19-4.136-.005" stroke="#5B5B5B" stroke-width=".143"/><path d="M78.088 50.553c-.86-.063-1.8-.204-3.377-.023" stroke="#5B5B5B" stroke-width=".136"/><path d="M79.001 49.332c-.946-.062-1.485-.212-3.22-.028" stroke="#5B5B5B" stroke-width=".143"/><path d="M129.907 149.15c-.927 2.173-1.109 2.743-1.19 3.802.807 3.263 1.286 4.018 5.05 3.871 1.277-.05 5.869-1.127 6.015-3.923.05-.94-.447-1.2-1.046-3.497" stroke="#5B5B5B" stroke-width=".864" stroke-linejoin="round"/><path d="M112.934 148.28c-1.107.967-2.065 1.102-3.167 2.182-3.225 3.16-2.044 3.865-1.236 4.244 4.038 1.892 10.678 1.424 12.447-.561 1.211-1.36 4.394-1.766 4.497-2.338.155-.88.788-.57.216-2.761" stroke="#5B5B5B" stroke-width=".823" stroke-linejoin="round"/><path d="M133.135 81.703l-9.606-4.124c-.892-.297-1.374-.89-.899-2.173l4.86-10.99c.442-.76 1.154-.963 2.124-.645l11.307 5.012" stroke="#5B5B5B" stroke-width=".716" stroke-linejoin="round"/><path stroke="#5B5B5B" stroke-width=".283" d="M131.054 78.783l-6.285-2.682 4.546-10.278 11.036 4.734"/><path d="M138.254 75.945c2.616 1.13 3.511 2.568 4.51 3.547.009.398.326 1.474.463 2.247.178 1.011-.808 1.73-1.467 2.435-.562.603-1.606 1.004-2.534 1.025-.491.203-.568.237-.972.186-.559-.072-1.713-.182-1.757-.595-.59.053-1.536.146-2.03-.538-.328-.226-.818-.399-1.183-.86-.233-.293.025-.952.334-1.37.202-.27 2.699-1.618 2.434-1.937.258-.316.247-1.534.53-1.945-.55.266-2.056 1.58-3.484 1.854-.912.175-2.25-.031-1.626-1.176.455-.734 1.842-1.184 2.57-1.838 1.658-1.487 3.556-1.47 4.212-1.035z" stroke="#5B5B5B" stroke-width=".283" stroke-linejoin="round"/><path d="M22.994 21.422c2.107-1.389 4.034-1.68 4.536-1.355.793.535 1.009 2.08.668 4.43-.318.365-1.025-.345-1.564-.728-.628-.445-1.284-.345-1.797 1.85-.175.745-.148 1.796-.232 3.431-.768-.587-1.794-5.548 1.197-6.942.505-.095.986.329 1.629.885.17-1.041.339-2.035-.372-2.245-.413-.122-1.361-.1-2.723.677.3.31.339.422.482.542-.681.42-1.851.204-1.824-.545m5.329-3.031a.656.656 0 1 1-.001 1.312.656.656 0 0 1 .001-1.312" fill="#E31E24"/><path d="M31.47 21.718a2.56 2.56 0 0 1 .435-.064 6.45 6.45 0 0 1 .46-.016c.164 0 .329.016.497.047.167.033.32.09.458.175.137.085.25.201.337.35.086.149.13.337.13.567a1.2 1.2 0 0 1-.123.572 1.061 1.061 0 0 1-.323.38 1.304 1.304 0 0 1-.46.209 2.236 2.236 0 0 1-.537.064h-.087a2.738 2.738 0 0 1-.347-.022v1.41h-.44v-3.672zm.907.302c-.092 0-.18 0-.266.005a.938.938 0 0 0-.201.026v1.537a.298.298 0 0 0 .085.014l.121.005.123.003h.084c.12 0 .24-.012.359-.035a.934.934 0 0 0 .32-.124.658.658 0 0 0 .23-.256.88.88 0 0 0 .088-.418.66.66 0 0 0-.299-.597.948.948 0 0 0-.305-.124 1.61 1.61 0 0 0-.34-.036zm1.904-.302a5.989 5.989 0 0 1 .943-.08c.163 0 .318.017.465.052.146.036.275.095.386.176a.886.886 0 0 1 .268.318c.067.13.1.29.1.477 0 .29-.078.524-.238.705-.159.18-.36.3-.604.36l.254.196.923 1.468h-.515l-1.023-1.6-.52-.08v1.68h-.439v-3.672zm.954.302h-.143c-.05 0-.097 0-.144.005l-.13.01a.598.598 0 0 0-.097.016v1.367h.413c.244 0 .446-.06.605-.18.159-.12.239-.307.239-.561a.621.621 0 0 0-.197-.472c-.13-.124-.313-.185-.546-.185zm1.661 1.516c0-.62.13-1.093.392-1.424.262-.33.634-.496 1.119-.496.26 0 .487.046.678.138.19.092.349.222.474.39a1.7 1.7 0 0 1 .279.604c.06.235.09.497.09.788 0 .618-.132 1.092-.395 1.422-.263.331-.64.496-1.126.496-.259 0-.483-.045-.671-.137a1.278 1.278 0 0 1-.472-.39 1.688 1.688 0 0 1-.278-.605 3.133 3.133 0 0 1-.09-.786zm.466 0c0 .204.02.399.061.582.04.184.103.346.188.485.085.14.194.25.327.335a.864.864 0 0 0 .469.123c.328 0 .586-.123.773-.372.188-.25.28-.635.28-1.153 0-.203-.02-.396-.06-.582a1.554 1.554 0 0 0-.19-.487 1.028 1.028 0 0 0-.33-.334.875.875 0 0 0-.473-.125.902.902 0 0 0-.766.374c-.187.25-.279.633-.279 1.154zm3.16-1.856a4.285 4.285 0 0 1 .486-.034l.265-.005.241-.003c.297 0 .554.045.77.137.219.093.398.22.539.384.142.165.247.362.316.592.069.23.103.482.103.757 0 .252-.032.493-.098.724-.066.232-.17.436-.31.616a1.529 1.529 0 0 1-.551.428c-.226.108-.5.162-.822.162a10.085 10.085 0 0 1-.498-.013l-.265-.013a1.21 1.21 0 0 1-.176-.016V21.68zm1.002.35h-.15c-.055 0-.11.002-.162.005l-.146.01a1.78 1.78 0 0 0-.103.011v2.969a.87.87 0 0 0 .1.008c.05 0 .102.003.154.005l.154.005.1.003c.248 0 .455-.042.623-.128.169-.084.302-.198.404-.34a1.4 1.4 0 0 0 .214-.494 2.6 2.6 0 0 0 .063-.576c0-.173-.02-.347-.058-.521a1.359 1.359 0 0 0-.201-.474 1.12 1.12 0 0 0-.384-.349 1.243 1.243 0 0 0-.608-.134zm4.444-.35h.424v2.476a1.7 1.7 0 0 1-.088.577.997.997 0 0 1-.25.4.99.99 0 0 1-.388.231c-.152.05-.32.074-.504.074-.438 0-.768-.1-.991-.297-.223-.197-.334-.498-.334-.901v-2.56h.44v2.353c0 .188.019.346.056.475a.737.737 0 0 0 .167.312c.074.08.166.138.278.172.111.036.24.054.39.054.285 0 .49-.079.614-.236.124-.157.186-.416.186-.777V21.68m1.862 1.994h-.25v1.716h-.44v-3.71h.44v1.728l.24-.075 1.245-1.653h.509l-1.241 1.596-.222.175.27.211 1.357 1.728h-.556l-1.352-1.716m4.613-1.602h-1.155v3.318h-.441v-3.318h-1.156v-.392h2.752v.392m.393-.392h2.02v.392h-1.58v1.214h1.447v.393h-1.447v1.32h1.606v.391h-2.046v-3.71" fill="#5B5B5B"/><path stroke="#5B5B5B" stroke-width=".396" d="M63.16 82.25v1.42H13.883v-1.444h49.311"/><path stroke="#5B5B5B" stroke-width=".394" stroke-linejoin="round" d="M63.152 79.36v2.77H13.877v-2.817h49.31"/><path d="M53.677 72.615c.387-.093.776-.08 1.165-.025 1.497.318.622 2.466.534 3.077.536 1.804.65 4.676.434 6.376-.317.242-2.318.35-3.11.045-.49-1.758-.281-4.797.327-6.43 0-.64-1.061-2.632.65-3.043zm4.878 0c.389-.093.777-.08 1.166-.025 1.497.318.622 2.466.534 3.077.536 1.804.65 4.676.434 6.376-.317.242-2.317.35-3.11.045-.491-1.758-.282-4.797.327-6.43 0-.64-1.06-2.631.649-3.043z" stroke="#5B5B5B" stroke-width=".385"/><path d="M29.554 81.89c.185.578 3.037.422 3.086 0 .291-2.72.142-3.566.001-4.81.004-.407.181-.744.163-1.393-.048-1.358-1.025-2.67-1.127-3.479h-1.178c-.03 1.104-.907 1.746-1.004 3.484-.049.406.107.762.098 1.28-.162 1.185-.3 2.568-.04 4.919zm4.524 0c.185.578 3.036.422 3.087 0 .29-2.72.14-3.566 0-4.81.003-.407.18-.744.163-1.393-.049-1.358-1.025-2.67-1.127-3.479h-1.178c-.03 1.104-.907 1.746-1.004 3.484-.05.406.108.762.098 1.28-.162 1.185-.3 2.568-.04 4.919zm4.524 0c.185.578 3.036.422 3.086 0 .29-2.72.14-3.566.002-4.81.002-.407.18-.744.161-1.393-.048-1.358-1.024-2.67-1.127-3.479h-1.176c-.031 1.104-.908 1.746-1.006 3.484-.049.406.109.762.098 1.28-.162 1.185-.3 2.568-.038 4.919zm4.524 0c.184.578 3.036.422 3.086 0 .29-2.72.141-3.566 0-4.81.004-.407.182-.744.163-1.393-.047-1.358-1.024-2.67-1.127-3.479h-1.176c-.03 1.104-.908 1.746-1.006 3.484-.049.406.109.762.099 1.28-.163 1.185-.301 2.568-.039 4.919zm4.523 0c.185.578 3.037.422 3.087 0 .29-2.72.141-3.566 0-4.81.004-.407.182-.744.163-1.393-.047-1.358-1.024-2.67-1.127-3.479h-1.177c-.03 1.104-.907 1.746-1.005 3.484-.049.406.108.762.099 1.28-.163 1.185-.301 2.568-.04 4.919z" stroke="#5B5B5B" stroke-width=".396"/><path d="M16.483 73.54c.042-.015.025-.61.03-.659.07-.008.99.007.99-.006.01.265-.013.612.01.665.648.374 1.422.258 1.176 2.98.298 1.783.258 3.568.002 5.35-.148.525-3.319.54-3.383-.015-.257-1.802-.325-3.6-.028-5.402-.26-2.405.537-2.642 1.203-2.912zm9.048 0c.042-.015.024-.61.03-.659.07-.008.992.007.99-.006.01.265-.013.612.012.665.647.374 1.42.258 1.175 2.98.297 1.783.258 3.568.001 5.35-.147.525-3.318.54-3.383-.015-.257-1.802-.324-3.6-.027-5.402-.262-2.405.537-2.642 1.202-2.912zm-4.524 0c.041-.015.024-.61.03-.659.07-.008.991.007.991-.006.01.265-.015.612.01.665.647.374 1.421.258 1.176 2.98.298 1.783.257 3.568.002 5.35-.148.525-3.32.54-3.385-.015-.255-1.802-.324-3.6-.027-5.402-.26-2.405.538-2.642 1.203-2.912z" stroke="#5B5B5B" stroke-width=".391"/><path stroke="#5B5B5B" stroke-width=".396" d="M63.16 50.484v1.419H13.883v-1.444h49.31"/><path stroke="#5B5B5B" stroke-width=".394" stroke-linejoin="round" d="M63.152 47.594v2.77H13.877v-2.818h49.31"/><path d="M16.743 42.846l-.042-.003-.007-.008-.02.001s-.005-.192.127-.222c0 0 .342-.056.61 0 0 0 .084.006.106.18 0 0 .007.013-.016.025l-.05.013s-.026.013 0 .028c0 0 .06.05.013.114 0 0-.018.017-.012.063 0 0 .042.18.083.395.06.316.127.706.127.706s.054.355.064.513c0 0 .008.146.007.19 0 0-.022.316.035.452 0 0 .033.074.088.156 0 0 .167.21.198.264 0 0 .154.195.156.626l.01 3.34s.01.547-.176.657c0 0-.116.119-.72.132 0 0-.502.045-1-.081-.382-.066-.268-1.648-.272-1.955l-.01-1.136-.01-.749s-.01-.473.08-.654c0 0 .102-.238.254-.41 0 0 .09-.097.108-.226 0 0 .046-.224.031-.388 0 0-.025-.34.062-.759l.118-.717s.058-.303.057-.356c0 0 .008-.034-.021-.042 0 0-.06-.065.002-.105 0 0 .03-.02.02-.044z" stroke="#5B5B5B" stroke-width=".396"/><path d="M17.471 42.819a7.347 7.347 0 0 0-.78.013" stroke="#5B5B5B" stroke-width=".398"/><path d="M19.836 42.845l-.042-.003-.007-.007h-.02s-.005-.191.126-.22c0 0 .343-.057.61-.001 0 0 .085.006.107.18 0 0 .006.013-.016.025l-.05.013s-.027.013-.002.027c0 0 .06.052.015.114 0 0-.02.018-.012.064 0 0 .04.179.082.395.06.315.128.706.128.706s.054.355.063.513c0 0 .008.145.008.19 0 0-.023.317.034.452 0 0 .034.074.089.156 0 0 .167.21.197.264 0 0 .155.195.156.625l.01 3.341s.01.548-.176.658c0 0-.115.118-.721.131 0 0-.5.045-1-.082-.38-.065-.266-1.647-.27-1.954l-.01-1.136-.011-.749s-.01-.473.081-.654c0 0 .101-.238.254-.41 0 0 .09-.097.107-.226 0 0 .046-.224.031-.388 0 0-.024-.34.063-.759l.118-.717s.058-.303.056-.356c0 0 .008-.035-.02-.042 0 0-.06-.065.002-.105 0 0 .028-.02.02-.045z" stroke="#5B5B5B" stroke-width=".396"/><path d="M20.563 42.819a7.314 7.314 0 0 0-.78.013" stroke="#5B5B5B" stroke-width=".398"/><path d="M22.928 42.845l-.042-.003-.007-.006h-.019s-.006-.193.126-.222c0 0 .342-.056.61 0 0 0 .084.005.106.18 0 0 .007.013-.015.025l-.051.013s-.027.014 0 .027c0 0 .06.052.012.114 0 0-.018.018-.011.065 0 0 .042.178.083.394.06.315.127.706.127.706s.054.355.063.514c0 0 .008.144.008.189 0 0-.022.317.035.452 0 0 .034.074.087.156 0 0 .168.21.198.265 0 0 .155.194.156.624l.011 3.341s.01.547-.176.658c0 0-.115.118-.721.131 0 0-.502.046-1-.082-.38-.066-.267-1.647-.271-1.954l-.01-1.137-.011-.747s-.01-.474.08-.655c0 0 .103-.238.256-.41 0 0 .089-.096.107-.226 0 0 .046-.224.031-.388 0 0-.025-.34.062-.759l.119-.717s.057-.303.055-.355c0 0 .009-.036-.02-.043 0 0-.06-.065.002-.105 0 0 .028-.021.02-.045z" stroke="#5B5B5B" stroke-width=".396"/><path d="M23.655 42.819c-.35-.017-.76.011-.78.013" stroke="#5B5B5B" stroke-width=".398"/><path d="M26.02 42.845l-.042-.003-.007-.007h-.018s-.007-.192.126-.22c0 0 .342-.057.61-.001 0 0 .084.005.106.18 0 0 .006.013-.016.025l-.05.013s-.027.014-.002.027c0 0 .06.051.014.115 0 0-.018.017-.012.063 0 0 .042.178.083.396.061.314.128.705.128.705s.053.355.063.514c0 0 .008.144.007.189 0 0-.022.317.036.452 0 0 .033.074.086.156 0 0 .168.21.2.265 0 0 .154.194.155.624l.01 3.341s.01.547-.176.658c0 0-.116.118-.72.131 0 0-.502.045-1-.082-.385-.03-.268-1.665-.272-1.954l-.01-1.137-.011-.748s-.01-.474.08-.654c0 0 .103-.237.255-.41 0 0 .09-.096.108-.226 0 0 .046-.223.032-.388 0 0-.025-.34.062-.759l.118-.717s.057-.302.055-.356c0 0 .009-.034-.02-.042 0 0-.06-.065.003-.105 0 0 .028-.021.02-.045z" stroke="#5B5B5B" stroke-width=".396"/><path d="M26.748 42.819a7.347 7.347 0 0 0-.78.013" stroke="#5B5B5B" stroke-width=".398"/><path d="M29.825 44.098c.086-.16.203-.285.333-.394.033-.003 0-.155.034-.158.304-.062 1.057-.09 1.564.009.018-.002-.018.146.03.149.094.101.23.227.31.394v6.1c-.037.285-2.218.27-2.27 0v-6.1z" stroke="#5B5B5B" stroke-width=".397" stroke-linejoin="round"/><path d="M32.089 44.153c-.113.194-2.176.253-2.278-.036" stroke="#5B5B5B" stroke-width=".394"/><path d="M33.228 44.098c.087-.16.202-.285.333-.394.033-.003 0-.155.033-.158.305-.062 1.058-.09 1.564.009.02-.002-.018.146.032.149.093.101.228.227.308.394v6.1c-.037.285-2.218.27-2.27 0v-6.1z" stroke="#5B5B5B" stroke-width=".397" stroke-linejoin="round"/><path d="M35.491 44.153c-.113.194-2.175.253-2.277-.036" stroke="#5B5B5B" stroke-width=".394"/><path d="M36.63 44.098a1.34 1.34 0 0 1 .334-.394c.033-.003 0-.155.034-.158.303-.062 1.057-.09 1.563.009.019-.002-.018.146.03.149.094.101.23.227.31.394v6.1c-.037.285-2.217.27-2.27 0v-6.1z" stroke="#5B5B5B" stroke-width=".397" stroke-linejoin="round"/><path d="M38.895 44.153c-.114.194-2.177.253-2.278-.036" stroke="#5B5B5B" stroke-width=".394"/><path d="M40.033 44.098a1.36 1.36 0 0 1 .333-.394c.034-.003 0-.155.034-.158.304-.062 1.057-.09 1.564.009.018-.002-.018.146.03.149.094.101.23.227.31.394v6.1c-.037.285-2.218.27-2.27 0v-6.1z" stroke="#5B5B5B" stroke-width=".397" stroke-linejoin="round"/><path d="M42.296 44.153c-.113.194-2.175.253-2.277-.036" stroke="#5B5B5B" stroke-width=".394"/><path d="M43.436 44.098a1.33 1.33 0 0 1 .333-.394c.032-.003 0-.155.033-.158.304-.062 1.058-.09 1.564.009.018-.002-.018.146.03.149.095.101.23.227.31.394v6.1c-.037.285-2.218.27-2.27 0v-6.1z" stroke="#5B5B5B" stroke-width=".397" stroke-linejoin="round"/><path d="M45.699 44.153c-.114.194-2.176.253-2.278-.036m5.313-.254c.115-.086.703-.07.733 0v.435h-.733v-.435z" stroke="#5B5B5B" stroke-width=".394"/><path d="M48.159 50.186c.113.353 1.857.258 1.887 0 .178-1.665.087-2.18.001-2.942.001-.249.11-.455.1-.853-.03-.83-.627-1.633-.69-2.127h-.72c-.018.676-.555 1.067-.615 2.131-.03.248.066.466.06.783-.1.724-.184 1.57-.023 3.008z" stroke="#5B5B5B" stroke-width=".396"/><path d="M51.501 43.863c.115-.086.703-.07.734 0v.435H51.5v-.435z" stroke="#5B5B5B" stroke-width=".394"/><path d="M50.926 50.186c.113.353 1.857.258 1.888 0 .178-1.665.086-2.18 0-2.942.002-.249.11-.455.1-.853-.03-.83-.627-1.633-.69-2.127h-.72c-.019.676-.555 1.067-.615 2.131-.03.248.066.466.06.783-.098.724-.184 1.57-.023 3.008z" stroke="#5B5B5B" stroke-width=".396"/><path d="M54.268 43.863c.115-.086.703-.07.735 0v.435h-.735v-.435z" stroke="#5B5B5B" stroke-width=".394"/><path d="M53.693 50.186c.112.353 1.857.258 1.888 0 .178-1.665.086-2.18.001-2.942.001-.249.11-.455.098-.853-.029-.83-.626-1.633-.688-2.127h-.72c-.019.676-.556 1.067-.616 2.131-.03.248.067.466.061.783-.1.724-.184 1.57-.024 3.008z" stroke="#5B5B5B" stroke-width=".396"/><path d="M57.036 43.863c.115-.086.702-.07.733 0v.435h-.733v-.435z" stroke="#5B5B5B" stroke-width=".394"/><path d="M56.46 50.186c.113.353 1.857.258 1.888 0 .178-1.665.086-2.18 0-2.942.002-.249.112-.455.1-.853-.03-.83-.626-1.633-.69-2.127h-.72c-.018.676-.554 1.067-.614 2.131-.03.248.066.466.06.783-.1.724-.184 1.57-.024 3.008z" stroke="#5B5B5B" stroke-width=".396"/><path d="M59.987 43.863c.115-.086.703-.07.734 0v.435h-.734v-.435z" stroke="#5B5B5B" stroke-width=".394"/><path d="M59.411 50.186c.114.353 1.858.258 1.889 0 .177-1.665.086-2.18 0-2.942.002-.249.11-.455.1-.853-.03-.83-.627-1.633-.69-2.127h-.72c-.018.676-.555 1.067-.614 2.131-.03.248.066.466.06.783-.1.724-.184 1.57-.025 3.008zM13.918 37.895v1.42h49.276V37.87h-49.31" stroke="#5B5B5B" stroke-width=".396"/><path stroke="#5B5B5B" stroke-width=".394" stroke-linejoin="round" d="M13.911 35.005v2.77h49.276v-2.818h-49.31"/><path d="M61.78 31.055c.11.356-2.19.506-2.299 0v6.488c.07.257 2.3.296 2.298 0v-6.488z" stroke="#5B5B5B" stroke-width=".397" stroke-linejoin="round"/><path d="M61.773 31.04c-.413-.42-2.56-.164-2.264 0" stroke="#5B5B5B" stroke-width=".397"/><path d="M58.395 31.055c.11.356-2.19.506-2.298 0v6.488c.07.257 2.298.296 2.298 0v-6.488z" stroke="#5B5B5B" stroke-width=".397" stroke-linejoin="round"/><path d="M58.39 31.04c-.414-.42-2.562-.164-2.265 0" stroke="#5B5B5B" stroke-width=".397"/><path d="M55.011 31.055c.11.356-2.19.506-2.298 0v6.488c.07.257 2.298.296 2.298 0v-6.488z" stroke="#5B5B5B" stroke-width=".397" stroke-linejoin="round"/><path d="M55.005 31.04c-.413-.42-2.56-.164-2.264 0" stroke="#5B5B5B" stroke-width=".397"/><path d="M51.626 31.055c.11.356-2.19.506-2.297 0v6.488c.07.257 2.298.296 2.297 0v-6.488z" stroke="#5B5B5B" stroke-width=".397" stroke-linejoin="round"/><path d="M51.62 31.04c-.412-.42-2.56-.164-2.263 0" stroke="#5B5B5B" stroke-width=".397"/><path d="M48.252 32.81c.11.263-2.19.374-2.298 0v4.793c.07.19 2.299.22 2.298 0V32.81z" stroke="#5B5B5B" stroke-width=".394" stroke-linejoin="round"/><path d="M48.246 32.799c-.413-.31-2.56-.12-2.263 0" stroke="#5B5B5B" stroke-width=".394"/><path d="M44.868 32.81c.11.263-2.19.374-2.298 0v4.793c.07.19 2.299.22 2.298 0V32.81z" stroke="#5B5B5B" stroke-width=".394" stroke-linejoin="round"/><path d="M44.862 32.799c-.413-.31-2.561-.12-2.264 0" stroke="#5B5B5B" stroke-width=".394"/><path d="M41.484 32.81c.11.263-2.19.374-2.299 0v4.793c.07.19 2.299.22 2.299 0V32.81z" stroke="#5B5B5B" stroke-width=".394" stroke-linejoin="round"/><path d="M41.478 32.799c-.414-.31-2.561-.12-2.265 0" stroke="#5B5B5B" stroke-width=".394"/><path d="M38.068 33.805c-.1-.15-.235-.27-.388-.372-.038-.004 0-.148-.038-.151a7.378 7.378 0 0 0-1.82.008c-.023 0 .02.139-.037.143-.108.095-.267.214-.36.372v3.714c.054.32 2.599.274 2.643 0v-3.714z" stroke="#5B5B5B" stroke-width=".397" stroke-linejoin="round"/><path d="M35.43 33.86c.202.147 2.492.192 2.652-.033" stroke="#5B5B5B" stroke-width=".397"/><path d="M34.288 33.805a1.386 1.386 0 0 0-.388-.372c-.038-.004 0-.148-.038-.151a7.386 7.386 0 0 0-1.822.008c-.02 0 .022.139-.035.143-.11.095-.267.214-.36.372v3.714c.054.32 2.598.274 2.643 0v-3.714z" stroke="#5B5B5B" stroke-width=".397" stroke-linejoin="round"/><path d="M31.65 33.86c.202.147 2.492.192 2.651-.033" stroke="#5B5B5B" stroke-width=".397"/><path d="M30.742 33.805a1.4 1.4 0 0 0-.388-.372c-.039-.004 0-.148-.039-.151a7.386 7.386 0 0 0-1.82.008c-.022 0 .02.139-.036.143-.11.095-.268.214-.362.372v3.714c.055.32 2.6.274 2.645 0v-3.714z" stroke="#5B5B5B" stroke-width=".397" stroke-linejoin="round"/><path d="M28.103 33.86c.203.147 2.492.192 2.652-.033" stroke="#5B5B5B" stroke-width=".397"/><path d="M27.078 33.805c-.1-.15-.235-.27-.388-.372-.038-.004 0-.148-.038-.151a7.386 7.386 0 0 0-1.821.008c-.022 0 .02.139-.036.143-.11.095-.267.214-.36.372v3.714c.053.32 2.599.274 2.643 0v-3.714z" stroke="#5B5B5B" stroke-width=".397" stroke-linejoin="round"/><path d="M24.44 33.86c.202.147 2.492.192 2.651-.033" stroke="#5B5B5B" stroke-width=".397"/><path d="M22.665 31.646c-.11-.081-.667-.067-.696 0v.412h.696v-.412z" stroke="#5B5B5B" stroke-width=".394"/><path d="M23.191 37.635c-.107.335-1.762.245-1.791 0-.169-1.58-.081-2.07 0-2.792-.002-.236-.106-.43-.095-.808.028-.788.594-1.55.654-2.018h.683c.018.64.527 1.012.584 2.021.028.235-.063.442-.058.743.094.687.175 1.49.023 2.854z" stroke="#5B5B5B" stroke-width=".396"/><path d="M19.864 31.646c-.109-.081-.666-.067-.696 0v.412h.696v-.412z" stroke="#5B5B5B" stroke-width=".394"/><path d="M20.391 37.635c-.107.335-1.762.245-1.791 0-.169-1.58-.082-2.07 0-2.792-.002-.236-.106-.43-.095-.808.028-.788.594-1.55.654-2.018h.683c.018.64.527 1.012.584 2.021.028.235-.063.442-.058.743.094.687.175 1.49.023 2.854z" stroke="#5B5B5B" stroke-width=".396"/><path d="M17.064 31.646c-.11-.081-.666-.067-.696 0v.412h.696v-.412z" stroke="#5B5B5B" stroke-width=".394"/><path d="M17.591 37.635c-.107.335-1.762.245-1.791 0-.169-1.58-.083-2.07 0-2.792-.002-.236-.105-.43-.095-.808.028-.788.594-1.55.654-2.018h.684c.017.64.526 1.012.583 2.021.028.235-.063.442-.058.743.094.687.174 1.49.023 2.854z" stroke="#5B5B5B" stroke-width=".396"/><path d="M54.843 72.492a3.168 3.168 0 0 0-1.183.017c0-.614.181-.903.65-.899.4.003.534.31.533.882zm4.88 0a3.19 3.19 0 0 0-1.184.017c0-.613.181-.903.65-.899.4.003.534.31.534.882z" stroke="#5B5B5B" stroke-width=".387"/><path d="M30.504 71.556c.188-.139 1.149-.114 1.2 0v.712h-1.2v-.712zm4.524 0c.189-.139 1.148-.114 1.2 0v.712h-1.2v-.712zm4.525 0c.188-.139 1.147-.114 1.198 0v.712h-1.198v-.712zm4.524 0c.187-.139 1.148-.114 1.199 0v.712h-1.2v-.712zm4.523 0c.188-.139 1.149-.114 1.2 0v.712h-1.2v-.712z" stroke="#5B5B5B" stroke-width=".394"/><path d="M16.456 72.33a1.492 1.492 0 0 1 1.114 0v.54h-1.114v-.54zm9.048 0a1.49 1.49 0 0 1 1.113 0v.54h-1.113v-.54zm-4.523 0a1.49 1.49 0 0 1 1.113 0v.54H20.98v-.54z" stroke="#5B5B5B" stroke-width=".397"/><path stroke="#5B5B5B" stroke-width=".396" d="M63.16 65.85v1.42H13.883v-1.443h49.311"/><path stroke="#5B5B5B" stroke-width=".394" stroke-linejoin="round" d="M63.152 62.962v2.77H13.877v-2.818h49.31"/><path d="M39.643 57.678l-.044-.003-.008-.006h-.02s-.007-.206.134-.236c0 0 .365-.06.651-.001 0 0 .09.006.114.193 0 0 .006.013-.018.026l-.053.013s-.028.015-.001.03c0 0 .064.055.014.122 0 0-.02.018-.012.068 0 0 .045.19.089.422.064.336.135.752.135.752s.058.379.068.548c0 0 .009.155.008.203 0 0-.024.338.038.482 0 0 .035.08.093.167 0 0 .178.223.212.281 0 0 .164.208.166.668l.01 3.565s.011.584-.187.701c0 0-.124.127-.769.14 0 0-.536.049-1.068-.087-.406-.07-.284-1.758-.288-2.085l-.011-1.213-.012-.798s-.01-.506.086-.7c0 0 .11-.252.271-.436 0 0 .096-.104.115-.241 0 0 .05-.239.033-.415 0 0-.027-.362.067-.809l.126-.765s.061-.324.06-.38c0 0 .008-.037-.022-.045 0 0-.064-.07.002-.113 0 0 .03-.021.021-.048z" stroke="#5B5B5B" stroke-width=".396"/><path d="M40.422 57.641a7.576 7.576 0 0 0-.832.015" stroke="#5B5B5B" stroke-width=".398"/><path d="M42.943 57.679l-.044-.003-.008-.008-.02.001s-.007-.205.134-.236c0 0 .366-.06.652 0 0 0 .09.005.112.192 0 0 .007.013-.016.026l-.055.013s-.028.015 0 .03c0 0 .064.054.015.122 0 0-.02.019-.013.068 0 0 .044.19.088.422.065.335.137.752.137.752s.057.38.067.548c0 0 .008.155.008.203 0 0-.024.338.037.482 0 0 .036.08.093.167 0 0 .18.224.213.281 0 0 .164.208.166.668l.01 3.564s.011.585-.187.702c0 0-.123.126-.77.14 0 0-.534.05-1.066-.087-.407-.07-.286-1.758-.29-2.085l-.01-1.213-.013-.798s-.01-.506.087-.7c0 0 .11-.252.272-.435 0 0 .096-.104.114-.242 0 0 .05-.24.034-.414 0 0-.027-.363.065-.81l.127-.765s.062-.323.06-.38c0 0 .01-.037-.021-.045 0 0-.064-.07 0-.113 0 0 .032-.022.022-.047z" stroke="#5B5B5B" stroke-width=".396"/><path d="M43.72 57.641a7.595 7.595 0 0 0-.83.015" stroke="#5B5B5B" stroke-width=".398"/><path d="M46.243 57.679l-.044-.003-.008-.008-.02.001s-.007-.205.134-.236c0 0 .366-.06.651 0 0 0 .09.005.114.192 0 0 .007.012-.017.026l-.054.014s-.028.014 0 .029c0 0 .063.055.014.122 0 0-.02.019-.013.068 0 0 .045.191.089.422.064.336.136.752.136.752s.057.38.067.548c0 0 .009.155.008.203 0 0-.024.338.037.482 0 0 .036.079.094.166 0 0 .178.225.212.283 0 0 .164.208.165.667l.012 3.565s.01.584-.188.702c0 0-.123.126-.77.14 0 0-.534.048-1.066-.088-.407-.069-.285-1.757-.29-2.084l-.01-1.214-.013-.798s-.01-.505.087-.7c0 0 .109-.252.271-.435 0 0 .096-.104.116-.242 0 0 .049-.239.032-.414 0 0-.026-.363.068-.81l.126-.765s.06-.323.058-.38c0 0 .01-.037-.02-.045 0 0-.065-.07.001-.112 0 0 .031-.022.021-.048z" stroke="#5B5B5B" stroke-width=".396"/><path d="M47.021 57.641a7.595 7.595 0 0 0-.832.015" stroke="#5B5B5B" stroke-width=".398"/><path d="M49.543 57.68l-.045-.004-.007-.007h-.02s-.007-.205.134-.236c0 0 .366-.06.65 0 0 0 .091.005.115.192 0 0 .007.013-.017.027l-.054.012s-.028.015 0 .03c0 0 .064.054.014.122 0 0-.02.019-.013.068 0 0 .044.19.09.422.063.336.134.752.134.752s.058.38.067.548c0 0 .01.155.008.203 0 0-.022.338.039.482 0 0 .036.08.093.167 0 0 .179.225.212.282 0 0 .165.207.166.667l.01 3.565s.011.585-.187.702c0 0-.123.126-.77.14 0 0-.534.049-1.066-.087-.407-.07-.285-1.759-.29-2.086l-.01-1.213-.012-.798s-.011-.505.086-.698c0 0 .11-.253.272-.436 0 0 .096-.105.115-.243 0 0 .048-.239.033-.414 0 0-.027-.362.066-.81l.126-.765s.06-.323.06-.379c0 0 .01-.037-.021-.045 0 0-.064-.07 0-.113 0 0 .032-.022.022-.048z" stroke="#5B5B5B" stroke-width=".396"/><path d="M50.321 57.641a7.595 7.595 0 0 0-.832.015" stroke="#5B5B5B" stroke-width=".398"/><path d="M16.261 57.38c.34-.082.68-.07 1.02-.022 1.313.279.546 2.16.468 2.695.47 1.581.57 4.097.381 5.585-.278.213-2.03.308-2.724.04-.43-1.54-.247-4.202.285-5.633 0-.562-.928-2.305.57-2.665z" stroke="#5B5B5B" stroke-width=".385"/><path d="M17.29 57.26a2.781 2.781 0 0 0-1.038.016c0-.538.16-.792.57-.788.35.004.468.271.468.773z" stroke="#5B5B5B" stroke-width=".387"/><path d="M19.891 57.38c.341-.082.682-.07 1.022-.022 1.311.279.545 2.16.468 2.695.47 1.58.57 4.097.38 5.586-.278.212-2.03.306-2.724.04-.43-1.54-.247-4.202.286-5.634 0-.561-.93-2.305.568-2.665z" stroke="#5B5B5B" stroke-width=".385"/><path d="M20.921 57.261a2.777 2.777 0 0 0-1.037.015c0-.538.159-.792.569-.787.35.003.468.27.468.772z" stroke="#5B5B5B" stroke-width=".387"/><path d="M23.523 57.38c.34-.082.68-.07 1.021-.022 1.312.279.545 2.16.468 2.696.47 1.58.57 4.097.38 5.584-.278.213-2.03.308-2.724.04-.43-1.54-.247-4.202.285-5.632 0-.561-.929-2.306.57-2.666z" stroke="#5B5B5B" stroke-width=".385"/><path d="M24.552 57.261a2.777 2.777 0 0 0-1.037.015c0-.538.158-.792.569-.788.35.004.469.272.468.773z" stroke="#5B5B5B" stroke-width=".387"/><path d="M53.387 58.605c.127-.094.77-.077.804 0v.475h-.804v-.475z" stroke="#5B5B5B" stroke-width=".394"/><path d="M52.764 65.534c.124.387 2.035.283 2.068 0 .195-1.823.095-2.389.001-3.223.001-.273.121-.498.109-.934-.005-1.23-.651-1.913-.756-2.33h-.788c-.172.684-.766 1.149-.762 2.235.001.352.12.726.155.997-.11.794-.202 1.68-.027 3.255z" stroke="#5B5B5B" stroke-width=".396"/><path d="M56.61 58.605c.126-.094.769-.077.803 0v.475h-.803v-.475z" stroke="#5B5B5B" stroke-width=".394"/><path d="M55.986 65.534c.124.387 2.035.283 2.068 0 .195-1.823.095-2.389.001-3.223.002-.273.121-.498.109-.934-.005-1.23-.651-1.913-.756-2.33h-.788c-.172.684-.765 1.149-.762 2.235.002.352.12.726.155.997-.109.794-.201 1.68-.027 3.255z" stroke="#5B5B5B" stroke-width=".396"/><path d="M59.832 58.605c.126-.094.769-.077.803 0v.475h-.803v-.475z" stroke="#5B5B5B" stroke-width=".394"/><path d="M59.208 65.534c.124.387 2.035.283 2.068 0 .195-1.823.095-2.389.001-3.223.002-.273.121-.498.109-.934-.005-1.23-.651-1.913-.756-2.33h-.788c-.17.684-.765 1.149-.76 2.235 0 .352.117.726.153.997-.11.794-.203 1.68-.027 3.255z" stroke="#5B5B5B" stroke-width=".396"/><path d="M28.214 58.364c.297-.11.596-.104.894 0v.407h-.894v-.407z" stroke="#5B5B5B" stroke-width=".397"/><path d="M28.232 59.272c.033-.013.02-.459.023-.496.057-.006.798.006.797-.004.008.2-.011.46.009.5.519.28 1.14.192.943 2.237.239 1.339.207 2.678.001 4.018-.118.394-2.664.405-2.716-.013-.206-1.352-.262-2.703-.023-4.055-.209-1.807.431-1.985.966-2.187z" stroke="#5B5B5B" stroke-width=".394"/><path d="M35.48 58.364c.298-.11.597-.104.895 0v.407h-.895v-.407z" stroke="#5B5B5B" stroke-width=".397"/><path d="M35.499 59.272c.034-.013.02-.459.023-.496.057-.006.798.006.797-.004.008.2-.011.46.008.5.52.28 1.141.192.944 2.237.239 1.339.207 2.678.001 4.018-.118.394-2.664.405-2.716-.013-.206-1.352-.262-2.703-.023-4.055-.21-1.807.431-1.985.966-2.187z" stroke="#5B5B5B" stroke-width=".394"/><path d="M31.847 58.364c.298-.11.597-.104.894 0v.407h-.894v-.407z" stroke="#5B5B5B" stroke-width=".397"/><path d="M31.865 59.272c.034-.013.02-.459.024-.496.057-.006.797.006.796-.004.008.2-.011.46.008.5.52.28 1.142.192.945 2.237.24 1.339.207 2.678 0 4.018-.118.394-2.664.405-2.716-.013-.206-1.352-.261-2.703-.022-4.055-.21-1.807.431-1.985.965-2.187z" stroke="#5B5B5B" stroke-width=".394"/><path stroke="#5B5B5B" stroke-width=".638" stroke-linejoin="round" d="M9.314 12.302v80.546h59.099V12.302z"/><path stroke="#5B5B5B" stroke-width=".662" stroke-linejoin="round" d="M9.523 15.82h58.892v-3.38H9.523z"/><path stroke="#5B5B5B" stroke-width=".625" stroke-linejoin="round" d="M9.273 92.844h59.221v-6.106H9.274z"/><path stroke="#5B5B5B" stroke-width=".609" stroke-linejoin="round" d="M14.064 15.813h49.804V12.43H14.064z"/><path stroke="#5B5B5B" stroke-width=".564" stroke-linejoin="round" d="M37.562 145.337h1.235V93h-1.235z"/><path stroke="#5B5B5B" stroke-width=".563" stroke-linejoin="round" d="M19.007 92.996l-1.234.001-16.6 61.9h1.235zm38.353-.002h1.234l16.6 61.899h-1.235z"/></g></svg>