<svg width="151" height="157" viewBox="0 0 151 157" xmlns="http://www.w3.org/2000/svg"><title>Group 3</title><g fill="none" fill-rule="evenodd"><path d="M93.429 56.074c3.352-2.21 6.417-2.673 7.216-2.157 1.263.853 1.606 3.308 1.064 7.05-.504.579-1.63-.551-2.49-1.16-.999-.708-2.042-.548-2.858 2.945-.277 1.185-.235 2.857-.369 5.459-1.222-.934-2.854-8.828 1.905-11.047.805-.15 1.567.525 2.59 1.409.274-1.656.54-3.237-.591-3.572-.657-.194-2.166-.16-4.331 1.077.477.495.538.673.766.863-1.084.666-2.946.325-2.902-.867m8.479-4.822a1.043 1.043 0 1 1 0 2.087 1.043 1.043 0 0 1 0-2.087" fill="#E31E24"/><path d="M40.505 18.938c.208-.537.754-1.128 1.468-1.9.814-.575 1.417-1.089 1.627-1.32.165-.453-.028-1.241-.435-1.035-.23.116-.444.405-.66.608-.416.386-.826.726-.87.8-.23.394-.563.918-.843 1.45-.273.52-.534 1.048-.342 1.454-.053.17.026.804.243 1.093.076.212.034.56.119.794.096.263.393.566.49.852.092.269-.045 1.065.06 1.333.51 1.284 1.058 2.367 1.459 3.33.283.683.481 1.416.596 1.626-.095 1.683-1.64 4.761-2.142 6.54" stroke="#5B5B5B" stroke-width=".182"/><path d="M48.611 32.149c.015-.334-.419-1.986.283-3.365.653-1.285 3.896-3.868 4.75-5.173-.042-.177-.105-2.257.007-2.962" stroke="#5B5B5B" stroke-width=".369"/><path d="M47.816 16.302c-.017.233-.038.623.092.78.18.216.602.12.72.184.559.299.906.405 1.479.072.345-.201.68-.078.906-.22.095-.058.165-.203.111-.8" stroke="#5B5B5B" stroke-width=".245" stroke-linejoin="round"/><path d="M39.032 38.815c1.165 1.212 4.657 2.394 5.728 2.434m4.656 10.849c.555 1.705 1.158 5.245.74 6.125" stroke="#5B5B5B" stroke-width=".213" stroke-linejoin="round"/><path d="M52.089 18.773l-.089.121c-.5.681-1.457 1.621-2.474 1.601-.652.03-2.456-1.158-2.401-1.916l.005-.033.001-.007c.02-.099.09-.166.159-.157.698-.003 1.575.049 2.381.042.818-.008 1.628.01 2.341.022.075.001.131.09.123.197a.256.256 0 0 1-.046.13zm-.294-.03c-2.592.262-1.83.271-4.333-.096.359.137 1.162 1.049 2.264 1.031.593-.01 1.382-.542 2.069-.935zm.525-5.38c-.809.121-1.383.38-1.496.663.101.052.689-.3.914-.247.122.029.026.327.092.387.185.165.642.123.912.007.112-.048-.007-.485.097-.473.241.028.877.111 1.116.084-.045-.274-.826-.542-1.635-.421m-5.623-.13c.896.044 1.55.264 1.705.561-.106.068-.785-.252-1.025-.17-.13.044.007.36-.058.432-.184.199-.688.203-.995.106-.127-.04-.045-.53-.157-.506-.26.057-.944.217-1.209.212.019-.304.843-.68 1.739-.635m-.069-1.042c.969.041 1.907.335 2.075.609-.118.221-1.277-.006-2.457-.245-.531-.107-.815.171-1.446.314.02-.281.859-.72 1.828-.678m5.794.024c-.963.042-1.966.537-2.133.811.118.221 1.34-.207 2.513-.446.527-.107.894.358 1.522.502-.021-.282-.939-.908-1.902-.867" fill="#5B5B5B"/><path d="M45.908 36.263c.89.783 6.047 1.073 7.241-.657 3.11-4.025 4.14-9.206 4.277-9.182.52.207 1.397.467 2.216.77 1.459.54 3.078 1.141 3.725 1.68 1.092.908 1.12 1.92 1.797 3.286 1.755 3.539 1.47 4.546 1.285 7.184-.94-.142-1.698-.684-3.9-.562-1.995.111-3.128.789-3.066.816M40.338 24.541c-.397.023-5.188.594-5.693.894-1.705 1.013-2.22 2.59-2.692 4.014-.386 1.154-.864 2.13-.992 3.254-.105.906.115 2.377.87 3.739.969-1.826 4.026-2.832 6.68-2.28" stroke="#5B5B5B" stroke-width=".832"/><path d="M42.53 31.052c-.274-.407-1.201-4.128-1.202-4.69" stroke="#5B5B5B" stroke-width=".415"/><path d="M58.599 51.681c-.248-.615-.585-4.34-.165-6.526.569-.983 1.146-2.777 1.177-3.994.074-3.03-.66-4.11-1.006-4.654M33.235 70.88c5.467 2.126 29.439.316 30.117-1.144.018-4.339-1.782-10.569-1.781-10.605M33.083 70.85c-.513-8.736 2.916-15.485 3.11-15.339" stroke="#5B5B5B" stroke-width=".832"/><path d="M43.052 11.336c-.093-1.007-.265-2.886.237-4.965.425-1.758 2.245-3.141 3.448-3.462.085-1.671 2.793-2.102 3.63-2.119 1.179-.024 2.287 1.103 2.342 1.927.148.043 1.818.67 3.018 2.66 1.148 1.902 1.056 5.795.955 5.523.065.04-.532.225-.69.482.315-.26.854-.597 1.09-.03.358.544.292 2.588-.242 3.435-.018 1.153-.771.606-1.12.535-.134 1.064-.784 3.182-1.08 4.072-.366 1.1-2.217 2.1-2.766 2.925-.555.836-1.847.751-2.776.691-.67-.042-.915-.177-1.436-.68" stroke="#5B5B5B" stroke-width=".602" stroke-linejoin="round"/><path d="M55.945 12.434c.91-.749.742.534.558 1.285-.113.479-.178 1.231-.604.711" stroke="#5B5B5B" stroke-width=".26"/><path d="M43.776 11.264c-.024-.956.492-3.227 1.355-3.707.925-.513 3.136-1.402 4.641-.942 1.761-.455 3.54.07 4.174.713 1.241.569 1.637 2.069 1.858 4.35" stroke="#5B5B5B" stroke-width=".415" stroke-linejoin="round"/><path d="M39.334 37.574c-.231-.172-.806-3.576-1.126-3.584-4.766-.111-5.48 1.654-5.798 1.902-.454.154.162 5.718.69 9.754.12.927.93 4.187 3.002 6.122.397.37 2.93 2.08 4.073 1.316.764-.511 1.719-1.422 2.262-2.716.432-1.032.487-2.366 1.045-3.404.516-.957 1.709-4.006 1.3-5.683.16-.738.434-1.532.614-2.594.292-1.736.525-3.286.43-2.63-.027.202-1.497-.228-2.49-.645-1.349-.565-2.326-1.222-2.322-1.294-.164 1.016-.914 1.838-2.139 4.674-.74.59-1.383 2.207-2.002 2.993-1.287 1.64-2.313 3.955-1.988 6.194" stroke="#5B5B5B" stroke-width=".555" stroke-linejoin="round"/><path d="M33.085 70.528c.388 19.93.765 25.598 1.71 37.072 5.111 1.061 18.225 1.833 25.912-.26" stroke="#5B5B5B" stroke-width=".665" stroke-linejoin="round"/><path d="M63.312 69.848c-.576 14.689-2.185 32.543-2.737 37.607" stroke="#5B5B5B" stroke-width=".646" stroke-linejoin="round"/><path d="M59.859 39.316c.58-.19 1.507-.362 2.806-.464 1.327-.102 2.532.296 2.93.431.071 1.142-.034 2.724-.016 4.342.035 3.261.092 6.905-.242 9.048-.14.903-1.366 5.384-2.436 6.27-.39.322-5.512-.004-9.134.339-2.63.25-3.26-.24-3.528-.962-.689-.018-2.956-.164-4.812-.098-.43-.451-1.384-4.655-.931-5.78.951-.223 2.903-.197 5.007-.5.79-.666 4.57-.148 5.39-.033.823.116 2.984-.097 3.46-.236m.26-.274c.178-.31-.11-4.07.771-8.72" stroke="#5B5B5B" stroke-width=".555" stroke-linejoin="round"/><path d="M48.683 29.688c1.227-1.85 3.554-2.742 5.031-4.248.1 2.365.785 3.503 1.015 3.28-.046-.594.392-1.855.49-2.582.129-.957.75-1.5.59-1.702-.002-.002-2.196-2.973-2.205-2.907m-4.24 15.428c.076-1.123.224-2.015-.008-2.54-.486-1.093-.557-1.94-.817-2.622-.626-1.638-1.28-2.46-1.63-2.796" stroke="#5B5B5B" stroke-width=".555"/><path d="M49.393 34.844c-.598-1.355-2.106-3.532-2.88-4.284" stroke="#5B5B5B" stroke-width=".416"/><path d="M58.171 26.474c-1.32-.546-1.515-.32-2.516-1.75" stroke="#5B5B5B" stroke-width=".269"/><path d="M42.388 25.714c-.8.563-2.796 1.862-3.402 1.896-.453-.774 2.098-4.211 2.37-4.455" stroke="#5B5B5B" stroke-width=".555"/><path d="M42.758 40.792c-.276.843-.372 2.578-1.045 3.236m8.073 10.052c.877-.133 2.47-.826 3.36-.52M41.2 40.217c-.234.47-.506 1.265-1.013 1.963m10.26 14.37c.526.375 1.357.317 2.209.025" stroke="#5B5B5B" stroke-width=".138"/><path d="M33.753 51.688c-.525.51-1.484.498-2.093.84m2.662-2.258c-.268.194-.674.556-1.095.79-.525.292-1.046.517-1.349.887" stroke="#5B5B5B" stroke-width=".114"/><path d="M43.159 16.151c.273-.143.703-.238.87-.132.317.2.207.957-.35 1.24-.626.318-.916.66-1.407 1.488m-1.504 1.442c.092-.119 1.035-1.154 1.513-1.441.303.058 1.721-.127 1.833-.056.166.105.18.574-.13.802-.28.205-1.053.117-1.318.252.025.198-.254.873-.289.993.219.178.745.431 1.291.864.221.176.257.482.466.725.177.192.338.438.501.822.66.949 1.153 1.879 1.533 2.31m.048-2.406c.311.483 1.086 1.819 1.168 3.008.092 1.33-2.204 9.042-1.714 9.847" stroke="#5B5B5B" stroke-width=".216"/><path d="M42.27 15.544c-.512-1.78-.996-4.301 1.668-4.315.469.742.694 2.048.654 3.265l-.508.331.253 1.127m-1.176 2.71l-.195-.868" stroke="#5B5B5B" stroke-width=".567"/><path d="M44.355 15.761c.034.181.921 3.964 1.037 3.997.303.083.697-.17 1.206-.122.93.756 1.313 2.428 1.388 3.002-1.228.814-3.158 1.035-3.858-.724l-.688-2.274" stroke="#5B5B5B" stroke-width=".567"/><path d="M58.183 51.709c.452.006 1.582-.461 3.614-.314m-3.654.491c.648-.033.85-.124 2.55.254m-28.877 2.11c.054-.046.476-.446.892-.505a2.993 2.993 0 0 1 1.388.146c1.53.571 2.597 2.345 4.518 2.577.885.106 1.9-.023 2.603.09 1.544.247 2.829.829 3.817 1m-3.944-5.137c.989-.08 2.368-.05 3.421.186m-10.287 1.425c.318.362.814 1.153.565 1.233-.157.337-.481.196-.858-.023-.797.326-.856-.491-1.115-.792-.613.501-.994.14-1.405-.376-.112-.037-.148-.867-.013-1.353.06-.217.376-.307.42-.45.071-.239.026-.457.048-.676.029-.284.088-.588.11-.586.088-.302-.131-.72.184-1.002.545-.486 1.249-.849 1.808-1.171" stroke="#5B5B5B" stroke-width=".183"/><path d="M34.139 49.313c-.04.132-.434.421-.8.715-.64.512-1.259.894-1.41 1.272" stroke="#5B5B5B" stroke-width=".114"/><path d="M39.671 108.302c3.114.49 6.395.575 9.508.498-.378 14.203-2.87 23.731-4.253 34.918l.168 6.563c-2.742.996-5.559 1.915-7.327 1.534l2.667-8.671c-.155-9.023-2.781-16.677-2.31-25.447.137-2.549 1.166-6.839 1.547-9.395zm15.401.121l-5.975.277c-.406 13.492-2.413 20.879-3.461 31.605 1.632 3.068 6.88 8.807 10.95 9.005.749.036.877-.212 1.81-.681-4.105-3.616-4.077-3.825-6.606-8.526-1.044-3.706 3.388-26.875 3.282-31.68z" stroke="#5B5B5B" stroke-width=".567" stroke-linejoin="round"/><path d="M37.762 152.069c2.388-.152 4.981-.725 7.196-1.825.042 1.775-.076 3.675-.143 4.672-.023.345-2.085 1.383-3.479 1.436-.768.03-2.946-.778-3.826-1.824l.252-2.459zm7.968-11.178c2.289 2.836 4.72 5.745 7.161 7.271 3.115 1.507 4.473 1.271 5.403.486 1.855 1.011 4.696 1.903 4.48 2.733-.399 1.543-7.937 1.074-9.271.527-.482-.198-3.979-4.29-6.779-5.716l-.32 4.31c-.303.02-.378.061-.899-.015-.34-2.344-.341-6.975.225-9.596zm104.876-64.278l.019 37.834H56.399m-19.787 0l-19.059.019V76.613" stroke="#5B5B5B" stroke-width=".709" stroke-linejoin="round"/><path stroke="#5B5B5B" stroke-width=".709" d="M150.539 76.941v66.679l-16.938-12.378.129-16.882"/><path d="M.952 65.438l16.686 11.126-.218 65.963L.775 130.363l.177-64.925zm116.099.018l3.707-.033-3.707.033zm22.896 3.297l10.803 7.877-86.387.042 75.584-7.919zm-108.31 7.933l-13.77.006L.848 65.361l13.339.004 17.45 11.321zM30.281 65.37l1.994.001-1.994-.001zm33.901.053l10.905.005-10.905-.005z" stroke="#5B5B5B" stroke-width=".709" stroke-linejoin="round"/><path stroke="#5B5B5B" stroke-width=".287" stroke-linejoin="round" d="M121.737 54.083l.15-2.352.519-.295-.42-1.073-.09-3.449 3.82 3.816-.05 2.215.381 1.644-.477 1.288-.083 2.16.277 2.895-.989.946-.294 5.476.716.468-.009 1.26-.65.3.25 3.704-3.28-3.745-.04-3.75.153-.134.039-1.728-.226-.83.057-4.893.313-.91z"/><path stroke="#5B5B5B" stroke-width=".286" stroke-linejoin="round" d="M125.929 58.216l.214-2.858.511-.764-.566-1.195.09-2.6 13.166-.687.112 3.864.221.713-.392.449-.336 2.497.297 2.622.433.203-.449 1.311-.186 2.555-.044 1.159-.044.696.439 1.121-.43.85.21 2.501.535.206-.643 1.003.02.897-13.921.448-.158-3.597.612-.31.153-1.724-.901-.544.228-4.821 1.245-1.247z"/><path fill="#5B5B5B" d="M125.971 59.183l13.023-.399.117.534-13.046.373-.094-.508m-3.967-11.39l3.726 3.828.091.488-3.817-3.854v-.462m-.247 8.252l3.866 3.805.091.489-3.957-3.832v-.462m.044-7.029l3.827 3.709.127.567-3.93-3.879-.024-.397m-.207 8.595l4.028 3.566-.187.239-3.927-3.205.086-.6m.378-7.206l4.02 3.937.014.176-.037.29-3.59-3.37-.407-1.033m-.532 8.175l3.383 3.216-.12.329-3.263-3.083v-.462m.325-6.559l3.968 3.278-.12.329-3.896-3.001.048-.606m-.013 2.063l3.763 2.943.055.509-3.924-3.155.106-.297m-.368 12.023l3.701 2.78-.121.262-3.58-2.674v-.368m.089-5.22l3.261 2.989-.121.329-3.14-2.856v-.462m-.05 6.483l3.093 2.178.124.67-3.192-2.523-.025-.325m.026-4.679l3.132 2.792-.004.35-3.128-2.639v-.503m.076 5.626l3.249 3.197-.052.412-3.164-3.191-.033-.418m.075-3.385l3.577 2.87.014.679-3.57-3.069-.021-.48m4.523-12.054l13.4-.417v.276l-13.352.417-.048-.276m.014-1.018l13.191-.549v.276l-13.143.549-.048-.276m.201 8.804l12.803-.476.615.353-13.418.399v-.276m.162-6.418l12.927-.464.035.328-12.837.45-.125-.314m-1.623 12.764l14.421-.076.131.456-13.594.204-.958-.584m.17-4.703l14.195-.547.147.235-.204.344-14.138.254v-.286m1.206-7.145l13.354-.626.076.209-.459.423-13.151.254.18-.26m-.644 13.562l13.252-.478v.286l-13.252.413v-.221m-.441 3.543l13.872-.481v.276l-13.872.481v-.276m-.218-6.734l14.187-.399-.079.345-14.108.33v-.276m1.004-7.171l13.045-.399.077.318-13.122.356v-.275m-.919 13.075l14.659-.534-.328.39-14.331.42v-.276m-.015-7.356l14.117-.4v.276l-14.117.399v-.275m.999-7.172l13.16-.399-.18.302-12.98.373v-.276m-1.014 13.075l14.077-.42v.276l-14.077.42v-.276"/><path stroke="#5B5B5B" stroke-width=".286" stroke-linejoin="round" d="M122.231 46.36l12.706-.395 4.436 3.636-13.201.515z"/><path d="M113.7 63.95l3.52-16.879c.143-.688-.303-1.216-.99-1.216l-34.555-.006c-.688 0-1.366.562-1.509 1.25l-5.16 24.833c-.144.688.3 1.25.99 1.252l31.657.005" stroke="#5B5B5B" stroke-width=".597" stroke-linejoin="round"/><path d="M75.887 67.344l-7.994-.14 7.16 4.519.834-4.379zm-.951 4.231L67.84 67.2l.037.856 7.658 5.052c-.404-.185-.765-.742-.599-1.533z" stroke="#5B5B5B" stroke-width=".603" stroke-linejoin="round"/><path stroke="#5B5B5B" stroke-width=".85" d="M105.023 29.615h19.585V9.88h-19.585z"/><path fill="#5B5B5B" d="M114.288 11.995h.904V9.886h-.904zm-9.322 8.105h2.109v-.904h-2.109zm9.322 9.717h.904v-2.109h-.904zm8.216-9.717h2.109v-.904h-2.109zm-7.7-1.168a.79.79 0 1 1 0 1.582.79.79 0 0 1 0-1.582"/><path fill="#5B5B5B" d="M120.617 15.425l.436.206.014.489-5.787 3.743-.45-.696 5.787-3.742"/><path fill="#5B5B5B" d="M110.597 17.253l.013-.483.442-.209 4.176 2.958-.455.692-4.176-2.958"/><path d="M108.803 65.39c.384.612 6.445.646 7.203 0v9.015c-.108 1.017-6.853.865-7.203 0V65.39zm7.203 1.776c3.607-1.533 1.775 5.207-.025 4.955l.025-4.955zm-.024.375c2.973-1.445 1.418 4.318-.056 4.18m-7.078-6.329c-.2-.616 7.228-.562 7.118.012" stroke="#5B5B5B" stroke-width=".455" stroke-linejoin="round"/><path d="M20.072 61.651V60.06h1.334v1.591h3.378v-1.825h1.335v1.825c3.187.061 3.54 6.312 3.62 9.713.027 1.127-.641 1.291-1.272 1.256H17.398c-.973-.19-1.009-.215-1.174-1.184-.067-3.222.25-9.284 3.848-9.785z" stroke="#5B5B5B" stroke-width=".652"/><path d="M16.535 72.382c-.536-.335-2.28-1.261-2.325-2.094.172-2.329.777-4.965 1.924-6.843a6.58 6.58 0 0 1 1.715-1.848c.497-.36 1.718-.624 2.402-.646m1.348-.041c2.257-.056 2.565-.004 2.968-.023" stroke="#5B5B5B" stroke-width=".652" stroke-linejoin="round"/><path d="M45.934 23.245c2.133 18.868 2.824 40.654-3.104 44.564-2.402 1.585-6.003-11.994-8.249-12.453-3.317 7.533-2.586 8.976-4.182 8.53-.351-.098-1.932-3.253-4.163-2.387" stroke="#5B5B5B" stroke-width=".567"/><path d="M23.238 63.811c1.855 0 3.358 1.378 3.358 3.078s-1.503 3.077-3.358 3.077c-1.854 0-3.357-1.377-3.357-3.077s1.503-3.078 3.357-3.078zm1.165 4.132c.284.328.754.975.972 1.32l-.972-1.32z" stroke="#5B5B5B" stroke-width=".593"/><path d="M86.185 126.138c5.484-2.033 21.774-1.099 22.714-.545l4.726 9.064-1.81.59 2.23 10.015c-10.028 2.38-20.512 2.78-29.282 0l1.422-19.124z" stroke="#5B5B5B" stroke-width=".71"/><path d="M86.201 126.713c.579 1.577.367 9.44 1.035 9.564 7.458 1.386 22.467.016 25.6-1.403" stroke="#5B5B5B" stroke-width=".709"/><path d="M92.436 124.872c2.308-6.88 9.879-5.856 11.785.017" stroke="#5B5B5B" stroke-width=".706"/><path d="M94.212 124.874c1.6-4.841 6.953-4.01 8.337.013" stroke="#5B5B5B" stroke-width=".704"/><path d="M84.707 145.166c-1.39-.658-2.781-1.47-3.26-3.508.742-3.934 1.928-8.012 4.812-15.631" stroke="#5B5B5B" stroke-width=".701"/><path d="M100.911 134.02a2.31 2.31 0 1 1 0 4.619 2.31 2.31 0 0 1 0-4.619z" stroke="#5B5B5B" stroke-width=".708"/></g></svg>