<svg xmlns="http://www.w3.org/2000/svg" xmlns:xlink="http://www.w3.org/1999/xlink" width="752" height="496" viewBox="0 0 752 496"><svg width="24" height="24" viewBox="0 0 24 24"><path fill="#444" d="M12.516 6.984v5.25l4.5 2.672-.75 1.266-5.25-3.188v-6h1.5zM12 20.016c4.406 0 8.016-3.609 8.016-8.016S16.407 3.984 12 3.984 3.984 7.593 3.984 12 7.593 20.016 12 20.016zm0-18c5.531 0 9.984 4.453 9.984 9.984S17.531 21.984 12 21.984 2.016 17.531 2.016 12 6.469 2.016 12 2.016z"/></svg><svg width="24" height="24" viewBox="0 0 24 24" x="40"><path fill="#444" d="M18.984 12.984h-6v6h-1.969v-6h-6v-1.969h6v-6h1.969v6h6v1.969z"/></svg><svg width="24" height="24" viewBox="0 0 24 24" x="80"><path fill="#444" d="M17.016 12.984v-1.969h-4.031V6.984h-1.969v4.031H6.985v1.969h4.031v4.031h1.969v-4.031h4.031zM18.984 3C20.062 3 21 3.938 21 5.016v13.969c0 1.078-.938 2.016-2.016 2.016H5.015c-1.125 0-2.016-.938-2.016-2.016V5.016C2.999 3.938 3.89 3 5.015 3h13.969z"/></svg><svg width="24" height="24" viewBox="0 0 24 24" x="120"><path fill="#444" d="M18 18.984v-1.406c0-2.016-3.984-3.094-6-3.094s-6 1.078-6 3.094v1.406h12zm-6-12c-1.641 0-3 1.359-3 3s1.359 3 3 3 3-1.359 3-3-1.359-3-3-3zM12 3c-.563 0-.984.422-.984.984s.422 1.031.984 1.031.984-.469.984-1.031S12.562 3 12 3zm6.984 0C20.062 3 21 3.938 21 5.016v13.969c0 1.078-.938 2.016-2.016 2.016H5.015c-1.078 0-2.016-.938-2.016-2.016V5.016C2.999 3.938 3.937 3 5.015 3h4.172C9.609 1.828 10.687.984 12 .984s2.391.844 2.813 2.016h4.172z"/></svg><svg width="24" height="24" viewBox="0 0 24 24" x="160"><path fill="#444" d="M14.391 6h5.625v9.984h-7.031l-.375-1.969H6.985v6.984H5.016V3.983h9z"/></svg><svg width="24" height="24" viewBox="0 0 24 24" x="200"><path fill="#444" d="M20.016 15.984v-12H3.985V18l2.016-2.016h14.016zm0-13.968c1.078 0 1.969.891 1.969 1.969v12c0 1.078-.891 2.016-1.969 2.016H6l-3.984 3.984v-18c0-1.078.891-1.969 1.969-1.969h16.031z"/></svg><svg width="24" height="24" viewBox="0 0 24 24" x="240"><path fill="#444" d="M9 16.172L19.594 5.578 21 6.984l-12 12-5.578-5.578L4.828 12z"/></svg><svg width="24" height="24" viewBox="0 0 24 24" x="280"><path fill="#444" d="M9.984 17.016l9-9-1.406-1.453-7.594 7.594-3.563-3.563L5.015 12zm9-14.016C20.109 3 21 3.938 21 5.016v13.969c0 1.078-.891 2.016-2.016 2.016H5.015c-1.125 0-2.016-.938-2.016-2.016V5.016C2.999 3.938 3.89 3 5.015 3h13.969z"/></svg><svg width="24" height="24" viewBox="0 0 24 24" x="320"><path fill="#444" d="M18.984 3C20.062 3 21 3.938 21 5.016v13.969c0 1.078-.938 2.016-2.016 2.016H5.015c-1.078 0-2.016-.938-2.016-2.016V5.016C2.999 3.938 3.937 3 5.015 3h13.969zm0 2.016H5.015v13.969h13.969V5.016z"/></svg><svg width="24" height="24" viewBox="0 0 24 24" x="360"><path fill="#444" d="M9.984 17.016l9-9-1.406-1.453-7.594 7.594-3.563-3.563L5.015 12zm2.016-15c5.531 0 9.984 4.453 9.984 9.984S17.531 21.984 12 21.984 2.016 17.531 2.016 12 6.469 2.016 12 2.016z"/></svg><svg width="24" height="24" viewBox="0 0 24 24" x="400"><path fill="#444" d="M18.984 6.422L13.406 12l5.578 5.578-1.406 1.406L12 13.406l-5.578 5.578-1.406-1.406L10.594 12 5.016 6.422l1.406-1.406L12 10.594l5.578-5.578z"/></svg><svg width="24" height="24" viewBox="0 0 24 24" x="440"><path fill="#444" d="M9 16.219L19.594 5.578 21 6.984l-12 12-5.578-5.578L4.781 12z"/></svg><svg width="24" height="24" viewBox="0 0 24 24" x="480"><path fill="#444" d="M12 12.984l8.25-5.156L12 3 3.75 7.828zm9.984-4.968V18c0 1.078-.891 2.016-1.969 2.016H3.984c-1.078 0-1.969-.938-1.969-2.016V8.016c0-.703.375-1.406.938-1.734L12 .985l9.047 5.297c.563.328.938 1.031.938 1.734z"/></svg><svg width="24" height="24" viewBox="0 0 24 24" x="520"><path fill="#444" d="M20.016 8.016V6L12 11.016 3.984 6v2.016L12 12.985zm0-4.032c1.078 0 1.969.938 1.969 2.016v12c0 1.078-.891 2.016-1.969 2.016H3.985c-1.078 0-1.969-.938-1.969-2.016V6c0-1.078.891-2.016 1.969-2.016h16.031z"/></svg><svg width="24" height="24" viewBox="0 0 24 24" x="560"><path fill="#444" d="M12.984 12.984v-6h-1.969v6h1.969zm0 4.032V15h-1.969v2.016h1.969zm-.984-15c5.531 0 9.984 4.453 9.984 9.984S17.531 21.984 12 21.984 2.016 17.531 2.016 12 6.469 2.016 12 2.016z"/></svg><svg width="24" height="24" viewBox="0 0 24 24" x="600"><path fill="#444" d="M12 20.016c4.406 0 8.016-3.609 8.016-8.016S16.407 3.984 12 3.984 3.984 7.593 3.984 12 7.593 20.016 12 20.016zm0-18c5.531 0 9.984 4.453 9.984 9.984S17.531 21.984 12 21.984 2.016 17.531 2.016 12 6.469 2.016 12 2.016zm-.984 4.968h1.969v6h-1.969v-6zm0 8.016h1.969v2.016h-1.969V15z"/></svg><svg width="24" height="24" viewBox="0 0 24 24" y="40"><path fill="#444" d="M15.047 11.25A3.186 3.186 0 0 0 15.985 9c0-2.203-1.781-3.984-3.984-3.984S8.017 6.797 8.017 9h1.969c0-1.078.938-2.016 2.016-2.016s2.016.938 2.016 2.016c0 .563-.234 1.031-.609 1.406l-1.219 1.266c-.703.75-1.172 1.734-1.172 2.813v.516h1.969c0-1.5.469-2.063 1.172-2.813zm-2.063 7.734v-1.969h-1.969v1.969h1.969zM12 2.016c5.531 0 9.984 4.453 9.984 9.984S17.531 21.984 12 21.984 2.016 17.531 2.016 12 6.469 2.016 12 2.016z"/></svg><svg width="24" height="24" viewBox="0 0 24 24" x="40" y="40"><path fill="#444" d="M12 6a3.98 3.98 0 0 1 3.984 3.984c0 2.484-3 2.766-3 5.016h-1.969c0-3.234 3-3 3-5.016 0-1.078-.938-1.969-2.016-1.969s-2.016.891-2.016 1.969H8.014A3.98 3.98 0 0 1 11.998 6zm0 14.016c4.406 0 8.016-3.609 8.016-8.016S16.407 3.984 12 3.984 3.984 7.593 3.984 12 7.593 20.016 12 20.016zm0-18c5.531 0 9.984 4.453 9.984 9.984S17.531 21.984 12 21.984 2.016 17.531 2.016 12 6.469 2.016 12 2.016zM11.016 18v-2.016h1.969V18h-1.969z"/></svg><svg width="24" height="24" viewBox="0 0 24 24" x="80" y="40"><path fill="#444" d="M17.016 12.984v-1.969H6.985v1.969h10.031zM18.984 3C20.062 3 21 3.938 21 5.016v13.969c0 1.078-.938 2.016-2.016 2.016H5.015c-1.078 0-2.016-.938-2.016-2.016V5.016C2.999 3.938 3.937 3 5.015 3h13.969z"/></svg><svg width="24" height="24" viewBox="0 0 24 24" x="120" y="40"><path fill="#444" d="M12.984 9V6.984h-1.969V9h1.969zm0 8.016v-6h-1.969v6h1.969zm-.984-15c5.531 0 9.984 4.453 9.984 9.984S17.531 21.984 12 21.984 2.016 17.531 2.016 12 6.469 2.016 12 2.016z"/></svg><svg width="24" height="24" viewBox="0 0 24 24" x="160" y="40"><path fill="#444" d="M11.016 9V6.984h1.969V9h-1.969zM12 20.016c4.406 0 8.016-3.609 8.016-8.016S16.407 3.984 12 3.984 3.984 7.593 3.984 12 7.593 20.016 12 20.016zm0-18c5.531 0 9.984 4.453 9.984 9.984S17.531 21.984 12 21.984 2.016 17.531 2.016 12 6.469 2.016 12 2.016zm-.984 15v-6h1.969v6h-1.969z"/></svg><svg width="24" height="24" viewBox="0 0 24 24" x="200" y="40"><path fill="#444" d="M7.406 7.828L12 12.422l4.594-4.594L18 9.234l-6 6-6-6z"/></svg><svg width="24" height="24" viewBox="0 0 24 24" x="240" y="40"><path fill="#444" d="M15.422 16.078l-1.406 1.406-6-6 6-6 1.406 1.406-4.594 4.594z"/></svg><svg width="24" height="24" viewBox="0 0 24 24" x="280" y="40"><path fill="#444" d="M8.578 16.359l4.594-4.594-4.594-4.594 1.406-1.406 6 6-6 6z"/></svg><svg width="24" height="24" viewBox="0 0 24 24" x="320" y="40"><path fill="#444" d="M7.406 15.422L6 14.016l6-6 6 6-1.406 1.406L12 10.828z"/></svg><svg width="24" height="24" viewBox="0 0 24 24" x="360" y="40"><path fill="#444" d="M5.484 6.984c.844 0 1.5-.656 1.5-1.5s-.656-1.5-1.5-1.5-1.5.656-1.5 1.5.656 1.5 1.5 1.5zm15.938 4.594c.375.375.563.844.563 1.406s-.188 1.031-.563 1.406l-7.031 7.031c-.375.375-.844.563-1.406.563s-1.031-.188-1.406-.563l-9-9c-.375-.375-.563-.844-.563-1.406V3.984c0-1.078.891-1.969 1.969-1.969h7.031c.563 0 1.031.188 1.406.563z"/></svg><svg width="24" height="24" viewBox="0 0 24 24" x="400" y="40"><path fill="#444" d="M18 18.516c.844 0 1.5-.656 1.5-1.5s-.656-1.5-1.5-1.5-1.5.656-1.5 1.5.656 1.5 1.5 1.5zm1.5-9h-2.484V12h4.453zm-13.5 9c.844 0 1.5-.656 1.5-1.5s-.656-1.5-1.5-1.5-1.5.656-1.5 1.5.656 1.5 1.5 1.5zm14.016-10.5l3 3.984v5.016H21c0 1.641-1.359 3-3 3s-3-1.359-3-3H9c0 1.641-1.359 3-3 3s-3-1.359-3-3H.984V6c0-1.078.938-2.016 2.016-2.016h14.016v4.031h3z"/></svg><svg width="24" height="24" viewBox="0 0 24 24" x="440" y="40"><path fill="#444" d="M12 11.484c1.359 0 2.484-1.125 2.484-2.484S13.359 6.516 12 6.516 9.516 7.641 9.516 9s1.125 2.484 2.484 2.484zm0-9.468A6.942 6.942 0 0 1 18.984 9c0 5.25-6.984 12.984-6.984 12.984S5.016 14.25 5.016 9A6.942 6.942 0 0 1 12 2.016z"/></svg><svg width="24" height="24" viewBox="0 0 24 24" x="480" y="40"><path fill="#444" d="M12 14.016c2.672 0 8.016 1.313 8.016 3.984v2.016H3.985V18c0-2.672 5.344-3.984 8.016-3.984zM12 12c-2.203 0-3.984-1.781-3.984-3.984S9.797 3.985 12 3.985s3.984 1.828 3.984 4.031S14.203 12 12 12z"/></svg><svg width="24" height="24" viewBox="0 0 24 24" x="520" y="40"><path fill="#444" d="M15 14.016c2.672 0 8.016 1.313 8.016 3.984v2.016H6.985V18c0-2.672 5.344-3.984 8.016-3.984zM6 9.984h3V12H6v3H3.984v-3h-3V9.984h3v-3H6v3zM15 12c-2.203 0-3.984-1.781-3.984-3.984S12.797 3.985 15 3.985s3.984 1.828 3.984 4.031S17.203 12 15 12z"/></svg><svg width="32" height="32" viewBox="0 0 32 32" y="80"><path fill="#444" d="M18 22.082v-1.649c2.203-1.241 4-4.337 4-7.432 0-4.971 0-9-6-9s-6 4.029-6 9c0 3.096 1.797 6.191 4 7.432v1.649C7.216 22.637 2 25.97 2 30h28c0-4.03-5.216-7.364-12-7.918z"/></svg><svg width="36" height="32" viewBox="0 0 36 32" x="48" y="80"><path fill="#444" d="M24 24.082v-1.649c2.203-1.241 4-4.337 4-7.432 0-4.971 0-9-6-9s-6 4.029-6 9c0 3.096 1.797 6.191 4 7.432v1.649C13.216 24.637 8 27.97 8 32h28c0-4.03-5.216-7.364-12-7.918z"/><path fill="#444" d="M10.225 24.854c1.728-1.13 3.877-1.989 6.243-2.513a11.33 11.33 0 0 1-1.265-1.844c-.95-1.726-1.453-3.627-1.453-5.497 0-2.689 0-5.228.956-7.305.928-2.016 2.598-3.265 4.976-3.734C19.153 1.571 17.746 0 14 0 8 0 8 4.029 8 9c0 3.096 1.797 6.191 4 7.432v1.649c-6.784.555-12 3.888-12 7.918h8.719c.454-.403.956-.787 1.506-1.146z"/></svg><svg width="32" height="32" viewBox="0 0 32 32" x="96" y="80"><path fill="#444" d="M12 23c0-4.726 2.996-8.765 7.189-10.319C19.698 11.539 20 10.27 20 9c0-4.971 0-9-6-9S8 4.029 8 9c0 3.096 1.797 6.191 4 7.432v1.649c-6.784.555-12 3.888-12 7.918h12.416a10.962 10.962 0 0 1-.416-3z"/><path fill="#444" d="M23 14c-4.971 0-9 4.029-9 9s4.029 9 9 9 9-4.029 9-9-4.029-9-9-9zm5 10h-4v4h-2v-4h-4v-2h4v-4h2v4h4v2z"/></svg><svg width="32" height="32" viewBox="0 0 32 32" x="144" y="80"><path fill="#444" d="M12 23c0-4.726 2.996-8.765 7.189-10.319C19.698 11.539 20 10.27 20 9c0-4.971 0-9-6-9S8 4.029 8 9c0 3.096 1.797 6.191 4 7.432v1.649c-6.784.555-12 3.888-12 7.918h12.416a10.962 10.962 0 0 1-.416-3z"/><path fill="#444" d="M23 14c-4.971 0-9 4.029-9 9s4.029 9 9 9 9-4.029 9-9-4.029-9-9-9zm5 10H18v-2h10v2z"/></svg><svg width="32" height="32" viewBox="0 0 32 32" x="192" y="80"><path fill="#444" d="M30 19l-9 9-3-3-2 2 5 5 11-11z"/><path fill="#444" d="M14 24h10v-3.598c-2.101-1.225-4.885-2.066-8-2.321v-1.649c2.203-1.242 4-4.337 4-7.432 0-4.971 0-9-6-9S8 4.029 8 9c0 3.096 1.797 6.191 4 7.432v1.649c-6.784.555-12 3.888-12 7.918h14v-2z"/></svg><svg width="32" height="32" viewBox="0 0 32 32" x="240" y="80"><path fill="#444" d="M10 6a6 6 0 1 1 12 0 6 6 0 0 1-12 0zm14.002 8h-1.107l-6.222 12.633L19 15l-3-3-3 3 2.327 11.633L9.105 14H7.998C4 14 4 16.687 4 20v10h24V20c0-3.313 0-6-3.998-6z"/></svg><svg width="32" height="32" viewBox="0 0 32 32" x="288" y="80"><path fill="#444" d="M16 9.472a1.865 1.865 0 0 1-1.865-1.865V2.011a1.865 1.865 0 0 1 3.73 0v5.596c0 1.03-.835 1.865-1.865 1.865zm0 21.683a1.166 1.166 0 0 1-1.166-1.166v-5.596a1.166 1.166 0 1 1 2.332 0v5.596c0 .644-.522 1.166-1.166 1.166zM11.805 10.48a1.749 1.749 0 0 1-1.516-.875L7.491 4.759A1.75 1.75 0 0 1 10.52 3.01l2.798 4.846a1.75 1.75 0 0 1-1.513 2.624zm11.19 18.684a1.05 1.05 0 0 1-.91-.525l-2.798-4.846a1.049 1.049 0 1 1 1.817-1.049l2.798 4.846a1.049 1.049 0 0 1-.908 1.574zM8.729 13.436c-.277 0-.557-.07-.814-.219l-4.846-2.798a1.631 1.631 0 1 1 1.632-2.826l4.846 2.798a1.631 1.631 0 0 1-.818 3.045zm19.385 10.491a.923.923 0 0 1-.465-.125l-4.846-2.798a.932.932 0 1 1 .933-1.615l4.846 2.798a.932.932 0 0 1-.468 1.74zM7.607 17.515H2.011a1.515 1.515 0 1 1 0-3.03h5.596a1.515 1.515 0 1 1 0 3.03zm22.382-.582h-5.596a.933.933 0 0 1 0-1.866h5.596a.933.933 0 0 1 0 1.866zM3.886 24.394a1.399 1.399 0 0 1-.701-2.611l4.846-2.798a1.398 1.398 0 1 1 1.399 2.423l-4.846 2.798c-.22.127-.461.188-.698.188zM23.27 12.736a.934.934 0 0 1-.468-1.74l4.846-2.798a.933.933 0 0 1 .933 1.615l-4.846 2.798a.925.925 0 0 1-.465.125zM9.004 29.397a1.283 1.283 0 0 1-1.109-1.924l2.798-4.846a1.283 1.283 0 0 1 2.221 1.283l-2.798 4.846a1.281 1.281 0 0 1-1.112.641zM20.196 9.664a.932.932 0 0 1-.806-1.399l2.798-4.846a.932.932 0 1 1 1.615.933l-2.798 4.846a.932.932 0 0 1-.809.466z"/></svg><svg width="32" height="32" viewBox="0 0 32 32" x="336" y="80"><path fill="#444" d="M16 0C7.289 0 .204 6.961.005 15.624.19 8.066 5.937 2 13 2c7.18 0 13 6.268 13 14a3 3 0 1 0 6 0c0-8.837-7.163-16-16-16zm0 32c8.711 0 15.796-6.961 15.995-15.624C31.81 23.934 26.063 30 19 30c-7.18 0-13-6.268-13-14a3 3 0 1 0-6 0c0 8.837 7.163 16 16 16z"/></svg><svg width="32" height="32" viewBox="0 0 32 32" x="384" y="80"><path fill="#444" d="M18.5 14H18V8c0-3.308-2.692-6-6-6H8C4.692 2 2 4.692 2 8v6h-.5c-.825 0-1.5.675-1.5 1.5v15c0 .825.675 1.5 1.5 1.5h17c.825 0 1.5-.675 1.5-1.5v-15c0-.825-.675-1.5-1.5-1.5zM6 8c0-1.103.897-2 2-2h4c1.103 0 2 .897 2 2v6H6V8z"/></svg><svg width="32" height="32" viewBox="0 0 32 32" x="432" y="80"><path fill="#444" d="M24 2c3.308 0 6 2.692 6 6v6h-4V8c0-1.103-.897-2-2-2h-4c-1.103 0-2 .897-2 2v6h.5c.825 0 1.5.675 1.5 1.5v15c0 .825-.675 1.5-1.5 1.5h-17C.675 32 0 31.325 0 30.5v-15c0-.825.675-1.5 1.5-1.5H14V8c0-3.308 2.692-6 6-6h4z"/></svg><svg width="32" height="32" viewBox="0 0 32 32" x="480" y="80"><path fill="#444" d="M31.342 25.559L16.95 13.223A9 9 0 0 0 6.387.387l5.2 5.2a2.005 2.005 0 0 1 0 2.828l-3.172 3.172a2.005 2.005 0 0 1-2.828 0l-5.2-5.2A9 9 0 0 0 13.223 16.95l12.336 14.392a1.828 1.828 0 0 0 2.716.104l3.172-3.172c.778-.778.731-2-.104-2.716z"/></svg><svg width="32" height="32" viewBox="0 0 32 32" x="528" y="80"><path fill="#444" d="M29.181 19.07c-1.679-2.908-.669-6.634 2.255-8.328l-3.145-5.447a6.022 6.022 0 0 1-3.058.829c-3.361 0-6.085-2.742-6.085-6.125h-6.289a6.023 6.023 0 0 1-.811 3.07C10.369 5.977 6.637 6.966 3.709 5.28L.565 10.727a6.023 6.023 0 0 1 2.246 2.234c1.676 2.903.672 6.623-2.241 8.319l3.145 5.447a6.022 6.022 0 0 1 3.044-.82c3.35 0 6.067 2.725 6.084 6.092h6.289a6.032 6.032 0 0 1 .811-3.038c1.676-2.903 5.399-3.894 8.325-2.219l3.145-5.447a6.032 6.032 0 0 1-2.232-2.226zM16 22.479A6.48 6.48 0 1 1 16 9.52a6.48 6.48 0 0 1 0 12.959z"/></svg><svg width="32" height="32" viewBox="0 0 32 32" x="576" y="80"><path fill="#444" d="M29 4h-9a4 4 0 0 0-8 0H3a1 1 0 0 0-1 1v26a1 1 0 0 0 1 1h26a1 1 0 0 0 1-1V5a1 1 0 0 0-1-1zM16 2a2 2 0 1 1 .001 3.999A2 2 0 0 1 16 2zm12 28H4V6h4v3a1 1 0 0 0 1 1h14a1 1 0 0 0 1-1V6h4v24z"/><path fill="#444" d="M14 26.828l-6.414-7.414 1.828-1.828L14 21.172l8.586-7.586 1.829 1.828z"/></svg><svg width="32" height="32" viewBox="0 0 32 32" x="624" y="80"><path fill="#444" d="M26.313 18.421c-.427-.42-1.372-.643-2.812-.662-.974-.011-2.147.075-3.38.248-.552-.319-1.122-.665-1.568-1.083-1.202-1.122-2.205-2.68-2.831-4.394.041-.16.075-.301.108-.444 0 0 .677-3.846.498-5.146a1.526 1.526 0 0 0-.088-.369l-.059-.151c-.184-.425-.545-.875-1.111-.85l-.341-.011c-.631 0-1.146.323-1.281.805-.411 1.514.013 3.778.781 6.711l-.197.478c-.55 1.34-1.238 2.689-1.846 3.88l-.079.155a65.82 65.82 0 0 1-1.745 3.213l-.543.287c-.04.021-.97.513-1.188.645-1.852 1.106-3.079 2.361-3.282 3.357-.065.318-.017.725.313.913l.525.264c.228.114.468.172.714.172 1.319 0 2.85-1.643 4.959-5.324a49.318 49.318 0 0 1 7.638-1.815c1.852 1.043 4.129 1.767 5.567 1.767.255 0 .475-.024.654-.072a1.11 1.11 0 0 0 .65-.444c.279-.42.335-.998.26-1.59-.023-.176-.163-.393-.315-.541zM6.614 25.439c.241-.658 1.192-1.958 2.6-3.111.088-.072.306-.276.506-.466-1.472 2.348-2.458 3.283-3.106 3.577zM14.951 6.24c.424 0 .665 1.069.685 2.07s-.214 1.705-.505 2.225c-.241-.77-.357-1.984-.357-2.778 0 0-.018-1.517.177-1.517zm-2.487 13.682c.295-.529.603-1.086.917-1.677a31.984 31.984 0 0 0 1.609-3.511c.716 1.303 1.608 2.41 2.656 3.297.131.111.269.222.415.333-2.132.422-3.974.935-5.596 1.558zm13.439-.12c-.13.081-.502.128-.741.128-.772 0-1.727-.353-3.066-.927.515-.038.986-.057 1.409-.057.774 0 1.004-.003 1.761.19s.767.585.637.667z"/><path fill="#444" d="M28.681 7.159c-.694-.947-1.662-2.053-2.724-3.116s-2.169-2.03-3.116-2.724C21.229.137 20.448 0 20 0H4.5A2.503 2.503 0 0 0 2 2.5v27C2 30.878 3.121 32 4.5 32h23c1.378 0 2.5-1.122 2.5-2.5V10c0-.448-.137-1.23-1.319-2.841zm-4.138-1.702A27.334 27.334 0 0 1 26.811 8H22V3.189a27.334 27.334 0 0 1 2.543 2.268zM28 29.5c0 .271-.229.5-.5.5h-23a.507.507 0 0 1-.5-.5v-27c0-.271.229-.5.5-.5H20v7a1 1 0 0 0 1 1h7v19.5z"/></svg><svg width="32" height="32" viewBox="0 0 32 32" x="672" y="80"><path fill="#444" d="M19.993 14.872h1.382l-1.594 7.068-2.073-9.938h-3.33l-2.41 9.938-1.807-9.938H6.68l3.534 15.996h3.401l2.384-9.46 2.133 9.46h3.136l4.051-15.996h-5.326v2.87z"/><path fill="#444" d="M28.681 7.159c-.694-.947-1.662-2.053-2.724-3.116s-2.169-2.03-3.116-2.724C21.229.137 20.448 0 20 0H4.5A2.503 2.503 0 0 0 2 2.5v27C2 30.878 3.121 32 4.5 32h23c1.378 0 2.5-1.122 2.5-2.5V10c0-.448-.137-1.23-1.319-2.841zm-4.138-1.702A27.334 27.334 0 0 1 26.811 8H22V3.189a27.334 27.334 0 0 1 2.543 2.268zM28 29.5c0 .271-.229.5-.5.5h-23a.507.507 0 0 1-.5-.5v-27c0-.271.229-.5.5-.5H20v7a1 1 0 0 0 1 1h7v19.5z"/></svg><svg width="32" height="32" viewBox="0 0 32 32" x="720" y="80"><path fill="#444" d="M23.22 12h-4.228L16 16.407 13.008 12H8.78l5.068 7.577L8.13 28H16v-2.862h-1.567L16 22.794l3.481 5.205h4.389l-5.718-8.423 5.068-7.577z"/><path fill="#444" d="M28.681 7.159c-.694-.947-1.662-2.053-2.724-3.116s-2.169-2.03-3.116-2.724C21.229.137 20.448 0 20 0H4.5A2.503 2.503 0 0 0 2 2.5v27C2 30.878 3.121 32 4.5 32h23c1.378 0 2.5-1.122 2.5-2.5V10c0-.448-.137-1.23-1.319-2.841zm-4.138-1.702A27.334 27.334 0 0 1 26.811 8H22V3.189a27.334 27.334 0 0 1 2.543 2.268zM28 29.5c0 .271-.229.5-.5.5h-23a.507.507 0 0 1-.5-.5v-27c0-.271.229-.5.5-.5H20v7a1 1 0 0 0 1 1h7v19.5z"/></svg><svg width="32" height="32" viewBox="0 0 32 32" y="128"><path fill="#444" d="M32 18.451L16 6.031 0 18.451v-5.064L16 .967l16 12.42zM28 18v12h-8v-8h-8v8H4V18l12-9z"/></svg><svg width="32" height="32" viewBox="0 0 32 32" x="48" y="128"><path fill="#444" d="M0 32h16V0H0v32zM10 4h4v4h-4V4zm0 8h4v4h-4v-4zm0 8h4v4h-4v-4zM2 4h4v4H2V4zm0 8h4v4H2v-4zm0 8h4v4H2v-4zm16-10h14v2H18zm0 22h4v-8h6v8h4V14H18z"/></svg><svg width="32" height="32" viewBox="0 0 32 32" x="96" y="128"><path fill="#444" d="M27 0a5 5 0 0 1 4 8l-2 2-7-7 2-2c.836-.628 1.874-1 3-1zM2 23l-2 9 9-2 18.5-18.5-7-7L2 23zm20.362-11.638l-14 14-1.724-1.724 14-14 1.724 1.724z"/></svg><svg width="36" height="32" viewBox="0 0 36 32" x="144" y="128"><path fill="#444" d="M7 4H1c-.55 0-1 .45-1 1v22c0 .55.45 1 1 1h6c.55 0 1-.45 1-1V5c0-.55-.45-1-1-1zm-1 6H2V8h4v2zm11-6h-6c-.55 0-1 .45-1 1v22c0 .55.45 1 1 1h6c.55 0 1-.45 1-1V5c0-.55-.45-1-1-1zm-1 6h-4V8h4v2z"/><path fill="#444" d="M23.909 5.546l-5.358 2.7a1.003 1.003 0 0 0-.443 1.343l8.999 17.861c.247.491.852.691 1.343.443l5.358-2.7c.491-.247.691-.852.443-1.343L25.252 5.989a1.003 1.003 0 0 0-1.343-.443z"/><path fill="#444" d="M29 27a1 1 0 1 1-2 0 1 1 0 0 1 2 0z"/></svg><svg width="32" height="32" viewBox="0 0 32 32" x="192" y="128"><path fill="#444" d="M27 0H3C1.35 0 0 1.35 0 3v26c0 1.65 1.35 3 3 3h24c1.65 0 3-1.35 3-3V3c0-1.65-1.35-3-3-3zm-1 28H4V4h22v24zM8 14h14v2H8zm0 4h14v2H8zm0 4h14v2H8zm0-12h14v2H8z"/></svg><svg width="32" height="32" viewBox="0 0 32 32" x="240" y="128"><path fill="#444" d="M27 0H3C1.35 0 0 1.35 0 3v26c0 1.65 1.35 3 3 3h24c1.65 0 3-1.35 3-3V3c0-1.65-1.35-3-3-3zm-1 28H4V4h22v24zM8 18h14v2H8zm0 4h14v2H8zm2-13a3 3 0 1 1 6 0 3 3 0 0 1-6 0zm5 3h-4c-1.65 0-3 .9-3 2v2h10v-2c0-1.1-1.35-2-3-2z"/></svg><svg width="32" height="32" viewBox="0 0 32 32" x="288" y="128"><path fill="#444" d="M28.681 11.159c-.694-.947-1.662-2.053-2.724-3.116s-2.169-2.03-3.116-2.724C21.229 4.137 20.448 4 20 4H8.5A2.503 2.503 0 0 0 6 6.5v23C6 30.878 7.121 32 8.5 32h19c1.378 0 2.5-1.122 2.5-2.5V14c0-.448-.137-1.23-1.319-2.841zm-4.138-1.702A27.334 27.334 0 0 1 26.811 12H22V7.189a27.334 27.334 0 0 1 2.543 2.268zM28 29.5c0 .271-.229.5-.5.5h-19a.507.507 0 0 1-.5-.5v-23c0-.271.229-.5.5-.5H20v7a1 1 0 0 0 1 1h7v15.5z"/><path fill="#444" d="M18.841 1.319C17.229.137 16.448 0 16 0H4.5A2.503 2.503 0 0 0 2 2.5v23c0 1.207.86 2.217 2 2.45V2.5c0-.271.229-.5.5-.5h15.215a19.873 19.873 0 0 0-.873-.681z"/></svg><svg width="32" height="32" viewBox="0 0 32 32" x="336" y="128"><path fill="#444" d="M28.681 7.159c-.694-.947-1.662-2.053-2.724-3.116s-2.169-2.03-3.116-2.724C21.229.137 20.448 0 20 0H4.5A2.503 2.503 0 0 0 2 2.5v27C2 30.878 3.122 32 4.5 32h23c1.378 0 2.5-1.122 2.5-2.5V10c0-.448-.137-1.23-1.319-2.841zm-4.138-1.702A27.334 27.334 0 0 1 26.811 8H22V3.189a27.334 27.334 0 0 1 2.543 2.268zM28 29.5c0 .271-.229.5-.5.5h-23a.507.507 0 0 1-.5-.5v-27c0-.271.229-.5.5-.5H20v7a1 1 0 0 0 1 1h7v19.5z"/><path fill="#444" d="M23 26H9a1 1 0 0 1 0-2h14a1 1 0 0 1 0 2zm0-4H9a1 1 0 0 1 0-2h14a1 1 0 0 1 0 2zm0-4H9a1 1 0 0 1 0-2h14a1 1 0 0 1 0 2z"/></svg><svg width="32" height="32" viewBox="0 0 32 32" x="384" y="128"><path fill="#444" d="M28.681 7.159c-.694-.947-1.662-2.053-2.724-3.116s-2.169-2.03-3.116-2.724C21.229.137 20.448 0 20 0H4.5A2.503 2.503 0 0 0 2 2.5v27C2 30.878 3.121 32 4.5 32h23c1.378 0 2.5-1.122 2.5-2.5V10c0-.448-.137-1.23-1.319-2.841zm-4.138-1.702A27.334 27.334 0 0 1 26.811 8H22V3.189a27.334 27.334 0 0 1 2.543 2.268zM28 29.5c0 .271-.229.5-.5.5h-23a.507.507 0 0 1-.5-.5v-27c0-.271.229-.5.5-.5H20v7a1 1 0 0 0 1 1h7v19.5z"/><path fill="#444" d="M8 2h4v2H8V2zm4 2h4v2h-4V4zM8 6h4v2H8V6zm4 2h4v2h-4V8zm-4 2h4v2H8v-2zm4 2h4v2h-4v-2zm-4 2h4v2H8v-2zm4 2h4v2h-4v-2zM8 26.5c0 .825.675 1.5 1.5 1.5h5c.825 0 1.5-.675 1.5-1.5v-5c0-.825-.675-1.5-1.5-1.5H12v-2H8v8.5zm6-2.5v2h-4v-2h4z"/></svg><svg width="32" height="32" viewBox="0 0 32 32" x="432" y="128"><path fill="#444" d="M30.5 0h-12c-.825 0-1.977.477-2.561 1.061L1.06 15.94a1.505 1.505 0 0 0 0 2.121L13.939 30.94a1.505 1.505 0 0 0 2.121 0l14.879-14.879C31.522 15.478 32 14.325 32 13.5v-12c0-.825-.675-1.5-1.5-1.5zM23 12a3 3 0 1 1 0-6 3 3 0 0 1 0 6z"/></svg><svg width="40" height="32" viewBox="0 0 40 32" x="480" y="128"><path fill="#444" d="M38.5 0h-12c-.825 0-1.977.477-2.561 1.061L9.06 15.94a1.505 1.505 0 0 0 0 2.121L21.939 30.94a1.505 1.505 0 0 0 2.121 0l14.879-14.879C39.522 15.478 40 14.325 40 13.5v-12c0-.825-.675-1.5-1.5-1.5zM31 12a3 3 0 1 1 0-6 3 3 0 0 1 0 6z"/><path fill="#444" d="M4 17L21 0h-2.5c-.825 0-1.977.477-2.561 1.061L1.06 15.94a1.505 1.505 0 0 0 0 2.121L13.939 30.94a1.505 1.505 0 0 0 2.121 0l.939-.939-13-13z"/></svg><svg width="32" height="32" viewBox="0 0 32 32" x="528" y="128"><path fill="#444" d="M12 29a3 3 0 1 1-6 0 3 3 0 0 1 6 0zm20 0a3 3 0 1 1-6 0 3 3 0 0 1 6 0zm0-13V4H8a2 2 0 0 0-2-2H0v2h4l1.502 12.877A4 4 0 0 0 8 24h24v-2H8a2 2 0 0 1-2-2v-.02L32 16z"/></svg><svg width="32" height="32" viewBox="0 0 32 32" x="576" y="128"><path fill="#444" d="M22 20c-2 2-2 4-4 4s-4-2-6-4-4-4-4-6 2-2 4-4-4-8-6-8-6 6-6 6c0 4 4.109 12.109 8 16s12 8 16 8c0 0 6-4 6-6s-6-8-8-6z"/></svg><svg width="32" height="32" viewBox="0 0 32 32" x="624" y="128"><path fill="#444" d="M29 4H3C1.35 4 0 5.35 0 7v20c0 1.65 1.35 3 3 3h26c1.65 0 3-1.35 3-3V7c0-1.65-1.35-3-3-3zM12.461 17.199L4 23.789V8.113l8.461 9.086zM5.512 8h20.976L16 15.875 5.512 8zm7.278 9.553L16 21l3.21-3.447L25.79 26H6.211l6.58-8.447zm6.749-.354L28 8.113v15.676l-8.461-6.59z"/></svg><svg width="32" height="32" viewBox="0 0 32 32" x="672" y="128"><path fill="#444" d="M20.586 23.414L14 16.828V8h4v7.172l5.414 5.414zM16 0C7.163 0 0 7.163 0 16s7.163 16 16 16 16-7.163 16-16S24.837 0 16 0zm0 28C9.373 28 4 22.627 4 16S9.373 4 16 4s12 5.373 12 12-5.373 12-12 12z"/></svg><svg width="32" height="32" viewBox="0 0 32 32" x="720" y="128"><path fill="#444" d="M10 12h4v4h-4zm6 0h4v4h-4zm6 0h4v4h-4zM4 24h4v4H4zm6 0h4v4h-4zm6 0h4v4h-4zm-6-6h4v4h-4zm6 0h4v4h-4zm6 0h4v4h-4zM4 18h4v4H4zM26 0v2h-4V0H8v2H4V0H0v32h30V0h-4zm2 30H2V8h26v22z"/></svg><svg width="32" height="32" viewBox="0 0 32 32" y="176"><path fill="#444" d="M0 2v20h32V2H0zm30 18H2V4h28v16zm-9 4H11l-1 4-2 2h16l-2-2z"/></svg><svg width="32" height="32" viewBox="0 0 32 32" x="48" y="176"><path fill="#444" d="M28 22V6c0-1.1-.9-2-2-2H6c-1.1 0-2 .9-2 2v16H0v6h32v-6h-4zm-8 4h-8v-2h8v2zm6-4H6V6.004L6.004 6h19.993l.004.004V22z"/></svg><svg width="32" height="32" viewBox="0 0 32 32" x="96" y="176"><path fill="#444" d="M23 0H9C7.35 0 6 1.35 6 3v26c0 1.65 1.35 3 3 3h14c1.65 0 3-1.35 3-3V3c0-1.65-1.35-3-3-3zM12 1.5h8v1h-8v-1zM16 30a2 2 0 1 1-.001-3.999A2 2 0 0 1 16 30zm8-6H8V4h16v20z"/></svg><svg width="32" height="32" viewBox="0 0 32 32" x="144" y="176"><path fill="#444" d="M25 0H5C3.35 0 2 1.35 2 3v26c0 1.65 1.35 3 3 3h20c1.65 0 3-1.35 3-3V3c0-1.65-1.35-3-3-3zM15 31a1 1 0 1 1 0-2 1 1 0 0 1 0 2zm9-3H6V4h18v24z"/></svg><svg width="32" height="32" viewBox="0 0 32 32" x="192" y="176"><path fill="#444" d="M18 22.082v-1.649c2.203-1.241 4-4.337 4-7.432 0-4.971 0-9-6-9s-6 4.029-6 9c0 3.096 1.797 6.191 4 7.432v1.649C7.216 22.637 2 25.97 2 30h28c0-4.03-5.216-7.364-12-7.918z"/></svg><svg width="32" height="32" viewBox="0 0 32 32" x="240" y="176"><path fill="#444" d="M12 4a4 4 0 1 1 8 0 4 4 0 0 1-8 0zm12.719 12a3.281 3.281 0 0 1 6.562 0 3.281 3.281 0 0 1-6.562 0zm-3.206 8.485a2.972 2.972 0 1 1 5.945.001 2.972 2.972 0 0 1-5.945-.001zM13.308 28a2.692 2.692 0 1 1 5.383 0 2.692 2.692 0 0 1-5.383 0zm-8.231-3.515a2.439 2.439 0 1 1 4.877.001 2.439 2.439 0 0 1-4.877-.001zM1.792 16a2.208 2.208 0 1 1 4.416 0 2.208 2.208 0 0 1-4.416 0zm3.723-8.485a2 2 0 1 1 4 0 2 2 0 1 1-4 0zm22.593 0a3.623 3.623 0 1 1-7.246 0 3.623 3.623 0 0 1 7.246 0z"/></svg><svg width="32" height="32" viewBox="0 0 32 32" x="288" y="176"><path fill="#444" d="M31.008 27.231l-7.58-6.447c-.784-.705-1.622-1.029-2.299-.998a11.954 11.954 0 0 0 2.87-7.787c0-6.627-5.373-12-12-12s-12 5.373-12 12 5.373 12 12 12c2.972 0 5.691-1.081 7.787-2.87-.031.677.293 1.515.998 2.299l6.447 7.58c1.104 1.226 2.907 1.33 4.007.23s.997-2.903-.23-4.007zM12 20a8 8 0 1 1 0-16 8 8 0 0 1 0 16z"/></svg><svg width="32" height="32" viewBox="0 0 32 32" x="336" y="176"><path fill="#444" d="M31.008 27.231l-7.58-6.447c-.784-.705-1.622-1.029-2.299-.998a11.954 11.954 0 0 0 2.87-7.787c0-6.627-5.373-12-12-12s-12 5.373-12 12 5.373 12 12 12c2.972 0 5.691-1.081 7.787-2.87-.031.677.293 1.515.998 2.299l6.447 7.58c1.104 1.226 2.907 1.33 4.007.23s.997-2.903-.23-4.007zM12 20a8 8 0 1 1 0-16 8 8 0 0 1 0 16zm2-14h-4v4H6v4h4v4h4v-4h4v-4h-4z"/></svg><svg width="32" height="32" viewBox="0 0 32 32" x="384" y="176"><path fill="#444" d="M31.008 27.231l-7.58-6.447c-.784-.705-1.622-1.029-2.299-.998a11.954 11.954 0 0 0 2.87-7.787c0-6.627-5.373-12-12-12s-12 5.373-12 12 5.373 12 12 12c2.972 0 5.691-1.081 7.787-2.87-.031.677.293 1.515.998 2.299l6.447 7.58c1.104 1.226 2.907 1.33 4.007.23s.997-2.903-.23-4.007zM12 20a8 8 0 1 1 0-16 8 8 0 0 1 0 16zM6 10h12v4H6z"/></svg><svg width="32" height="32" viewBox="0 0 32 32" x="432" y="176"><path fill="#444" d="M22 0c-5.523 0-10 4.477-10 10 0 .626.058 1.238.168 1.832L0 24v6a2 2 0 0 0 2 2h2v-2h4v-4h4v-4h4l2.595-2.595A9.977 9.977 0 0 0 22 20c5.523 0 10-4.477 10-10S27.523 0 22 0zm2.996 10.004a3 3 0 1 1 0-6 3 3 0 0 1 0 6z"/></svg><svg width="32" height="32" viewBox="0 0 32 32" x="480" y="176"><path fill="#444" d="M18.5 14H18V8c0-3.308-2.692-6-6-6H8C4.692 2 2 4.692 2 8v6h-.5c-.825 0-1.5.675-1.5 1.5v15c0 .825.675 1.5 1.5 1.5h17c.825 0 1.5-.675 1.5-1.5v-15c0-.825-.675-1.5-1.5-1.5zM6 8c0-1.103.897-2 2-2h4c1.103 0 2 .897 2 2v6H6V8z"/></svg><svg width="32" height="32" viewBox="0 0 32 32" x="528" y="176"><path fill="#444" d="M24 2c3.308 0 6 2.692 6 6v6h-4V8c0-1.103-.897-2-2-2h-4c-1.103 0-2 .897-2 2v6h.5c.825 0 1.5.675 1.5 1.5v15c0 .825-.675 1.5-1.5 1.5h-17C.675 32 0 31.325 0 30.5v-15c0-.825.675-1.5 1.5-1.5H14V8c0-3.308 2.692-6 6-6h4z"/></svg><svg width="32" height="32" viewBox="0 0 32 32" x="576" y="176"><path fill="#444" d="M31.342 25.559L16.95 13.223A9 9 0 0 0 6.387.387l5.2 5.2a2.005 2.005 0 0 1 0 2.828l-3.172 3.172a2.005 2.005 0 0 1-2.828 0l-5.2-5.2A9 9 0 0 0 13.223 16.95l12.336 14.392a1.828 1.828 0 0 0 2.716.104l3.172-3.172c.778-.778.731-2-.104-2.716z"/></svg><svg width="32" height="32" viewBox="0 0 32 32" x="624" y="176"><path fill="#444" d="M14 4v-.5c0-.825-.675-1.5-1.5-1.5h-5C6.675 2 6 2.675 6 3.5V4H0v4h6v.5c0 .825.675 1.5 1.5 1.5h5c.825 0 1.5-.675 1.5-1.5V8h18V4H14zM8 8V4h4v4H8zm18 5.5c0-.825-.675-1.5-1.5-1.5h-5c-.825 0-1.5.675-1.5 1.5v.5H0v4h18v.5c0 .825.675 1.5 1.5 1.5h5c.825 0 1.5-.675 1.5-1.5V18h6v-4h-6v-.5zM20 18v-4h4v4h-4zm-6 5.5c0-.825-.675-1.5-1.5-1.5h-5c-.825 0-1.5.675-1.5 1.5v.5H0v4h6v.5c0 .825.675 1.5 1.5 1.5h5c.825 0 1.5-.675 1.5-1.5V28h18v-4H14v-.5zM8 28v-4h4v4H8z"/></svg><svg width="32" height="32" viewBox="0 0 32 32" x="672" y="176"><path fill="#444" d="M28 14h.5c.825 0 1.5-.675 1.5-1.5v-5c0-.825-.675-1.5-1.5-1.5H28V0h-4v6h-.5c-.825 0-1.5.675-1.5 1.5v5c0 .825.675 1.5 1.5 1.5h.5v18h4V14zm-4-6h4v4h-4V8zm-5.5 18c.825 0 1.5-.675 1.5-1.5v-5c0-.825-.675-1.5-1.5-1.5H18V0h-4v18h-.5c-.825 0-1.5.675-1.5 1.5v5c0 .825.675 1.5 1.5 1.5h.5v6h4v-6h.5zM14 20h4v4h-4v-4zm-5.5-6c.825 0 1.5-.675 1.5-1.5v-5C10 6.675 9.325 6 8.5 6H8V0H4v6h-.5C2.675 6 2 6.675 2 7.5v5c0 .825.675 1.5 1.5 1.5H4v18h4V14h.5zM4 8h4v4H4V8z"/></svg><svg width="32" height="32" viewBox="0 0 32 32" x="720" y="176"><path fill="#444" d="M29.181 19.07c-1.679-2.908-.669-6.634 2.255-8.328l-3.145-5.447a6.022 6.022 0 0 1-3.058.829c-3.361 0-6.085-2.742-6.085-6.125h-6.289a6.023 6.023 0 0 1-.811 3.07C10.369 5.977 6.637 6.966 3.709 5.28L.565 10.727a6.023 6.023 0 0 1 2.246 2.234c1.676 2.903.672 6.623-2.241 8.319l3.145 5.447a6.022 6.022 0 0 1 3.044-.82c3.35 0 6.067 2.725 6.084 6.092h6.289a6.032 6.032 0 0 1 .811-3.038c1.676-2.903 5.399-3.894 8.325-2.219l3.145-5.447a6.032 6.032 0 0 1-2.232-2.226zM16 22.479A6.48 6.48 0 1 1 16 9.52a6.48 6.48 0 0 1 0 12.959z"/></svg><svg width="32" height="32" viewBox="0 0 32 32" y="224"><path fill="#444" d="M4 10v20c0 1.1.9 2 2 2h18c1.1 0 2-.9 2-2V10H4zm6 18H8V14h2v14zm4 0h-2V14h2v14zm4 0h-2V14h2v14zm4 0h-2V14h2v14zm4.5-24H20V1.5c0-.825-.675-1.5-1.5-1.5h-7c-.825 0-1.5.675-1.5 1.5V4H3.5C2.675 4 2 4.675 2 5.5V8h26V5.5c0-.825-.675-1.5-1.5-1.5zM18 4h-6V2.025h6V4z"/></svg><svg width="32" height="32" viewBox="0 0 32 32" x="48" y="224"><path fill="#444" d="M30 8h-8V6c0-1.1-.9-2-2-2h-8c-1.1 0-2 .9-2 2v2H2c-1.1 0-2 .9-2 2v18c0 1.1.9 2 2 2h28c1.1 0 2-.9 2-2V10c0-1.1-.9-2-2-2zM12 6.004L12.004 6h7.993l.004.004V8h-8V6.004zM30 16h-4v3c0 .55-.45 1-1 1h-2c-.55 0-1-.45-1-1v-3H10v3c0 .55-.45 1-1 1H7c-.55 0-1-.45-1-1v-3H2v-2h28v2z"/></svg><svg width="32" height="32" viewBox="0 0 32 32" x="96" y="224"><path fill="#444" d="M29 4h-9a4 4 0 0 0-8 0H3a1 1 0 0 0-1 1v26a1 1 0 0 0 1 1h26a1 1 0 0 0 1-1V5a1 1 0 0 0-1-1zM16 2a2 2 0 1 1 .001 3.999A2 2 0 0 1 16 2zm12 28H4V6h4v3a1 1 0 0 0 1 1h14a1 1 0 0 0 1-1V6h4v24z"/><path fill="#444" d="M14 26.828l-6.414-7.414 1.828-1.828L14 21.172l8.586-7.586 1.829 1.828z"/></svg><svg width="32" height="32" viewBox="0 0 32 32" x="144" y="224"><path fill="#444" d="M2 6h28v6H2zm0 8h28v6H2zm0 8h28v6H2z"/></svg><svg width="44" height="32" viewBox="0 0 44 32" x="192" y="224"><path fill="#444" d="M0 6h28v6H0V6zm0 8h28v6H0v-6zm0 8h28v6H0v-6zm31-4l6 6 6-6zm12-2l-6-6-6 6z"/></svg><svg width="44" height="32" viewBox="0 0 44 32" x="288" y="224"><path fill="#444" d="M0 6h28v6H0V6zm0 8h28v6H0v-6zm0 8h28v6H0v-6zm31-8l6 6 6-6z"/></svg><svg width="44" height="32" viewBox="0 0 44 32" x="384" y="224"><path fill="#444" d="M0 6h28v6H0V6zm0 8h28v6H0v-6zm0 8h28v6H0v-6zm31-2l6-6 6 6z"/></svg><svg width="32" height="32" viewBox="0 0 32 32" x="480" y="224"><path fill="#444" d="M0 0h4v32H0V0zm26 20.094c2.582 0 4.83-.625 6-1.547v-16c-1.17.922-3.418 1.547-6 1.547s-4.83-.625-6-1.547v16c1.17.922 3.418 1.547 6 1.547zM19 1.016C17.534.393 15.39 0 13 0 9.988 0 7.365.625 6 1.547v16C7.365 16.625 9.988 16 13 16c2.39 0 4.534.393 6 1.016v-16z"/></svg><svg width="32" height="32" viewBox="0 0 32 32" x="528" y="224"><path fill="#444" d="M16 6C9.021 6 2.972 10.064 0 16c2.972 5.936 9.021 10 16 10s13.027-4.064 16-10c-2.972-5.936-9.021-10-16-10zm7.889 5.303A15.212 15.212 0 0 1 28.559 16a15.223 15.223 0 0 1-4.67 4.697C21.527 22.204 18.799 23 16 23s-5.527-.796-7.889-2.303A15.212 15.212 0 0 1 3.441 16a15.223 15.223 0 0 1 5.041-4.925 8 8 0 1 0 15.036 0c.124.074.248.15.371.228zM16 13a3 3 0 1 1-6 0 3 3 0 0 1 6 0z"/></svg><svg width="32" height="32" viewBox="0 0 32 32" x="576" y="224"><path fill="#444" d="M32 4h-4V0h-4v4h-4v4h4v4h4V8h4z"/><path fill="#444" d="M26.996 13.938c.576.64 1.1 1.329 1.563 2.062a15.223 15.223 0 0 1-4.67 4.697C21.527 22.204 18.799 23 16 23s-5.527-.796-7.889-2.303A15.212 15.212 0 0 1 3.441 16a15.223 15.223 0 0 1 5.041-4.925A8 8 0 1 0 24 13.812l-.001-.065a8.003 8.003 0 0 1-5.998-7.635A17.877 17.877 0 0 0 16 5.999c-6.979 0-13.028 4.064-16 10 2.972 5.936 9.021 10 16 10s13.027-4.064 16-10a18.386 18.386 0 0 0-1.958-3.095 7.952 7.952 0 0 1-3.046 1.034zM13 10a3 3 0 1 1 0 6 3 3 0 0 1 0-6z"/></svg><svg width="32" height="32" viewBox="0 0 32 32" x="624" y="224"><path fill="#444" d="M20 4h12v4H20V4z"/><path fill="#444" d="M27.198 10H18V6.113A17.859 17.859 0 0 0 16 6C9.021 6 2.972 10.064 0 16c2.972 5.936 9.021 10 16 10s13.027-4.064 16-10a18.336 18.336 0 0 0-4.803-6zM13 10a3 3 0 1 1 0 6 3 3 0 0 1 0-6zm10.889 10.697C21.527 22.204 18.799 23 16 23s-5.527-.796-7.889-2.303A15.212 15.212 0 0 1 3.441 16a15.223 15.223 0 0 1 5.041-4.925 8 8 0 1 0 15.036 0A15.212 15.212 0 0 1 28.559 16a15.223 15.223 0 0 1-4.67 4.697z"/></svg><svg width="32" height="32" viewBox="0 0 32 32" x="672" y="224"><path fill="#444" d="M29.561.439a1.5 1.5 0 0 0-2.121 0l-6.318 6.318A17.626 17.626 0 0 0 16 6C9.021 6 2.972 10.064 0 16a18.323 18.323 0 0 0 5.407 6.472L.439 27.44a1.5 1.5 0 1 0 2.122 2.121l27-27a1.5 1.5 0 0 0 0-2.121zM13 10a3 3 0 0 1 2.841 2.037l-3.804 3.804A3 3 0 0 1 13 10zm-9.559 6a15.223 15.223 0 0 1 5.041-4.925A7.985 7.985 0 0 0 8 13.812c0 1.715.54 3.304 1.459 4.607l-1.904 1.904A15.219 15.219 0 0 1 3.441 16zM24 13.813c0-.849-.133-1.667-.378-2.434L13.566 21.435a8 8 0 0 0 10.435-7.622z"/><path fill="#444" d="M25.938 9.062L23.77 11.23l.118.074a15.212 15.212 0 0 1 4.67 4.697 15.223 15.223 0 0 1-4.67 4.697 14.642 14.642 0 0 1-11.45 1.864l-2.403 2.403a17.587 17.587 0 0 0 5.964 1.036c6.978 0 13.027-4.064 16-10a18.292 18.292 0 0 0-6.062-6.938z"/></svg><svg width="32" height="32" viewBox="0 0 32 32" x="720" y="224"><path fill="#444" d="M16 2.899l13.409 26.726H2.59L15.999 2.899zM16 0c-.69 0-1.379.465-1.903 1.395L.438 28.617C-.608 30.477.282 32 2.416 32h27.166c2.134 0 3.025-1.522 1.978-3.383L17.901 1.395C17.378.465 16.688 0 15.998 0z"/><path fill="#444" d="M18 26a2 2 0 1 1-3.999.001A2 2 0 0 1 18 26zm-2-4a2 2 0 0 1-2-2v-6a2 2 0 1 1 4 0v6a2 2 0 0 1-2 2z"/></svg><svg width="32" height="32" viewBox="0 0 32 32" y="272"><path fill="#444" d="M16 3c-3.472 0-6.737 1.352-9.192 3.808S3 12.528 3 16c0 3.472 1.352 6.737 3.808 9.192S12.528 29 16 29c3.472 0 6.737-1.352 9.192-3.808S29 19.472 29 16c0-3.472-1.352-6.737-3.808-9.192S19.472 3 16 3zm0-3c8.837 0 16 7.163 16 16s-7.163 16-16 16S0 24.837 0 16 7.163 0 16 0zm-2 22h4v4h-4zm0-16h4v12h-4z"/></svg><svg width="32" height="32" viewBox="0 0 32 32" x="48" y="272"><path fill="#444" d="M14 22h4v4h-4zm8-14a2 2 0 0 1 2 2v6l-6 4h-4v-2l6-4v-2H10V8h12zm-6-5c-3.472 0-6.737 1.352-9.192 3.808S3 12.528 3 16c0 3.472 1.352 6.737 3.808 9.192S12.528 29 16 29c3.472 0 6.737-1.352 9.192-3.808S29 19.472 29 16c0-3.472-1.352-6.737-3.808-9.192S19.472 3 16 3zm0-3c8.837 0 16 7.163 16 16s-7.163 16-16 16S0 24.837 0 16 7.163 0 16 0z"/></svg><svg width="32" height="32" viewBox="0 0 32 32" x="96" y="272"><path fill="#444" d="M31 12H20V1a1 1 0 0 0-1-1h-6a1 1 0 0 0-1 1v11H1a1 1 0 0 0-1 1v6a1 1 0 0 0 1 1h11v11a1 1 0 0 0 1 1h6a1 1 0 0 0 1-1V20h11a1 1 0 0 0 1-1v-6a1 1 0 0 0-1-1z"/></svg><svg width="32" height="32" viewBox="0 0 32 32" x="144" y="272"><path fill="#444" d="M0 13v6a1 1 0 0 0 1 1h30a1 1 0 0 0 1-1v-6a1 1 0 0 0-1-1H1a1 1 0 0 0-1 1z"/></svg><svg width="32" height="32" viewBox="0 0 32 32" x="192" y="272"><path fill="#444" d="M14 9.5c0-.825.675-1.5 1.5-1.5h1c.825 0 1.5.675 1.5 1.5v1c0 .825-.675 1.5-1.5 1.5h-1c-.825 0-1.5-.675-1.5-1.5v-1zM20 24h-8v-2h2v-6h-2v-2h6v8h2z"/><path fill="#444" d="M16 0C7.163 0 0 7.163 0 16s7.163 16 16 16 16-7.163 16-16S24.837 0 16 0zm0 29C8.82 29 3 23.18 3 16S8.82 3 16 3s13 5.82 13 13-5.82 13-13 13z"/></svg><svg width="32" height="32" viewBox="0 0 32 32" x="240" y="272"><path fill="#444" d="M16 0C7.163 0 0 7.163 0 16s7.163 16 16 16 16-7.163 16-16S24.837 0 16 0zm0 29C8.82 29 3 23.18 3 16S8.82 3 16 3s13 5.82 13 13-5.82 13-13 13z"/><path fill="#444" d="M21 8l-5 5-5-5-3 3 5 5-5 5 3 3 5-5 5 5 3-3-5-5 5-5z"/></svg><svg width="32" height="32" viewBox="0 0 32 32" x="288" y="272"><path fill="#444" d="M27.314 4.686C24.292 1.664 20.274 0 16 0S7.708 1.664 4.686 4.686C1.664 7.708 0 11.726 0 16s1.664 8.292 4.686 11.314C7.708 30.336 11.726 32 16 32s8.292-1.664 11.314-4.686C30.336 24.292 32 20.274 32 16s-1.664-8.292-4.686-11.314zM28 16c0 2.588-.824 4.987-2.222 6.949L9.051 6.222A11.93 11.93 0 0 1 16 4c6.617 0 12 5.383 12 12zM4 16c0-2.588.824-4.987 2.222-6.949l16.727 16.727A11.93 11.93 0 0 1 16 28C9.383 28 4 22.617 4 16z"/></svg><svg width="32" height="32" viewBox="0 0 32 32" x="336" y="272"><path fill="#444" d="M31.708 25.708L22 16l9.708-9.708a1 1 0 0 0 0-1.414L27.122.292a1 1 0 0 0-1.414-.001L16 9.999 6.292.291a.998.998 0 0 0-1.414.001L.292 4.878a1 1 0 0 0 0 1.414L10 16 .292 25.708a.999.999 0 0 0 0 1.414l4.586 4.586a1 1 0 0 0 1.414 0L16 22l9.708 9.708a1 1 0 0 0 1.414 0l4.586-4.586a.999.999 0 0 0 0-1.414z"/></svg><svg width="32" height="32" viewBox="0 0 32 32" x="384" y="272"><path fill="#444" d="M27 4L12 19l-7-7-5 5 12 12L32 9z"/></svg><svg width="32" height="32" viewBox="0 0 32 32" x="432" y="272"><path fill="#444" d="M12.42 28.678L-.013 16.44l6.168-6.071 6.265 6.167L25.846 3.322l6.168 6.071L12.42 28.678zM3.372 16.441l9.048 8.905L28.628 9.393l-2.782-2.739L12.42 19.868l-6.265-6.167-2.782 2.739z"/></svg><svg width="32" height="32" viewBox="0 0 32 32" x="480" y="272"><path fill="#444" d="M18 5v10L28 5v22L18 17v10L7 16z"/></svg><svg width="32" height="32" viewBox="0 0 32 32" x="528" y="272"><path fill="#444" d="M16 27V17L6 27V5l10 10V5l11 11z"/></svg><svg width="32" height="32" viewBox="0 0 32 32" x="576" y="272"><path fill="#444" d="M4 28V4h4v11L18 5v10L28 5v22L18 17v10L8 17v11z"/></svg><svg width="32" height="32" viewBox="0 0 32 32" x="624" y="272"><path fill="#444" d="M28 4v24h-4V17L14 27V17L4 27V5l10 10V5l10 10V4z"/></svg><svg width="32" height="32" viewBox="0 0 32 32" x="672" y="272"><path fill="#444" d="M8 28V4h4v11L22 5v22L12 17v11z"/></svg><svg width="32" height="32" viewBox="0 0 32 32" x="720" y="272"><path fill="#444" d="M24 4v24h-4V17L10 27V5l10 10V4z"/></svg><svg width="32" height="32" viewBox="0 0 32 32" y="320"><path fill="#444" d="M27.414 24.586L10.828 8H18a2 2 0 1 0 0-4H6a2 2 0 0 0-1.999 2H4v12a2 2 0 1 0 4 0v-7.172l16.586 16.586c.39.391.902.586 1.414.586s1.024-.195 1.414-.586a2 2 0 0 0 0-2.828z"/></svg><svg width="32" height="32" viewBox="0 0 32 32" x="48" y="320"><path fill="#444" d="M27.414 12.586l-10-10a2 2 0 0 0-2.828 0l-10 10a2 2 0 1 0 2.828 2.828L14 8.828V28a2 2 0 1 0 4 0V8.828l6.586 6.586c.39.39.902.586 1.414.586s1.024-.195 1.414-.586a2 2 0 0 0 0-2.828z"/></svg><svg width="32" height="32" viewBox="0 0 32 32" x="96" y="320"><path fill="#444" d="M7.414 27.414L24 10.828V18a2 2 0 1 0 4 0V6a2 2 0 0 0-2-1.999V4H14a2 2 0 1 0 0 4h7.172L4.586 24.586C4.195 24.976 4 25.488 4 26s.195 1.024.586 1.414a2 2 0 0 0 2.828 0z"/></svg><svg width="32" height="32" viewBox="0 0 32 32" x="144" y="320"><path fill="#444" d="M19.414 27.414l10-10a2 2 0 0 0 0-2.828l-10-10a2 2 0 1 0-2.828 2.828L23.172 14H4a2 2 0 1 0 0 4h19.172l-6.586 6.586c-.39.39-.586.902-.586 1.414s.195 1.024.586 1.414a2 2 0 0 0 2.828 0z"/></svg><svg width="32" height="32" viewBox="0 0 32 32" x="192" y="320"><path fill="#444" d="M4.586 7.414L21.172 24h-7.171a2 2 0 1 0 0 4h12A2 2 0 0 0 28 26h.001V14a2 2 0 1 0-4 0v7.172L7.415 4.586C7.024 4.195 6.513 4 6.001 4s-1.024.195-1.414.586a2 2 0 0 0 0 2.828z"/></svg><svg width="32" height="32" viewBox="0 0 32 32" x="240" y="320"><path fill="#444" d="M27.414 19.414l-10 10a2 2 0 0 1-2.828 0l-10-10a2 2 0 1 1 2.828-2.828L14 23.172V4a2 2 0 1 1 4 0v19.172l6.586-6.586c.39-.39.902-.586 1.414-.586s1.024.195 1.414.586a2 2 0 0 1 0 2.828z"/></svg><svg width="32" height="32" viewBox="0 0 32 32" x="288" y="320"><path fill="#444" d="M24.586 4.586L8 21.172V14a2 2 0 1 0-4 0v12a2 2 0 0 0 2 1.999V28h12a2 2 0 1 0 0-4h-7.172L27.414 7.414a1.996 1.996 0 0 0 0-2.828 2 2 0 0 0-2.828 0z"/></svg><svg width="32" height="32" viewBox="0 0 32 32" x="336" y="320"><path fill="#444" d="M12.586 27.414l-10-10a2 2 0 0 1 0-2.828l10-10a2 2 0 1 1 2.828 2.828L8.828 14H28a2 2 0 1 1 0 4H8.828l6.586 6.586c.39.39.586.902.586 1.414s-.195 1.024-.586 1.414a2 2 0 0 1-2.828 0z"/></svg><svg width="32" height="32" viewBox="0 0 32 32" x="384" y="320"><path fill="#444" d="M0 16c0 8.837 7.163 16 16 16s16-7.163 16-16S24.837 0 16 0 0 7.163 0 16zm29 0c0 7.18-5.82 13-13 13S3 23.18 3 16 8.82 3 16 3s13 5.82 13 13z"/><path fill="#444" d="M22.086 20.914l2.829-2.829-8.914-8.914-8.914 8.914 2.828 2.828 6.086-6.086z"/></svg><svg width="32" height="32" viewBox="0 0 32 32" x="432" y="320"><path fill="#444" d="M16 0C7.163 0 0 7.163 0 16s7.163 16 16 16 16-7.163 16-16S24.837 0 16 0zm0 29C8.82 29 3 23.18 3 16S8.82 3 16 3s13 5.82 13 13-5.82 13-13 13z"/><path fill="#444" d="M11.086 22.086l2.829 2.829 8.914-8.914-8.914-8.914-2.828 2.828 6.086 6.086z"/></svg><svg width="32" height="32" viewBox="0 0 32 32" x="480" y="320"><path fill="#444" d="M32 16c0-8.837-7.163-16-16-16S0 7.163 0 16s7.163 16 16 16 16-7.163 16-16zM3 16C3 8.82 8.82 3 16 3s13 5.82 13 13-5.82 13-13 13S3 23.18 3 16z"/><path fill="#444" d="M9.914 11.086l-2.829 2.829 8.914 8.914 8.914-8.914-2.828-2.828-6.086 6.086z"/></svg><svg width="32" height="32" viewBox="0 0 32 32" x="528" y="320"><path fill="#444" d="M16 32c8.837 0 16-7.163 16-16S24.837 0 16 0 0 7.163 0 16s7.163 16 16 16zm0-29c7.18 0 13 5.82 13 13s-5.82 13-13 13S3 23.18 3 16 8.82 3 16 3z"/><path fill="#444" d="M20.914 9.914l-2.829-2.829-8.914 8.914 8.914 8.914 2.828-2.828-6.086-6.086z"/></svg><svg width="32" height="32" viewBox="0 0 32 32" x="576" y="320"><path fill="#444" d="M10 24V0H6v24H1l7 7 7-7h-5zm19 8h-8a1 1 0 0 1-.832-1.555L27.131 20H21a1 1 0 0 1 0-2h8a1 1 0 0 1 .832 1.555L22.869 30H29a1 1 0 0 1 0 2zm2.894-19.447l-6-12a1 1 0 0 0-1.789 0l-6 12a1 1 0 0 0 1.789.895l1.724-3.447h6.764l1.724 3.447a1 1 0 0 0 1.789-.895zM22.618 8L25 3.236 27.382 8h-4.764z"/></svg><svg width="32" height="32" viewBox="0 0 32 32" x="624" y="320"><path fill="#444" d="M10 24V0H6v24H1l7 7 7-7h-5zm19-10h-8a1 1 0 0 1-.832-1.555L27.131 2H21a1 1 0 0 1 0-2h8a1 1 0 0 1 .832 1.555L22.869 12H29a1 1 0 0 1 0 2zm2.894 16.553l-6-12a1 1 0 0 0-1.789 0l-6 12a1 1 0 0 0 1.789.895l1.724-3.447h6.764l1.724 3.447a1 1 0 0 0 1.789-.895zM22.618 26L25 21.236 27.382 26h-4.764z"/></svg><svg width="32" height="32" viewBox="0 0 32 32" x="672" y="320"><path fill="#444" d="M10 24V0H6v24H1l7 7 7-7h-5zm17-10a1 1 0 0 1-1-1V2h-1a1 1 0 0 1 0-2h2a1 1 0 0 1 1 1v12a1 1 0 0 1-1 1zm2 4h-6a1 1 0 0 0-1 1v6a1 1 0 0 0 1 1h5v4h-5a1 1 0 0 0 0 2h6a1 1 0 0 0 1-1V19a1 1 0 0 0-1-1zm-5 2h4v4h-4v-4z"/></svg><svg width="32" height="32" viewBox="0 0 32 32" x="720" y="320"><path fill="#444" d="M10 24V0H6v24H1l7 7 7-7h-5zm17 8a1 1 0 0 1-1-1V20h-1a1 1 0 0 1 0-2h2a1 1 0 0 1 1 1v12a1 1 0 0 1-1 1zm2-32h-6a1 1 0 0 0-1 1v6a1 1 0 0 0 1 1h5v4h-5a1 1 0 0 0 0 2h6a1 1 0 0 0 1-1V1a1 1 0 0 0-1-1zm-5 2h4v4h-4V2z"/></svg><svg width="32" height="32" viewBox="0 0 32 32" y="368"><path fill="#444" d="M16 0C7.163 0 0 2.239 0 5v3l12 12v10c0 1.105 1.791 2 4 2s4-.895 4-2V20L32 8V5c0-2.761-7.163-5-16-5zM2.95 4.338c.748-.427 1.799-.832 3.04-1.171C8.738 2.415 12.293 2 16.001 2s7.262.414 10.011 1.167c1.241.34 2.292.745 3.04 1.171.494.281.76.519.884.662-.124.142-.391.38-.884.662-.748.427-1.8.832-3.04 1.171C23.264 7.585 19.709 8 16.001 8S8.739 7.586 5.99 6.833c-1.24-.34-2.292-.745-3.04-1.171-.494-.282-.76-.519-.884-.662.124-.142.391-.38.884-.662z"/></svg><svg width="32" height="32" viewBox="0 0 32 32" y="416"><path fill="#444" d="M31.881 12.557a2.303 2.303 0 0 0-1.844-1.511l-8.326-1.238-3.619-7.514C17.711 1.505 16.896 1 16 1s-1.711.505-2.092 1.294l-3.619 7.514-8.327 1.238A2.3 2.3 0 0 0 .12 12.557a2.207 2.207 0 0 0 .537 2.285l6.102 6.092-1.415 8.451a2.224 2.224 0 0 0 .948 2.203 2.351 2.351 0 0 0 2.449.131L16 27.811l7.26 3.908a2.367 2.367 0 0 0 2.449-.131 2.225 2.225 0 0 0 .947-2.203l-1.416-8.451 6.104-6.092c.603-.603.81-1.485.537-2.285zm-8.293 6.806a2.216 2.216 0 0 0-.627 1.934l1.416 8.451-7.26-3.906a2.361 2.361 0 0 0-2.235 0l-7.26 3.906 1.416-8.451a2.212 2.212 0 0 0-.626-1.934L2.31 13.271l8.326-1.24a2.306 2.306 0 0 0 1.743-1.268L16 3.251l3.62 7.513a2.31 2.31 0 0 0 1.742 1.268l8.328 1.24-6.102 6.091z"/></svg><svg width="32" height="32" viewBox="0 0 32 32" x="48" y="416"><path fill="#444" d="M29.98 6.819A2.99 2.99 0 0 0 27 4.003h-3V3.001a3 3 0 0 0-3-3H11a3 3 0 0 0-3 3v1.001H5a2.99 2.99 0 0 0-2.981 2.816H2v2.183a2 2 0 0 0 2 2v17a4 4 0 0 0 4 4h16a4 4 0 0 0 4-4v-17a2 2 0 0 0 2-2V6.819h-.02zM10 3.002a1 1 0 0 1 1-1h10a1 1 0 0 1 1 1v1H10v-1zm16 25c0 1.102-.898 2-2 2H8c-1.103 0-2-.898-2-2v-17h20v17zm2-20.001v1H4V7.002a1 1 0 0 1 1-1h22a1 1 0 0 1 1 1v.999zM9 28.006h2a1 1 0 0 0 1-1v-13a1 1 0 0 0-1-1H9a1 1 0 0 0-1 1v13a1 1 0 0 0 1 1zm0-14.001h2v13H9v-13zm6 14.001h2a1 1 0 0 0 1-1v-13a1 1 0 0 0-1-1h-2a1 1 0 0 0-1 1v13a1 1 0 0 0 1 1zm0-14.001h2v13h-2v-13zm6 14.001h2a1 1 0 0 0 1-1v-13a1 1 0 0 0-1-1h-2a1 1 0 0 0-1 1v13a1 1 0 0 0 1 1zm0-14.001h2v13h-2v-13z"/></svg><svg width="32" height="32" viewBox="0 0 32 32" x="96" y="416"><path fill="#444" d="M31.11 28.336c-.201-.133-3.848-2.525-9.273-3.699 1.99-2.521 3.268-5.912 3.811-8.169.754-3.128.461-9.248-2.543-13.062C21.349 1.177 18.892 0 16 0s-5.349 1.178-7.104 3.406C5.892 7.219 5.6 13.339 6.353 16.467c.543 2.257 1.82 5.648 3.811 8.169-5.425 1.174-9.072 3.566-9.272 3.699A1.999 1.999 0 1 0 2 32h28a2.001 2.001 0 0 0 1.11-3.664zm-10.843-4.938l-.326.414c-2.385 2.74-5.495 2.74-7.879 0l-.327-.414c-2.785-3.529-4.167-8.197-3.572-12.65C8.708 6.469 11.16 2 16 2s7.293 4.47 7.838 8.749c.593 4.455-.784 9.118-3.571 12.649zM2 30c.138-.092 3.526-2.314 8.586-3.408l2.484-.537c.887.582 1.86.945 2.93.945 1.071 0 2.043-.363 2.93-.945l2.484.537C26.434 27.678 29.81 29.875 30 30H2z"/></svg><svg width="32" height="32" viewBox="0 0 32 32" x="144" y="416"><path fill="#444" d="M20 .005c-6.627 0-12 5.373-12 12 0 2.026.507 3.933 1.395 5.608l-8.344 8.342.007.006A3.515 3.515 0 0 0 0 28.477a3.529 3.529 0 0 0 3.529 3.529c.985 0 1.874-.406 2.515-1.059l-.002-.002 8.341-8.34c1.676.891 3.586 1.4 5.617 1.4 6.627 0 12-5.373 12-12s-5.373-12-12-12zM4.795 29.697a1.75 1.75 0 0 1-1.266.543 1.764 1.764 0 0 1-1.765-1.764c0-.498.21-.943.543-1.266l-.009-.008 8.066-8.066a12.101 12.101 0 0 0 2.494 2.498l-8.063 8.063zM20 22.006c-5.522 0-10-4.479-10-10s4.478-10 10-10c5.521 0 10 4.478 10 10s-4.479 10-10 10zm0-17.001a.5.5 0 0 1 0 1 6 6 0 0 0-6 6 .5.5 0 0 1-1 0 7 7 0 0 1 7-7z"/></svg><svg width="32" height="32" viewBox="0 0 32 32" x="192" y="416"><path fill="#444" d="M30.391 12.68l-3.064-.614a12.098 12.098 0 0 0-.537-1.289l1.736-2.604a1.999 1.999 0 0 0-.25-2.523l-1.924-1.924a1.996 1.996 0 0 0-2.523-.25l-2.604 1.735a12.09 12.09 0 0 0-1.291-.536L19.32 1.61A1.998 1.998 0 0 0 17.359.002h-2.72a2 2 0 0 0-1.961 1.608l-.614 3.065c-.443.154-.873.335-1.289.536L8.172 3.476a1.996 1.996 0 0 0-2.524.25L3.725 5.65a2 2 0 0 0-.25 2.523l1.735 2.604c-.202.417-.382.847-.536 1.29l-3.066.613A2 2 0 0 0 0 14.641v2.72a2 2 0 0 0 1.608 1.961l3.065.615c.154.443.335.873.536 1.289L3.475 23.83a1.999 1.999 0 0 0 .25 2.523l1.924 1.924a1.996 1.996 0 0 0 2.523.25l2.604-1.736c.417.203.847.383 1.29.537l.613 3.064a2 2 0 0 0 1.961 1.609h2.72a2 2 0 0 0 1.961-1.609l.615-3.064c.443-.154.873-.336 1.289-.537l2.604 1.736a1.998 1.998 0 0 0 2.523-.25l1.924-1.924a2 2 0 0 0 .25-2.523l-1.736-2.604c.203-.418.383-.848.537-1.291l3.064-.613A2 2 0 0 0 32 17.361v-2.72c0-.953-.674-1.774-1.609-1.961zm-3.457 5.295a1.997 1.997 0 0 0-1.496 1.305c-.129.369-.279.727-.447 1.074a1.996 1.996 0 0 0 .135 1.982l1.736 2.604-1.924 1.924-2.604-1.736a1.997 1.997 0 0 0-1.98-.137c-.348.168-.705.32-1.076.449a1.998 1.998 0 0 0-1.303 1.496l-.615 3.066h-2.72l-.613-3.066a1.997 1.997 0 0 0-1.304-1.496 10.17 10.17 0 0 1-1.075-.447 1.994 1.994 0 0 0-1.981.135l-2.604 1.736-1.924-1.924 1.735-2.604c.393-.59.444-1.344.137-1.98a10.106 10.106 0 0 1-.448-1.076 2 2 0 0 0-1.496-1.303l-3.065-.615L2 14.641l3.066-.613a1.999 1.999 0 0 0 1.496-1.304c.129-.369.278-.728.447-1.075a1.995 1.995 0 0 0-.136-1.981L5.139 7.064 7.062 5.14l2.604 1.735a1.997 1.997 0 0 0 1.98.137 10.09 10.09 0 0 1 1.075-.448 1.999 1.999 0 0 0 1.304-1.496l.614-3.065 2.72-.001.613 3.066a1.998 1.998 0 0 0 1.305 1.496c.369.129.727.278 1.074.447a1.998 1.998 0 0 0 1.982-.136l2.604-1.735 1.924 1.924-1.736 2.604a2.006 2.006 0 0 0-.137 1.98c.168.347.32.705.449 1.075a1.997 1.997 0 0 0 1.496 1.304l3.064.614.003 2.72-3.066.614zM16 9.001A7 7 0 1 0 16.001 23 7 7 0 0 0 16 9zm0 13.126c-3.382 0-6.125-2.744-6.125-6.125S12.618 9.877 16 9.877a6.127 6.127 0 0 1 6.125 6.125A6.127 6.127 0 0 1 16 22.127zm0-10.126c-2.21 0-4 1.79-4 4s1.79 4 4 4a4 4 0 0 0 0-8zm0 7.001a3.001 3.001 0 0 1 0-6 3.001 3.001 0 0 1 0 6z"/></svg><svg width="32" height="32" viewBox="0 0 32 32" x="240" y="416"><path fill="#444" d="M31.391 13.883l-5-8A3.999 3.999 0 0 0 23 4.003H4a4 4 0 0 0-4 4v16a4 4 0 0 0 4 4h19c1.379 0 2.66-.711 3.391-1.881l5-8a3.993 3.993 0 0 0 0-4.239zm-1.696 3.179l-5 8.002a1.988 1.988 0 0 1-1.695.939H4c-1.103 0-2-.898-2-2v-16c0-1.103.897-2 2-2h19a1.99 1.99 0 0 1 1.695.939l5 8a2.01 2.01 0 0 1 0 2.12zM23 13.003a3 3 0 1 0-.002 5.998A3 3 0 0 0 23 13.003zm0 5.001a2 2 0 1 1 0-4 2 2 0 0 1 0 4z"/></svg><svg width="32" height="32" viewBox="0 0 32 32" x="288" y="416"><path fill="#444" d="M25 13V9c0-4.971-4.029-9-9-9S7 4.029 7 9v4a3 3 0 0 0-3 3v7a9 9 0 0 0 9 9h6a9 9 0 0 0 9-9v-7a3 3 0 0 0-3-3zM9 9a7 7 0 1 1 14 0v4h-2V9.002c0-2.762-2.238-5-5-5s-5 2.238-5 5V13H9V9zm11 0v4h-8V9a4 4 0 0 1 8 0zm6 10v4c0 3.859-3.141 7-7 7h-6c-3.859 0-7-3.141-7-7v-7a1 1 0 0 1 1-1h18c.551 0 1 .448 1 1v3zm-10 0a2 2 0 0 1 2 2c0 .609-.328 1.768-.666 2.682-.273.738-.552 1.316-1.334 1.316-.719 0-1.061-.584-1.333-1.326C14.333 22.76 14 21.607 14 21a2 2 0 0 1 2-2z"/></svg><svg width="32" height="32" viewBox="0 0 32 32" x="336" y="416"><path fill="#444" d="M29.395 2.58C27.75.937 25.584 0 23.449 0c-1.801 0-3.459.668-4.67 1.877l-4.867 4.904c-.015.014-.032.023-.047.038-.008.008-.013.019-.021.026l.002.002L3.517 17.256a4.023 4.023 0 0 0-1.013 1.705L.155 27.469C.153 27.492 0 28.16 0 28.5 0 30.432 1.569 32 3.504 32c.385 0 1.13-.184 1.157-.188l8.478-2.229a4.021 4.021 0 0 0 1.705-1.016l15.263-15.383c2.776-2.778 2.463-7.434-.712-10.604zM16.014 23.795a8.145 8.145 0 0 0-.719-2.627l9.455-9.454c.578 1.826.281 3.736-.986 5.004-.008.008-.018.013-.025.021l.014.013-7.728 7.79c0-.249.012-.493-.011-.747zm-1.221-3.539c-.373-.613-.797-1.205-1.322-1.729-.611-.611-1.312-1.09-2.044-1.492l9.532-9.532a6.939 6.939 0 0 1 2.098 1.438 6.976 6.976 0 0 1 1.281 1.771l-9.545 9.544zm-4.307-3.694a7.976 7.976 0 0 0-2.868-.599l7.703-7.762c1.179-1.15 2.896-1.481 4.587-1.062l-9.422 9.423zM4.167 29.873c-.109.025-.448.111-.678.127A1.505 1.505 0 0 1 2 28.5c.012-.168.079-.457.102-.562l1.053-3.814c1.143-.031 2.373.414 3.34 1.383.982.98 1.444 2.234 1.394 3.391l-3.722.975zm4.707-1.236c-.024-1.342-.57-2.738-1.672-3.838-1.042-1.043-2.406-1.645-3.766-1.699l.996-3.607c.072-.24.215-.477.391-.684 2.006-1.436 5.091-1.012 7.234 1.133 2.267 2.266 2.617 5.586.871 7.568a1.97 1.97 0 0 1-.359.156l-3.695.971zm19.817-16.865l-1.684 1.697c0-.226.027-.443.006-.674-.176-1.935-1.078-3.806-2.543-5.269-1.629-1.63-3.789-2.565-5.928-2.571l1.656-1.67C21.027 2.458 22.184 2 23.449 2c1.609 0 3.262.728 4.533 1.995 1.193 1.191 1.904 2.671 2.006 4.168.094 1.397-.367 2.678-1.297 3.609z"/></svg><svg width="32" height="32" viewBox="0 0 32 32" x="384" y="416"><path fill="#444" d="M31.965 15.776c-.01-.042-.004-.087-.02-.128-.006-.017-.021-.026-.027-.042-.01-.024-.008-.051-.021-.074-2.9-5.551-9.213-9.528-15.873-9.528-6.661 0-12.973 3.971-15.875 9.521-.013.023-.011.05-.021.074-.007.016-.021.025-.027.042-.016.041-.01.086-.02.128-.018.075-.035.147-.035.224s.018.148.035.224c.01.042.004.087.02.128.006.017.021.026.027.042.01.024.008.051.021.074 2.901 5.551 9.214 9.528 15.875 9.528 6.66 0 12.973-3.971 15.873-9.521.014-.023.012-.05.021-.074.006-.016.021-.025.027-.042.016-.041.01-.086.02-.128.017-.076.035-.148.035-.224s-.018-.149-.035-.224zm-15.942 8.212c-5.615 0-11.112-3.191-13.851-7.995 2.754-4.81 8.243-7.99 13.851-7.99 5.613 0 11.111 3.192 13.85 7.995-2.754 4.811-8.242 7.99-13.85 7.99zm0-11.989a.499.499 0 1 1 0 .999v.001a3.002 3.002 0 0 0-2.999 2.997.5.5 0 1 1-.999 0A3.998 3.998 0 0 1 16.017 12l.006-.001zM16 9a7 7 0 1 0 0 14 7 7 0 0 0 0-14zm0 13c-3.309 0-6-2.691-6-6s2.691-6 6-6 6 2.691 6 6-2.691 6-6 6z"/></svg><svg width="32" height="32" viewBox="0 0 32 32" x="432" y="416"><path fill="#444" d="M24 0H8a3 3 0 0 0-3 3v26a3 3 0 0 0 3 3h16c1.656 0 3-1.344 3-3V3a3 3 0 0 0-3-3zm1 29c0 .551-.449 1-1 1H8a1 1 0 0 1-1-1v-2.004h18V29zm0-3.004H7V6h18v19.996zM25 5H7V3a1 1 0 0 1 1-1h16c.551 0 1 .448 1 1v2zm-7-1.5a.5.5 0 0 1-.5.5h-3a.499.499 0 1 1 0-1h3a.5.5 0 0 1 .5.5zm-1 24.996c0 .275-.225.5-.5.5h-1a.5.5 0 1 1 0-1h1a.5.5 0 0 1 .5.5z"/></svg><svg width="32" height="32" viewBox="0 0 32 32" x="480" y="416"><path fill="#444" d="M28 5H4a4 4 0 0 0-4 4v13a4 4 0 0 0 4 4h24a4 4 0 0 0 4-4V9a4 4 0 0 0-4-4zM2 10.25l6.999 5.25L2 20.75v-10.5zM30 22c0 1.104-.898 2-2 2H4c-1.103 0-2-.896-2-2l7.832-5.875 4.368 3.277a3 3 0 0 0 3.599 0l4.369-3.277L30 22zm0-1.25l-7-5.25 7-5.25v10.5zm-12.801-2.148c-.349.262-.763.4-1.199.4s-.851-.139-1.2-.4L2 9c0-1.103.897-2 2-2h24c1.102 0 2 .897 2 2l-12.801 9.602z"/></svg><svg width="32" height="32" viewBox="0 0 32 32" x="528" y="416"><path fill="#444" d="M8 6.021V3c0-1.654-1.346-3-3-3S2 1.346 2 3v3.021C.792 6.936 0 8.369 0 10s.792 3.064 2 3.977V29c0 1.654 1.346 3 3 3s3-1.346 3-3V13.977c1.208-.912 2-2.346 2-3.977s-.792-3.064-2-3.979zM4 3a1 1 0 1 1 2 0v2.1a5.062 5.062 0 0 0-2 0V3zm2 26a1 1 0 1 1-2 0V14.898a4.916 4.916 0 0 0 2 0V29zm1.865-18.16c-.016.053-.03.105-.049.158a2.944 2.944 0 0 1-.378.736l-.014.016a3.026 3.026 0 0 1-.616.627l-.01.008c-.241.182-.51.328-.799.43-.313.113-.646.185-.999.185s-.686-.072-1-.186a2.962 2.962 0 0 1-.799-.43l-.01-.008a3.026 3.026 0 0 1-.616-.627l-.014-.016a2.979 2.979 0 0 1-.378-.736c-.019-.053-.033-.105-.049-.158A2.945 2.945 0 0 1 2 10c0-.295.055-.574.135-.842.016-.053.03-.105.049-.156.094-.264.216-.514.378-.738l.014-.016c.174-.236.381-.449.616-.627l.01-.008c.24-.179.509-.326.798-.429C4.314 7.072 4.647 7 5 7s.686.072 1 .184c.289.104.558.25.799.43l.01.008c.235.178.442.391.616.627l.014.016a2.931 2.931 0 0 1 .426.893c.08.268.135.547.135.842 0 .293-.055.572-.135.84zM30 6.021V3c0-1.654-1.346-3-3-3s-3 1.346-3 3v3.021c-1.209.915-2 2.348-2 3.979s.791 3.064 2 3.977V29c0 1.654 1.346 3 3 3s3-1.346 3-3V13.977c1.207-.912 2-2.346 2-3.977s-.793-3.064-2-3.979zM26 3a1 1 0 1 1 2 0v2.1a5.077 5.077 0 0 0-2 0V3zm2 26a1 1 0 1 1-2 0V14.898a4.902 4.902 0 0 0 2 0V29zm1.865-18.16c-.016.053-.031.105-.049.158a2.947 2.947 0 0 1-.379.736l-.014.016a3.046 3.046 0 0 1-.615.627l-.01.008c-.242.182-.51.328-.799.43A2.932 2.932 0 0 1 27 13a2.91 2.91 0 0 1-1-.186 2.947 2.947 0 0 1-.809-.438 3.006 3.006 0 0 1-.617-.627l-.014-.016a2.975 2.975 0 0 1-.377-.736c-.02-.053-.033-.105-.049-.158A2.945 2.945 0 0 1 24 10c0-.295.055-.574.135-.842.016-.053.029-.105.049-.156.094-.264.217-.514.377-.738l.014-.016c.174-.236.381-.449.617-.627l.01-.008c.24-.18.51-.326.799-.43A2.97 2.97 0 0 1 27 7c.352 0 .686.072 1 .184a3.093 3.093 0 0 1 .809.438c.234.178.441.391.615.627l.014.016c.162.225.283.475.379.738.018.051.033.104.049.156.079.267.134.546.134.841 0 .293-.055.572-.135.84zM19 18.021V3c0-1.654-1.346-3-3-3s-3 1.346-3 3v15.021c-1.208.914-2 2.348-2 3.979s.792 3.064 2 3.977V29c0 1.654 1.346 3 3 3s3-1.346 3-3v-3.023c1.207-.912 2-2.346 2-3.977s-.793-3.064-2-3.979zM15 3a1 1 0 1 1 2 0v14.1a5.062 5.062 0 0 0-2 0V3zm2 26a1 1 0 1 1-2 0v-2.102a4.916 4.916 0 0 0 2 0V29zm1.865-6.16c-.016.053-.031.105-.049.158a2.947 2.947 0 0 1-.379.736l-.014.016a3.046 3.046 0 0 1-.615.627l-.01.008c-.242.182-.51.328-.799.43-.313.113-.647.185-.999.185s-.686-.072-1-.186a2.962 2.962 0 0 1-.799-.43l-.01-.008a3.026 3.026 0 0 1-.616-.627l-.014-.016a2.979 2.979 0 0 1-.378-.736c-.019-.053-.033-.105-.049-.158A2.945 2.945 0 0 1 13 22c0-.295.055-.574.135-.842.016-.053.03-.105.049-.156.095-.264.217-.514.378-.738l.014-.016c.174-.236.381-.449.616-.627l.01-.008c.241-.18.51-.326.799-.43.313-.111.646-.183.999-.183.352 0 .686.072 1 .184a3.093 3.093 0 0 1 .809.438c.234.178.441.391.615.627l.014.016c.162.225.283.475.379.738.018.051.033.104.049.156.079.267.134.546.134.841 0 .293-.055.572-.135.84z"/></svg><svg width="32" height="32" viewBox="0 0 32 32" x="576" y="416"><path fill="#444" d="M16 0C9.256 0 2 2.033 2 6.5v19C2 29.965 9.256 32 16 32s14-2.035 14-6.5v-19C30 2.033 22.742 0 16 0zm12 25.5c0 2.484-5.373 4.5-12 4.5-6.628 0-12-2.016-12-4.5v-3.736C6.066 23.893 11.05 25 16 25s9.934-1.107 12-3.236V25.5zm0-6h-.004c0 .01.004.021.004.031C28 22 22.627 24 16 24S4 22 4 19.531c0-.01.004-.021.004-.031H4v-3.736C6.066 17.893 11.05 19 16 19s9.934-1.107 12-3.236V19.5zm0-6h-.004c0 .01.004.021.004.031C28 16 22.627 18 16 18S4 16 4 13.531c0-.01.004-.021.004-.031H4v-3.436C6.621 12.061 11.425 13 16 13s9.379-.939 12-2.936V13.5zM16 11C9.372 11 4 8.984 4 6.5 4 4.014 9.372 2 16 2c6.627 0 12 2.014 12 4.5 0 2.484-5.373 4.5-12 4.5zm8 15a1 1 0 1 1 2 0 1 1 0 0 1-2 0zm0-6a1 1 0 1 1 2 0 1 1 0 0 1-2 0zm0-6a1 1 0 1 1 2 0 1 1 0 0 1-2 0z"/></svg><svg width="32" height="32" viewBox="0 0 32 32" x="624" y="416"><path fill="#444" d="M29.363 4.637a8.997 8.997 0 0 1 0 12.727L18.396 28.332a.997.997 0 0 1-1.414 0 .995.995 0 0 1 0-1.414l10.826-10.827a6.997 6.997 0 0 0-.002-9.899 6.998 6.998 0 0 0-9.898 0L3.461 20.469a4.998 4.998 0 0 0 0 7.07 4.998 4.998 0 0 0 7.07 0l14.59-14.417c1.17-1.17 1.17-3.073 0-4.243s-3.072-1.169-4.242 0L9.91 19.848a1 1 0 1 1-1.414-1.415L19.464 7.465a5 5 0 0 1 7.07 7.071l-14.59 14.418c-2.728 2.729-7.169 2.729-9.898 0s-2.729-7.171 0-9.9l14.59-14.417a8.997 8.997 0 0 1 12.727 0z"/></svg><svg width="32" height="32" viewBox="0 0 32 32" x="672" y="416"><path fill="#444" d="M31.4 11.2l-3-3.998a2.967 2.967 0 0 0-.4-.423V2a2 2 0 0 0-2-2H6a2 2 0 0 0-2 2v4.78a2.945 2.945 0 0 0-.4.42L.601 11.199A3.013 3.013 0 0 0 0 13v1c0 1.654 1.346 3 3 3v13a2 2 0 0 0 2 2h22a2 2 0 0 0 2-2V17c1.654 0 3-1.346 3-3v-1c0-.646-.213-1.285-.6-1.8zM26 2v4H6V2h20zM10.193 15H6.004l4-7h2.189l-2 7zm3.041-7H15.5v7h-4.266l2-7zM16.5 8h2.266l2 7H16.5V8zm3.305 0h2.189l4 7h-4.189l-2-7zM2 14v-1c0-.217.07-.427.2-.6l3-4A1 1 0 0 1 6 8h2.852l-4 7H3a1 1 0 0 1-1-1zm18 16h-7.5V20H20v10zm7 0h-6V20a1 1 0 0 0-1-1h-7.5a1 1 0 0 0-1 1v10H5V17h22v13zm3-16a1 1 0 0 1-1 1h-1.854l-4-7H26c.314 0 .611.148.799.4l3 4A.992.992 0 0 1 30 13v1z"/></svg><svg width="32" height="32" viewBox="0 0 32 32" x="720" y="416"><path fill="#444" d="M29.334 3H25V1a1 1 0 1 0-2 0v2h-6V1a1 1 0 1 0-2 0v2H9V1a1 1 0 1 0-2 0v2H2.667A2.666 2.666 0 0 0 0 5.666v23.667A2.667 2.667 0 0 0 2.667 32h26.667A2.666 2.666 0 0 0 32 29.333V5.666A2.665 2.665 0 0 0 29.334 3zM30 29.333a.667.667 0 0 1-.666.667H2.667A.667.667 0 0 1 2 29.333V5.666C2 5.299 2.299 5 2.667 5H7v2a1 1 0 1 0 2 0V5h6v2a1 1 0 1 0 2 0V5h6v2a1 1 0 1 0 2 0V5h4.334c.367 0 .666.299.666.666v23.667zM7 12h4v3H7zm0 5h4v3H7zm0 5h4v3H7zm7 0h4v3h-4zm0-5h4v3h-4zm0-5h4v3h-4zm7 10h4v3h-4zm0-5h4v3h-4zm0-5h4v3h-4z"/></svg><svg width="32" height="32" viewBox="0 0 32 32" y="464"><path fill="#444" d="M16 20a2 2 0 1 1 3.999-.001A2 2 0 0 1 16 20zm13.001-7c-.001 0-.001 0 0 0L29 7V4a3 3 0 0 0-3-3H5.5A5.506 5.506 0 0 0 0 6.5v20C0 29.532 2.467 32 5.5 32h18c3.032 0 5.5-2.468 5.5-5.5V25h.001c3.998-3.001 3.998-8.999 0-12zM5.5 3H26c.551 0 1 .448 1 1v6.184A2.966 2.966 0 0 0 26 10h-.001V5a1 1 0 0 0-1-1h-21a1 1 0 0 0-1 1v3.943A3.482 3.482 0 0 1 2 6.5 3.5 3.5 0 0 1 5.5 3zm19.499 3h-21V5h21v1zm0 1v1h-21V7h21zm0 2v1H5.5A3.46 3.46 0 0 1 4 9.65V9h20.999zM27 26.5a3.5 3.5 0 0 1-3.5 3.5h-18A3.5 3.5 0 0 1 2 26.5V10.739A5.473 5.473 0 0 0 5.5 12H26c.551 0 1 .448 1 1v2h-9a5 5 0 1 0 0 10h9v1.5zm1.277-3.5H18c-1.654 0-3-1.346-3-3s1.346-3 3-3h9a2.062 2.062 0 0 0 1.602-.804c.104-.14.185-.297.25-.461.009-.022.025-.039.033-.062A5.458 5.458 0 0 1 30 19a5.448 5.448 0 0 1-1.723 4z"/></svg><svg width="32" height="32" viewBox="0 0 32 32" x="48" y="464"><path fill="#444" d="M24.832 11.445A1.001 1.001 0 0 0 24 11h-1a1 1 0 0 0-1 1v6a1 1 0 0 0 1 1h4a1 1 0 0 0 1-1v-1.5c0-.197-.059-.391-.168-.555l-3-4.5zM27 18h-4v-6h1l3 4.5V18zm4.496-2.664l-4-6A2.995 2.995 0 0 0 25 8h-4V6c0-1.654-1.346-3-3-3H3C1.346 3 0 4.346 0 6v11c0 1.654 1.346 3 3 3v3c0 1.654 1.346 3 3 3h1.142c.447 1.721 2 3 3.859 3 1.857 0 3.41-1.279 3.857-3h5.282c.447 1.721 2 3 3.859 3 1.857 0 3.41-1.279 3.857-3H29c1.654 0 3-1.346 3-3v-6c0-.594-.174-1.17-.504-1.664zM3 18a1 1 0 0 1-1-1V6a1 1 0 0 1 1-1h15a1 1 0 0 1 1 1v11a1 1 0 0 1-1 1H3zm8.001 9a2 2 0 1 1 0-4 2 2 0 0 1 0 4zM24 27a2 2 0 1 1 0-4 2 2 0 0 1 0 4zm6-4a1 1 0 0 1-1 1h-1.143c-.447-1.721-2-3-3.857-3-1.859 0-3.412 1.279-3.859 3h-5.282c-.447-1.721-2-3-3.857-3-1.859 0-3.412 1.279-3.859 3H6a1 1 0 0 1-1-1v-3h13c1.654 0 3-1.346 3-3v-7h4c.334 0 .646.167.832.445l4 6c.109.164.168.358.168.555v6z"/></svg></svg>