<?xml version="1.0" encoding="UTF-8"?>
<svg width="162px" height="157px" viewBox="0 0 162 157" version="1.1" xmlns="http://www.w3.org/2000/svg" xmlns:xlink="http://www.w3.org/1999/xlink">
    <!-- Generator: Sketch 42 (36781) - http://www.bohemiancoding.com/sketch -->
    <title>Group</title>
    <desc>Created with Sketch.</desc>
    <defs></defs>
    <g id="Page-1" stroke="none" stroke-width="1" fill="none" fill-rule="evenodd">
        <g id="Group">
            <path d="M32.2665412,17.6560612 C31.5797354,18.8930346 30.416797,19.518521 29.372735,20.1961174 C28.311012,20.8845628 27.2606708,21.6166932 26.0529616,21.6445744 C24.813434,21.6735992 24.0930736,20.8865624 22.9304444,19.438076 C22.1851144,18.5092516 20.8444918,17.1890734 20.426196,16.0287788 C19.6748282,13.9460254 19.8574064,11.7648992 19.89207,9.9563304 C19.9476514,7.0486178 19.2128664,3.8073824 21.071197,2.0098594 C22.0540216,1.0587424 23.8089468,0.5177672 26.4555264,0.4199424 C29.081599,0.3216918 31.018213,0.6642394 32.2055608,1.6386196 C33.8743614,3.0080366 34.1646628,5.527748 33.6870694,8.977243 M33.593233,9.112175 C33.6907248,9.0542684 33.7825752,9.0063388 33.8694902,8.9676694 C35.6084808,8.1836652 35.185722,10.9726696 34.8315324,11.9300124 C34.5371966,12.726019 34.3276822,13.9557378 33.3384566,13.0649078" id="Stroke-1" stroke="#5B5B5B" stroke-width="0.436"></path>
            <path d="M33.6256546,10.1198054 C34.5207776,9.5935805 34.1687804,10.5685217 34.0075503,11.0055866 C33.8801162,11.3516819 33.9849264,12.3133505 33.5536315,11.9253422" id="Stroke-2" stroke="#5B5B5B" stroke-width="0.174"></path>
            <path d="M21.0321548,9.6401668 C21.5344398,9.335581 22.1426534,8.9418598 22.7154484,8.9622868 C23.4311678,9.0387366 24.6349252,10.106938 24.6484162,10.1428158 C24.8770792,10.7675972 24.6743538,10.9068514 24.5067228,13.6053808" id="Stroke-3" stroke="#5B5B5B" stroke-width="0.436"></path>
            <path d="M30.085,9.287 C29.833,8.888 28.947,8.59 28.374,8.611 C27.658,8.687 26.297,9.812 26.114,9.868" id="Stroke-4" stroke="#5B5B5B" stroke-width="0.436"></path>
            <path d="M12.5773217,48.2263352 C12.2268054,48.8073929 10.3573701,49.8679889 9.777988,51.0411809 C7.0124173,50.2662494 2.4864539,45.8544788 0.6407596,43.2504794 C3.9536009,37.8915317 10.0287442,29.5584329 11.9120992,27.4907153 C14.057746,25.8168359 18.747323,24.3000494 19.9827335,23.8604228" id="Stroke-5" stroke="#5B5B5B" stroke-width="0.724"></path>
            <path d="M39.7687148,44.7247508 C38.9472648,44.8647144 37.7029822,45.0189638 36.1929222,44.7815818" id="Stroke-6" stroke="#5B5B5B" stroke-width="0.174"></path>
            <path d="M44.3595111,50.8630469 C44.5155188,51.1282187 44.4317468,53.5363775 44.799355,56.0727605 C44.8522913,56.4453989 45.4730045,61.1187848 44.9173046,62.9393732 C44.6020652,63.0355778 44.2398572,62.9499842 43.5950514,63.0294494 C43.5062334,63.2046056 43.5277884,63.8484953 43.4944317,64.2095771 C42.9753077,64.1699549 42.3043937,64.2844232 41.5546468,64.1913626 C40.5613599,64.7988242 39.5089161,65.1221213 38.3754847,65.6522885 C37.9143424,65.6090507 36.6398374,65.9254628 35.5043776,66.0780578 C34.7089914,66.1857305 32.6929241,66.6585827 30.5406102,66.8419529 C29.3909177,66.9395861 28.3459984,67.1065085 27.1890067,67.0642319 C26.1897221,67.0275926 25.0107916,67.4098832 23.9501034,67.4469104 C20.9723971,67.5502679 20.3525658,67.7672816 16.8484569,67.2689588 C14.775983,66.9746492 14.4040542,66.5646215 13.2958731,66.532289 C10.4863716,65.269337 11.8916946,59.2956383 12.1363126,56.2142432 C12.2901466,54.2732438 12.356915,52.7152688 12.3887651,50.9930099 C12.5502785,42.4686599 12.8727653,37.2627395 12.872264,37.38932" id="Stroke-7" stroke="#5B5B5B" stroke-width="0.724"></path>
            <path d="M39.6520388,46.9961908 C38.9034762,47.1712174 38.1450472,47.3675928 36.487917,47.136471 M40.2836526,48.9172434 C39.5987796,49.1239236 38.9896004,49.351486 37.3050462,49.2190294" id="Stroke-8" stroke="#5B5B5B" stroke-width="0.174"></path>
            <path d="M25.98452,27.8179892 C26.1764072,27.9688283 32.9161894,22.619927 34.866435,20.3738153 C34.719741,20.1827642 34.3345451,18.5722343 34.5773149,18.7025834 C36.4600175,19.7122418 39.0267538,20.8476731 38.633859,21.0255431 C37.925019,22.1700866 36.5531393,24.3574343 33.5803664,27.0593747 C33.0279708,27.4331597 28.8855134,26.2017386 29.1934193,26.8141634 C29.6786877,27.7777382 29.1920673,27.7221182 28.9780389,27.8713967 C28.0555774,28.5457799 26.3161081,29.0778104 24.9132584,30.0500468 C23.4044535,31.0958474 23.4009996,32.0158517 22.5910983,34.0689965 C22.747374,29.7159926 25.6187706,28.1637842 25.98452,27.8179892 Z" id="Stroke-9" stroke="#5B5B5B" stroke-width="0.724" stroke-linejoin="round"></path>
            <path d="M23.2834798,14.5569674 C23.753476,14.8602364 24.0564534,14.6191966 24.3628642,14.767023 C25.197889,15.1713518 25.7143052,15.314176 26.5706284,14.8640176 C27.2552638,14.5046038 27.6617376,14.8836984 28.0483616,14.321188" id="Stroke-10" stroke="#5B5B5B" stroke-width="0.348" stroke-linejoin="round"></path>
            <path d="M33.6330942,13.3719966 C33.3790122,15.9529166 33.7616262,19.1763554 34.6063396,20.3541352 C34.753742,20.5614192 29.4941804,25.5359988 26.0505934,27.8495418" id="Stroke-11" stroke="#5B5B5B" stroke-width="0.436" stroke-linejoin="round"></path>
            <path d="M38.0619786,21.7092264 C40.2321122,23.5257567 45.0753412,25.4712597 46.6073894,28.0247751 C48.6612294,31.4493442 50.7213224,35.2570572 52.9032404,42.3757072 C52.5104246,41.6853161 50.6225224,41.2917913 49.9205316,41.403896 C48.7795318,41.5863349 47.093335,42.2160087 45.9240978,43.3378153 C45.8161744,43.5082767 43.1417988,43.0109406 42.6115816,43.087469 C42.659453,42.4964164 42.523991,42.2373581 42.1813936,41.5554735 C41.916111,41.027381 41.7370596,40.9301284 41.2678948,40.7067351 C40.9409242,40.5245322 40.9821614,37.941768 40.9261738,37.4065768 C40.775463,35.9817764 40.2942126,35.7168312 39.5558682,35.6420598 C39.0127186,35.5872506 38.5249782,36.1503671 38.4640118,36.9600815 C38.405104,37.7294651 38.6435456,38.7309504 38.616617,40.0570648 C38.608706,40.4262607 38.6687514,40.8426096 38.4327914,41.4362291 C38.4470194,41.9458288 36.3995988,42.1929607 36.2688834,42.7123162 C35.976406,43.339232 35.863719,44.0838952 36.2649562,44.7331616 C35.6852952,45.7535895 35.8697134,46.5733893 36.600248,47.0824052 C36.283936,47.8425745 36.7946892,48.8905451 37.329677,49.1533428 C37.413258,49.6987634 36.811249,50.444448 38.512534,50.877287 C38.770873,51.032851 41.036318,50.9354697 42.4045288,50.4444779 C43.9132888,50.3008581 46.8845284,52.536351 48.585692,51.9821289 C49.5588946,51.6641023 52.9462988,50.0538456 53.1141878,48.8848971 C53.3374268,48.7503364 53.8234332,46.1636235 52.7629024,42.1640888" id="Stroke-12" stroke="#5B5B5B" stroke-width="0.435" stroke-linejoin="round"></path>
            <path d="M38.502642,21.654536 C40.6730594,23.4713501 45.064758,25.3336703 46.595682,27.887495 C48.459875,30.9954167 50.9283701,36.0778868 52.8749082,41.9876969 C53.0717651,42.5853656 50.3654243,39.5305964 45.8354591,43.5286061" id="Stroke-13" stroke="#5B5B5B" stroke-width="0.724" stroke-linejoin="round"></path>
            <path d="M45.5485214,86.204093 C44.2098852,87.1621212 38.0634224,89.2229376 37.5525757,89.3809171" id="Stroke-14" stroke="#5B5B5B" stroke-width="0.435" stroke-linejoin="round"></path>
            <path d="M19.841844,7.6702092 C19.8462468,6.8640376 20.7192028,3.9238988 21.4404798,3.481957 C22.6357842,2.7527878 24.0266256,4.9908196 24.862088,5.2218992 C26.4120448,5.6510692 27.840489,2.9698926 28.849348,2.845036 C30.7648038,2.7685546 31.822129,4.2531342 32.0954426,7.2164398 C32.2097932,8.4502012 33.4223968,10.20489 32.891789,12.3031082" id="Stroke-15" stroke="#5B5B5B" stroke-width="0.436" stroke-linejoin="round"></path>
            <path d="M28.375,16.488 L28.279,16.602 C27.739,17.247 26.835,18.005 25.737,17.986 C25.033,18.015 23.02,17.106 23.079,16.389 L23.084,16.357 L23.086,16.35 C23.107,16.257 23.182,16.194 23.257,16.202 C24.011,16.2 24.894,16.165 25.764,16.158 C26.647,16.151 27.522,16.168 28.291,16.179 C28.373,16.18 28.433,16.264 28.425,16.365 C28.421,16.412 28.402,16.456 28.375,16.488 Z M28.057,16.459 C25.259,16.708 26.145,16.8 23.443,16.452 C23.831,16.583 24.548,17.144 25.737,17.128 C26.378,17.119 27.315,16.745 28.057,16.459 L28.057,16.459 Z" id="Fill-16" fill="#5B5B5B"></path>
            <path d="M19.9795345,23.1978989 C20.121312,24.2792753 20.2324328,26.5122521 21.5243787,26.9189825 C21.5285457,26.8722563 21.7630709,25.8465833 22.187692,25.609592 C22.4308964,25.5723488 24.3875797,27.2845829 25.6439934,28.0191902 C24.4933255,26.6474504 23.7396757,25.0242446 23.6331313,22.9962692 C23.609003,22.5093941 23.6428564,22.0189034 23.6609754,21.4197305 C22.7066153,22.9169222 20.9009658,22.7597063 19.9795345,23.1978989 Z" id="Stroke-17" stroke="#5B5B5B" stroke-width="0.724" stroke-linejoin="round"></path>
            <path d="M21.52,67.616 C22.616,67.564 23.916,67.552 24.925,67.468 L24.998,70.016 L21.583,70.028 L21.52,67.616 Z M22.148,68.044 C22.885,68.009 23.605,68.095 24.283,68.038 L24.351,69.512 L22.188,69.568 L22.148,68.044 L22.148,68.044 Z" id="Fill-18" fill="#5B5B5B"></path>
            <path d="M13.8529044,66.5231958 C14.0259426,66.3914414 14.961169,67.1161469 17.7505478,67.4485815 C19.0483436,67.6026869 21.4979998,67.7375372 22.9607312,67.5514146 C23.7037624,67.4571335 23.8636858,67.531314 24.4412754,67.4520179 C25.5915038,67.2927862 26.628572,67.1195434 26.7996858,67.1143799 C32.9965694,66.9393049 34.9838982,65.7914852 38.1177896,65.7642715 L39.2707446,69.1756809 C37.4220264,68.5157649 34.639543,68.9793914 32.8339132,69.1991833 C30.3460474,69.5025277 26.4429502,70.0712448 21.7045488,70.0560128 C19.105887,70.0469324 15.1180342,69.7697423 13.8111638,69.6914167 L13.8529044,66.5231958 Z" id="Stroke-19" stroke="#5B5B5B" stroke-width="0.537" stroke-linejoin="round"></path>
            <polygon id="Stroke-20" stroke="#5B5B5B" stroke-width="0.436" stroke-linejoin="round" points="41.7069142 64.2682798 43.4534116 64.2188652 43.5519344 63.0055184 45.1125272 62.9989596 45.1312972 64.1555424 47.0244008 64.2561464 46.9766558 67.2012286 43.5988886 67.279385 41.9564834 67.4228322"></polygon>
            <g id="Group-23" transform="translate(38.000000, 64.000000)">
                <polygon id="Fill-21" fill="#FEFEFE" points="0.0643824 1.6833823 3.5994261 0.3314707 4.0416129 3.5032453 9.7182957 3.2310169 9.6581639 13.652596 5.1204182 14.6058715"></polygon>
                <polygon id="Stroke-22" stroke="#5B5B5B" stroke-width="0.724" stroke-linejoin="round" points="0.0643824 1.6833823 3.5994261 0.3314707 4.0416129 3.5032453 9.7182957 3.2310169 9.6581639 13.652596 5.1204182 14.6058715"></polygon>
            </g>
            <path d="M43.3129842,65.7679594 L46.306905,65.765073 L46.294908,67.144112 L43.3449,67.1930656 L43.3129842,65.7679594 Z M12.43022,48.353924 C9.8297956,46.3029 9.7862172,36.4717696 9.8771604,34.0224896 L12.43022,48.353924 Z" id="Stroke-24" stroke="#5B5B5B" stroke-width="0.174"></path>
            <path d="M41.3176341,40.6078079 C41.2920243,39.5179957 41.3995118,32.665441 43.7717204,31.734576" id="Stroke-25" stroke="#5B5B5B" stroke-width="0.174"></path>
            <path d="M42.3569191,50.3584203 C43.4873685,49.9513849 44.0388466,49.2463906 45.4294193,49.2977149" id="Stroke-26" stroke="#5B5B5B" stroke-width="0.175"></path>
            <path d="M12.1723716,48.5223363 C11.0174804,48.4115328 6.5669146,45.2402768 6.2456464,43.7237644" id="Stroke-27" stroke="#5B5B5B" stroke-width="0.174"></path>
            <path d="M13.8574981,69.6593081 C17.0866187,69.7837643 19.7976249,70.054556 22.6249486,70.1010272 C23.5619672,70.1158841 24.5680795,70.0025222 25.5856672,69.9880007 C28.6218013,69.7205063 32.8977843,69.1335347 35.8979032,68.8969352 C36.9479094,68.8140905 38.2973747,68.9329511 39.3223237,69.0965228 L43.0481233,78.5050283 L44.8658667,78.2717522 L45.5650251,87.2624282 L46.3238289,90.7502279 L45.3465087,91.6092059 C45.0156602,96.4567322 45.2142977,99.8884961 44.7560652,102.93885 C44.5717256,103.080654 43.6032682,103.301693 43.3171612,103.91794 C43.797205,106.017213 44.3206182,107.38969 44.950366,108.487069 L44.2856693,124.164361 L45.3938857,127.696915 C44.6024675,132.418463 46.1871814,137.174223 45.3424317,143.019395 C45.216824,145.358117 44.7404584,147.69453 43.9161658,150.030009 C41.2205486,147.916265 37.6371649,145.634259 31.4089559,146.81484 C30.4199155,143.076311 31.6837565,140.985891 29.8563629,137.89444 C28.9252886,136.316777 28.2580652,134.787152 27.7575658,132.719976 C26.6220129,128.032366 27.5774854,113.739902 26.8206221,108.401555 L26.255008,128.910636 C26.6781972,132.141359 25.5811339,137.205765 25.7138677,142.292367 C25.7417883,143.371754 23.3149767,146.526615 22.6882464,146.849789 L22.0372426,145.292366 C18.4097237,143.701104 16.4275286,145.434283 11.1758636,140.495664 C11.692552,139.472524 11.5230291,139.158745 12.0309993,137.55801 C12.41022,136.364201 12.8604981,134.075519 13.2727191,132.736302 C13.1859838,129.409087 13.6833247,126.925309 13.9767372,123.843959 C14.0879975,122.684193 13.4143005,121.087479 13.5045188,120.034066 C13.6336314,118.545957 14.2903173,118.379355 14.2710986,116.997912 C14.2567093,115.977032 13.7243161,115.605246 13.6633101,114.618941 C13.6447787,111.920839 13.5443973,109.334159 12.6292179,105.789791 C11.1511213,100.063129 11.7613524,83.9425082 11.5118198,76.1754023 C12.5609287,74.2363913 13.2014039,72.7986158 13.8574981,69.6593081 Z" id="Stroke-28" stroke="#5B5B5B" stroke-width="0.724" stroke-linejoin="round"></path>
            <path d="M25.664606,90.6969311 C25.7564551,91.0810622 26.9235902,109.100201 26.9119585,109.340071" id="Stroke-29" stroke="#5B5B5B" stroke-width="0.724"></path>
            <path d="M45.7497346,91.2430018 C45.0765558,91.6941834 42.4930902,93.2718414 41.9324448,93.7886552 C40.339457,92.9711622 38.431878,89.929158 37.5816444,89.2938112 C38.0731684,90.2536948 37.7795584,96.0617232 37.6886918,97.6511502 C37.506246,100.826478 36.793948,103.85846 36.7797358,104.268074 C39.7022386,104.720135 42.9738086,104.103907 44.2699016,103.163342" id="Stroke-30" stroke="#5B5B5B" stroke-width="0.436" stroke-linejoin="round"></path>
            <path d="M13.4876249,127.908735 C14.8634929,128.608486 16.4972811,130.057814 17.9116387,130.508845 C20.184235,131.234607 24.8491644,131.085717 26.4179171,129.505937 M27.8104561,133.064331 C29.1870324,133.764779 29.6001645,134.290215 31.0145244,134.74266 C31.8013007,134.993612 34.0064633,134.259388 36.0539718,133.98693 C39.916379,133.471335 44.3239448,132.915104 45.3490706,131.882941 M28.3347248,134.528014 C29.0701426,135.376468 29.9801633,136.618537 31.3938126,137.068871 C31.7327203,137.176702 32.1753293,136.259928 33.0380684,136.258115 C34.1787232,136.256065 36.656159,139.444051 37.7210324,138.501859 C38.288776,137.999171 38.9252753,137.595252 39.5901756,137.26166 C40.6281567,136.741981 41.7907391,137.612921 42.8064847,137.335378 C44.4492067,136.885979 44.8100071,136.106082 45.4629836,135.832756 M30.9796631,142.440087 C31.3178625,142.54722 36.0912651,141.698934 36.9525899,141.69714 C40.3894056,141.691496 38.4601396,142.488443 39.5624312,142.378018 C40.7050246,142.26351 43.1742522,142.578597 43.6580877,142.661125 C44.2395398,142.760713 44.9695485,142.45735 45.4785561,141.929296 M13.2652426,131.617747 C13.4179617,131.600117 14.277709,131.932811 14.3775011,131.983076 C16.0789433,132.853772 13.507277,133.904809 16.8336394,134.250686 C18.0749257,134.380208 20.996037,134.263476 22.7436384,135.687925 C24.1315223,136.818853 25.3636784,134.81301 26.1339336,134.036747 M12.1172578,137.548354 C12.8342574,137.942383 12.868486,138.987035 14.3471194,138.956355 C14.9983965,138.942564 16.718213,139.371063 17.7171482,140.062496 C18.7061718,140.746993 20.7298122,141.452092 21.6502203,141.689209 C22.5140334,141.912952 25.2728172,140.254083 25.7450875,139.747741" id="Stroke-31" stroke="#5B5B5B" stroke-width="0.362"></path>
            <path d="M32.6673793,146.611077 C31.0801742,149.019847 29.4536588,152.911972 29.6819981,152.865738 C31.4518718,154.070678 38.5157322,153.625466 41.7549274,152.552639 C42.4303439,151.293289 42.8357579,150.116802 43.3397476,149.547096 M11.2523761,140.580893 C9.4928951,141.417962 4.970454,143.520093 5.38001,143.585951 C8.6635433,144.12121 7.8684522,147.454033 8.2151742,147.583678 C9.7506947,147.745975 13.8489267,147.438606 17.0259893,146.42602 C18.6759116,146.055721 20.9027511,146.040339 22.1284684,145.293249 M5.4166714,143.517571 C3.6586047,144.35462 1.5557754,145.397171 1.1907458,145.750735 C0.8087699,146.120085 0.7492176,146.46243 0.5609157,146.776825 C0.3135813,147.753173 0.6377575,148.803789 0.7194351,149.021179 C3.5398439,150.033664 8.1627443,149.261668 11.2812689,149.21509 C12.339163,149.199314 15.021085,148.544886 17.2960037,148.089733 C20.3400693,147.481301 22.9176183,147.003655 22.6378099,146.709758 M29.6197275,152.841127 C29.3786252,153.736073 29.2280358,154.628376 29.8070481,155.401878 C31.5235853,155.988109 36.1195361,156.473023 38.9505436,155.306034 C40.2904306,154.753265 41.487733,153.492487 41.7631349,152.381406" id="Stroke-32" stroke="#5B5B5B" stroke-width="0.724"></path>
            <path d="M30.9907464,149.705235 C32.1174396,148.453642 38.2025238,148.721517 39.0051371,153.20186" id="Stroke-33" stroke="#5B5B5B" stroke-width="0.724"></path>
            <path d="M31.432,33.932 C33.265,32.76 34.91,32.52 35.326,32.798 C35.983,33.256 36.118,34.569 35.755,36.567 C35.474,36.875 34.895,36.269 34.449,35.941 C33.929,35.561 33.37,35.643 32.865,37.507 C32.694,38.14 32.683,39.033 32.56,40.423 C31.926,39.921 31.211,35.699 33.795,34.526 C34.228,34.447 34.621,34.81 35.15,35.284 C35.329,34.401 35.502,33.556 34.905,33.375 C34.558,33.269 33.752,33.284 32.572,33.939 C32.817,34.205 32.846,34.3 32.964,34.402 C32.372,34.756 31.385,34.569 31.432,33.932" id="Fill-34" fill="#E31E24"></path>
            <path d="M36.053,31.377 C36.36,31.378 36.601,31.629 36.589,31.937 C36.578,32.245 36.319,32.493 36.011,32.492 C35.704,32.49 35.464,32.239 35.475,31.932 C35.487,31.624 35.745,31.375 36.053,31.377" id="Fill-35" fill="#E31E24"></path>
            <path d="M0.6111705,146.805134 C1.3831899,147.548439 1.8402227,147.673758 8.3736563,147.631025" id="Stroke-36" stroke="#5B5B5B" stroke-width="0.724"></path>
            <path d="M22.665,9.957 C23.465,9.941 24.145,10.417 24.248,10.734 C23.792,10.647 23.835,10.469 23.305,10.455 C23.129,10.45 23.305,10.937 23.127,10.977 C22.987,11.009 22.504,11.075 22.358,10.881 C22.298,10.802 22.329,10.454 22.218,10.464 C21.845,10.499 21.28,10.859 21.234,10.873 C21.284,10.571 21.865,9.974 22.665,9.957" id="Fill-37" fill="#5B5B5B"></path>
            <path d="M28.421,9.787 C27.621,9.797 27.052,10.241 26.939,10.58 C27.04,10.642 27.622,10.221 27.845,10.284 C27.965,10.318 27.87,10.675 27.936,10.747 C28.119,10.944 28.625,10.947 28.892,10.809 C29.003,10.751 28.835,10.151 28.934,10.19 C29.354,10.353 29.762,10.669 29.953,10.602 C29.911,10.286 29.221,9.776 28.421,9.787" id="Fill-38" fill="#5B5B5B"></path>
            <path d="M1.0257114,43.9906827 C3.2759399,46.8872138 6.2084784,49.4762689 9.1936259,50.6739488 C9.9567698,54.5701668 10.607552,56.8457157 11.3889183,60.0108455 C10.8355001,64.7726025 12.0020908,66.3352946 13.5263671,66.8512156 L13.8519772,70.6715392 L12.8511589,73.8638622 L11.8041021,75.9004646 C9.9976287,72.5954682 8.9683639,71.8891575 7.3940096,67.9461511 C6.9251323,66.7726019 6.7646647,62.6696014 6.5671349,61.8220893 C5.0873039,58.0853696 2.4220761,54.1273075 1.5982666,51.5227142 C0.9260126,49.3941357 0.5427488,47.6567463 1.0257114,43.9906827 Z" id="Stroke-39" stroke="#5B5B5B" stroke-width="0.461"></path>
            <path d="M9.539,69.523 C9.941,70.4 11.934,75.563 12.05,75.974 M10.95,68.125 C10.99,69.217 12.978,73.393 13.094,73.804" id="Stroke-40" stroke="#5B5B5B" stroke-width="0.185"></path>
            <path d="M63.8876288,136.111924 C62.177951,135.767168 60.8202214,136.973499 60.8568478,138.807548 C60.892927,140.640734 62.3096598,142.407524 64.0185466,142.75286 C65.7287716,143.098479 67.085954,141.891284 67.0498748,140.058098 C67.0132484,138.22405 65.5978538,136.457543 63.8876288,136.111924 Z" id="Stroke-41" stroke="#5B5B5B" stroke-width="0.73"></path>
            <g id="Group-44" transform="translate(62.000000, 136.000000)">
                <path d="M2.853341,0.6949135 L0.7780592,0.0199326 L0.8228714,4.0966697 C1.6493538,4.7550839 2.3228846,4.7808643 2.8874696,4.3649043 L2.853341,0.6949135 Z" id="Fill-42" fill="#FEFEFE"></path>
                <path d="M2.853341,0.6949135 L0.7780592,0.0199326 L0.8228714,4.0966697 C1.6493538,4.7550839 2.3228846,4.7808643 2.8874696,4.3649043 L2.853341,0.6949135 Z" id="Stroke-43" stroke="#5B5B5B" stroke-width="0.342"></path>
            </g>
            <polygon id="Stroke-45" stroke="#5B5B5B" stroke-width="1.073" stroke-linejoin="round" points="88.2523027 141.231594 61.3098375 129.245044 61.3573516 135.049308 88.3974095 147.705497"></polygon>
            <path d="M97.2680152,145.338109 C98.3282577,145.945359 99.0478464,147.495061 99.0700639,148.858216 C99.1029864,150.856797 97.6023095,152.492 95.7169596,152.508517 C93.8326474,152.526006 92.2768468,150.918979 92.2439243,148.920398 C92.2307026,148.114942 92.4650598,147.139455 92.8755611,146.534148 C93.5849115,146.207691 96.5662616,145.474133 97.2680152,145.338109 Z" id="Stroke-46" stroke="#5B5B5B" stroke-width="0.726"></path>
            <path d="M158.396962,132.477723 C159.27195,133.106197 159.851193,134.238489 159.832651,135.505825 C159.805564,137.395402 158.460867,138.872576 156.828828,138.802976 C155.196768,138.734415 153.89643,137.113887 153.923811,135.255474 C153.935808,134.42755 154.209975,133.673382 154.653618,133.095809 C155.242756,132.332291 157.790242,132.042466 158.396962,132.477723 Z" id="Stroke-47" stroke="#5B5B5B" stroke-width="0.64"></path>
            <g id="Group-50" transform="translate(94.000000, 145.000000)">
                <path d="M0.6162844,1.3227444 L2.6445986,0.862902 L2.7355752,4.9666042 C1.9465408,5.6099539 1.280075,5.5303809 0.698978,4.9472528 L0.6162844,1.3227444 Z" id="Fill-48" fill="#FEFEFE"></path>
                <path d="M0.6162844,1.3227444 L2.6445986,0.862902 L2.7355752,4.9666042 C1.9465408,5.6099539 1.280075,5.5303809 0.698978,4.9472528 L0.6162844,1.3227444 Z" id="Stroke-49" stroke="#5B5B5B" stroke-width="0.301"></path>
            </g>
            <g id="Group-53" transform="translate(155.000000, 132.000000)">
                <path d="M0.7275155,0.4563582 L2.6713255,0.054817 L2.846723,4.1770942 C2.0892493,4.7234091 1.4502094,4.692146 0.8930568,4.1504565 L0.7275155,0.4563582 Z" id="Fill-51" fill="#FEFEFE"></path>
                <path d="M0.7275155,0.4563582 L2.6713255,0.054817 L2.846723,4.1770942 C2.0892493,4.7234091 1.4502094,4.692146 0.8930568,4.1504565 L0.7275155,0.4563582 Z" id="Stroke-52" stroke="#5B5B5B" stroke-width="0.277"></path>
            </g>
            <path d="M85.9866974,28.4981902 C86.6143496,23.7925285 88.1652403,18.7555437 93.4438065,18.01458 L152.990777,14.9978968 C157.780648,14.9349623 158.641976,18.0010452 159.319681,22.8560325 L160.956722,131.631281 L88.3402829,147.683028 L85.9866974,28.4981902 Z" id="Stroke-54" stroke="#5B5B5B" stroke-width="1.075" stroke-linejoin="round"></path>
            <path d="M61.4366191,135.381254 L61.9214178,23.8551337 C62.5488313,19.1504252 64.1009503,14.1127245 69.3795165,13.3717608 L128.926248,10.3560308 C132.854316,10.3036856 134.139484,12.3558783 134.849775,15.773752" id="Stroke-55" stroke="#5B5B5B" stroke-width="1.075"></path>
            <polygon id="Stroke-56" stroke="#5B5B5B" stroke-width="1.073" stroke-linejoin="round" points="88.2272672 140.930349 160.82419 126.110159 160.871082 131.597926 88.4595059 147.542015"></polygon>
            <path d="M87.7485786,101.606762 L119.457306,97.9862376 L119.751626,134.389304 L87.6884274,140.636389 L87.7485786,101.606762 Z M87.6426,86.3474648 L108.928225,84.0790947 L109.354612,96.5931071 L87.9102216,99.3704943 L87.6426,86.3474648 Z" id="Stroke-57" stroke="#5B5B5B" stroke-width="0.429"></path>
            <path d="M135.360319,77.6013044 L158.242509,75.3783656 L158.314546,91.4500874 L135.666627,94.1940662 L135.360319,77.6013044 Z M108.715907,38.769257 L134.852562,37.205219 L135.294176,55.2964916 L109.211413,57.885206 L108.715907,38.769257 Z" id="Stroke-58" stroke="#5B5B5B" stroke-width="0.428"></path>
            <polygon id="Stroke-59" stroke="#5B5B5B" stroke-width="0.429" points="120.842189 97.7072797 139.529642 95.3420024 139.676977 130.432898 120.89671 134.168362"></polygon>
            <polygon id="Stroke-60" stroke="#5B5B5B" stroke-width="0.455" points="141.093158 117.111275 159.490158 113.997756 159.511283 126.149377 141.475639 129.776557"></polygon>
            <polygon id="Stroke-61" stroke="#5B5B5B" stroke-width="0.366" points="74.5743462 120.081182 63.6425469 115.543214 63.7701441 130.644786 74.4006447 134.685998"></polygon>
            <polygon id="Stroke-62" stroke="#5B5B5B" stroke-width="0.427" points="87.6665844 101.782481 76.2998248 98.4453859 76.2890484 135.312896 87.9929734 141.589679"></polygon>
            <polygon id="Stroke-63" stroke="#5B5B5B" stroke-width="0.429" points="87.0277873 86.6695501 63.9442562 80.3788174 63.7609544 92.4710177 86.9686687 99.2115205"></polygon>
            <path d="M105.977182,39.0465565 L85.9678595,40.2314128 L64.4952325,35.9252891 L64.5780125,40.6408702 L86.9399375,45.6230255 L106.079898,44.4968784 L105.977182,39.0465565 Z M105.438963,21.9671172 L85.3136395,23.301242 L65.373391,19.6267279 L65.2897975,26.5206395 L85.136193,31.264349 L105.54054,29.9457263 L105.438963,21.9671172 Z" id="Stroke-64" stroke="#5B5B5B" stroke-width="0.429"></path>
            <polygon id="Stroke-65" stroke="#5B5B5B" stroke-width="0.429" stroke-linejoin="round" points="82.7832135 18.5473468 65.270089 19.5289068 85.1526465 23.4470933 105.292006 21.7463099"></polygon>
            <polygon id="Stroke-66" stroke="#5B5B5B" stroke-width="0.269" stroke-linejoin="round" points="156.798163 20.1059038 143.348155 20.5059247 143.457635 34.9094551 157.210608 34.3219748"></polygon>
            <path d="M157.322038,40.805154 C157.164739,38.8839364 156.626327,37.9420766 155.778986,37.7565904 L153.966124,37.837048 C153.193936,38.0891263 152.702654,39.1374942 152.519221,41.0564632 L152.630404,54.7351831 C153.12628,55.1541812 156.206127,55.1422864 157.433311,54.4829001 C157.39625,49.9233268 157.359098,45.3647273 157.322038,40.805154 Z" id="Stroke-67" stroke="#5B5B5B" stroke-width="0.428"></path>
            <path d="M153.973174,37.6432991 L155.81466,37.5462017 C155.805492,36.393695 155.519147,35.870245 154.791287,35.928919 C154.168665,35.9802677 153.964657,36.5678191 153.973174,37.6432991 Z" id="Stroke-68" stroke="#5B5B5B" stroke-width="0.428"></path>
            <path d="M152.503681,41.0579191 C152.346383,39.1367015 151.807971,38.1948417 150.960629,38.0093555 L149.147768,38.0898131 C148.374562,38.3417937 147.884297,39.3902593 147.700865,41.3092283 L147.812048,54.9879482 C148.307832,55.4079201 151.387771,55.3950515 152.613937,54.7355675 C152.576785,50.176968 152.539815,45.6164209 152.503681,41.0579191 Z" id="Stroke-69" stroke="#5B5B5B" stroke-width="0.428"></path>
            <path d="M149.154074,37.8970865 L150.996558,37.7998056 C150.986392,36.6474824 150.700843,36.1228843 149.971984,36.1817418 C149.35036,36.232907 149.145354,36.8206419 149.154074,37.8970865 Z" id="Stroke-70" stroke="#5B5B5B" stroke-width="0.428"></path>
            <path d="M147.722512,41.3083586 C147.56614,39.3882125 147.027819,38.4453789 146.180478,38.2598927 L144.366599,38.3402526 C143.59441,38.5923309 143.104146,39.6407965 142.920714,41.5597655 L143.031896,55.2384854 C143.527681,55.6584573 146.607619,55.6455887 147.833785,54.9861047 C147.797651,50.4276029 147.759573,45.8679319 147.722512,41.3083586 Z" id="Stroke-71" stroke="#5B5B5B" stroke-width="0.428"></path>
            <path d="M144.373713,38.1477593 L146.2152,38.0506619 C146.206031,36.8981552 145.919484,36.3737406 145.192824,36.4331957 C144.569999,36.4835798 144.365197,37.0722793 144.373713,38.1477593 Z" id="Stroke-72" stroke="#5B5B5B" stroke-width="0.428"></path>
            <path d="M142.826729,41.5654818 C142.670448,39.6443619 142.132036,38.7025021 141.284786,38.5160421 L139.470906,38.596402 C138.698627,38.8494541 138.208363,39.8979197 138.02493,41.8168887 L138.136204,55.4946348 C138.631898,55.9155805 141.711836,55.9027119 142.938002,55.2432279 C142.900941,50.6836546 142.863881,46.1240813 142.826729,41.5654818 Z" id="Stroke-73" stroke="#5B5B5B" stroke-width="0.428"></path>
            <path d="M139.477524,38.4046986 L141.320009,38.3074177 C141.309842,37.1550945 141.024293,36.6304964 140.296635,36.690135 C139.67381,36.7405191 139.470006,37.3290351 139.477524,38.4046986 Z" id="Stroke-74" stroke="#5B5B5B" stroke-width="0.428"></path>
            <path d="M112.238094,62.8091942 C112.372499,61.54196 112.903834,60.8659304 113.75377,60.6450416 L115.58124,60.4832684 C116.362621,60.556118 116.868307,61.179818 117.075667,62.4067178 L117.128069,71.3138396 C116.632591,71.6458406 113.531778,72.0007052 112.288943,71.7167714 C112.272361,68.7476858 112.254676,65.7782798 112.238094,62.8091942 Z" id="Stroke-75" stroke="#5B5B5B" stroke-width="0.343"></path>
            <path d="M115.577536,60.3607817 L113.72224,60.5154277 C113.718028,59.7642008 114.000052,59.389814 114.733981,59.3421248 C115.361134,59.3017239 115.57384,59.6598253 115.577536,60.3607817 Z" id="Stroke-76" stroke="#5B5B5B" stroke-width="0.342"></path>
            <path d="M117.092054,62.405132 C117.227563,61.1382182 117.757795,60.4618682 118.609284,60.240524 L120.436303,60.0795266 C121.216581,60.1520558 121.72337,60.7760762 121.930731,62.002976 L121.98203,70.9097774 C121.487654,71.2420988 118.386842,71.5969634 117.144006,71.3130296 C117.126321,68.3436236 117.109739,65.374538 117.092054,62.405132 Z" id="Stroke-77" stroke="#5B5B5B" stroke-width="0.343"></path>
            <path d="M120.432595,59.9568249 L118.576992,60.1106584 C118.573087,59.360244 118.85511,58.9858572 119.587888,58.9383777 C120.216193,58.8977671 120.428899,59.2558685 120.432595,59.9568249 Z" id="Stroke-78" stroke="#5B5B5B" stroke-width="0.342"></path>
            <path d="M121.907928,62.0045114 C122.043887,60.7368218 122.575221,60.0607922 123.425157,59.8399034 L125.252627,59.6781302 C126.032455,59.7514352 126.539244,60.3754556 126.747054,61.6015796 L126.799006,70.5094772 C126.303978,70.8407024 123.203165,71.195567 121.96033,70.9116332 C121.942645,67.9422272 121.926063,64.9731416 121.907928,62.0045114 Z" id="Stroke-79" stroke="#5B5B5B" stroke-width="0.343"></path>
            <path d="M125.24812,59.5557257 L123.392824,59.7103717 C123.388612,58.9591448 123.670636,58.584758 124.404566,58.5370688 C125.031718,58.4966679 125.244425,58.8547693 125.24812,59.5557257 Z" id="Stroke-80" stroke="#5B5B5B" stroke-width="0.342"></path>
            <path d="M126.841821,61.5937514 C126.976227,60.3265172 127.507561,59.6504876 128.357497,59.4295988 L130.184967,59.2678256 C130.966348,59.3406752 131.472034,59.9643752 131.679395,61.191275 L131.731346,70.0991726 C131.236318,70.4303978 128.135505,70.7852624 126.89267,70.5013286 C126.874985,67.5319226 126.858403,64.562837 126.841821,61.5937514 Z" id="Stroke-81" stroke="#5B5B5B" stroke-width="0.343"></path>
            <path d="M130.180787,59.1454509 L128.325184,59.2992844 C128.321279,58.54887 128.603302,58.1744832 129.336081,58.1270037 C129.964384,58.0863931 130.177091,58.4444945 130.180787,59.1454509 Z" id="Stroke-82" stroke="#5B5B5B" stroke-width="0.342"></path>
            <path d="M113.032603,81.6542023 C113.167102,80.3854698 113.698415,79.7041626 114.548239,79.4749598 L116.37544,79.2953571 C117.156693,79.3606044 117.663347,79.97978 117.869462,81.2045325 L117.921054,90.1124705 C117.425623,90.4493485 114.325259,90.8344778 113.082643,90.5626109 C113.066331,87.5932446 113.048915,84.6235686 113.032603,81.6542023 Z" id="Stroke-83" stroke="#5B5B5B" stroke-width="0.343"></path>
            <path d="M116.369706,79.1618796 L114.514565,79.3346879 C114.510638,78.5841304 114.792627,78.206898 115.525344,78.1522483 C116.152444,78.1057108 116.366296,78.4615997 116.369706,79.1618796 Z" id="Stroke-84" stroke="#5B5B5B" stroke-width="0.342"></path>
            <path d="M117.885847,81.2027868 C118.021899,79.9335837 118.552109,79.2519668 119.403036,79.0230737 L121.229786,78.8442513 C122.009936,78.9091889 122.516591,79.5283645 122.724259,80.7526464 L122.774298,89.661055 C122.279969,89.9982427 119.179606,90.383372 117.936989,90.1115051 C117.919574,87.1418291 117.903262,84.1724628 117.885847,81.2027868 Z" id="Stroke-85" stroke="#5B5B5B" stroke-width="0.343"></path>
            <path d="M121.224358,78.7103947 L119.368066,78.883424 C119.363831,78.1320568 119.64582,77.7548244 120.379689,77.6999537 C121.007096,77.6542259 121.219796,78.0103358 121.224358,78.7103947 Z" id="Stroke-86" stroke="#5B5B5B" stroke-width="0.342"></path>
            <path d="M122.701009,80.7551845 C122.837061,79.4859814 123.368374,78.8046742 124.218198,78.5754714 L126.045399,78.3958687 C126.825099,78.4615866 127.331753,79.0807622 127.539421,80.3050441 L127.58946,89.2134527 C127.095582,89.5498601 123.995218,89.9349894 122.752601,89.6631225 C122.735186,86.6934465 122.718874,83.7240802 122.701009,80.7551845 Z" id="Stroke-87" stroke="#5B5B5B" stroke-width="0.343"></path>
            <path d="M126.03948,78.2621543 L124.184339,78.4349626 C124.180411,77.6844051 124.462401,77.3071727 125.195118,77.252523 C125.822218,77.2059855 126.034918,77.5620954 126.03948,78.2621543 Z" id="Stroke-88" stroke="#5B5B5B" stroke-width="0.342"></path>
            <path d="M127.634174,80.2962914 C127.768673,79.0275589 128.299986,78.3462517 129.14981,78.1170489 L130.97701,77.9374462 C131.758263,78.0026935 132.263815,78.6215594 132.471033,79.8466216 L132.522175,88.7553399 C132.027194,89.0914376 128.92683,89.4765669 127.684213,89.2047 C127.667901,86.2353337 127.650486,83.2656577 127.634174,80.2962914 Z" id="Stroke-89" stroke="#5B5B5B" stroke-width="0.343"></path>
            <path d="M130.971733,77.8035917 L129.116592,77.9764 C129.112664,77.2258425 129.393195,76.8480214 130.127371,76.7939604 C130.754164,76.7466132 130.967171,77.1035328 130.971733,77.8035917 Z" id="Stroke-90" stroke="#5B5B5B" stroke-width="0.342"></path>
            <path d="M141.05094,101.395337 C141.165457,99.2194385 141.649532,98.0513345 142.431784,97.6584875 L144.114883,97.349501 C144.834219,97.461602 145.306491,98.5227815 145.5084,100.62209 L145.626778,115.894214 C145.174132,116.4709 142.318741,117.13244 141.170458,116.666622 C141.130282,111.576149 141.091115,106.48581 141.05094,101.395337 Z" id="Stroke-91" stroke="#5B5B5B" stroke-width="0.43"></path>
            <path d="M144.106245,97.1382325 L142.397979,97.4348459 C142.38747,96.1479487 142.644808,95.5003348 143.320357,95.4074549 C143.898515,95.3262228 144.096951,95.9374597 144.106245,97.1382325 Z" id="Stroke-92" stroke="#5B5B5B" stroke-width="0.428"></path>
            <path d="M145.523182,100.619112 C145.637568,98.4441875 146.120634,97.2759485 146.903017,96.882128 L148.585985,96.574115 C149.30633,96.686351 149.778734,97.746557 149.979633,99.8457305 L150.099021,115.117989 C149.645234,115.695514 146.789843,116.357054 145.642569,115.891371 C145.602393,110.800898 145.562218,105.710425 145.523182,100.619112 Z" id="Stroke-93" stroke="#5B5B5B" stroke-width="0.43"></path>
            <path d="M148.578583,96.3624447 L146.869531,96.6584232 C146.859808,95.3721609 147.115708,94.7246574 147.791908,94.6310322 C148.370202,94.5511803 148.569289,95.1616719 148.578583,96.3624447 Z" id="Stroke-94" stroke="#5B5B5B" stroke-width="0.428"></path>
            <path d="M149.958535,99.849845 C150.073052,97.6739465 150.557127,96.5058425 151.339379,96.1129955 L153.022478,95.804009 C153.742823,95.916245 154.215096,96.9774245 154.415995,99.076598 L154.535383,114.348857 C154.081727,114.925407 151.226205,115.587922 150.077922,115.122104 C150.038887,110.030792 149.998711,104.940319 149.958535,99.849845 Z" id="Stroke-95" stroke="#5B5B5B" stroke-width="0.43"></path>
            <path d="M153.014586,95.5929226 L151.305534,95.8889011 C151.295811,94.6026388 151.552498,93.9557702 152.227911,93.8615101 C152.806205,93.7816582 153.005293,94.3921498 153.014586,95.5929226 Z" id="Stroke-96" stroke="#5B5B5B" stroke-width="0.428"></path>
            <path d="M154.502276,99.0613835 C154.616662,96.8864585 155.100868,95.717381 155.88312,95.324534 L157.566088,95.016521 C158.286564,95.1277835 158.757696,96.1898015 158.959605,98.28911 L159.079123,113.560395 C158.625337,114.137919 155.769946,114.79946 154.621663,114.333642 C154.582496,109.243304 154.542452,104.151857 154.502276,99.0613835 Z" id="Stroke-97" stroke="#5B5B5B" stroke-width="0.43"></path>
            <path d="M157.558156,94.8047138 L155.849104,95.1006923 C155.839381,93.81443 156.095281,93.1669265 156.771481,93.0733013 C157.349776,92.9934494 157.548863,93.603941 157.558156,94.8047138 Z" id="Stroke-98" stroke="#5B5B5B" stroke-width="0.428"></path>
            <path d="M74.0569381,104.479785 C73.9459777,102.337125 73.5551808,101.120223 72.9387233,100.612868 L71.6162897,100.045626 C71.0535262,100.041624 70.693277,101.003343 70.5567902,103.021189 L70.6115573,117.915088 C70.9729588,118.550879 73.2166437,119.647108 74.1117052,119.373684 C74.0937506,114.409062 74.0748927,109.444408 74.0569381,104.479785 Z" id="Stroke-99" stroke="#5B5B5B" stroke-width="0.376"></path>
            <path d="M71.6224168,99.840024 L72.9649324,100.400094 C72.9598858,99.1445217 72.7519732,98.4716979 72.22225,98.2735326 C71.768271,98.1040292 71.6186828,98.669272 71.6224168,99.840024 Z" id="Stroke-100" stroke="#5B5B5B" stroke-width="0.374"></path>
            <path d="M70.5445333,103.016336 C70.4335729,100.873676 70.0436793,99.6568053 69.4263185,99.1494195 L68.1047882,98.5822082 C67.5411214,98.5781754 67.1817755,99.5399255 67.0445139,101.558852 L67.1001843,116.452782 C67.460554,117.08743 69.7051422,118.18369 70.6002037,117.910267 C70.5813458,112.945613 70.5633912,107.98099 70.5445333,103.016336 Z" id="Stroke-101" stroke="#5B5B5B" stroke-width="0.376"></path>
            <path d="M68.1106826,98.3778652 L69.4526058,98.9369852 C69.4475592,97.6814126 69.240239,97.0095391 68.7105158,96.8113738 C68.2565368,96.6418704 68.1063562,97.2061629 68.1106826,98.3778652 Z" id="Stroke-102" stroke="#5B5B5B" stroke-width="0.374"></path>
            <path d="M67.0605125,101.564941 C66.9505839,99.4234239 66.5596585,98.2054105 65.9422977,97.6980247 L64.6208959,97.1319249 C64.0580039,97.1268119 63.6977547,98.0885307 63.5613964,100.107488 L63.6161635,115.001387 C63.9774365,115.636066 66.2211214,116.732295 67.1163114,116.459983 C67.0983568,111.495361 67.0793704,106.529595 67.0605125,101.564941 Z" id="Stroke-103" stroke="#5B5B5B" stroke-width="0.376"></path>
            <path d="M64.6265456,96.9262153 L65.9684688,97.4853353 C65.9640146,96.230713 65.756102,95.5578892 65.2263788,95.3597239 C64.7723998,95.1902205 64.6215206,95.7550804 64.6265456,96.9262153 Z" id="Stroke-104" stroke="#5B5B5B" stroke-width="0.374"></path>
            <path d="M136.012867,62.87249 C136.43911,62.1088957 137.453169,61.4153799 138.026829,60.5724357 L138.002526,59.1354648 L139.020988,59.0497145 L139.04807,60.4812955 C139.785337,61.3851588 140.765658,61.8716683 141.045737,62.4719342 L141.113503,71.8211251 C140.599659,72.1667081 137.37458,72.524559 136.081592,72.2212594 C136.058196,69.1048699 136.036263,65.9888795 136.012867,62.87249 Z" id="Stroke-105" stroke="#5B5B5B" stroke-width="0.261"></path>
            <path d="M139.09988,59.0153182 L137.929249,59.1086315 C137.921607,58.0337538 138.053747,57.5476887 138.515915,57.5161296 C138.948545,57.4856744 139.091883,58.0127024 139.09988,59.0153182 Z" id="Stroke-106" stroke="#5B5B5B" stroke-width="0.262"></path>
            <path d="M136.012867,62.87249 C136.43911,62.1088957 137.453169,61.4153799 138.026829,60.5724357 L138.002526,59.1354648 L139.020988,59.0497145 L139.04807,60.4812955 C139.785337,61.3851588 140.765658,61.8716683 141.045737,62.4719342 L141.113503,71.8211251 C140.599659,72.1667081 137.37458,72.524559 136.081592,72.2212594 C136.058196,69.1048699 136.036263,65.9888795 136.012867,62.87249 Z" id="Stroke-107" stroke="#5B5B5B" stroke-width="0.261"></path>
            <path d="M139.09988,59.0153182 L137.929249,59.1086315 C137.921607,58.0337538 138.053747,57.5476887 138.515915,57.5161296 C138.948545,57.4856744 139.091883,58.0127024 139.09988,59.0153182 Z" id="Stroke-108" stroke="#5B5B5B" stroke-width="0.262"></path>
            <path d="M141.578016,62.4298776 C142.00426,61.6662833 143.019277,60.972346 143.591979,60.1298233 L143.567676,58.6928524 L144.587097,58.6066806 L144.61322,60.0386831 C145.351446,60.9421249 146.330807,61.4290559 146.610886,62.0293218 L146.679612,71.3780912 C146.165767,71.7236742 142.939729,72.0819466 141.646741,71.778647 C141.623345,68.6622575 141.600908,65.5454465 141.578016,62.4298776 Z" id="Stroke-109" stroke="#5B5B5B" stroke-width="0.261"></path>
            <path d="M144.664866,58.5734021 L143.495414,58.6658926 C143.487773,57.5910149 143.618732,57.1057726 144.082081,57.0733907 C144.513632,57.0428404 144.658049,57.5699635 144.664866,58.5734021 Z" id="Stroke-110" stroke="#5B5B5B" stroke-width="0.262"></path>
            <path d="M152.797332,61.5368153 C153.222616,60.7736425 154.237634,60.0797052 154.810335,59.2371825 L154.786991,57.7997901 L155.805453,57.7140398 L155.831576,59.1460423 C156.570307,60.0503047 157.550123,60.5359936 157.830202,61.1362595 L157.897968,70.4854504 C157.384124,70.8310334 154.159045,71.1888843 152.866057,70.8855847 C152.843165,67.7700158 152.819769,64.6536263 152.797332,61.5368153 Z" id="Stroke-111" stroke="#5B5B5B" stroke-width="0.261"></path>
            <path d="M155.884061,57.6807508 L154.714508,57.7741592 C154.706867,56.6992815 154.839006,56.2132164 155.301276,56.1807394 C155.732827,56.1501891 155.877244,56.6773122 155.884061,57.6807508 Z" id="Stroke-112" stroke="#5B5B5B" stroke-width="0.262"></path>
            <path d="M147.188153,61.9831357 C147.613438,61.2199629 148.628456,60.5260256 149.201157,59.6835029 L149.177813,58.2461105 L150.196275,58.1603602 L150.222398,59.5923627 C150.960624,60.4958045 151.939985,60.9827355 152.220065,61.5830014 L152.28879,70.9317708 C151.774945,71.2773538 148.548908,71.6356262 147.25592,71.3323266 C147.233482,68.2155156 147.21059,65.0999467 147.188153,61.9831357 Z" id="Stroke-113" stroke="#5B5B5B" stroke-width="0.261"></path>
            <path d="M150.275003,58.127124 L149.104472,58.2195194 C149.096831,57.1446417 149.228869,56.6594945 149.691139,56.6270175 C150.123769,56.5965623 150.267107,57.1235903 150.275003,58.127124 Z" id="Stroke-114" stroke="#5B5B5B" stroke-width="0.262"></path>
            <path d="M88.5167731,74.9292265 C89.0133086,74.0274877 90.1954856,73.1914625 90.863288,72.1936133 L90.836011,70.5192687 L92.0222706,70.3903467 L92.053281,72.0587893 C92.9134875,73.0924431 94.0557941,73.6313858 94.3815939,74.322745 L94.4611498,85.2158659 C93.8622855,85.6333141 90.1037243,86.1398415 88.596329,85.8223474 C88.5701129,82.1904717 88.543443,78.5598491 88.5167731,74.9292265 Z" id="Stroke-115" stroke="#5B5B5B" stroke-width="0.523"></path>
            <path d="M92.0957888,70.3454166 L90.7331818,70.4863466 C90.7234274,69.2336792 90.8769384,68.664158 91.415882,68.6138878 C91.9197946,68.5660372 92.0877704,69.1762672 92.0957888,70.3454166 Z" id="Stroke-116" stroke="#5B5B5B" stroke-width="0.523"></path>
            <path d="M101.590604,73.5787425 C102.085675,72.6766402 103.268811,71.8401702 103.936614,70.842321 L103.909337,69.1679764 L105.096102,69.0398627 L105.126607,70.707497 C105.986813,71.7411508 107.12912,72.2800935 107.455425,72.972261 L107.534476,83.8645736 C106.935611,84.2820218 103.17705,84.7885492 101.669655,84.4710551 C101.643944,80.8399877 101.617274,77.2093651 101.590604,73.5787425 Z" id="Stroke-117" stroke="#5B5B5B" stroke-width="0.523"></path>
            <path d="M105.167983,68.9937838 L103.805376,69.1347138 C103.795621,67.8820464 103.950111,67.3135138 104.489155,67.2623232 C104.991888,67.2153248 105.159864,67.8255548 105.167983,68.9937838 Z" id="Stroke-118" stroke="#5B5B5B" stroke-width="0.523"></path>
            <path d="M95.0536886,74.2539845 C95.549265,73.3526905 96.7318958,72.5154122 97.4002035,71.5183713 L97.3724212,69.8432184 L98.5591861,69.7151047 L98.5901965,71.3835473 C99.4498977,72.4163928 100.592204,72.9553355 100.918509,73.647503 L100.998065,84.5406239 C100.398696,84.9572638 96.6406398,85.4645995 95.1332445,85.1471054 C95.1070284,81.5152297 95.0803585,77.8846071 95.0536886,74.2539845 Z" id="Stroke-119" stroke="#5B5B5B" stroke-width="0.523"></path>
            <path d="M98.6318858,69.6696002 L97.2692788,69.8105302 C97.2595244,68.5578628 97.4141144,67.9884098 97.953058,67.9381396 C98.455791,67.8911412 98.6238674,68.5004508 98.6318858,69.6696002 Z" id="Stroke-120" stroke="#5B5B5B" stroke-width="0.523"></path>
            <path d="M85.2955026,75.0895234 C84.8916775,74.12621 83.9333269,73.1415296 83.3912699,72.0609416 L83.4076726,70.3900034 L82.4485412,70.1128708 L82.4290226,71.7782284 C81.7386135,72.704484 80.8185104,73.1018936 80.5573513,73.7538992 L80.5310376,84.6391134 C81.0166944,85.1302246 84.0543815,86.105571 85.2700645,85.975343 C85.2786955,82.347222 85.2868716,78.7176444 85.2955026,75.0895234 Z" id="Stroke-121" stroke="#5B5B5B" stroke-width="0.516"></path>
            <path d="M82.3781755,70.0562035 L83.4796552,70.3673344 C83.4828538,69.1156454 83.356175,68.5264908 82.9213054,68.4094068 C82.5140486,68.2991502 82.3809596,68.8891878 82.3781755,70.0562035 Z" id="Stroke-122" stroke="#5B5B5B" stroke-width="0.52"></path>
            <path d="M80.0142943,73.5999862 C79.6104692,72.6366728 78.6521186,71.6519924 78.1096409,70.5722556 L78.1264643,68.9004662 L77.1669122,68.6241848 L77.1478143,70.2886912 C76.4569845,71.215798 75.5368814,71.6132076 75.2752674,72.2637566 L75.2498293,83.1495762 C75.7350654,83.6415386 78.7718769,84.6162796 79.9875599,84.4860516 C79.9966116,80.8570794 80.0052426,77.2289584 80.0142943,73.5999862 Z" id="Stroke-123" stroke="#5B5B5B" stroke-width="0.516"></path>
            <path d="M77.0967662,68.5678694 L78.1981447,68.8779613 C78.2013433,67.6262723 78.0757338,67.038215 77.6397949,66.9200337 C77.2336074,66.8108744 77.0994491,67.3998147 77.0967662,68.5678694 Z" id="Stroke-124" stroke="#5B5B5B" stroke-width="0.52"></path>
            <path d="M74.4102117,72.0482428 C74.0063866,71.0849294 73.048036,70.100249 72.5051034,69.0190556 L72.5219268,67.3472662 L71.5632503,67.0715902 L71.5441524,68.7360966 C70.852447,69.662598 69.9323439,70.0600076 69.6711848,70.7120132 L69.6448711,81.5972274 C70.1305279,82.0883386 73.168215,83.063685 74.383898,82.933457 C74.3929497,79.3044848 74.4015807,75.6763638 74.4102117,72.0482428 Z" id="Stroke-125" stroke="#5B5B5B" stroke-width="0.516"></path>
            <path d="M71.4934685,67.0157359 L72.594847,67.3258278 C72.5970775,66.0740805 72.4713668,65.4849842 72.0355291,65.3678419 C71.6292404,65.2576436 71.4961514,65.8476812 71.4934685,67.0157359 Z" id="Stroke-126" stroke="#5B5B5B" stroke-width="0.52"></path>
            <path d="M69.1281278,70.5581002 C68.7243027,69.5947868 67.7668277,68.6107118 67.2234744,67.5303696 L67.2402978,65.8585802 L66.2811664,65.5814476 L66.2625234,67.2474106 C65.5712387,68.1730608 64.6511356,68.5704704 64.3899765,69.222476 L64.3636628,80.1076902 C64.8488989,80.5996526 67.886586,81.574999 69.1026897,81.4439198 C69.1113207,77.8157988 69.1194968,74.1862212 69.1281278,70.5581002 Z" id="Stroke-127" stroke="#5B5B5B" stroke-width="0.516"></path>
            <path d="M66.211958,65.5263628 L67.3133365,65.8364547 C67.3166363,64.5858047 67.1899575,63.9966501 66.7540186,63.8784688 C66.3478311,63.7693095 66.2146409,64.3583081 66.211958,65.5263628 Z" id="Stroke-128" stroke="#5B5B5B" stroke-width="0.52"></path>
            <path d="M64.886304,30.8455121 C65.2583482,30.5303558 66.140983,30.3822512 66.641763,30.0577748 L66.6236649,29.284661 L67.509079,29.4612179 L67.5289447,30.2317646 C68.1687225,30.8765129 69.0198424,31.3506719 69.2612771,31.7326742 L69.3009489,36.7407401 C68.8537041,36.8132174 66.0488129,36.2997227 64.9257159,35.8545212 C64.9129079,34.184939 64.899112,32.5150943 64.886304,30.8455121 Z" id="Stroke-129" stroke="#5B5B5B" stroke-width="0.278"></path>
            <path d="M67.5696522,29.4663487 L66.5526941,29.2596491 C66.5479542,28.6840202 66.6637144,28.4538354 67.0653473,28.5375098 C67.4406085,28.6152095 67.5652719,28.9293274 67.5696522,29.4663487 Z" id="Stroke-130" stroke="#5B5B5B" stroke-width="0.278"></path>
            <path d="M64.886304,30.8455121 C65.2583482,30.5303558 66.140983,30.3822512 66.641763,30.0577748 L66.6236649,29.284661 L67.509079,29.4612179 L67.5289447,30.2317646 C68.1687225,30.8765129 69.0198424,31.3506719 69.2612771,31.7326742 L69.3009489,36.7407401 C68.8537041,36.8132174 66.0488129,36.2997227 64.9257159,35.8545212 C64.9129079,34.184939 64.899112,32.5150943 64.886304,30.8455121 Z" id="Stroke-131" stroke="#5B5B5B" stroke-width="0.278"></path>
            <path d="M67.5696522,29.4663487 L66.5526941,29.2596491 C66.5479542,28.6840202 66.6637144,28.4538354 67.0653473,28.5375098 C67.4406085,28.6152095 67.5652719,28.9293274 67.5696522,29.4663487 Z" id="Stroke-132" stroke="#5B5B5B" stroke-width="0.278"></path>
            <path d="M69.725224,31.8265964 C70.0960204,31.5121208 70.979903,31.3633355 71.4796951,31.0385966 L71.461597,30.2654828 L72.347999,30.4423022 L72.3678647,31.2128489 C73.0076425,31.8575972 73.8577745,32.3314937 74.1001971,32.7137585 L74.1398689,37.7218244 C73.6926241,37.7943017 70.8879928,37.2798638 69.7646359,36.8356055 C69.75084,35.1657608 69.738032,33.4961786 69.725224,31.8265964 Z" id="Stroke-133" stroke="#5B5B5B" stroke-width="0.278"></path>
            <path d="M72.4075773,30.4473303 L71.3906192,30.2406307 C71.3858793,29.6650018 71.5016395,29.434817 71.9042086,29.5188931 C72.2794698,29.5965928 72.4045393,29.9098168 72.4075773,30.4473303 Z" id="Stroke-134" stroke="#5B5B5B" stroke-width="0.278"></path>
            <path d="M79.478456,33.8037365 C79.8502403,33.4895234 80.7341229,33.3407381 81.233915,33.0159992 L81.2158169,32.2428854 L82.101231,32.4194423 L82.1220846,33.1902515 C82.7608745,33.8347373 83.6119944,34.3088963 83.854417,34.6911611 L83.8940888,39.699227 C83.446844,39.7717043 80.6422127,39.2572664 79.5178679,38.8127456 C79.5050599,37.1431634 79.4922519,35.4735812 79.478456,33.8037365 Z" id="Stroke-135" stroke="#5B5B5B" stroke-width="0.278"></path>
            <path d="M82.1620125,32.425922 L81.1450544,32.2192224 C81.1403145,31.6435935 81.2564808,31.4125148 81.6586438,31.4974848 C82.033905,31.5751845 82.1580383,31.8880068 82.1620125,32.425922 Z" id="Stroke-136" stroke="#5B5B5B" stroke-width="0.278"></path>
            <path d="M74.601476,32.8145636 C74.9732603,32.5003505 75.8571429,32.3515652 76.356935,32.0268263 L76.3388369,31.2537125 L77.224979,31.4314751 L77.2448447,32.2020218 C77.8848824,32.8458269 78.7350144,33.3197234 78.977437,33.7019882 L79.0168489,38.7109973 C78.5696041,38.7834746 75.7649728,38.2690367 74.6418758,37.8238352 C74.6280799,36.1539905 74.6152719,34.4844083 74.601476,32.8145636 Z" id="Stroke-137" stroke="#5B5B5B" stroke-width="0.278"></path>
            <path d="M77.285263,31.436827 L76.2683049,31.2301274 C76.263565,30.6544985 76.3793252,30.4243137 76.7809581,30.5079881 C77.1562193,30.5856878 77.2803526,30.8985101 77.285263,31.436827 Z" id="Stroke-138" stroke="#5B5B5B" stroke-width="0.278"></path>
            <path d="M87.966548,35.0408948 C88.4233435,34.6375013 89.5127516,34.2644711 90.1283301,33.8186642 L90.1051557,33.0675314 L91.196686,33.0118241 L91.2237247,33.7597961 C92.0137836,34.2249692 93.0631169,34.4695298 93.3630334,34.7805608 L93.4237088,39.6661208 C92.8717515,39.851582 89.4135896,40.0723358 88.0262028,39.9265133 C88.0063421,38.298299 87.9864087,36.6691091 87.966548,35.0408948 Z" id="Stroke-139" stroke="#5B5B5B" stroke-width="0.276"></path>
            <path d="M91.266976,32.994204 L90.01322,33.054525 C90.005518,32.4931045 90.14779,32.2383725 90.643932,32.216023 C91.107562,32.1961055 91.260662,32.4700805 91.266976,32.994204 Z" id="Stroke-140" stroke="#5B5B5B" stroke-width="0.278"></path>
            <path d="M87.966548,35.0408948 C88.4233435,34.6375013 89.5127516,34.2644711 90.1283301,33.8186642 L90.1051557,33.0675314 L91.196686,33.0118241 L91.2237247,33.7597961 C92.0137836,34.2249692 93.0631169,34.4695298 93.3630334,34.7805608 L93.4237088,39.6661208 C92.8717515,39.851582 89.4135896,40.0723358 88.0262028,39.9265133 C88.0063421,38.298299 87.9864087,36.6691091 87.966548,35.0408948 Z" id="Stroke-141" stroke="#5B5B5B" stroke-width="0.276"></path>
            <path d="M91.266976,32.994204 L90.01322,33.054525 C90.005518,32.4931045 90.14779,32.2383725 90.643932,32.216023 C91.107562,32.1961055 91.260662,32.4700805 91.266976,32.994204 Z" id="Stroke-142" stroke="#5B5B5B" stroke-width="0.278"></path>
            <path d="M93.9339123,34.7527373 C94.3917284,34.3492853 95.4801159,33.9763136 96.096715,33.5304482 L96.07252,32.7793739 L97.1651436,32.7245837 L97.1911617,33.4726142 C97.9812206,33.9377873 99.0315745,34.1822894 99.3303977,34.4924033 L99.3910731,39.3779633 C98.8391885,39.5644001 95.3809539,39.7841783 93.9945877,39.6382973 C93.974727,38.010083 93.9538457,36.3819272 93.9339123,34.7527373 Z" id="Stroke-143" stroke="#5B5B5B" stroke-width="0.276"></path>
            <path d="M97.235316,32.707199 L95.980544,32.767596 C95.973858,32.2060995 96.11604,31.95039 96.612272,31.929018 C97.074886,31.9091765 97.229002,32.1830755 97.235316,32.707199 Z" id="Stroke-144" stroke="#5B5B5B" stroke-width="0.278"></path>
            <path d="M99.9493175,34.4628059 C100.406113,34.0594124 101.495521,33.6863822 102.11212,33.2405168 L102.087925,32.4894425 L103.180549,32.4346523 L103.206567,33.1826828 C103.996626,33.6478559 105.04698,33.892358 105.345876,34.2034475 L105.406551,39.0890075 C104.854594,39.2744687 101.396359,39.4942469 100.009993,39.3483659 C99.9891116,37.7202101 99.9691782,36.0910202 99.9493175,34.4628059 Z" id="Stroke-145" stroke="#5B5B5B" stroke-width="0.276"></path>
            <path d="M103.250482,32.4176755 L101.99571,32.4780725 C101.988934,31.9155985 102.131206,31.6608665 102.627438,31.6394945 C103.089962,31.6186755 103.244168,31.893552 103.250482,32.4176755 Z" id="Stroke-146" stroke="#5B5B5B" stroke-width="0.278"></path>
            <polyline id="Fill-147" fill="#5B5B5B" points="91.919 135.239 91.86 128.975 90.756 129.178 90.815 135.442 91.919 135.239"></polyline>
            <path d="M95.466,134.7 C96.601,134.491 97.255,133.608 97.613,132.762 L96.659,132.382 C96.446,132.929 95.983,133.419 95.455,133.516 C94.506,133.691 93.813,132.943 93.802,131.76 C93.791,130.576 94.467,129.577 95.416,129.403 C95.944,129.305 96.415,129.623 96.637,130.091 L97.581,129.352 C97.208,128.631 96.54,128.011 95.405,128.219 C93.842,128.507 92.649,130.034 92.667,131.969 C92.685,133.894 93.903,134.987 95.466,134.7" id="Fill-148" fill="#5B5B5B"></path>
            <polyline id="Fill-149" fill="#5B5B5B" points="101.958 133.393 101.947 132.219 99.381 132.691 99.367 131.263 101.879 130.801 101.868 129.627 99.356 130.089 99.344 128.774 101.91 128.302 101.899 127.129 98.228 127.804 98.287 134.068 101.958 133.393"></polyline>
            <polyline id="Fill-150" fill="#5B5B5B" points="107.129 132.441 107.081 127.351 108.589 127.073 108.578 125.9 104.442 126.661 104.453 127.834 105.969 127.556 106.017 132.646 107.129 132.441"></polyline>
            <polyline id="Fill-151" fill="#5B5B5B" points="113.015 131.359 113.004 130.185 110.438 130.657 110.425 129.229 112.936 128.767 112.925 127.594 110.413 128.056 110.401 126.74 112.967 126.268 112.956 125.095 109.286 125.77 109.345 132.034 113.015 131.359"></polyline>
            <path d="M118.715,130.31 L116.657,124.414 L115.273,124.668 L113.334,131.3 L114.586,131.07 L114.902,129.949 L117.126,129.54 L117.463,130.541 L118.715,130.31 Z M116.812,128.421 L115.194,128.719 L115.978,125.875 L116.812,128.421 L116.812,128.421 Z" id="Fill-152" fill="#5B5B5B"></path>
            <path d="M111.539,51.58 L111.472,42.818 L113.678,42.686 C114.127,42.659 114.488,42.725 114.762,42.886 C115.034,43.047 115.248,43.308 115.404,43.668 C115.562,44.025 115.641,44.406 115.644,44.81 C115.647,45.183 115.582,45.54 115.448,45.879 C115.316,46.217 115.112,46.497 114.839,46.717 C115.196,46.851 115.472,47.1 115.665,47.464 C115.859,47.825 115.958,48.262 115.962,48.772 C115.966,49.184 115.91,49.569 115.796,49.928 C115.682,50.289 115.541,50.568 115.371,50.77 C115.201,50.97 114.988,51.128 114.731,51.241 C114.473,51.355 114.157,51.423 113.782,51.445 L111.539,51.58 Z M112.281,46.455 L113.552,46.378 C113.897,46.358 114.144,46.308 114.293,46.232 C114.491,46.132 114.639,45.976 114.737,45.766 C114.835,45.557 114.884,45.299 114.882,44.991 C114.88,44.699 114.831,44.445 114.735,44.23 C114.64,44.013 114.505,43.869 114.33,43.797 C114.156,43.726 113.857,43.704 113.436,43.729 L112.26,43.799 L112.281,46.455 Z M112.312,50.505 L113.776,50.417 C114.028,50.402 114.204,50.377 114.307,50.342 C114.484,50.285 114.634,50.196 114.754,50.077 C114.873,49.957 114.971,49.788 115.047,49.57 C115.123,49.351 115.16,49.102 115.158,48.822 C115.155,48.494 115.097,48.214 114.981,47.978 C114.867,47.742 114.71,47.582 114.509,47.496 C114.31,47.41 114.022,47.379 113.649,47.401 L112.288,47.483 L112.312,50.505 L112.312,50.505 Z" id="Fill-153" fill="#5B5B5B"></path>
            <polyline id="Fill-154" fill="#5B5B5B" points="117.065 51.248 116.998 42.486 121.244 42.231 121.252 43.259 117.786 43.467 117.807 46.16 121.05 45.965 121.058 46.992 117.815 47.187 117.837 50.173 121.442 49.957 121.45 50.984 117.065 51.248"></polyline>
            <polyline id="Fill-155" fill="#5B5B5B" points="122.542 50.919 122.475 42.157 126.72 41.902 126.728 42.93 123.263 43.138 123.284 45.83 126.527 45.635 126.535 46.663 123.292 46.858 123.314 49.844 126.919 49.627 126.927 50.655 122.542 50.919"></polyline>
            <path d="M128.019,50.59 L127.952,41.828 L130.558,41.671 C131.082,41.64 131.481,41.696 131.754,41.836 C132.028,41.977 132.247,42.241 132.414,42.629 C132.579,43.017 132.664,43.453 132.667,43.934 C132.672,44.556 132.541,45.088 132.274,45.531 C132.008,45.973 131.594,46.268 131.031,46.418 C131.239,46.552 131.396,46.69 131.504,46.826 C131.733,47.122 131.951,47.499 132.156,47.954 L133.191,50.279 L132.219,50.337 L131.428,48.561 C131.198,48.046 131.008,47.656 130.859,47.385 C130.709,47.115 130.576,46.929 130.459,46.823 C130.343,46.72 130.223,46.65 130.102,46.612 C130.015,46.591 129.871,46.585 129.67,46.597 L128.769,46.651 L128.799,50.543 L128.019,50.59 Z M128.762,45.648 L130.431,45.548 C130.787,45.527 131.063,45.455 131.262,45.333 C131.461,45.213 131.612,45.028 131.713,44.779 C131.815,44.532 131.865,44.268 131.862,43.985 C131.859,43.571 131.757,43.234 131.553,42.979 C131.35,42.724 131.032,42.61 130.598,42.636 L128.74,42.748 L128.762,45.648 L128.762,45.648 Z" id="Fill-156" fill="#5B5B5B"></path>
            <path d="M67.641,51.199 L68.148,51.32 L68.141,50.429 L69.094,50.306 L69.104,51.547 L70.001,51.76 L70.009,52.802 L69.112,52.589 L69.127,54.407 C69.129,54.736 69.157,54.977 69.209,55.131 C69.262,55.285 69.359,55.38 69.501,55.413 C69.599,55.437 69.684,55.444 69.755,55.436 C69.826,55.427 69.905,55.408 69.993,55.379 L70.17,56.366 C70.038,56.417 69.884,56.45 69.708,56.464 C69.532,56.479 69.353,56.465 69.172,56.422 C68.834,56.342 68.584,56.17 68.423,55.908 C68.262,55.647 68.18,55.26 68.176,54.748 L68.157,52.361 L67.649,52.241 L67.641,51.199" id="Fill-157" fill="#5B5B5B"></path>
            <path d="M70.569,52.169 C70.764,52.102 70.996,52.068 71.265,52.065 C71.534,52.063 71.815,52.097 72.11,52.167 C72.364,52.227 72.578,52.318 72.75,52.437 C72.922,52.557 73.059,52.701 73.161,52.871 C73.262,53.04 73.335,53.23 73.378,53.442 C73.421,53.654 73.444,53.886 73.446,54.139 C73.448,54.417 73.443,54.695 73.431,54.972 C73.418,55.249 73.412,55.524 73.412,55.795 C73.411,56.066 73.419,56.331 73.436,56.59 C73.453,56.849 73.492,57.099 73.552,57.341 L72.773,57.155 L72.614,56.465 L72.577,56.456 C72.48,56.629 72.346,56.766 72.173,56.866 C72,56.967 71.776,56.984 71.502,56.919 C71.33,56.878 71.176,56.809 71.038,56.71 C70.9,56.611 70.782,56.488 70.683,56.342 C70.584,56.195 70.507,56.032 70.452,55.852 C70.396,55.672 70.368,55.477 70.366,55.269 C70.364,54.979 70.412,54.746 70.511,54.571 C70.61,54.396 70.753,54.269 70.941,54.191 C71.128,54.113 71.353,54.081 71.615,54.096 C71.877,54.111 72.169,54.167 72.493,54.262 C72.525,53.917 72.503,53.658 72.428,53.486 C72.353,53.314 72.189,53.197 71.934,53.137 C71.743,53.091 71.541,53.068 71.328,53.068 C71.115,53.068 70.941,53.093 70.804,53.142 L70.569,52.169 Z M71.81,55.981 C72.001,56.027 72.152,56.007 72.264,55.924 C72.376,55.84 72.459,55.742 72.512,55.628 L72.506,55.012 C72.354,54.957 72.208,54.919 72.069,54.899 C71.929,54.878 71.806,54.877 71.699,54.896 C71.591,54.914 71.506,54.957 71.443,55.024 C71.38,55.091 71.348,55.188 71.35,55.314 C71.351,55.491 71.393,55.638 71.474,55.755 C71.556,55.872 71.668,55.947 71.81,55.981 L71.81,55.981 Z" id="Fill-158" fill="#5B5B5B"></path>
            <path d="M75.784,56.557 C75.783,56.431 75.74,56.32 75.656,56.224 C75.573,56.128 75.469,56.035 75.346,55.942 C75.223,55.85 75.088,55.753 74.94,55.652 C74.793,55.551 74.657,55.427 74.534,55.281 C74.41,55.135 74.306,54.962 74.221,54.763 C74.137,54.563 74.093,54.321 74.091,54.037 C74.087,53.569 74.192,53.238 74.406,53.043 C74.619,52.848 74.93,52.799 75.336,52.896 C75.616,52.962 75.868,53.06 76.094,53.19 C76.32,53.319 76.498,53.446 76.626,53.571 L76.42,54.411 C76.307,54.327 76.164,54.233 75.992,54.129 C75.82,54.025 75.645,53.953 75.469,53.911 C75.185,53.843 75.044,53.951 75.046,54.235 C75.047,54.349 75.089,54.451 75.173,54.54 C75.257,54.629 75.361,54.718 75.484,54.807 C75.607,54.896 75.742,54.993 75.89,55.098 C76.037,55.202 76.173,55.324 76.296,55.464 C76.419,55.603 76.523,55.772 76.608,55.968 C76.693,56.165 76.736,56.402 76.739,56.68 C76.743,57.16 76.627,57.509 76.391,57.727 C76.156,57.945 75.8,57.998 75.325,57.885 C75.065,57.823 74.821,57.723 74.592,57.583 C74.364,57.444 74.178,57.3 74.035,57.153 L74.292,56.297 C74.406,56.406 74.556,56.522 74.743,56.645 C74.93,56.768 75.121,56.853 75.317,56.9 C75.459,56.933 75.573,56.926 75.658,56.877 C75.743,56.828 75.785,56.721 75.784,56.557" id="Fill-159" fill="#5B5B5B"></path>
            <path d="M76.955,53.413 L77.462,53.534 L77.455,52.643 L78.408,52.52 L78.418,53.761 L79.314,53.974 L79.323,55.016 L78.426,54.803 L78.44,56.621 C78.443,56.95 78.471,57.191 78.523,57.345 C78.576,57.5 78.673,57.594 78.815,57.627 C78.913,57.651 78.998,57.658 79.069,57.65 C79.139,57.642 79.219,57.623 79.307,57.593 L79.483,58.58 C79.352,58.631 79.198,58.664 79.022,58.678 C78.846,58.694 78.667,58.679 78.486,58.636 C78.148,58.556 77.898,58.385 77.737,58.123 C77.576,57.861 77.494,57.474 77.489,56.962 L77.47,54.575 L76.963,54.455 L76.955,53.413" id="Fill-160" fill="#5B5B5B"></path>
            <path d="M81.092,57.053 L81.231,57.824 L81.275,57.834 L81.364,57.109 L81.902,54.59 L82.887,54.824 L81.804,58.83 C81.713,59.161 81.627,59.463 81.543,59.737 C81.46,60.01 81.368,60.242 81.266,60.432 C81.165,60.622 81.052,60.761 80.928,60.848 C80.804,60.935 80.657,60.958 80.485,60.917 C80.23,60.857 80.026,60.755 79.873,60.611 L80.042,59.668 C80.116,59.724 80.189,59.76 80.263,59.777 C80.376,59.804 80.484,59.768 80.589,59.671 C80.693,59.572 80.771,59.369 80.822,59.059 L79.248,53.959 L80.395,54.231 L81.092,57.053" id="Fill-161" fill="#5B5B5B"></path>
            <path d="M139.662,87.027 C139.574,87.115 139.46,87.184 139.323,87.233 C139.185,87.282 139.043,87.315 138.898,87.331 C138.722,87.35 138.555,87.335 138.397,87.285 C138.239,87.235 138.099,87.142 137.978,87.005 C137.857,86.869 137.759,86.685 137.686,86.454 C137.613,86.222 137.575,85.936 137.572,85.596 C137.569,85.241 137.607,84.94 137.685,84.693 C137.762,84.445 137.864,84.241 137.99,84.081 C138.115,83.92 138.256,83.8 138.412,83.719 C138.568,83.639 138.724,83.59 138.88,83.572 C139.047,83.554 139.189,83.552 139.305,83.567 C139.421,83.582 139.517,83.604 139.593,83.634 L139.485,84.245 C139.42,84.214 139.344,84.195 139.256,84.187 C139.168,84.18 139.061,84.183 138.935,84.197 C138.704,84.222 138.518,84.344 138.379,84.563 C138.24,84.782 138.172,85.105 138.175,85.533 C138.177,85.718 138.195,85.887 138.23,86.036 C138.264,86.186 138.316,86.311 138.386,86.413 C138.455,86.513 138.541,86.589 138.643,86.638 C138.746,86.687 138.864,86.704 138.998,86.69 C139.123,86.676 139.229,86.649 139.315,86.608 C139.402,86.568 139.477,86.52 139.54,86.465 L139.662,87.027" id="Fill-162" fill="#5B5B5B"></path>
            <path d="M139.848,85.347 C139.843,84.744 139.947,84.269 140.159,83.92 C140.372,83.572 140.677,83.375 141.077,83.332 C141.286,83.309 141.469,83.333 141.626,83.406 C141.783,83.478 141.914,83.591 142.018,83.745 C142.123,83.899 142.201,84.088 142.253,84.313 C142.306,84.538 142.333,84.792 142.335,85.074 C142.34,85.676 142.236,86.151 142.022,86.5 C141.808,86.849 141.503,87.045 141.107,87.089 C140.895,87.112 140.71,87.087 140.553,87.015 C140.396,86.943 140.266,86.829 140.163,86.676 C140.06,86.522 139.982,86.332 139.93,86.107 C139.878,85.882 139.851,85.629 139.848,85.347 Z M140.451,85.28 C140.453,85.463 140.467,85.629 140.493,85.779 C140.519,85.93 140.559,86.057 140.611,86.162 C140.664,86.266 140.731,86.345 140.812,86.398 C140.894,86.451 140.99,86.471 141.102,86.459 C141.306,86.437 141.463,86.321 141.573,86.113 C141.683,85.905 141.736,85.58 141.732,85.14 C141.731,84.965 141.718,84.802 141.693,84.654 C141.668,84.505 141.63,84.377 141.579,84.268 C141.527,84.161 141.461,84.079 141.38,84.024 C141.298,83.969 141.199,83.948 141.082,83.961 C140.878,83.984 140.721,84.102 140.611,84.315 C140.501,84.528 140.448,84.85 140.451,85.28 L140.451,85.28 Z" id="Fill-163" fill="#5B5B5B"></path>
            <path d="M142.727,85.031 C142.722,84.429 142.826,83.954 143.038,83.605 C143.25,83.256 143.556,83.06 143.955,83.016 C144.164,82.993 144.347,83.018 144.504,83.09 C144.661,83.162 144.792,83.276 144.897,83.43 C145.002,83.583 145.08,83.773 145.132,83.998 C145.184,84.223 145.211,84.476 145.214,84.758 C145.218,85.36 145.114,85.836 144.901,86.185 C144.687,86.533 144.382,86.73 143.986,86.773 C143.774,86.796 143.589,86.772 143.432,86.7 C143.275,86.627 143.145,86.514 143.042,86.36 C142.938,86.206 142.861,86.017 142.808,85.792 C142.756,85.567 142.729,85.313 142.727,85.031 Z M143.33,84.965 C143.331,85.147 143.345,85.314 143.372,85.464 C143.398,85.614 143.437,85.742 143.49,85.846 C143.542,85.951 143.61,86.029 143.691,86.082 C143.772,86.135 143.869,86.156 143.981,86.144 C144.184,86.121 144.341,86.006 144.451,85.798 C144.561,85.589 144.614,85.265 144.611,84.824 C144.609,84.649 144.596,84.487 144.571,84.338 C144.546,84.189 144.508,84.061 144.457,83.953 C144.406,83.845 144.339,83.764 144.258,83.709 C144.177,83.654 144.078,83.633 143.96,83.646 C143.756,83.668 143.599,83.786 143.49,84 C143.38,84.213 143.326,84.535 143.33,84.965 L143.33,84.965 Z" id="Fill-164" fill="#5B5B5B"></path>
            <path d="M147.696,86.146 C147.607,86.234 147.494,86.303 147.356,86.352 C147.218,86.402 147.077,86.434 146.931,86.45 C146.756,86.47 146.589,86.454 146.431,86.404 C146.272,86.355 146.132,86.262 146.011,86.125 C145.89,85.989 145.793,85.805 145.72,85.573 C145.646,85.342 145.608,85.056 145.606,84.716 C145.603,84.361 145.64,84.06 145.718,83.812 C145.795,83.564 145.897,83.36 146.023,83.2 C146.149,83.04 146.29,82.92 146.445,82.839 C146.601,82.758 146.757,82.709 146.913,82.692 C147.081,82.674 147.223,82.672 147.339,82.687 C147.454,82.702 147.551,82.724 147.626,82.753 L147.518,83.365 C147.454,83.333 147.377,83.314 147.289,83.307 C147.201,83.299 147.094,83.302 146.969,83.316 C146.737,83.341 146.552,83.464 146.412,83.683 C146.273,83.901 146.205,84.224 146.209,84.652 C146.21,84.838 146.228,85.006 146.263,85.155 C146.298,85.306 146.35,85.431 146.419,85.532 C146.488,85.633 146.574,85.709 146.676,85.758 C146.779,85.807 146.897,85.824 147.031,85.809 C147.157,85.796 147.263,85.768 147.349,85.728 C147.435,85.688 147.51,85.64 147.574,85.584 L147.696,86.146" id="Fill-165" fill="#5B5B5B"></path>
            <polyline id="Fill-166" fill="#5B5B5B" points="148.838 84.625 148.688 84.641 148.7 86.184 148.127 86.247 148.097 82.635 148.671 82.572 148.684 84.172 148.817 84.085 149.612 82.469 150.266 82.397 149.424 84.008 149.199 84.229 149.436 84.404 150.425 85.995 149.717 86.073 148.838 84.625"></polyline>
            <polyline id="Fill-167" fill="#5B5B5B" points="150.825 82.336 151.399 82.273 151.428 85.885 150.855 85.948 150.825 82.336"></polyline>
            <polyline id="Fill-168" fill="#5B5B5B" points="152.034 82.203 153.771 82.013 153.776 82.642 152.612 82.77 152.619 83.611 153.678 83.495 153.683 84.125 152.624 84.241 152.631 85.123 153.816 84.993 153.821 85.623 152.063 85.816 152.034 82.203"></polyline>
            <path d="M155.578,84.459 C155.577,84.349 155.544,84.263 155.478,84.202 C155.412,84.14 155.329,84.086 155.229,84.04 C155.13,83.994 155.022,83.948 154.905,83.9 C154.789,83.853 154.681,83.791 154.581,83.713 C154.482,83.637 154.398,83.536 154.332,83.413 C154.265,83.289 154.231,83.126 154.229,82.923 C154.228,82.748 154.25,82.593 154.297,82.459 C154.343,82.325 154.41,82.209 154.497,82.114 C154.584,82.018 154.688,81.943 154.808,81.889 C154.927,81.834 155.061,81.799 155.209,81.783 C155.379,81.764 155.54,81.765 155.691,81.784 C155.842,81.804 155.966,81.843 156.064,81.901 L155.889,82.514 C155.827,82.473 155.735,82.439 155.612,82.413 C155.489,82.386 155.356,82.382 155.214,82.397 C155.08,82.412 154.978,82.456 154.907,82.529 C154.836,82.602 154.802,82.693 154.802,82.804 C154.803,82.907 154.837,82.989 154.903,83.051 C154.969,83.112 155.052,83.167 155.151,83.215 C155.251,83.262 155.359,83.311 155.475,83.36 C155.592,83.409 155.7,83.472 155.799,83.549 C155.899,83.626 155.982,83.725 156.049,83.847 C156.116,83.969 156.15,84.126 156.151,84.319 C156.153,84.512 156.128,84.68 156.078,84.825 C156.027,84.97 155.956,85.095 155.863,85.198 C155.77,85.301 155.658,85.382 155.526,85.441 C155.393,85.5 155.248,85.539 155.089,85.556 C154.879,85.579 154.695,85.575 154.536,85.544 C154.376,85.514 154.258,85.478 154.183,85.439 L154.362,84.814 C154.393,84.832 154.433,84.85 154.482,84.869 C154.531,84.887 154.586,84.904 154.648,84.918 C154.709,84.931 154.774,84.941 154.843,84.948 C154.911,84.954 154.982,84.953 155.054,84.945 C155.224,84.927 155.355,84.877 155.445,84.797 C155.535,84.716 155.579,84.604 155.578,84.459" id="Fill-169" fill="#5B5B5B"></path>
            <path d="M103.037461,109.943803 C113.090335,105.465621 116.840462,121.897657 104.088757,122.781321 C90.9003618,125.613667 93.651822,108.21029 103.037461,109.943803 Z" id="Stroke-170" stroke="#5B5B5B" stroke-width="0.694"></path>
            <g id="Group-173" transform="translate(102.000000, 107.000000)">
                <polygon id="Fill-171" fill="#FEFEFE" points="0.6201855 0.955366 1.1430413 0.8583476 1.316466 2.7730406 1.0762675 2.9650292 0.7936161 2.8710409"></polygon>
                <polygon id="Stroke-172" stroke="#5B5B5B" stroke-width="0.695" points="0.6201855 0.955366 1.1430413 0.8583476 1.316466 2.7730406 1.0762675 2.9650292 0.7936161 2.8710409"></polygon>
            </g>
            <path d="M111.447377,102.242723 C111.31408,105.554553 109.941504,108.901301 103.67322,108.300242 C103.96157,103.453176 107.568691,102.477722 111.447377,102.242723 Z" id="Stroke-174" stroke="#5B5B5B" stroke-width="0.694"></path>
            <path d="M102.036914,108.612524 C98.875782,110.147361 95.3410345,110.70509 93.9772615,104.776322 C101.026163,103.60715 101.904134,105.15138 102.036914,108.612524 Z" id="Stroke-175" stroke="#5B5B5B" stroke-width="0.694"></path>
            <g id="Group-178" transform="translate(102.000000, 122.000000)">
                <path d="M1.9007123,0.7566369 C2.0652329,0.7735219 2.8831431,0.6775141 3.3780868,0.7565848 C3.3918897,0.8551731 2.8447169,0.9097897 2.7544592,1.0762596 C2.6704725,1.2298561 2.7838051,1.5798381 2.5930125,1.6471813 C2.4127539,1.7104395 2.2034495,1.3131929 1.9554732,1.3595214 C1.6775917,1.4117515 1.3354677,1.8159049 1.1592782,1.8268012 C1.0427435,1.8335485 1.3232763,1.3488641 1.2600414,1.2656482 C1.1566365,1.1277667 0.629177,1.2729842 0.6211857,1.1455637 C0.7284608,0.9259822 1.4145923,1.0210889 1.9007123,0.7566369 Z" id="Fill-176" fill="#2B2A29"></path>
                <path d="M1.9007123,0.7566369 C2.0652329,0.7735219 2.8831431,0.6775141 3.3780868,0.7565848 C3.3918897,0.8551731 2.8447169,0.9097897 2.7544592,1.0762596 C2.6704725,1.2298561 2.7838051,1.5798381 2.5930125,1.6471813 C2.4127539,1.7104395 2.2034495,1.3131929 1.9554732,1.3595214 C1.6775917,1.4117515 1.3354677,1.8159049 1.1592782,1.8268012 C1.0427435,1.8335485 1.3232763,1.3488641 1.2600414,1.2656482 C1.1566365,1.1277667 0.629177,1.2729842 0.6211857,1.1455637 C0.7284608,0.9259822 1.4145923,1.0210889 1.9007123,0.7566369 Z" id="Stroke-177" stroke="#5B5B5B" stroke-width="0.694"></path>
            </g>
            <polyline id="Fill-179" fill="#5B5B5B" points="143.176 15.359 142.326 15.359 143.249 129.375 144.099 129.375 143.176 15.359"></polyline>
            <polyline id="Fill-180" fill="#5B5B5B" points="125.034 16.207 124.185 16.207 125.14 134.143 125.989 134.143 125.034 16.207"></polyline>
            <polyline id="Fill-181" fill="#5B5B5B" points="160.349 50.541 160.343 49.758 87.04 55.295 87.046 56.078 160.349 50.541"></polyline>
            <polyline id="Fill-182" fill="#5B5B5B" points="160.702 99.256 160.696 98.473 87.454 109.531 87.46 110.314 160.702 99.256"></polyline>
            <polyline id="Fill-183" fill="#5B5B5B" points="104.222 17.133 103.372 17.133 104.349 137.822 105.199 137.822 104.222 17.133"></polyline>
            <path d="M64.728,43.391 L86.576,48.761 L106.575,47.672 L107.034,65.6 L87.302,67.179 L64.577,61.126 L64.728,43.391 Z M111.466,72.006 L132.507,70.269 L132.533,75.048 L111.533,77.095 L111.466,72.006 Z M112.253,90.854 L133.291,88.911 L133.318,93.69 L112.321,95.943 L112.253,90.854 Z M135.34,72.614 L158.504,70.523 L158.628,73.543 L135.378,75.497 L135.34,72.614 Z" id="Stroke-184" stroke="#5B5B5B" stroke-width="0.283"></path>
            <path d="M108.850452,21.1943555 C109.350928,21.0540465 109.852862,21.0415915 110.35577,21.0787735 C112.295128,21.350083 111.20007,23.982187 111.095224,24.7183365 C111.816876,26.836582 112.01201,30.2616005 111.760374,32.310249 C111.3548,32.622049 108.772336,32.898748 107.745287,32.592184 C107.080608,30.526495 107.302151,26.8771965 108.060862,24.8799285 C108.049925,24.11353 106.647468,21.8114615 108.850452,21.1943555 Z" id="Stroke-185" stroke="#5B5B5B" stroke-width="0.395"></path>
            <path d="M110.349621,20.9541958 C109.864259,20.9030202 109.356056,20.9320233 108.820737,21.0620427 C108.810821,20.3279801 109.039383,19.9673357 109.644376,19.9381534 C110.161694,19.9138449 110.340689,20.2693539 110.349621,20.9541958 Z" id="Stroke-186" stroke="#5B5B5B" stroke-width="0.397"></path>
            <path d="M114.51104,20.8735175 C115.010758,20.732544 115.513451,20.7207535 116.016359,20.7579355 C117.955669,21.0278855 116.86137,23.660654 116.756524,24.3968035 C117.478176,26.515049 117.672599,29.9407625 117.420916,31.9880515 C117.015389,32.301211 114.432924,32.57791 113.405117,32.2706815 C112.741908,30.204962 112.962739,26.5563585 113.72145,24.5590905 C113.710513,23.792692 112.308056,21.4906235 114.51104,20.8735175 Z" id="Stroke-187" stroke="#5B5B5B" stroke-width="0.395"></path>
            <path d="M116.011127,20.6332526 C115.524731,20.5822029 115.017421,20.6101298 114.481067,20.7402751 C114.471151,20.0062125 114.700888,19.6463925 115.305882,19.6172102 C115.823058,19.5919514 116.00102,19.9475863 116.011127,20.6332526 Z" id="Stroke-188" stroke="#5B5B5B" stroke-width="0.397"></path>
            <path d="M120.171582,20.55132 C120.672058,20.411011 121.174751,20.3992205 121.677659,20.4364025 C123.616969,20.7063525 122.5212,23.3391515 122.417112,24.0759655 C123.139476,26.193516 123.333899,29.6192295 123.082216,31.6665185 C122.676689,31.979678 120.094224,32.256377 119.066417,31.9491485 C118.402496,29.884124 118.624039,26.2348255 119.381992,24.236893 C119.371813,23.471159 117.969356,21.1690905 120.171582,20.55132 Z" id="Stroke-189" stroke="#5B5B5B" stroke-width="0.395"></path>
            <path d="M121.671457,20.311485 C121.186095,20.2603094 120.678926,20.2891866 120.142573,20.4193319 C120.132657,19.6852693 120.362252,19.324499 120.966353,19.2963929 C121.48353,19.2711341 121.662525,19.6266431 121.671457,20.311485 Z" id="Stroke-190" stroke="#5B5B5B" stroke-width="0.397"></path>
            <path d="M125.832882,20.229787 C126.333358,20.089478 126.835292,20.077023 127.337489,20.1149 C129.278269,20.3848195 128.1825,23.0176185 128.078412,23.7544325 C128.799306,25.8720135 128.995199,29.2976965 128.742804,31.3456805 C128.337989,31.658145 125.754766,31.9341795 124.727717,31.6276155 C124.063038,29.5619265 124.283869,25.913323 125.043292,23.91536 C125.032355,23.1489615 123.629898,20.846893 125.832882,20.229787 Z" id="Stroke-191" stroke="#5B5B5B" stroke-width="0.395"></path>
            <path d="M127.332963,19.9905418 C126.84746,19.9384159 126.339257,19.967419 125.803937,20.0974384 C125.794021,19.3633758 126.023758,19.0035558 126.627718,18.9744994 C127.144894,18.9492406 127.323889,19.3047496 127.332963,19.9905418 Z" id="Stroke-192" stroke="#5B5B5B" stroke-width="0.397"></path>
            <path d="M131.49347,19.908949 C131.993188,19.7679755 132.495881,19.756185 132.998789,19.793367 C134.938099,20.063317 133.8438,22.6960855 133.738954,23.432235 C134.460606,25.5504805 134.65574,28.975499 134.403346,31.023483 C133.99853,31.3359475 131.416066,31.6126465 130.387547,31.306113 C129.724338,29.2403935 129.945169,25.59179 130.703122,23.5938575 C130.692943,22.8281235 129.291198,20.52536 131.49347,19.908949 Z" id="Stroke-193" stroke="#5B5B5B" stroke-width="0.395"></path>
            <path d="M132.994327,19.6686483 C132.508965,19.6174727 132.000762,19.6464758 131.465443,19.7764952 C131.455527,19.0424326 131.684089,18.6817882 132.289082,18.6526059 C132.8064,18.6282974 132.985395,18.9838064 132.994327,19.6686483 Z" id="Stroke-194" stroke="#5B5B5B" stroke-width="0.397"></path>
            <path d="M137.154012,19.5867515 C137.654488,19.4464425 138.157181,19.434652 138.660089,19.471834 C140.599399,19.741784 139.50363,22.374583 139.399542,23.111397 C140.121906,25.2289475 140.316329,28.654661 140.064646,30.70195 C139.659119,31.0151095 137.075896,31.291144 136.048847,30.98458 C135.384926,28.9195555 135.605711,25.2695925 136.364422,23.2723245 C136.354243,22.5065905 134.951786,20.204522 137.154012,19.5867515 Z" id="Stroke-195" stroke="#5B5B5B" stroke-width="0.395"></path>
            <path d="M138.655833,19.3477051 C138.169296,19.2957051 137.662127,19.3245823 137.125774,19.4547276 C137.115857,18.720665 137.345594,18.360845 137.950588,18.3316627 C138.467764,18.3064039 138.645726,18.6620388 138.655833,19.3477051 Z" id="Stroke-196" stroke="#5B5B5B" stroke-width="0.397"></path>
            <polygon id="Stroke-197" stroke="#5B5B5B" stroke-width="0.567" points="107.232 32.887 141.184 30.843 141.244 34.83 107.292 36.873"></polygon>
            <path d="M97.649,16.082 C97.92,16.002 98.19,15.958 98.456,15.94 C98.72,15.923 98.985,15.93 99.25,15.95 L99.265,15.952 C100.777,16.176 100.69,17.647 100.437,18.841 C100.385,19.087 100.323,19.331 100.27,19.543 L100.263,19.567 L99.831,19.593 L99.869,19.444 C99.92,19.243 99.979,19.012 100.032,18.759 C100.245,17.755 100.338,16.523 99.208,16.353 C98.968,16.335 98.727,16.329 98.487,16.345 C98.246,16.361 98.005,16.399 97.769,16.469 C96.242,16.921 96.636,18.385 96.904,19.383 C96.941,19.518 96.976,19.645 97.003,19.762 L96.583,19.788 L96.505,19.485 C96.195,18.334 95.74,16.646 97.649,16.082" id="Fill-198" fill="#5B5B5B"></path>
            <path d="M99.2263923,16.0281985 C98.7356784,15.9729635 98.2213715,16.0042851 97.6770705,16.1438671 C97.6755525,15.3555624 97.9120951,14.9701767 98.5245898,14.9391576 C99.0476995,14.9126702 99.2246492,15.2936163 99.2263923,16.0281985 Z" id="Stroke-199" stroke="#5B5B5B" stroke-width="0.413"></path>
            <path d="M103.382,15.739 C103.653,15.659 103.923,15.615 104.19,15.597 C104.453,15.58 104.718,15.587 104.983,15.608 L104.998,15.609 C106.509,15.833 106.423,17.304 106.17,18.498 C106.118,18.745 106.056,18.987 106.002,19.199 L105.996,19.224 L105.563,19.25 L105.601,19.1 C105.653,18.899 105.712,18.668 105.765,18.415 C105.978,17.412 106.071,16.181 104.94,16.011 C104.701,15.992 104.46,15.986 104.22,16.001 C103.978,16.018 103.738,16.056 103.502,16.126 C101.975,16.577 102.368,18.041 102.637,19.04 C102.674,19.175 102.708,19.302 102.736,19.419 L102.317,19.444 L102.237,19.142 C101.927,17.99 101.473,16.303 103.382,15.739" id="Fill-200" fill="#5B5B5B"></path>
            <path d="M104.958699,15.6859592 C104.467985,15.6307242 103.953552,15.6610677 103.410256,15.8005204 C103.408865,15.0131938 103.645407,14.6278081 104.257902,14.596789 C104.781012,14.5703016 104.957961,14.9512477 104.958699,15.6859592 Z" id="Stroke-201" stroke="#5B5B5B" stroke-width="0.413"></path>
            <path d="M109.114,15.396 C109.386,15.316 109.656,15.272 109.922,15.254 C110.185,15.237 110.451,15.244 110.716,15.265 L110.73,15.266 C112.243,15.49 112.156,16.961 111.903,18.155 C111.851,18.401 111.789,18.644 111.735,18.855 L111.736,18.856 L111.729,18.881 L111.296,18.907 L111.334,18.756 L111.335,18.756 C111.386,18.554 111.445,18.324 111.498,18.072 C111.711,17.07 111.804,15.837 110.673,15.667 C110.434,15.649 110.193,15.643 109.952,15.658 C109.712,15.675 109.472,15.713 109.236,15.783 C107.708,16.235 108.102,17.699 108.37,18.697 C108.406,18.832 108.441,18.958 108.469,19.076 L108.05,19.101 L107.97,18.799 C107.661,17.648 107.206,15.96 109.114,15.396" id="Fill-202" fill="#5B5B5B"></path>
            <path d="M110.691885,15.3426125 C110.201171,15.2873775 109.686864,15.3186991 109.143442,15.4571737 C109.142051,14.6698471 109.377587,14.2845907 109.990082,14.2535716 C110.514198,14.2269549 110.690142,14.6080303 110.691885,15.3426125 Z" id="Stroke-203" stroke="#5B5B5B" stroke-width="0.413"></path>
            <path d="M114.847,15.052 C115.119,14.973 115.389,14.929 115.655,14.91 C115.918,14.893 116.184,14.9 116.449,14.921 L116.464,14.922 C117.977,15.146 117.889,16.617 117.636,17.812 C117.584,18.058 117.522,18.301 117.468,18.512 L117.462,18.538 L117.029,18.564 L117.068,18.413 C117.119,18.212 117.178,17.981 117.231,17.729 C117.443,16.726 117.537,15.493 116.406,15.323 C116.167,15.305 115.927,15.3 115.685,15.315 C115.444,15.331 115.204,15.369 114.969,15.44 C113.44,15.892 113.834,17.356 114.103,18.354 C114.139,18.488 114.174,18.615 114.202,18.733 L113.783,18.758 L113.703,18.456 C113.394,17.305 112.939,15.617 114.847,15.052" id="Fill-204" fill="#5B5B5B"></path>
            <path d="M116.425071,14.9992658 C115.934357,14.9440308 115.42005,14.9753524 114.875749,15.1149344 C114.874357,14.3276078 115.110773,13.941244 115.723268,13.9102249 C116.246378,13.8837375 116.423327,14.2646836 116.425071,14.9992658 Z" id="Stroke-205" stroke="#5B5B5B" stroke-width="0.413"></path>
            <path d="M120.58,14.709 C120.852,14.63 121.122,14.585 121.388,14.567 C121.651,14.55 121.917,14.557 122.182,14.578 L122.196,14.579 C123.709,14.803 123.622,16.274 123.369,17.469 C123.317,17.715 123.255,17.958 123.201,18.17 L123.195,18.195 L122.763,18.221 L122.801,18.071 C122.851,17.87 122.91,17.639 122.965,17.386 C123.176,16.382 123.27,15.151 122.139,14.98 C121.9,14.962 121.659,14.956 121.418,14.972 C121.177,14.988 120.937,15.026 120.702,15.096 C119.173,15.548 119.568,17.013 119.836,18.011 C119.872,18.145 119.907,18.272 119.935,18.39 L119.515,18.415 L119.436,18.113 C119.126,16.961 118.672,15.274 120.58,14.709" id="Fill-206" fill="#5B5B5B"></path>
            <path d="M122.158383,14.6568972 C121.666663,14.6017915 121.153236,14.6320057 120.608935,14.7715877 C120.607543,13.9842611 120.844085,13.5988754 121.45658,13.5678563 C121.97969,13.5413689 122.15664,13.922315 122.158383,14.6568972 Z" id="Stroke-207" stroke="#5B5B5B" stroke-width="0.413"></path>
            <path d="M126.313,14.366 C126.585,14.286 126.855,14.242 127.121,14.224 C127.384,14.207 127.65,14.214 127.915,14.235 L127.929,14.236 C129.442,14.46 129.355,15.931 129.102,17.125 C129.05,17.371 128.987,17.615 128.934,17.827 L128.928,17.852 L128.496,17.877 L128.534,17.728 C128.585,17.527 128.643,17.296 128.697,17.043 C128.909,16.039 129.002,14.807 127.872,14.637 C127.633,14.619 127.392,14.613 127.151,14.629 C126.91,14.645 126.669,14.683 126.434,14.753 C124.906,15.205 125.3,16.669 125.569,17.667 C125.605,17.802 125.64,17.929 125.668,18.047 L125.248,18.072 L125.169,17.769 C124.859,16.618 124.405,14.93 126.313,14.366" id="Fill-208" fill="#5B5B5B"></path>
            <path d="M127.890563,14.3136798 C127.399849,14.2584448 126.885542,14.2897664 126.34212,14.428241 C126.340729,13.6409144 126.577271,13.2555287 127.18876,13.2246389 C127.712876,13.1980222 127.88882,13.5790976 127.890563,14.3136798 Z" id="Stroke-209" stroke="#5B5B5B" stroke-width="0.413"></path>
            <polygon id="Stroke-210" stroke="#5B5B5B" stroke-width="0.283" stroke-linejoin="round" points="139.22 18.687 150.593 18.438 156.813 20.142 143.721 20.548"></polygon>
        </g>
    </g>
</svg>