<?xml version="1.0" encoding="UTF-8"?>
<svg width="155px" height="158px" viewBox="0 0 155 158" version="1.1" xmlns="http://www.w3.org/2000/svg" xmlns:xlink="http://www.w3.org/1999/xlink">
    <!-- Generator: Sketch 42 (36781) - http://www.bohemiancoding.com/sketch -->
    <title>Group 2</title>
    <desc>Created with Sketch.</desc>
    <defs></defs>
    <g id="Page-1" stroke="none" stroke-width="1" fill="none" fill-rule="evenodd">
        <g id="Group-2" transform="translate(1.000000, 0.000000)">
            <path d="M78.3136258,46.901471 L79.9180645,42.5713097 L83.5786968,45.4783419 C89.1881548,45.2869032 94.8452194,45.0974903 100.276406,44.9060516 L99.4356968,56.4804968 C93.0898581,56.4804968 86.1747677,56.7620839 79.3650194,56.5432968 C78.7957677,56.5260774 79.1148323,54.468871 78.5334258,54.468871 C76.4367161,54.468871 72.9918323,53.8114968 70.8718258,53.8114968 C70.9548839,51.2893677 72.8439484,48.1503806 78.3136258,46.901471" id="Fill-317" fill="#FEFEFE"></path>
            <polyline id="Fill-318" fill="#FEFEFE" points="87.1198065 45.5218968 93.0392129 45.3608452 93.3126968 56.2120774 86.9840774 56.2019484 87.1198065 45.5218968"></polyline>
            <path d="M118.293929,69.3848839 C119.345323,69.5631548 120.582077,69.8315742 121.55649,69.9551484 L121.080426,72.8571161 L117.83711,72.1308645 L118.293929,69.3848839 Z M118.678832,69.9794581 C119.385839,70.0989806 120.217432,70.3420774 120.872781,70.4231097 L120.621581,72.1085806 L118.390155,71.7145613 L118.678832,69.9794581 L118.678832,69.9794581 Z" id="Fill-319" fill="#5B5B5B"></path>
            <path d="M131.846855,18.9140491 C130.813055,20.5223637 130.504053,21.3308936 129.517374,21.7227067 C127.43693,22.5497719 123.479002,22.4949371 122.044176,20.7916025 C121.662192,20.3379771 119.978048,17.3131797 119.670365,16.6259998 M118.536352,11.7666791 C118.135613,9.14157519 118.388734,7.3203603 118.405322,7.12767339 C118.539912,5.51945837 118.99825,4.24450847 119.843749,3.2044095 C121.420119,1.26539924 124.036763,0.645369265 126.824242,0.712643866 C129.327783,0.771952692 131.965633,1.51922164 133.509692,3.71366149 C134.723411,5.48478528 134.804865,7.86747167 134.786006,11.2629778 M133.52318,11.8120799 C133.575457,11.7828829 134.244677,11.4173296 134.573973,11.29316 C136.533374,10.5523409 135.464759,14.1979821 134.964389,15.2573644 C134.547599,16.1380262 134.475615,17.4192441 133.312386,16.4209282 M133.410679,16.707481 C132.889269,17.5877732 133.101884,20.3940921 133.168381,23.0898022 C131.753602,23.9463249 126.357946,26.9418412 124.880155,26.8432793 C124.267017,26.4004882 122.394004,25.5535362 121.363973,24.2148213 C121.441761,22.9083023 121.582667,21.0698035 121.459008,19.9278003" id="Stroke-320" stroke="#5B5B5B" stroke-width="0.495"></path>
            <path d="M118.73634,12.0381563 C118.042141,11.7838472 117.48342,11.8203736 117.399847,12.2789056 C117.245228,13.1156226 118.080301,14.8919225 118.372382,15.5528793 C118.765645,16.4448593 118.537707,17.5903097 119.652508,16.5367561" id="Stroke-321" stroke="#5B5B5B" stroke-width="0.495"></path>
            <path d="M133.801737,12.7425014 C134.889675,11.9612891 134.880632,13.5396076 134.276302,14.1783236 C134.140874,14.6775319 134.256445,15.9424369 133.746858,15.4004668" id="Stroke-322" stroke="#5B5B5B" stroke-width="0.286"></path>
            <path d="M119.820744,16.9320954 C119.160144,15.6103175 118.690506,12.7556057 118.7809,12.0004379 C119.06414,9.64561639 119.234262,8.47609301 119.356632,7.71040745 C120.080152,3.20269466 122.500383,2.7197584 126.86471,2.78010829 C131.645456,2.84559674 132.523287,4.00369914 133.366195,8.26408244 C133.678681,9.84331809 133.826438,10.8905341 133.624721,11.7760155" id="Stroke-323" stroke="#5B5B5B" stroke-width="0.495" stroke-linejoin="round"></path>
            <path d="M120.728371,11.0443537 C121.003503,10.8190206 122.231122,9.64703426 123.107212,9.38622393 C124.259915,9.04263936 124.883586,9.50510119 125.133239,9.93933179 C125.397591,10.5005749 124.627476,12.278147 124.581885,13.77982" id="Stroke-324" stroke="#5B5B5B" stroke-width="0.495"></path>
            <path d="M131.098039,11.1490258 C130.646284,10.6486516 130.323168,9.77654194 129.461187,9.29642581 C129.01551,9.04826452 127.600484,9.13233548 126.579477,10.0317935" id="Stroke-325" stroke="#5B5B5B" stroke-width="0.495"></path>
            <path d="M123.250663,14.9521906 C123.618813,15.249271 124.144928,15.0602179 124.379988,15.2301896 C125.067325,15.7311358 125.517449,15.9217561 126.411673,15.2800406 C127.07655,14.8039939 127.674653,15.2816467 128.161894,14.7032514" id="Stroke-326" stroke="#5B5B5B" stroke-width="0.333" stroke-linejoin="round"></path>
            <path d="M123.130542,10.3934 C123.513419,10.3123677 124.188013,10.4410065 124.334884,10.5696452 C124.528348,10.7388 124.440226,11.1611806 124.388568,11.471129 C124.367297,11.4792323 124.299432,11.1044581 124.182948,10.9211226 C124.072542,10.7458903 123.91149,10.7610839 123.864897,10.7691871 C123.798045,10.780329 123.844639,11.4721419 123.752465,11.4974645 C123.303748,11.6210387 122.643335,11.618 122.626116,11.4782194 C122.556226,11.3911097 122.716265,10.9130194 122.591677,10.9272 C122.172335,10.9748065 121.577761,11.6514258 121.526103,11.6686452 C121.574723,11.325271 122.242226,10.5828129 123.130542,10.3934" id="Fill-327" fill="#5B5B5B"></path>
            <path d="M128.682265,10.4116323 C128.319645,10.3488323 127.605548,10.5098839 127.422213,10.6466258 C127.180129,10.8269226 127.151768,11.2472774 127.119355,11.5562129 C127.1386,11.5643161 127.309781,11.1834645 127.477923,10.9930387 C127.637961,10.811729 127.795974,10.8188194 127.839529,10.8248968 C127.903342,10.833 127.666323,11.5308903 127.752419,11.5521613 C128.168723,11.6554774 128.835213,11.6200258 128.890923,11.4792323 C128.985123,11.3870581 128.956761,10.9150452 129.077297,10.9231484 C129.48651,10.9504968 129.898761,11.6028065 129.945355,11.618 C129.991948,11.2756387 129.525,10.5585032 128.682265,10.4116323" id="Fill-328" fill="#5B5B5B"></path>
            <path d="M128.787606,17.3601484 C127.738239,18.2970839 126.947161,18.4814323 126.049729,18.4439548 C125.133052,18.4044516 124.084697,18.0408194 122.976581,17.1271806 C124.688387,17.3368516 127.042374,17.4584 128.787606,17.3601484" id="Fill-329" fill="#5B5B5B"></path>
            <path d="M129.644523,16.7959613 C129.404465,16.9104194 129.087426,17.2335355 128.76431,17.3895226 C127.220645,18.0114452 124.318677,17.4239613 123.094077,17.1940323 C122.788181,17.0056323 122.689929,16.7584839 122.553187,16.6693484 C124.091787,16.7757032 129.475368,16.7706387 129.644523,16.7959613" id="Fill-330" fill="#5B5B5B"></path>
            <path d="M137.157854,75.7267168 C137.4253,75.8328161 143.806062,81.4026142 144.996363,81.6409916 C147.508089,75.7194198 153.424781,60.6535286 152.887297,58.2992443 C152.413808,44.7008958 148.601351,30.8290558 148.371248,29.5050548 C145.487163,27.3640679 136.112568,26.3034865 132.940007,23.0482274" id="Stroke-331" stroke="#5B5B5B" stroke-width="0.823"></path>
            <path d="M111.641153,86.2859931 C108.616701,85.8535337 105.154286,84.5431406 104.808243,83.589371 C107.606735,72.0026562 108.280675,61.6682161 110.612684,49.2089392 C110.055871,49.7931524 108.835905,51.005707 103.408452,54.8093963 C95.5400478,55.695551 81.1619829,55.2087882 80.1798531,55.1016402 C79.9279534,53.0929968 81.5101242,48.9779869 82.9693791,46.6148063 C87.1431927,46.4085399 97.611309,46.4925295 101.053201,45.5963884 C106.947897,39.0195957 111.554137,31.0012814 113.185759,27.9250003 C116.113157,26.5207296 118.802477,26.6511678 121.280169,23.9652098" id="Stroke-332" stroke="#5B5B5B" stroke-width="0.823" stroke-linejoin="round"></path>
            <path d="M108.982427,86.3693274 C108.67664,88.5618646 107.456288,99.740518 107.153399,115.246923 C107.136412,116.124426 109.390334,127.764963 110.35188,136.997417 C110.516162,138.582789 110.646632,140.097608 110.727433,141.473283 C110.929725,144.957588 111.677708,147.498773 111.853752,148.132929 C119.031427,151.205038 124.439287,149.637343 125.301259,149.448682 C126.101314,146.127347 124.29723,145.608831 124.616847,142.429247 C124.832385,140.26987 123.050323,135.787753 122.600222,134.011245 C120.950743,127.505251 120.10623,120.985218 119.814568,118.570385 C119.895393,110.911374 123.41973,99.0858542 122.789381,94.1069908 C124.299579,99.2493722 126.002752,105.560726 126.40276,113.320768 C126.444504,114.133209 126.152109,120.560415 126.197577,121.347034 C126.607066,128.375037 127.53207,135.774432 127.875734,136.632456 C127.472457,144.256838 126.595958,146.140861 127.945268,150.075265 C129.989892,148.688392 133.280791,148.958799 138.944427,149.642301 C139.39266,145.932844 139.11756,143.650334 139.548899,141.401354 C140.820821,139.675823 139.030458,123.984766 139.057052,117.879006 C139.090236,109.914676 140.079288,97.0045236 140.886262,89.4597681" id="Stroke-333" stroke="#5B5B5B" stroke-width="0.823" stroke-linejoin="round"></path>
            <path d="M136.939145,75.7147234 C137.659187,74.6950343 139.380704,71.0163606 140.509737,67.7750685 C141.983438,63.5443287 143.45826,59.1257815 143.852478,57.0903362 C144.162096,55.490141 143.307285,51.369112 143.237967,50.4421376 C143.661288,44.4259827 144.583969,41.1836537 144.998018,37.4167347 C145.446407,33.3267743 147.871433,30.4651142 147.885854,29.3888709" id="Stroke-334" stroke="#5B5B5B" stroke-width="0.802"></path>
            <path d="M110.469514,50.1267951 C110.579453,49.4329285 111.969792,40.4613701 112.55977,36.1179948" id="Stroke-335" stroke="#5B5B5B" stroke-width="0.967"></path>
            <path d="M126.50965,64.3636517 C126.469279,61.6054731 127.064912,50.5770923 128.271253,43.9026549 C130.026405,34.1965519 132.505234,23.8096625 133.32832,23.1458745" id="Stroke-336" stroke="#5B5B5B" stroke-width="0.802"></path>
            <path d="M143.67127,81.3140022 C143.923136,81.3719905 144.145527,87.9499769 144.026828,89.1855144 C142.291672,89.531479 129.688935,89.4407899 126.116233,87.8360808 C125.825262,86.8312457 125.910995,80.0892687 126.023876,79.1145426" id="Stroke-337" stroke="#5B5B5B" stroke-width="0.731"></path>
            <path d="M111.85358,86.0200107 C112.553194,75.3927759 114.640354,63.8378482 115.410659,54.2127458 C116.656486,38.6536966 121.553102,24.5255149 121.070062,24.1728431" id="Stroke-338" stroke="#5B5B5B" stroke-width="0.802"></path>
            <path d="M123.606536,70.1342167 C122.695202,70.1685752 116.359994,69.5521476 114.517079,67.9545904" id="Stroke-339" stroke="#5B5B5B" stroke-width="0.155"></path>
            <path d="M122.62885,73.1477783 C121.306116,73.0564197 116.372231,72.1087941 114.279027,71.0671252" id="Stroke-340" stroke="#5B5B5B" stroke-width="0.177"></path>
            <path d="M127.34984,51.7936347 C128.106222,48.1471831 135.559707,36.3657022 137.675151,30.8908095 C137.400992,30.715916 135.053078,29.6367608 135.034448,29.0945221 C135.496395,28.7876529 137.36791,27.1138927 138.117517,25.5614313" id="Stroke-341" stroke="#5B5B5B" stroke-width="0.802"></path>
            <path d="M115.572198,52.3227304 C114.642186,48.7165523 118.035576,35.4054763 115.659664,30.0376324 C116.002176,29.6154752 117.560767,28.9734215 118.569678,28.4779541 C118.169692,27.4937667 117.747778,27.1135637 117.346974,26.1386284" id="Stroke-342" stroke="#5B5B5B" stroke-width="0.802"></path>
            <path d="M120.848794,26.1035353 C121.18289,25.6468941 121.660061,31.6421699 122.02584,30.995884 C122.709857,29.7885376 123.932926,26.9502066 124.977424,26.6137293 C125.878399,27.111853 126.24864,31.8543021 127.454379,32.3292802 C128.537288,30.7705466 130.924519,29.3948512 131.515907,28.3703659" id="Stroke-343" stroke="#5B5B5B" stroke-width="0.321"></path>
            <path d="M122.932415,29.469813 C123.025568,29.9012592 123.107806,30.7784303 123.228412,30.9734376 C121.466934,34.8261113 119.409571,45.8181173 117.066586,63.3418041 C117.136819,64.2130215 118.666066,67.5348366 119.915677,68.522189 C121.317518,68.3374195 124.7721,64.9216222 124.596763,64.2419252 C124.169137,52.2479592 126.391771,37.2288724 125.405598,31.2047118 C125.606909,30.9298081 126.013271,30.2511883 126.272837,29.7940907" id="Stroke-344" stroke="#5B5B5B" stroke-width="0.571"></path>
            <path d="M106.117206,44.6261994 C104.454679,45.0319928 102.807886,45.2562114 101.322708,45.480589" id="Stroke-345" stroke="#5B5B5B" stroke-width="0.683"></path>
            <path d="M148.553883,55.3096758 C146.843028,55.6317856 146.78901,55.8686621 143.645973,56.7589844" id="Stroke-346" stroke="#5B5B5B" stroke-width="0.695"></path>
            <path d="M148.07312,57.9867655 C146.673468,57.6109604 146.555404,57.6936378 143.890814,57.2785039" id="Stroke-347" stroke="#5B5B5B" stroke-width="0.63"></path>
            <path d="M146.168288,59.3567339 C144.937654,58.5913428 146.261046,59.278912 143.830122,58.1082603" id="Stroke-348" stroke="#5B5B5B" stroke-width="0.63"></path>
            <path d="M104.429986,46.639261 C103.376868,46.400825 101.276604,45.888357 101.030655,45.7721591" id="Stroke-349" stroke="#5B5B5B" stroke-width="0.593"></path>
            <path d="M136.064499,82.4030467 C135.428963,83.0201419 134.292287,83.8089486 133.391631,84.0784211 M137.470138,83.5748931 C136.834603,84.1919883 136.451573,84.359477 135.551703,84.6269235 M138.915542,84.0859265 C138.279613,84.7040347 137.896976,84.8705104 136.996713,85.1389699" id="Stroke-350" stroke="#5B5B5B" stroke-width="0.136"></path>
            <path d="M80.6443161,42.808329 C81.8344774,42.9491226 81.0444129,43.7786903 80.9228645,44.252729 C81.4485613,44.6771355 82.0927677,44.9151677 82.4290516,45.3486903 C82.7724258,45.7923419 82.7987613,46.2329548 82.7359613,46.3089226 C82.4827355,46.8731097 80.2908129,50.8821806 79.9646581,53.4043097 C79.7651161,53.4164645 78.8778129,53.4934452 77.5357161,53.4904065 C76.2017226,53.4863548 75.2323742,53.4458387 74.0128387,52.9231806 C73.0131032,52.8431613 72.1409935,52.9039355 71.8938452,52.7560516 C71.362071,52.3640581 71.9353742,51.454471 72.4458774,51.4625742 C72.5208323,50.752529 73.2248,50.2957097 73.7768323,50.3493935 C73.6917484,49.8024258 74.5932323,49.1075742 75.1381742,49.1491032 C75.2293355,48.7014 75.6243677,48.6051742 75.9525484,48.5575677 C76.8611226,48.4258903 78.2579161,48.7459677 79.2779097,48.1716516 C79.8350065,47.9204516 79.9089484,46.9885806 79.8370323,46.6512839 C79.7468839,46.2289032 79.1361032,45.0995161 79.2627161,44.3682 C79.442,43.3340258 80.2229484,42.7586968 80.6443161,42.808329 Z" id="Stroke-351" stroke="#5B5B5B" stroke-width="0.283" stroke-linejoin="round"></path>
            <path d="M76.2549681,51.5898791 C75.3085064,51.5290928 73.8553282,51.4001445 72.1194078,51.5846533" id="Stroke-352" stroke="#5B5B5B" stroke-width="0.143"></path>
            <path d="M77.0880262,50.5530617 C76.227745,50.4896686 75.2874805,50.3487287 73.7112323,50.5295112" id="Stroke-353" stroke="#5B5B5B" stroke-width="0.136"></path>
            <path d="M78.0009971,49.3322531 C77.0545138,49.2704312 76.5163506,49.1199203 74.7804301,49.3044291" id="Stroke-354" stroke="#5B5B5B" stroke-width="0.143"></path>
            <path d="M128.906715,149.150358 C127.979935,151.322968 127.798185,151.893089 127.717035,152.951775 C128.523989,156.215214 129.003221,156.969766 132.767317,156.823326 C134.044211,156.773917 138.635676,155.69627 138.782076,152.900105 C138.83117,151.960872 138.335189,151.700727 137.736299,149.402691" id="Stroke-355" stroke="#5B5B5B" stroke-width="0.864" stroke-linejoin="round"></path>
            <path d="M111.933873,148.279491 C110.826581,149.247015 109.868543,149.381909 108.767003,150.462449 C105.541969,153.622247 106.722766,154.32679 107.530589,154.706367 C111.568826,156.597834 118.209156,156.129766 119.977548,154.144832 C121.189454,152.784949 124.372337,152.379416 124.474509,151.807268 C124.630448,150.927803 125.263081,151.236563 124.690573,149.045752" id="Stroke-356" stroke="#5B5B5B" stroke-width="0.823" stroke-linejoin="round"></path>
            <path d="M132.135252,81.7028 L122.528877,77.579271 C121.63651,77.2824903 121.155381,76.6899419 121.630432,75.4055806 L126.490342,64.4155806 C126.931968,63.6569161 127.644039,63.4533226 128.6144,63.7713742 L139.921439,68.7832194" id="Stroke-357" stroke="#5B5B5B" stroke-width="0.716" stroke-linejoin="round"></path>
            <polyline id="Stroke-358" stroke="#5B5B5B" stroke-width="0.283" points="130.053735 78.7826 123.768671 76.1014452 128.314581 65.8225032 139.351174 70.5568129"></polyline>
            <path d="M137.254465,75.9454581 C139.869781,77.0748452 140.765187,78.5131677 141.76391,79.4916323 C141.773026,79.8897032 142.090065,80.9664194 142.226806,81.7392645 C142.405077,82.7501419 141.41851,83.4682903 140.760123,84.1742839 C140.197961,84.7769613 139.153658,85.178071 138.225839,85.1993419 C137.734581,85.4019226 137.6576,85.4363613 137.254465,85.3847032 C136.695342,85.3127871 135.540632,85.2033935 135.497077,84.790129 C134.907568,84.8428 133.960503,84.9359871 133.467219,84.2522774 C133.139039,84.0264 132.648794,83.8531935 132.284148,83.3923226 C132.051181,83.0985806 132.309471,82.4401935 132.618406,82.0228774 C132.819974,81.7524323 135.316781,80.4042581 135.052413,80.0851935 C135.30969,79.7691677 135.298548,78.5506452 135.582161,78.1404194 C135.031142,78.4058 133.525968,79.7195355 132.097774,79.9940323 C131.186161,80.1692645 129.847103,79.9626323 130.472065,78.8180516 C130.926858,78.0836968 132.313523,77.6339677 133.042813,76.9796323 C134.699923,75.4926903 136.598103,75.5099097 137.254465,75.9454581 Z" id="Stroke-359" stroke="#5B5B5B" stroke-width="0.283" stroke-linejoin="round"></path>
            <path d="M21.9941806,21.4218903 C24.1010194,20.0332 26.0275613,19.7424968 26.5299613,20.0666258 C27.3230645,20.6024516 27.5388129,22.1461161 27.1984774,24.4970645 C26.8804258,24.8617097 26.1734194,24.1516645 25.6335419,23.7687871 C25.0055419,23.3241226 24.3501935,23.4244 23.8366516,25.6193613 C23.6624323,26.3638452 23.6887677,27.4152387 23.6046968,29.0500645 C22.8369161,28.4625806 21.8108452,23.5023935 24.8019484,22.1076258 C25.3073871,22.0134258 25.7875032,22.4368194 26.4306968,22.9929032 C26.6018774,21.9516387 26.7700194,20.9579806 26.0589613,20.7483097 C25.6456968,20.6257484 24.6976194,20.6480323 23.3362774,21.424929 C23.6360968,21.7358903 23.6745871,21.8473097 23.8184194,21.9668323 C23.1367355,22.3861742 21.9668323,22.1714387 21.9941806,21.4218903" id="Fill-360" fill="#E31E24"></path>
            <path d="M27.3230645,18.3912839 C27.684671,18.3912839 27.9784129,18.6850258 27.9784129,19.0476452 C27.9784129,19.4092516 27.684671,19.7029935 27.3230645,19.7029935 C26.9604452,19.7029935 26.6667032,19.4092516 26.6667032,19.0476452 C26.6667032,18.6850258 26.9604452,18.3912839 27.3230645,18.3912839" id="Fill-361" fill="#E31E24"></path>
            <path d="M30.4701548,21.7176581 C30.604871,21.6852452 30.7487032,21.6639742 30.9046903,21.6538452 C31.0606774,21.6427032 31.2136258,21.6376387 31.3655613,21.6376387 C31.5286387,21.6376387 31.6937419,21.6538452 31.8618839,21.6852452 C32.0290129,21.7176581 32.1819613,21.7753935 32.3197161,21.8604774 C32.457471,21.9445484 32.5699032,22.0610323 32.6570129,22.209929 C32.7431097,22.3588258 32.7866645,22.5472258 32.7866645,22.7771548 C32.7866645,23.0030323 32.7461484,23.194471 32.6641032,23.3494452 C32.583071,23.5054323 32.4757032,23.6310323 32.3409871,23.728271 C32.2072839,23.8255097 32.0533226,23.8954 31.8801161,23.9379419 C31.7069097,23.9804839 31.5286387,24.0017548 31.3442903,24.0017548 L31.2571806,24.0017548 C31.2166645,24.0017548 31.1741226,24.0007419 31.1305677,23.9987161 C31.086,23.9977032 31.0424452,23.9946645 30.9999032,23.9906129 C30.9583742,23.9875742 30.9279871,23.9845355 30.9097548,23.9804839 L30.9097548,25.3904452 L30.4701548,25.3904452 L30.4701548,21.7176581 Z M31.3767032,22.0195032 C31.284529,22.0195032 31.1964065,22.0205161 31.1113226,22.0245677 C31.0272516,22.0286194 30.9593871,22.0367226 30.9097548,22.0509032 L30.9097548,23.5884903 C30.9279871,23.5955806 30.9563484,23.5996323 30.9948387,23.6016581 C31.033329,23.6036839 31.0748581,23.6046968 31.1163871,23.6067226 C31.158929,23.6087484 31.1994452,23.6097613 31.2389484,23.6097613 L31.3230194,23.6097613 C31.4435548,23.6097613 31.5630774,23.5976065 31.6815871,23.5753226 C31.8000968,23.5520258 31.9064516,23.5104968 32.0016645,23.4507355 C32.0978903,23.3899613 32.1738581,23.3058903 32.2326065,23.1954839 C32.2913548,23.0860903 32.3197161,22.9463097 32.3197161,22.7771548 C32.3197161,22.6323097 32.2923677,22.5117742 32.237671,22.4145355 C32.1829742,22.3172968 32.1110581,22.2393032 32.0209097,22.1805548 C31.9307613,22.1228194 31.8284581,22.0812903 31.7160258,22.0559677 C31.6025806,22.0316581 31.4901484,22.0195032 31.3767032,22.0195032 L31.3767032,22.0195032 Z" id="Fill-362" fill="#5B5B5B"></path>
            <path d="M33.2809613,21.7176581 C33.4156774,21.6923355 33.5696387,21.6730903 33.744871,21.6589097 C33.9201032,21.644729 34.0801419,21.6376387 34.2239742,21.6376387 C34.3870516,21.6376387 34.5420258,21.6548581 34.6888968,21.6903097 C34.8347548,21.7257613 34.9644065,21.7845097 35.0748129,21.8655419 C35.1862323,21.9465742 35.2763806,22.052929 35.3432323,22.1835935 C35.4100839,22.3142581 35.4435097,22.4732839 35.4435097,22.660671 C35.4435097,22.9503613 35.3645032,23.1853548 35.2054774,23.3656516 C35.0464516,23.5459484 34.8448839,23.665471 34.6007742,23.7262452 L34.8550129,23.9217355 L35.7777677,25.3904452 L35.2632129,25.3904452 L34.2401806,23.7900581 L33.7205613,23.7100387 L33.7205613,25.3904452 L33.2809613,25.3904452 L33.2809613,21.7176581 Z M34.2351161,22.0195032 L34.0922968,22.0195032 C34.0426645,22.0195032 33.9950581,22.0205161 33.9484645,22.0245677 C33.9028839,22.0286194 33.859329,22.0316581 33.8188129,22.0346968 C33.7782968,22.0387484 33.7458839,22.0438129 33.7205613,22.0509032 L33.7205613,23.4183226 L34.1338258,23.4183226 C34.3779355,23.4183226 34.5795032,23.3585613 34.738529,23.2380258 C34.8975548,23.1185032 34.9775742,22.9311161 34.9775742,22.6768774 C34.9775742,22.4854387 34.9117355,22.3284387 34.781071,22.2048645 C34.6504065,22.0812903 34.4680839,22.0195032 34.2351161,22.0195032 L34.2351161,22.0195032 Z" id="Fill-363" fill="#5B5B5B"></path>
            <path d="M35.8962774,23.5358194 C35.8962774,22.9169355 36.0269419,22.4428968 36.288271,22.1116774 C36.5496,21.781471 36.9223484,21.6163677 37.4065161,21.6163677 C37.6678452,21.6163677 37.8937226,21.6619484 38.0851613,21.7541226 C38.2755871,21.8462968 38.4336,21.9759484 38.5592,22.1440903 C38.6848,22.3112194 38.7769742,22.5127871 38.8377484,22.7477806 C38.8975097,22.9827742 38.9278968,23.2451161 38.9278968,23.5358194 C38.9278968,24.1536903 38.7962194,24.627729 38.5328645,24.9579355 C38.2695097,25.2891548 37.8937226,25.4542581 37.4065161,25.4542581 C37.1482258,25.4542581 36.9243742,25.4086774 36.7359742,25.3165032 C36.5465613,25.224329 36.3895613,25.0946774 36.2639613,24.9265355 C36.1383613,24.7583935 36.0461871,24.5578387 35.9864258,24.3218323 C35.9256516,24.0878516 35.8962774,23.8255097 35.8962774,23.5358194 Z M36.3622129,23.5358194 C36.3622129,23.7404258 36.382471,23.9349032 36.4229871,24.1182387 C36.4635032,24.3015742 36.5263032,24.4636387 36.6113871,24.6034194 C36.696471,24.7432 36.8048516,24.8536065 36.9375419,24.9376774 C37.0702323,25.0207355 37.2262194,25.0612516 37.4065161,25.0612516 C37.7346968,25.0612516 37.9929871,24.9376774 38.1803742,24.6885032 C38.3677613,24.439329 38.4609484,24.0544258 38.4609484,23.5358194 C38.4609484,23.3332387 38.4406903,23.1397742 38.4001742,22.9544129 C38.3596581,22.7690516 38.2958452,22.6069871 38.2097484,22.4672065 C38.1226387,22.3274258 38.0132452,22.2160065 37.8805548,22.1329484 C37.7478645,22.0498903 37.5898516,22.0083613 37.4065161,22.0083613 C37.0813742,22.0083613 36.8261226,22.1329484 36.6407613,22.3821226 C36.4543871,22.6312968 36.3622129,23.0151871 36.3622129,23.5358194 L36.3622129,23.5358194 Z" id="Fill-364" fill="#5B5B5B"></path>
            <path d="M39.522471,21.6801806 C39.5903355,21.6690387 39.6652903,21.6619484 39.7483484,21.655871 C39.8314065,21.6508065 39.9175032,21.6467548 40.0076516,21.6457419 C40.0978,21.6437161 40.1859226,21.6416903 40.2730323,21.6406774 C40.359129,21.6386516 40.4401613,21.6376387 40.5141032,21.6376387 C40.8108839,21.6376387 41.0681613,21.6832194 41.2849226,21.7753935 C41.5026968,21.8675677 41.6819806,21.9951935 41.8227742,22.1592839 C41.9645806,22.3243871 42.0699226,22.5208903 42.1388,22.7508194 C42.2076774,22.9807484 42.2421161,23.2329613 42.2421161,23.508471 C42.2421161,23.759671 42.2097032,24.0007419 42.1438645,24.2316839 C42.0780258,24.4636387 41.9747097,24.6682452 41.8339161,24.847529 C41.6921097,25.0258 41.5087742,25.1686194 41.2828968,25.2759871 C41.0570194,25.3843677 40.7825226,25.4380516 40.4614323,25.4380516 C40.4047097,25.4380516 40.3307677,25.4370387 40.2416323,25.4350129 C40.150471,25.434 40.0582968,25.4299484 39.9630839,25.4248839 C39.8668581,25.4198194 39.7787355,25.4147548 39.6977032,25.4117161 C39.616671,25.4086774 39.5579226,25.4026 39.522471,25.3955097 L39.522471,21.6801806 Z M40.5242323,22.0296323 L40.3733097,22.0296323 C40.3186129,22.0296323 40.264929,22.0316581 40.2122581,22.0346968 C40.1585742,22.0387484 40.1099548,22.0417871 40.0664,22.0458387 C40.0218323,22.0488774 39.9873935,22.052929 39.9630839,22.0559677 L39.9630839,25.0247871 C39.9803032,25.0278258 40.013729,25.0308645 40.0633613,25.0328903 C40.1129935,25.0339032 40.1646516,25.035929 40.2173226,25.0379548 C40.2699935,25.0399806 40.3216516,25.0420065 40.3712839,25.0430194 C40.4199032,25.0450452 40.4543419,25.0460581 40.4715613,25.0460581 C40.7187097,25.0460581 40.9263548,25.0035161 41.0944968,24.9184323 C41.2626387,24.8343613 41.3963419,24.7199032 41.4976323,24.5770839 C41.5979097,24.4332516 41.6698258,24.2691613 41.7123677,24.0838 C41.7538968,23.8984387 41.7751677,23.707 41.7751677,23.508471 C41.7751677,23.3352645 41.7559226,23.1610452 41.7174323,22.9868258 C41.6789419,22.8115935 41.6110774,22.6535806 41.5158645,22.5127871 C41.4206516,22.3709806 41.2920129,22.2555097 41.1319742,22.1643484 C40.9709226,22.0752129 40.7683419,22.0296323 40.5242323,22.0296323 L40.5242323,22.0296323 Z" id="Fill-365" fill="#5B5B5B"></path>
            <path d="M44.9678387,21.6801806 L45.3922452,21.6801806 L45.3922452,24.1557161 C45.3922452,24.3775419 45.362871,24.5710065 45.3041226,24.733071 C45.2463871,24.8961484 45.163329,25.0288387 45.0549484,25.1331677 C44.9475806,25.2374968 44.817929,25.3144774 44.6659935,25.3641097 C44.5140581,25.4137419 44.3459161,25.4380516 44.1615677,25.4380516 C43.7239935,25.4380516 43.3937871,25.3387871 43.1709484,25.141271 C42.9481097,24.9437548 42.8366903,24.6429226 42.8366903,24.2397871 L42.8366903,21.6801806 L43.2773032,21.6801806 L43.2773032,24.0331548 C43.2773032,24.2205419 43.2955355,24.3785548 43.3330129,24.5082065 C43.3694774,24.6368452 43.4251871,24.7411742 43.5001419,24.8201806 C43.5740839,24.9002 43.6662581,24.9579355 43.7776774,24.9923742 C43.8890968,25.0278258 44.0187484,25.0460581 44.1676452,25.0460581 C44.4532839,25.0460581 44.6589032,24.9670516 44.7824774,24.8100516 C44.9060516,24.6530516 44.9678387,24.3937484 44.9678387,24.0331548 L44.9678387,21.6801806" id="Fill-366" fill="#5B5B5B"></path>
            <polyline id="Fill-367" fill="#5B5B5B" points="46.8295548 23.6735742 46.5803806 23.6735742 46.5803806 25.3904452 46.1407806 25.3904452 46.1407806 21.6801806 46.5803806 21.6801806 46.5803806 23.4081935 46.8194258 23.3332387 48.0652968 21.6801806 48.5737742 21.6801806 47.3329677 23.2755032 47.1111419 23.4507355 47.3805742 23.6624323 48.7378645 25.3904452 48.1817806 25.3904452 46.8295548 23.6735742"></polyline>
            <polyline id="Fill-368" fill="#5B5B5B" points="51.443329 22.0721742 50.2876065 22.0721742 50.2876065 25.3904452 49.8469935 25.3904452 49.8469935 22.0721742 48.691271 22.0721742 48.691271 21.6801806 51.443329 21.6801806 51.443329 22.0721742"></polyline>
            <polyline id="Fill-369" fill="#5B5B5B" points="51.8363355 21.6801806 53.8560645 21.6801806 53.8560645 22.0721742 52.2759355 22.0721742 52.2759355 23.2856323 53.7233742 23.2856323 53.7233742 23.6786387 52.2759355 23.6786387 52.2759355 24.9984516 53.8824 24.9984516 53.8824 25.3904452 51.8363355 25.3904452 51.8363355 21.6801806"></polyline>
            <polyline id="Stroke-370" stroke="#5B5B5B" stroke-width="0.396" points="62.1597623 82.2500994 62.1597623 83.6690868 12.8832436 83.6690868 12.8832436 82.2258432 62.1942768 82.2258432"></polyline>
            <polyline id="Stroke-371" stroke="#5B5B5B" stroke-width="0.394" stroke-linejoin="round" points="62.1524502 79.3608997 62.1524502 82.1309096 12.8769091 82.1309096 12.8769091 79.3131409 62.1867787 79.3131409"></polyline>
            <path d="M52.676696,72.614876 C53.0643069,72.5216415 53.4530959,72.5351935 53.8418933,72.5895789 C55.3387635,72.9079224 54.4638017,75.0560797 54.3758906,75.6671739 C54.9116325,77.4711355 55.0262488,80.343389 54.809522,82.0431763 C54.4932472,82.285431 52.4923051,82.3930284 51.7004988,82.088115 C51.2092127,80.3296472 51.4186506,77.290672 52.0265392,75.6575439 C52.0266318,75.0171138 50.965937,73.0264709 52.676696,72.614876 Z M57.5546626,72.61487 C57.9437057,72.5216933 58.3324946,72.5352454 58.7205887,72.5903187 C60.2181622,72.9079743 59.3432004,75.0561316 59.2552894,75.6672258 C59.7910313,77.4711874 59.9056476,80.3434408 59.6889207,82.0432282 C59.3719172,82.284737 57.3717038,82.3930803 56.5798975,82.0881668 C56.087908,80.330387 56.2973459,77.2914119 56.9059379,75.6575957 C56.9060306,75.0171657 55.8453358,73.0265228 57.5546626,72.61487 Z" id="Stroke-372" stroke="#5B5B5B" stroke-width="0.385"></path>
            <path d="M28.5536415,81.8908285 C28.738506,82.4675768 31.5907021,82.3120264 31.6404734,81.8908285 C31.9309748,79.1697077 31.7816611,78.3242815 31.6414891,77.080889 C31.6445363,76.6728218 31.8222907,76.3364695 31.8040074,75.6869964 C31.7562676,74.3294662 30.7791264,73.016379 30.6765367,72.2083253 L29.4992948,72.2083253 C29.4698384,73.3123286 28.5922396,73.9537212 28.4947286,75.6920467 C28.4459731,76.0980937 28.6023969,76.4536373 28.5932553,76.9718017 C28.430737,78.1566104 28.2925964,79.5404023 28.5536415,81.8908285 Z M33.0777445,81.8908285 C33.2626091,82.4675768 36.1137895,82.3120264 36.1645764,81.8908285 C36.4550779,79.1697077 36.3047485,78.3242815 36.1655922,77.080889 C36.1676237,76.6728218 36.345378,76.3364695 36.3281105,75.6869964 C36.279355,74.3294662 35.3032295,73.016379 35.2006398,72.2083253 L34.0233979,72.2083253 C33.9929257,73.3123286 33.1163426,73.9537212 33.0188317,75.6920467 C32.9690604,76.0980937 33.1265,76.4536373 33.1173584,76.9718017 C32.9548401,78.1566104 32.8166995,79.5404023 33.0777445,81.8908285 Z M37.6018476,81.8908285 C37.7867122,82.4675768 40.6378926,82.3120264 40.6876638,81.8908285 C40.9781652,79.1697077 40.8288516,78.3242815 40.6896953,77.080889 C40.6917267,76.6728218 40.8694811,76.3364695 40.8511978,75.6869964 C40.8034581,74.3294662 39.8273326,73.016379 39.7237271,72.2083253 L38.547501,72.2083253 C38.5170288,73.3123286 37.6404457,73.9537212 37.541919,75.6920467 C37.4931635,76.0980937 37.6506031,76.4536373 37.6404457,76.9718017 C37.4779274,78.1566104 37.3408026,79.5404023 37.6018476,81.8908285 Z M42.1259507,81.8908285 C42.3097995,82.4675768 45.1619956,82.3120264 45.2117669,81.8908285 C45.5022683,79.1697077 45.3529546,78.3242815 45.2127826,77.080889 C45.2158298,76.6728218 45.3935842,76.3364695 45.3753009,75.6869964 C45.3275612,74.3294662 44.3514356,73.016379 44.2478302,72.2083253 L43.0716041,72.2083253 C43.0411319,73.3123286 42.1635331,73.9537212 42.0660221,75.6920467 C42.0172666,76.0980937 42.1747062,76.4536373 42.1645488,76.9718017 C42.0020305,78.1566104 41.86389,79.5404023 42.1259507,81.8908285 Z M46.6490381,81.8908285 C46.8339026,82.4675768 49.6860987,82.3120264 49.73587,81.8908285 C50.0263714,79.1697077 49.8770577,78.3242815 49.7368857,77.080889 C49.7399329,76.6728218 49.9176873,76.3364695 49.899404,75.6869964 C49.8516642,74.3294662 48.874523,73.016379 48.7719333,72.2083253 L47.5946914,72.2083253 C47.565235,73.3123286 46.6876362,73.9537212 46.5901252,75.6920467 C46.5413697,76.0980937 46.6977936,76.4536373 46.6886519,76.9718017 C46.5261336,78.1566104 46.387993,79.5404023 46.6490381,81.8908285 Z" id="Stroke-373" stroke="#5B5B5B" stroke-width="0.396"></path>
            <path d="M15.4834707,73.5409093 C15.5247298,73.5245959 15.5076223,72.9301758 15.5126539,72.8812356 C15.5830963,72.8730789 16.5038785,72.8883727 16.5038785,72.8751181 C16.5139417,73.140211 16.48979,73.4868711 16.5139417,73.5398897 C17.161005,73.9140786 17.9348646,73.7978455 17.6893227,76.5191269 C17.9871932,78.3034066 17.9469404,80.0876863 17.6913353,81.8709464 C17.5434064,82.3950148 14.3724941,82.4092891 14.3080897,81.854633 C14.0514782,80.0530203 13.9830485,78.2544664 14.2799127,76.4528537 C14.019276,74.0476447 14.8172873,73.8111002 15.4834707,73.5409093 Z M24.531288,73.5409093 C24.5725471,73.5245959 24.5554396,72.9301758 24.5604712,72.8812356 C24.6309136,72.8730789 25.5527021,72.8883727 25.5516958,72.8751181 C25.561759,73.140211 25.5376073,73.4868711 25.5627653,73.5398897 C26.2098287,73.9140786 26.9826819,73.7978455 26.7381463,76.5191269 C27.0350105,78.3034066 26.9957641,80.0876863 26.7391526,81.8709464 C26.59223,82.3950148 23.4213177,82.4092891 23.355907,81.854633 C23.0992955,80.0530203 23.0318721,78.2544664 23.3287364,76.4528537 C23.0670933,74.0476447 23.8661109,73.8111002 24.531288,73.5409093 Z M20.0068762,73.5409093 C20.0481353,73.5245959 20.0310278,72.9301758 20.0360594,72.8812356 C20.1065018,72.8730789 21.0282903,72.8883727 21.0282903,72.8751181 C21.0373472,73.140211 21.0131955,73.4868711 21.0383535,73.5398897 C21.6854168,73.9140786 22.4592764,73.7978455 22.2137345,76.5191269 C22.511605,78.3034066 22.4713523,80.0876863 22.2157471,81.8709464 C22.0678182,82.3950148 18.8969059,82.4092891 18.8314952,81.854633 C18.57589,80.0530203 18.5074603,78.2544664 18.8043245,76.4528537 C18.5436878,74.0476447 19.3416991,73.8111002 20.0068762,73.5409093 Z" id="Stroke-374" stroke="#5B5B5B" stroke-width="0.391"></path>
            <polyline id="Stroke-375" stroke="#5B5B5B" stroke-width="0.396" points="62.1597623 50.4835785 62.1597623 51.902566 12.8832436 51.902566 12.8832436 50.4593223 62.1932616 50.4593223"></polyline>
            <polyline id="Stroke-376" stroke="#5B5B5B" stroke-width="0.394" stroke-linejoin="round" points="62.1524502 47.5941898 62.1524502 50.3641998 12.8769091 50.3641998 12.8769091 47.546431 62.1867787 47.546431"></polyline>
            <path d="M15.742881,42.8455448 L15.7013375,42.8425272 L15.6941692,42.8353386 L15.6748318,42.8359837 C15.6748318,42.8359837 15.6689391,42.6440147 15.8006988,42.6144178 C15.8006988,42.6144178 16.1430052,42.5583788 16.4109191,42.6137967 C16.4109191,42.6137967 16.4954384,42.6198373 16.5170734,42.7946749 C16.5170734,42.7946749 16.5235297,42.8068744 16.5013371,42.8189686 L16.4512124,42.8316762 C16.4512124,42.8316762 16.4247236,42.8451871 16.4505199,42.8596063 C16.4505199,42.8596063 16.5107252,42.9099632 16.4642247,42.973536 C16.4642247,42.973536 16.4456175,42.9906569 16.452103,43.0372351 C16.452103,43.0372351 16.493796,43.2164438 16.5348036,43.4321773 C16.5952339,43.7475371 16.6621739,44.138124 16.6621739,44.138124 C16.6621739,44.138124 16.7161915,44.4928523 16.7256367,44.651172 C16.7256367,44.651172 16.7336386,44.7965945 16.7329606,44.8417139 C16.7329606,44.8417139 16.7110257,45.157487 16.7677223,45.2930614 C16.7677223,45.2930614 16.8014474,45.3669562 16.8559497,45.4488059 C16.8559497,45.4488059 17.0230079,45.6592731 17.0538511,45.7131031 C17.0538511,45.7131031 17.2080039,45.907766 17.2098022,46.338938 L17.219799,49.6794325 C17.219799,49.6794325 17.2295736,50.2259456 17.0441658,50.3362782 C17.0441658,50.3362782 16.9282384,50.4547447 16.3237589,50.4682789 C16.3237589,50.4682789 15.8217254,50.5129873 15.3231279,50.3865314 C14.9420421,50.3206702 15.0560116,48.7389557 15.0521698,48.4316825 L15.0426112,47.2957198 L15.0312328,46.5472264 C15.0312328,46.5472264 15.0215201,46.0737682 15.1123268,45.892898 C15.1123268,45.892898 15.2138288,45.6554856 15.3662381,45.4834366 C15.3662381,45.4834366 15.4563996,45.386362 15.4741952,45.2567913 C15.4741952,45.2567913 15.5198439,45.033498 15.5053797,44.8687139 C15.5053797,44.8687139 15.4800244,44.5298478 15.5670475,44.1104619 L15.6853317,43.3932428 C15.6853317,43.3932428 15.7430888,43.0904934 15.7416114,43.0374875 C15.7416114,43.0374875 15.7501769,43.0031404 15.720805,42.995154 C15.720805,42.995154 15.6613031,42.929759 15.7228644,42.889877 C15.7228644,42.889877 15.7522119,42.8692144 15.742881,42.8455448 Z" id="Stroke-377" stroke="#5B5B5B" stroke-width="0.396"></path>
            <path d="M16.4710919,42.8189479 C16.1213634,42.8016924 15.7099775,42.8301132 15.6907728,42.8321433" id="Stroke-378" stroke="#5B5B5B" stroke-width="0.398"></path>
            <path d="M18.8355259,42.8454569 L18.7939825,42.8424393 L18.7868142,42.8352507 L18.7674767,42.8358958 C18.7674767,42.8358958 18.7615841,42.6439267 18.8933437,42.6143299 C18.8933437,42.6143299 19.2356501,42.5582908 19.503564,42.6137088 C19.503564,42.6137088 19.5880833,42.6197493 19.6097183,42.794587 C19.6097183,42.794587 19.6161747,42.8067865 19.5939821,42.8188806 L19.5431417,42.8323019 C19.5431417,42.8323019 19.5173686,42.8450991 19.542448,42.8587996 C19.542448,42.8587996 19.6026545,42.9105889 19.5568697,42.9734481 C19.5568697,42.9734481 19.5375468,42.9912826 19.544748,43.0371472 C19.544748,43.0371472 19.5857241,43.2156371 19.6274486,43.4320894 C19.6878788,43.7474491 19.7548188,44.1380361 19.7548188,44.1380361 C19.7548188,44.1380361 19.8088365,44.4927644 19.8182817,44.6510841 C19.8182817,44.6510841 19.8255667,44.7957877 19.8256056,44.841626 C19.8256056,44.841626 19.802955,45.1581127 19.8603672,45.2929735 C19.8603672,45.2929735 19.8940923,45.3668683 19.9485946,45.448718 C19.9485946,45.448718 20.1156529,45.6591852 20.1464961,45.7130152 C20.1464961,45.7130152 20.3006489,45.9076781 20.3017304,46.3381313 L20.3124439,49.6793446 C20.3124439,49.6793446 20.3215029,50.2265712 20.1360952,50.3369038 C20.1360952,50.3369038 20.0208834,50.4546568 19.4149714,50.4681857 C19.4149714,50.4681857 18.9143704,50.5128994 18.4157728,50.3864435 C18.034687,50.3205823 18.1486566,48.7388678 18.1448147,48.4315946 L18.1352562,47.2956319 L18.1238777,46.5471385 C18.1238777,46.5471385 18.1141651,46.0736803 18.2049718,45.8928101 C18.2049718,45.8928101 18.3064738,45.6553977 18.458883,45.4833487 C18.458883,45.4833487 18.5490446,45.3862741 18.5661245,45.257417 C18.5661245,45.257417 18.6124889,45.0334101 18.597309,44.8693395 C18.597309,44.8693395 18.5726693,44.5297599 18.6596925,44.110374 L18.7779767,43.3931548 C18.7779767,43.3931548 18.8357338,43.0904055 18.8342563,43.0373996 C18.8342563,43.0373996 18.842105,43.0023336 18.81345,42.995066 C18.81345,42.995066 18.7539481,42.9296711 18.8155093,42.889789 C18.8155093,42.889789 18.8441413,42.8698401 18.8355259,42.8454569 Z" id="Stroke-379" stroke="#5B5B5B" stroke-width="0.396"></path>
            <path d="M19.5630561,42.8189479 C19.2133276,42.8016924 18.8019417,42.8301132 18.7837477,42.8321433" id="Stroke-380" stroke="#5B5B5B" stroke-width="0.398"></path>
            <path d="M21.9281709,42.845369 L21.8859106,42.8416325 L21.8787435,42.8358764 L21.8601217,42.8358079 C21.8601217,42.8358079 21.8535122,42.64312 21.9859887,42.614242 C21.9859887,42.614242 22.3282951,42.5582029 22.596209,42.6136209 C22.596209,42.6136209 22.6800114,42.6189426 22.7023633,42.7944991 C22.7023633,42.7944991 22.7088196,42.8066986 22.686627,42.8187927 L22.6357867,42.832214 C22.6357867,42.832214 22.6092979,42.8457248 22.6350929,42.8587116 C22.6350929,42.8587116 22.6952995,42.910501 22.6480822,42.9733549 C22.6480822,42.9733549 22.6301918,42.9911946 22.6366773,43.0377729 C22.6366773,43.0377729 22.6790859,43.216268 22.7200935,43.4320015 C22.7805238,43.7473612 22.8474638,44.1379482 22.8474638,44.1379482 C22.8474638,44.1379482 22.9007658,44.4933901 22.910211,44.6517098 C22.910211,44.6517098 22.9182116,44.7956998 22.9175337,44.8408192 C22.9175337,44.8408192 22.8956,45.1580248 22.9530122,45.2928855 C22.9530122,45.2928855 22.9867373,45.3667804 23.0398071,45.4486248 C23.0398071,45.4486248 23.2082978,45.6590973 23.2384254,45.7136409 C23.2384254,45.7136409 23.3932938,45.9075902 23.3943753,46.3380433 L23.4050889,49.6792567 C23.4050889,49.6792567 23.4141479,50.2264833 23.2287401,50.3368159 C23.2287401,50.3368159 23.1135284,50.4545689 22.5076163,50.4680978 C22.5076163,50.4680978 22.0062997,50.5135251 21.5084178,50.3863556 C21.127332,50.3204944 21.2413015,48.7387799 21.2367441,48.4322203 L21.2271843,47.2948251 L21.2158071,46.5477641 C21.2158071,46.5477641 21.2053776,46.0735871 21.2961843,45.8927169 C21.2961843,45.8927169 21.3991187,45.6553098 21.551528,45.4832608 C21.551528,45.4832608 21.6409739,45.3868998 21.6587695,45.2573291 C21.6587695,45.2573291 21.7051338,45.0333222 21.6899539,44.8692516 C21.6899539,44.8692516 21.6653143,44.529672 21.7523374,44.1102861 L21.8706216,43.3930669 C21.8706216,43.3930669 21.9283787,43.0903175 21.9261857,43.0380253 C21.9261857,43.0380253 21.93475,43.0022457 21.9060949,42.9949781 C21.9060949,42.9949781 21.846593,42.9295832 21.9081543,42.8897011 C21.9081543,42.8897011 21.9360694,42.8690333 21.9281709,42.845369 Z" id="Stroke-381" stroke="#5B5B5B" stroke-width="0.396"></path>
            <path d="M22.6550203,42.8189479 C22.3052917,42.8016924 21.8949166,42.8301132 21.8757119,42.8321433" id="Stroke-382" stroke="#5B5B5B" stroke-width="0.398"></path>
            <path d="M25.0208158,42.8452811 L24.9778399,42.8422582 L24.9706716,42.8350696 L24.9527666,42.83572 C24.9527666,42.83572 24.9461571,42.643032 25.0786336,42.6141541 C25.0786336,42.6141541 25.42094,42.558115 25.6888539,42.613533 C25.6888539,42.613533 25.7726564,42.6188546 25.7950082,42.7944111 C25.7950082,42.7944111 25.8014646,42.8066106 25.7785564,42.8194184 L25.7284316,42.8321261 C25.7284316,42.8321261 25.7019429,42.8456369 25.7270223,42.8593373 C25.7270223,42.8593373 25.7879444,42.9104131 25.741444,42.9739858 C25.741444,42.9739858 25.7228367,42.9911067 25.7286054,43.0369661 C25.7286054,43.0369661 25.771014,43.2154612 25.8120229,43.4326272 C25.8731687,43.7472733 25.9401087,44.1378602 25.9401087,44.1378602 C25.9401087,44.1378602 25.9934108,44.4933022 26.002856,44.6516219 C26.002856,44.6516219 26.0108566,44.7956118 26.0101787,44.8407313 C26.0101787,44.8407313 25.9882449,45.1579368 26.0456571,45.2927976 C26.0456571,45.2927976 26.0793822,45.3666924 26.1324521,45.4485369 C26.1324521,45.4485369 26.3002271,45.6597229 26.3310703,45.713553 C26.3310703,45.713553 26.4859388,45.9075022 26.4870203,46.3379554 L26.4977338,49.6791688 C26.4977338,49.6791688 26.5067929,50.2263954 26.3213851,50.336728 C26.3213851,50.336728 26.2054577,50.4551945 25.6002613,50.4680099 C25.6002613,50.4680099 25.0989447,50.5134372 24.6010627,50.3862677 C24.2164256,50.3554883 24.3332151,48.7207837 24.329389,48.4321323 L24.3191136,47.2954508 L24.3077352,46.5469574 C24.3077352,46.5469574 24.2980225,46.0734992 24.3888292,45.892629 C24.3888292,45.892629 24.4910481,45.6559355 24.6434573,45.4838865 C24.6434573,45.4838865 24.7336188,45.3868118 24.7514144,45.2572412 C24.7514144,45.2572412 24.7970632,45.0339479 24.7825989,44.8691637 C24.7825989,44.8691637 24.7579592,44.529584 24.8449824,44.1101982 L24.9632666,43.392979 C24.9632666,43.392979 25.020308,43.0909432 25.0181138,43.0372185 C25.0181138,43.0372185 25.0266793,43.0028714 24.9987399,42.9948902 C24.9987399,42.9948902 24.9385224,42.9302088 25.0007992,42.8896132 C25.0007992,42.8896132 25.0287143,42.8689454 25.0208158,42.8452811 Z" id="Stroke-383" stroke="#5B5B5B" stroke-width="0.396"></path>
            <path d="M25.7479952,42.8189479 C25.3982667,42.8016924 24.9868808,42.8301132 24.9676761,42.8321433" id="Stroke-384" stroke="#5B5B5B" stroke-width="0.398"></path>
            <path d="M28.8252,44.0977548 C28.9112968,43.938729 29.0277806,43.813129 29.1584452,43.7037355 C29.1908581,43.7006968 29.1584452,43.5487613 29.191871,43.5457226 C29.4957419,43.4839355 30.2493419,43.4565871 30.7557935,43.5548387 C30.7740258,43.5528129 30.7375613,43.7006968 30.7861806,43.7037355 C30.8803806,43.8050258 31.0161097,43.9306258 31.096129,44.0977548 L31.096129,50.1974581 C31.0586516,50.4830968 28.877871,50.4689161 28.8252,50.1974581 L28.8252,44.0977548 Z" id="Stroke-385" stroke="#5B5B5B" stroke-width="0.397" stroke-linejoin="round"></path>
            <path d="M31.0886286,44.1526247 C30.9755124,44.3466503 28.9131622,44.405569 28.8111557,44.1170703" id="Stroke-386" stroke="#5B5B5B" stroke-width="0.394"></path>
            <path d="M32.2275419,44.0977548 C32.3146516,43.938729 32.4301226,43.813129 32.5607871,43.7037355 C32.5942129,43.7006968 32.5607871,43.5487613 32.5942129,43.5457226 C32.8990968,43.4839355 33.6516839,43.4565871 34.1581355,43.5548387 C34.1773806,43.5528129 34.1399032,43.7006968 34.1895355,43.7037355 C34.2827226,43.8050258 34.4184516,43.9306258 34.498471,44.0977548 L34.498471,50.1974581 C34.4609935,50.4830968 32.2802129,50.4689161 32.2275419,50.1974581 L32.2275419,44.0977548 Z" id="Stroke-387" stroke="#5B5B5B" stroke-width="0.397" stroke-linejoin="round"></path>
            <path d="M34.4912034,44.1526247 C34.3780872,44.3466503 32.315737,44.405569 32.2137305,44.1170703" id="Stroke-388" stroke="#5B5B5B" stroke-width="0.394"></path>
            <path d="M35.6308968,44.0977548 C35.7169935,43.938729 35.8324645,43.813129 35.9641419,43.7037355 C35.9965548,43.7006968 35.9641419,43.5487613 35.9975677,43.5457226 C36.3014387,43.4839355 37.0550387,43.4565871 37.5614903,43.5548387 C37.5797226,43.5528129 37.5432581,43.7006968 37.5918774,43.7037355 C37.6850645,43.8050258 37.8218065,43.9306258 37.9018258,44.0977548 L37.9018258,50.1974581 C37.8643484,50.4830968 35.6835677,50.4689161 35.6308968,50.1974581 L35.6308968,44.0977548 Z" id="Stroke-389" stroke="#5B5B5B" stroke-width="0.397" stroke-linejoin="round"></path>
            <path d="M37.8947882,44.1526247 C37.780662,44.3466503 35.7183118,44.405569 35.6173153,44.1170703" id="Stroke-390" stroke="#5B5B5B" stroke-width="0.394"></path>
            <path d="M39.0332387,44.0977548 C39.1203484,43.938729 39.2358194,43.813129 39.3664839,43.7037355 C39.3999097,43.7006968 39.3664839,43.5487613 39.3999097,43.5457226 C39.7037806,43.4839355 40.4573806,43.4565871 40.9638323,43.5548387 C40.9820645,43.5528129 40.9456,43.7006968 40.9942194,43.7037355 C41.0884194,43.8050258 41.2241484,43.9306258 41.3041677,44.0977548 L41.3041677,50.1974581 C41.2666903,50.4830968 39.0859097,50.4689161 39.0332387,50.1974581 L39.0332387,44.0977548 Z" id="Stroke-391" stroke="#5B5B5B" stroke-width="0.397" stroke-linejoin="round"></path>
            <path d="M41.296353,44.1526247 C41.1832368,44.3466503 39.1208866,44.405569 39.0188801,44.1170703" id="Stroke-392" stroke="#5B5B5B" stroke-width="0.394"></path>
            <path d="M42.4355806,44.0977548 C42.5216774,43.938729 42.6381613,43.813129 42.7688258,43.7037355 C42.8012387,43.7006968 42.7688258,43.5487613 42.8022516,43.5457226 C43.1061226,43.4839355 43.8597226,43.4565871 44.3661742,43.5548387 C44.3844065,43.5528129 44.3479419,43.7006968 44.3965613,43.7037355 C44.4907613,43.8050258 44.6264903,43.9306258 44.7065097,44.0977548 L44.7065097,50.1974581 C44.6690323,50.4830968 42.4882516,50.4689161 42.4355806,50.1974581 L42.4355806,44.0977548 Z" id="Stroke-393" stroke="#5B5B5B" stroke-width="0.397" stroke-linejoin="round"></path>
            <path d="M44.6989278,44.1526247 C44.5848017,44.3466503 42.5234614,44.405569 42.4214549,44.1170703" id="Stroke-394" stroke="#5B5B5B" stroke-width="0.394"></path>
            <path d="M47.734318,43.8632247 C47.8490622,43.7773432 48.4369993,43.7924987 48.4674624,43.8632247 L48.4674624,44.2976842 L47.734318,44.2976842 L47.734318,43.8632247 Z" id="Stroke-395" stroke="#5B5B5B" stroke-width="0.394"></path>
            <path d="M47.1589392,50.1858324 C47.2716863,50.5393559 49.0157108,50.4444095 49.0461829,50.1858324 C49.2239373,48.5212418 49.1325208,48.0050975 49.0471987,47.2435069 C49.0482144,46.9950304 49.1579143,46.7889767 49.1467411,46.3910103 C49.1172847,45.5607351 48.52003,44.7577318 48.4570541,44.263809 L47.7368949,44.263809 C47.7186116,44.9395439 47.1823012,45.3314499 47.1223726,46.3950506 C47.0919004,46.642517 47.1883957,46.8606915 47.1823012,47.1778526 C47.0827588,47.9020707 46.9984524,48.7485069 47.1589392,50.1858324 Z" id="Stroke-396" stroke="#5B5B5B" stroke-width="0.396"></path>
            <path d="M50.5013797,43.8632247 C50.6161239,43.7773432 51.204061,43.7924987 51.2345241,43.8632247 L51.2345241,44.2976842 L50.5013797,44.2976842 L50.5013797,43.8632247 Z" id="Stroke-397" stroke="#5B5B5B" stroke-width="0.394"></path>
            <path d="M49.9258132,50.1858324 C50.0385603,50.5393559 51.7825848,50.4444095 51.8140727,50.1858324 C51.9918271,48.5212418 51.9004105,48.0050975 51.8140727,47.2435069 C51.8161042,46.9950304 51.9247883,46.7889767 51.9136151,46.3910103 C51.8841587,45.5607351 51.286904,44.7577318 51.2239281,44.263809 L50.5037689,44.263809 C50.4854856,44.9395439 49.9491752,45.3314499 49.8892466,46.3950506 C49.8597902,46.642517 49.9552697,46.8606915 49.9491752,47.1778526 C49.8506485,47.9020707 49.7653264,48.7485069 49.9258132,50.1858324 Z" id="Stroke-398" stroke="#5B5B5B" stroke-width="0.396"></path>
            <path d="M53.2684414,43.8632247 C53.3831856,43.7773432 53.9711227,43.7924987 54.0026012,43.8632247 L54.0026012,44.2976842 L53.2684414,44.2976842 L53.2684414,43.8632247 Z" id="Stroke-399" stroke="#5B5B5B" stroke-width="0.394"></path>
            <path d="M52.6926872,50.1858324 C52.8054343,50.5393559 54.5504745,50.4444095 54.5809467,50.1858324 C54.7587011,48.5212418 54.6672845,48.0050975 54.5819624,47.2435069 C54.5829782,46.9950304 54.6916623,46.7889767 54.6804891,46.3910103 C54.6510327,45.5607351 54.053778,44.7577318 53.9918179,44.263809 L53.2716587,44.263809 C53.2533753,44.9395439 52.7160492,45.3314499 52.6561206,46.3950506 C52.6266642,46.642517 52.7231594,46.8606915 52.717065,47.1778526 C52.6175225,47.9020707 52.5332161,48.7485069 52.6926872,50.1858324 Z" id="Stroke-400" stroke="#5B5B5B" stroke-width="0.396"></path>
            <path d="M56.0355031,43.8632247 C56.1512627,43.7773432 56.7381844,43.7924987 56.7686475,43.8632247 L56.7686475,44.2976842 L56.0355031,44.2976842 L56.0355031,43.8632247 Z" id="Stroke-401" stroke="#5B5B5B" stroke-width="0.394"></path>
            <path d="M55.4595612,50.1858324 C55.573324,50.5393559 57.3173485,50.4444095 57.3478207,50.1858324 C57.5255751,48.5212418 57.4341585,48.0050975 57.3488364,47.2435069 C57.3498522,46.9950304 57.459552,46.7889767 57.4483789,46.3910103 C57.4189224,45.5607351 56.8216677,44.7577318 56.7586919,44.263809 L56.0385327,44.263809 C56.0202493,44.9395439 55.483939,45.3314499 55.4240103,46.3950506 C55.3935382,46.642517 55.4900334,46.8606915 55.483939,47.1778526 C55.3843965,47.9020707 55.3000901,48.7485069 55.4595612,50.1858324 Z" id="Stroke-402" stroke="#5B5B5B" stroke-width="0.396"></path>
            <path d="M58.987374,43.8632247 C59.1021182,43.7773432 59.6900554,43.7924987 59.7205184,43.8632247 L59.7205184,44.2976842 L58.987374,44.2976842 L58.987374,43.8632247 Z" id="Stroke-403" stroke="#5B5B5B" stroke-width="0.394"></path>
            <path d="M58.4112998,50.1858324 C58.5250626,50.5393559 60.2690871,50.4444095 60.2995593,50.1858324 C60.4773136,48.5212418 60.3858971,48.0050975 60.300575,47.2435069 C60.3015907,46.9950304 60.4102748,46.7889767 60.4001174,46.3910103 C60.370661,45.5607351 59.7734063,44.7577318 59.7104304,44.263809 L58.9902712,44.263809 C58.9719879,44.9395439 58.4346618,45.3314499 58.3757489,46.3950506 C58.3452767,46.642517 58.441772,46.8606915 58.4356775,47.1778526 C58.3361351,47.9020707 58.2518287,48.7485069 58.4112998,50.1858324 Z" id="Stroke-404" stroke="#5B5B5B" stroke-width="0.396"></path>
            <polyline id="Stroke-405" stroke="#5B5B5B" stroke-width="0.396" points="12.917758 37.8946127 12.917758 39.3146109 62.1942768 39.3146109 62.1942768 37.8703565 12.8832436 37.8703565"></polyline>
            <polyline id="Stroke-406" stroke="#5B5B5B" stroke-width="0.394" stroke-linejoin="round" points="12.9112376 35.0051754 12.9112376 37.7751854 62.1867787 37.7751854 62.1867787 34.9574166 12.8769091 34.9574166"></polyline>
            <path d="M60.7792581,31.0546 C60.8896645,31.4111419 58.5893613,31.5610516 58.4809806,31.0546 L58.4809806,37.5432581 C58.550871,37.7995226 60.780271,37.8390258 60.7792581,37.5432581 L60.7792581,31.0546 Z" id="Stroke-407" stroke="#5B5B5B" stroke-width="0.397" stroke-linejoin="round"></path>
            <path d="M60.7731806,31.0404194 C60.3599161,30.6200645 58.2125613,30.876329 58.5093419,31.0404194" id="Stroke-408" stroke="#5B5B5B" stroke-width="0.397"></path>
            <path d="M57.3951484,31.0546 C57.5055548,31.4111419 55.2052516,31.5610516 55.096871,31.0546 L55.096871,37.5432581 C55.1667613,37.7995226 57.3951484,37.8390258 57.3951484,37.5432581 L57.3951484,31.0546 Z" id="Stroke-409" stroke="#5B5B5B" stroke-width="0.397" stroke-linejoin="round"></path>
            <path d="M57.389071,31.0404194 C56.9758065,30.6200645 54.8284516,30.876329 55.1252323,31.0404194" id="Stroke-410" stroke="#5B5B5B" stroke-width="0.397"></path>
            <path d="M54.0110387,31.0546 C54.1204323,31.4111419 51.8211419,31.5610516 51.7127613,31.0546 L51.7127613,37.5432581 C51.7826516,37.7995226 54.0110387,37.8390258 54.0110387,37.5432581 L54.0110387,31.0546 Z" id="Stroke-411" stroke="#5B5B5B" stroke-width="0.397" stroke-linejoin="round"></path>
            <path d="M54.0049613,31.0404194 C53.5916968,30.6200645 51.4443419,30.876329 51.7411226,31.0404194" id="Stroke-412" stroke="#5B5B5B" stroke-width="0.397"></path>
            <path d="M50.6259161,31.0546 C50.7363226,31.4111419 48.4360194,31.5610516 48.3286516,31.0546 L48.3286516,37.5432581 C48.3985419,37.7995226 50.626929,37.8390258 50.6259161,37.5432581 L50.6259161,31.0546 Z" id="Stroke-413" stroke="#5B5B5B" stroke-width="0.397" stroke-linejoin="round"></path>
            <path d="M50.6198387,31.0404194 C50.2075871,30.6200645 48.0602323,30.876329 48.3570129,31.0404194" id="Stroke-414" stroke="#5B5B5B" stroke-width="0.397"></path>
            <path d="M47.2519382,32.8098389 C47.362709,33.0733343 45.0619285,33.1843859 44.9542065,32.8098389 L44.9542065,37.6032329 C45.0243274,37.7930303 47.2529545,37.8223075 47.2519382,37.6032329 L47.2519382,32.8098389 Z" id="Stroke-415" stroke="#5B5B5B" stroke-width="0.394" stroke-linejoin="round"></path>
            <path d="M47.2458407,32.7987338 C46.8332449,32.4887986 44.6859176,32.678596 44.9826613,32.7987338" id="Stroke-416" stroke="#5B5B5B" stroke-width="0.394"></path>
            <path d="M43.8678397,32.8098389 C43.9775942,33.0733343 41.67783,33.1843859 41.5701079,32.8098389 L41.5701079,37.6032329 C41.6402289,37.7930303 43.8688559,37.8223075 43.8678397,37.6032329 L43.8678397,32.8098389 Z" id="Stroke-417" stroke="#5B5B5B" stroke-width="0.394" stroke-linejoin="round"></path>
            <path d="M43.8617422,32.7987338 C43.4491464,32.4887986 41.3008028,32.678596 41.5975466,32.7987338" id="Stroke-418" stroke="#5B5B5B" stroke-width="0.394"></path>
            <path d="M40.4837411,32.8098389 C40.5934957,33.0733343 38.2937314,33.1843859 38.1849931,32.8098389 L38.1849931,37.6032329 C38.2551141,37.7930303 40.4837411,37.8223075 40.4837411,37.6032329 L40.4837411,32.8098389 Z" id="Stroke-419" stroke="#5B5B5B" stroke-width="0.394" stroke-linejoin="round"></path>
            <path d="M40.4776437,32.7987338 C40.0640316,32.4887986 37.9167042,32.678596 38.213448,32.7987338" id="Stroke-420" stroke="#5B5B5B" stroke-width="0.394"></path>
            <path d="M37.0682065,33.8046323 C36.967929,33.6547226 36.8332129,33.5352 36.6802645,33.4328968 C36.6417742,33.4288452 36.6802645,33.2850129 36.6417742,33.2819742 C36.2872581,33.2242387 35.4100839,33.1979032 34.8215871,33.2900774 C34.7993032,33.2890645 34.8418452,33.4288452 34.7851226,33.4328968 C34.6767419,33.5281097 34.5177161,33.6466194 34.424529,33.8046323 L34.424529,37.5189484 C34.4792258,37.8390258 37.0236387,37.7934452 37.0682065,37.5189484 L37.0682065,33.8046323 Z" id="Stroke-421" stroke="#5B5B5B" stroke-width="0.397" stroke-linejoin="round"></path>
            <path d="M34.4306065,33.8603419 C34.6321742,34.0072129 36.9223484,34.0517806 37.0823871,33.8269161" id="Stroke-422" stroke="#5B5B5B" stroke-width="0.397"></path>
            <path d="M33.2880516,33.8046323 C33.1867613,33.6547226 33.0530581,33.5352 32.9001097,33.4328968 C32.8616194,33.4288452 32.9001097,33.2850129 32.8616194,33.2819742 C32.5071032,33.2242387 31.629929,33.1979032 31.0404194,33.2900774 C31.0191484,33.2890645 31.0616903,33.4288452 31.0049677,33.4328968 C30.8955742,33.5281097 30.7375613,33.6466194 30.6443742,33.8046323 L30.6443742,37.5189484 C30.699071,37.8390258 33.2434839,37.7934452 33.2880516,37.5189484 L33.2880516,33.8046323 Z" id="Stroke-423" stroke="#5B5B5B" stroke-width="0.397" stroke-linejoin="round"></path>
            <path d="M30.6494387,33.8603419 C30.8520194,34.0072129 33.1421935,34.0517806 33.3012194,33.8269161" id="Stroke-424" stroke="#5B5B5B" stroke-width="0.397"></path>
            <path d="M29.7418774,33.8046323 C29.6405871,33.6547226 29.505871,33.5352 29.3539355,33.4328968 C29.3154452,33.4288452 29.3539355,33.2850129 29.3154452,33.2819742 C28.9599161,33.2242387 28.0837548,33.1979032 27.4942452,33.2900774 C27.4729742,33.2890645 27.5155161,33.4288452 27.4587935,33.4328968 C27.3494,33.5281097 27.1913871,33.6466194 27.0971871,33.8046323 L27.0971871,37.5189484 C27.1518839,37.8390258 29.6962968,37.7934452 29.7418774,37.5189484 L29.7418774,33.8046323 Z" id="Stroke-425" stroke="#5B5B5B" stroke-width="0.397" stroke-linejoin="round"></path>
            <path d="M27.1032645,33.8603419 C27.3058452,34.0072129 29.5950065,34.0517806 29.7550452,33.8269161" id="Stroke-426" stroke="#5B5B5B" stroke-width="0.397"></path>
            <path d="M26.0782065,33.8046323 C25.977929,33.6547226 25.8432129,33.5352 25.6902645,33.4328968 C25.6517742,33.4288452 25.6902645,33.2850129 25.6517742,33.2819742 C25.2972581,33.2242387 24.4200839,33.1979032 23.8305742,33.2900774 C23.8093032,33.2890645 23.8518452,33.4288452 23.7951226,33.4328968 C23.685729,33.5281097 23.5277161,33.6466194 23.434529,33.8046323 L23.434529,37.5189484 C23.4882129,37.8390258 26.0336387,37.7934452 26.0782065,37.5189484 L26.0782065,33.8046323 Z" id="Stroke-427" stroke="#5B5B5B" stroke-width="0.397" stroke-linejoin="round"></path>
            <path d="M23.4406065,33.8603419 C23.6421742,34.0072129 25.9323484,34.0517806 26.0913742,33.8269161" id="Stroke-428" stroke="#5B5B5B" stroke-width="0.397"></path>
            <path d="M21.6646603,31.6455569 C21.5549824,31.5647353 20.9984682,31.5788791 20.9690176,31.6455569 L20.9690176,32.0577469 L21.6646603,32.0577469 L21.6646603,31.6455569 Z" id="Stroke-429" stroke="#5B5B5B" stroke-width="0.394"></path>
            <path d="M22.1913894,37.6345859 C22.0837317,37.9699618 20.4292573,37.8800568 20.3998038,37.6345859 C20.2312079,36.0556927 20.3185528,35.565761 20.3998038,34.8434906 C20.3977725,34.6071112 20.2941775,34.4121487 20.3053495,34.0353559 C20.3327717,33.2474246 20.8994977,32.4847474 20.9594204,32.0170395 L21.6419292,32.0170395 C21.6602107,32.6574862 22.1690453,33.0292282 22.2259211,34.0383864 C22.2543589,34.2727455 22.1629515,34.47983 22.1680297,34.7808602 C22.262484,35.4677747 22.3427194,36.2708586 22.1913894,37.6345859 Z" id="Stroke-430" stroke="#5B5B5B" stroke-width="0.396"></path>
            <path d="M18.8638099,31.6455569 C18.7551475,31.5647353 18.1976178,31.5788791 18.1681672,31.6455569 L18.1681672,32.0577469 L18.8638099,32.0577469 L18.8638099,31.6455569 Z" id="Stroke-431" stroke="#5B5B5B" stroke-width="0.394"></path>
            <path d="M19.3912752,37.6345859 C19.2836176,37.9699618 17.6291432,37.8800568 17.5996897,37.6345859 C17.4310937,36.0556927 17.5184386,35.565761 17.5996897,34.8434906 C17.5976584,34.6071112 17.4940633,34.4121487 17.5052353,34.0353559 C17.5326576,33.2474246 18.0993836,32.4847474 18.1593062,32.0170395 L18.841815,32.0170395 C18.8600965,32.6574862 19.3689312,33.0292282 19.4258069,34.0383864 C19.4542448,34.2727455 19.3628373,34.47983 19.3679155,34.7808602 C19.4623699,35.4677747 19.5426053,36.2708586 19.3912752,37.6345859 Z" id="Stroke-432" stroke="#5B5B5B" stroke-width="0.396"></path>
            <path d="M16.063975,31.6455569 C15.9542971,31.5647353 15.3977829,31.5788791 15.3683323,31.6455569 L15.3683323,32.0577469 L16.063975,32.0577469 L16.063975,31.6455569 Z" id="Stroke-433" stroke="#5B5B5B" stroke-width="0.394"></path>
            <path d="M16.5911611,37.6345859 C16.4835034,37.9699618 14.829029,37.8800568 14.7995755,37.6345859 C14.6309796,36.0556927 14.7173088,35.565761 14.7995755,34.8434906 C14.7975442,34.6071112 14.6949648,34.4121487 14.7051212,34.0353559 C14.7325434,33.2474246 15.2992695,32.4847474 15.3591921,32.0170395 L16.0427165,32.0170395 C16.0599824,32.6574862 16.568817,33.0292282 16.6256928,34.0383864 C16.6541306,34.2727455 16.5627232,34.47983 16.5678014,34.7808602 C16.6622557,35.4677747 16.7424911,36.2708586 16.5911611,37.6345859 Z" id="Stroke-434" stroke="#5B5B5B" stroke-width="0.396"></path>
            <path d="M53.8434308,72.4919862 C53.4684056,72.426164 53.0757962,72.425629 52.659714,72.5090939 C52.6601749,71.8946973 52.8410575,71.6056232 53.3093972,71.6101185 C53.7094306,71.6131958 53.8438153,71.9192984 53.8434308,72.4919862 Z M58.722785,72.4919665 C58.3477598,72.4261443 57.9542629,72.4266874 57.5390682,72.5090743 C57.5386415,71.8957557 57.7204117,71.6056036 58.1887514,71.6100989 C58.5887847,71.6131762 58.7231695,71.9192788 58.722785,72.4919665 Z" id="Stroke-435" stroke="#5B5B5B" stroke-width="0.387"></path>
            <path d="M29.5042047,71.5564825 C29.6920603,71.4170514 30.6526623,71.4423106 30.703434,71.5564825 L30.703434,72.2677837 L29.5042047,72.2677837 L29.5042047,71.5564825 Z M34.0279698,71.5564825 C34.2168408,71.4170514 35.1764274,71.4423106 35.2271991,71.5564825 L35.2271991,72.2677837 L34.0279698,72.2677837 L34.0279698,71.5564825 Z M38.5527503,71.5564825 C38.7406059,71.4170514 39.7001924,71.4423106 39.7509642,71.5564825 L39.7509642,72.2677837 L38.5527503,72.2677837 L38.5527503,71.5564825 Z M43.0765154,71.5564825 C43.264371,71.4170514 44.224973,71.4423106 44.2757447,71.5564825 L44.2757447,72.2677837 L43.0765154,72.2677837 L43.0765154,71.5564825 Z M47.6002805,71.5564825 C47.7881361,71.4170514 48.748738,71.4423106 48.7995098,71.5564825 L48.7995098,72.2677837 L47.6002805,72.2677837 L47.6002805,71.5564825 Z" id="Stroke-436" stroke="#5B5B5B" stroke-width="0.394"></path>
            <path d="M15.4558903,72.3293935 C15.8276258,72.1804968 16.1983484,72.1906258 16.5700839,72.3293935 L16.5700839,72.8702839 L15.4558903,72.8702839 L15.4558903,72.3293935 Z M24.5041548,72.3293935 C24.8758903,72.1804968 25.2466129,72.1906258 25.6173355,72.3293935 L25.6173355,72.8702839 L24.5041548,72.8702839 L24.5041548,72.3293935 Z M19.980529,72.3293935 C20.3512516,72.1804968 20.7229871,72.1906258 21.0937097,72.3293935 L21.0937097,72.8702839 L19.980529,72.8702839 L19.980529,72.3293935 Z" id="Stroke-437" stroke="#5B5B5B" stroke-width="0.397"></path>
            <polyline id="Stroke-438" stroke="#5B5B5B" stroke-width="0.396" points="62.1597623 65.8508894 62.1597623 67.2698769 12.8832436 67.2698769 12.8832436 65.8266332 62.1942768 65.8266332"></polyline>
            <polyline id="Stroke-439" stroke="#5B5B5B" stroke-width="0.394" stroke-linejoin="round" points="62.1524502 62.9623595 62.1524502 65.7313533 12.8769091 65.7313533 12.8769091 62.9135845 62.1867787 62.9135845"></polyline>
            <path d="M38.6430456,57.6781844 L38.5986373,57.6751563 L38.5907534,57.6686813 L38.5706991,57.6686075 C38.5706991,57.6686075 38.5640786,57.4630276 38.7051486,57.4327488 C38.7051486,57.4327488 39.0703705,57.3724966 39.3561931,57.4315615 C39.3561931,57.4315615 39.4464421,57.4376232 39.4695205,57.6253581 C39.4695205,57.6253581 39.4759769,57.6375576 39.452353,57.6510789 L39.3986478,57.6644897 C39.3986478,57.6644897 39.3707278,57.6794277 39.3979565,57.6938522 C39.3979565,57.6938522 39.4624628,57.7485223 39.4123843,57.815663 C39.4123843,57.815663 39.3923458,57.834211 39.4002662,57.8836595 C39.4002662,57.8836595 39.4448338,58.0743383 39.4887197,58.3058392 C39.5527487,58.6419826 39.6240079,59.0583694 39.6240079,59.0583694 C39.6240079,59.0583694 39.6816267,59.4367463 39.6917973,59.605812 C39.6917973,59.605812 39.7005232,59.760548 39.6998477,59.8085323 C39.6998477,59.8085323 39.675783,60.1465005 39.737501,60.2914042 C39.737501,60.2914042 39.773379,60.3703205 39.8307511,60.4579105 C39.8307511,60.4579105 40.0092799,60.6813118 40.0429916,60.7394498 C40.0429916,60.7394498 40.2071825,60.9470415 40.2090051,61.4068625 L40.2199083,64.9715377 C40.2199083,64.9715377 40.2304314,65.5560132 40.0321376,65.6734607 C40.0321376,65.6734607 39.9083385,65.7997767 39.2630347,65.813877 C39.2630347,65.813877 38.7273418,65.8620428 38.1950739,65.7261522 C37.7889172,65.6566177 37.9106746,63.9682148 37.9068158,63.6408873 L37.8957591,62.4275672 L37.8836225,61.6296517 C37.8836225,61.6296517 37.8731663,61.1239608 37.9704087,60.9309385 C37.9704087,60.9309385 38.0790596,60.6777955 38.2414862,60.4943238 C38.2414862,60.4943238 38.3373715,60.390108 38.3558766,60.2526615 C38.3558766,60.2526615 38.4050937,60.0143407 38.3891872,59.8380917 C38.3891872,59.8380917 38.36238,59.4763012 38.4558255,59.0290063 L38.5819475,58.2638291 C38.5819475,58.2638291 38.643268,57.9403224 38.6417882,57.8844516 C38.6417882,57.8844516 38.6503513,57.8472396 38.619547,57.8392479 C38.619547,57.8392479 38.5564597,57.7688262 38.6223158,57.7260951 C38.6223158,57.7260951 38.652379,57.704719 38.6430456,57.6781844 Z" id="Stroke-440" stroke="#5B5B5B" stroke-width="0.396"></path>
            <path d="M39.4217747,57.6414357 C39.0477875,57.6231652 38.6091107,57.652601 38.589906,57.6556461" id="Stroke-441" stroke="#5B5B5B" stroke-width="0.398"></path>
            <path d="M41.9433955,57.6788603 L41.8989872,57.6758321 L41.891102,57.6679246 L41.871049,57.6692834 C41.871049,57.6692834 41.8644285,57.4637034 42.0047817,57.4327057 C42.0047817,57.4327057 42.3707204,57.3731724 42.656543,57.4322374 C42.656543,57.4322374 42.7460752,57.4375801 42.7691536,57.625315 C42.7691536,57.625315 42.7763268,57.6382334 42.7534185,57.6510412 L42.6982808,57.6644466 C42.6982808,57.6644466 42.6703609,57.6793846 42.6975895,57.6938092 C42.6975895,57.6938092 42.7620959,57.7484792 42.7134498,57.8156252 C42.7134498,57.8156252 42.6926957,57.8348869 42.6998993,57.8836164 C42.6998993,57.8836164 42.7444668,58.0742952 42.7883528,58.3057962 C42.8530973,58.641226 42.9250734,59.0583316 42.9250734,59.0583316 C42.9250734,59.0583316 42.9819766,59.4374221 42.9921472,59.6064878 C42.9921472,59.6064878 43.0001563,59.7605049 43.0001976,59.8092081 C43.0001976,59.8092081 42.9761329,60.1471763 43.037134,60.2913611 C43.037134,60.2913611 43.0730121,60.3702774 43.1303841,60.4578674 C43.1303841,60.4578674 43.3096297,60.6819877 43.3426246,60.7394067 C43.3426246,60.7394067 43.5068155,60.9469985 43.5086382,61.4068195 L43.5195414,64.9714947 C43.5195414,64.9714947 43.5300644,65.5559702 43.3317707,65.6734176 C43.3317707,65.6734176 43.2086871,65.7990201 42.5626678,65.813834 C42.5626678,65.813834 42.0276917,65.8627186 41.4961393,65.7261144 C41.0885502,65.6565747 41.2103077,63.9681718 41.2064488,63.6408443 L41.196109,62.428243 L41.1832556,61.6296087 C41.1832556,61.6296087 41.1727994,61.1239177 41.2700417,60.9308955 C41.2700417,60.9308955 41.3794094,60.6784714 41.5418361,60.4949996 C41.5418361,60.4949996 41.6377213,60.3907838 41.6562265,60.2533373 C41.6562265,60.2533373 41.7054423,60.0135841 41.6895371,59.8387675 C41.6895371,59.8387675 41.6634455,59.4762634 41.7554586,59.0289632 L41.8815805,58.263786 C41.8815805,58.263786 41.9436179,57.9409982 41.9414212,57.8844086 C41.9414212,57.8844086 41.9514168,57.8472018 41.9206124,57.8392101 C41.9206124,57.8392101 41.8568096,57.769502 41.9219489,57.726052 C41.9219489,57.726052 41.9527277,57.7039623 41.9433955,57.6788603 Z" id="Stroke-442" stroke="#5B5B5B" stroke-width="0.396"></path>
            <path d="M42.720948,57.6414357 C42.3479716,57.6231652 41.9092948,57.652601 41.8890792,57.6556461" id="Stroke-443" stroke="#5B5B5B" stroke-width="0.398"></path>
            <path d="M45.2430285,57.6788172 L45.1986202,57.675789 L45.1907351,57.6678816 L45.170682,57.6692403 C45.170682,57.6692403 45.1640616,57.4636604 45.3051315,57.4333815 C45.3051315,57.4333815 45.6710691,57.3724158 45.956176,57.4321943 C45.956176,57.4321943 46.0464251,57.4382559 46.0702191,57.6252773 C46.0702191,57.6252773 46.0766754,57.6374768 46.0530516,57.6509981 L45.9986307,57.6651224 C45.9986307,57.6651224 45.9714264,57.6793468 45.998655,57.6937714 C45.998655,57.6937714 46.0624457,57.749155 46.0130828,57.8155821 C46.0130828,57.8155821 45.9923287,57.8348438 45.9995323,57.8835734 C45.9995323,57.8835734 46.0448167,58.074971 46.0887026,58.306472 C46.1534472,58.6419018 46.2247065,59.0582886 46.2247065,59.0582886 C46.2247065,59.0582886 46.2816096,59.4373791 46.2917802,59.6064448 C46.2917802,59.6064448 46.3005062,59.7611807 46.2998307,59.8091651 C46.2998307,59.8091651 46.2757659,60.1471332 46.3374827,60.2906045 C46.3374827,60.2906045 46.3733607,60.3695208 46.4307328,60.4571108 C46.4307328,60.4571108 46.6092628,60.6819446 46.6429745,60.7400825 C46.6429745,60.7400825 46.8071654,60.9476743 46.8082712,61.4067764 L46.8198912,64.9721705 C46.8198912,64.9721705 46.8296975,65.5559272 46.6321206,65.6740935 C46.6321206,65.6740935 46.509037,65.7996959 45.8623008,65.8137909 C45.8623008,65.8137909 45.3280404,65.861962 44.7957724,65.7260714 C44.3889001,65.6572505 44.5106575,63.9688476 44.5067987,63.6415201 L44.495742,62.4282 L44.4828886,61.6295656 C44.4828886,61.6295656 44.4731492,61.1245935 44.5696748,60.9308524 C44.5696748,60.9308524 44.6790425,60.6784283 44.8414691,60.4949566 C44.8414691,60.4949566 44.9373544,60.3907408 44.9565751,60.2525807 C44.9565751,60.2525807 45.0057922,60.0142599 44.9891701,59.8387244 C44.9891701,59.8387244 44.9630786,59.4762204 45.0565241,59.0289254 L45.182646,58.2637483 C45.182646,58.2637483 45.2432509,57.9409551 45.2410543,57.8843656 C45.2410543,57.8843656 45.2510498,57.8471588 45.2202455,57.8391671 C45.2202455,57.8391671 45.1564426,57.769459 45.2222987,57.7267278 C45.2222987,57.7267278 45.2530775,57.7046381 45.2430285,57.6788172 Z" id="Stroke-444" stroke="#5B5B5B" stroke-width="0.396"></path>
            <path d="M46.0211321,57.6414357 C45.6481557,57.6231652 45.2094788,57.652601 45.1892633,57.6556461" id="Stroke-445" stroke="#5B5B5B" stroke-width="0.398"></path>
            <path d="M48.5433784,57.679493 L48.4982532,57.675746 L48.4910849,57.6685574 L48.4717475,57.6692025 C48.4717475,57.6692025 48.4644114,57.4643362 48.6054802,57.4326249 C48.6054802,57.4326249 48.9714189,57.3730916 49.255809,57.4321513 C49.255809,57.4321513 49.3460581,57.4382129 49.3698521,57.6252342 C49.3698521,57.6252342 49.3770253,57.6381526 49.3534015,57.6516739 L49.2989794,57.6643658 C49.2989794,57.6643658 49.2710594,57.6793038 49.2982881,57.6937284 C49.2982881,57.6937284 49.3627944,57.7483984 49.3134327,57.8162579 C49.3134327,57.8162579 49.2933942,57.834806 49.2998822,57.8842492 C49.2998822,57.8842492 49.3444497,58.074928 49.3890513,58.3057154 C49.4530802,58.6418587 49.5243395,59.0582455 49.5243395,59.0582455 C49.5243395,59.0582455 49.5819595,59.4380549 49.5914132,59.6064017 C49.5914132,59.6064017 49.6001392,59.7611377 49.5994637,59.809122 C49.5994637,59.809122 49.5768314,60.1470954 49.6378326,60.2912803 C49.6378326,60.2912803 49.6737106,60.3701966 49.7310827,60.4577866 C49.7310827,60.4577866 49.9096126,60.6826204 49.9426076,60.7400395 C49.9426076,60.7400395 50.1075141,60.9469177 50.1086211,61.4074522 L50.1195243,64.9721274 C50.1195243,64.9721274 50.1300473,65.556603 49.9317536,65.6740504 C49.9317536,65.6740504 49.8086701,65.7996528 49.1626507,65.8144668 C49.1626507,65.8144668 48.6283902,65.8626378 48.0961223,65.7267472 C47.6892488,65.6564939 47.8110062,63.9680909 47.8064317,63.6414771 L47.7953751,62.4281569 L47.7839541,61.6295278 C47.7839541,61.6295278 47.7727823,61.1245505 47.8700246,60.9315282 C47.8700246,60.9315282 47.9793924,60.6791041 48.141819,60.4956324 C48.141819,60.4956324 48.2377042,60.3914166 48.256925,60.2532565 C48.256925,60.2532565 48.3054252,60.0142168 48.2902356,59.8386867 C48.2902356,59.8386867 48.2634284,59.4768962 48.3561571,59.0288824 L48.4822791,58.2637052 C48.4822791,58.2637052 48.542884,57.9409121 48.5414041,57.8850414 C48.5414041,57.8850414 48.5513997,57.8478346 48.5205954,57.8398429 C48.5205954,57.8398429 48.4567925,57.7701348 48.5219318,57.7266848 C48.5219318,57.7266848 48.5527106,57.7045951 48.5433784,57.679493 Z" id="Stroke-446" stroke="#5B5B5B" stroke-width="0.396"></path>
            <path d="M49.3213161,57.6414357 C48.9483397,57.6231652 48.5096629,57.652601 48.4894474,57.6556461" id="Stroke-447" stroke="#5B5B5B" stroke-width="0.398"></path>
            <path d="M15.2610784,57.3797446 C15.6016981,57.2976506 15.9417951,57.3093805 16.2818088,57.3576422 C17.5939807,57.6368492 16.8265419,59.5182543 16.7492156,60.053097 C17.2187976,61.6339597 17.3195861,64.1496867 17.1299689,65.6384578 C16.8517078,65.8506115 15.0995066,65.9460213 14.4057726,65.6777247 C13.9755533,64.1385854 14.1591676,61.4761456 14.691108,60.0450433 C14.6914051,59.4834167 13.7631912,57.7398461 15.2610784,57.3797446 Z" id="Stroke-448" stroke="#5B5B5B" stroke-width="0.385"></path>
            <path d="M16.2900564,57.2608729 C15.961721,57.2030349 15.6169684,57.2032838 15.2524507,57.2760893 C15.252926,56.7379792 15.4116003,56.4839959 15.8220033,56.4883991 C16.1722843,56.4918398 16.2898491,56.7594273 16.2900564,57.2608729 Z" id="Stroke-449" stroke="#5B5B5B" stroke-width="0.387"></path>
            <path d="M18.8911429,57.3795944 C19.2324911,57.2982466 19.572588,57.3099765 19.9126017,57.3582382 C21.2240452,57.6366991 20.4580385,59.5181627 20.3807122,60.0530053 C20.8502942,61.633868 20.950379,64.1502827 20.7607618,65.6390538 C20.4832044,65.8505198 18.7302747,65.9451835 18.0365656,65.6783207 C17.6063463,64.1391814 17.7899605,61.4767416 18.3226046,60.0449516 C18.322198,59.4840127 17.3932556,57.739696 18.8911429,57.3795944 Z" id="Stroke-450" stroke="#5B5B5B" stroke-width="0.385"></path>
            <path d="M19.9209752,57.2610643 C19.5926398,57.2032263 19.2478871,57.2034752 18.8843782,57.2762116 C18.8838447,56.7381706 19.0425191,56.4841874 19.452922,56.4885906 C19.803203,56.4920312 19.9207678,56.7596188 19.9209752,57.2610643 Z" id="Stroke-451" stroke="#5B5B5B" stroke-width="0.387"></path>
            <path d="M22.5226395,57.3795028 C22.8625555,57.2980965 23.2026525,57.3098264 23.5440983,57.3581465 C24.8555418,57.6366074 24.0888314,59.5187586 24.0115051,60.0536013 C24.4810872,61.634464 24.5811719,64.1508786 24.3915299,65.638216 C24.1139974,65.8511158 22.3610677,65.9457795 21.6680622,65.678229 C21.2371144,64.1383437 21.4207286,61.4759038 21.9533975,60.0455476 C21.9529909,59.4846087 21.0240486,57.740292 22.5226395,57.3795028 Z" id="Stroke-452" stroke="#5B5B5B" stroke-width="0.385"></path>
            <path d="M23.5518939,57.2612557 C23.2235585,57.2034178 22.8788059,57.2036666 22.515297,57.276403 C22.5147635,56.7383621 22.6734378,56.4843788 23.0837196,56.4877732 C23.4341217,56.4922226 23.5526953,56.759741 23.5518939,57.2612557 Z" id="Stroke-453" stroke="#5B5B5B" stroke-width="0.387"></path>
            <path d="M52.3870434,58.6045371 C52.5139728,58.5105726 53.1567435,58.5277489 53.1912683,58.6045371 L53.1912683,59.0804218 L52.3870434,59.0804218 L52.3870434,58.6045371 Z" id="Stroke-454" stroke="#5B5B5B" stroke-width="0.394"></path>
            <path d="M51.7643015,65.5338019 C51.8882217,65.9206576 53.7988274,65.8166207 53.8323468,65.5338019 C54.0273687,63.7106308 53.9268105,63.1449932 53.8333625,62.3106778 C53.8343783,62.0379597 53.9542355,61.8127147 53.9420466,61.3773758 C53.9369679,60.1471141 53.2909577,59.4643087 53.1863365,59.0461409 L52.3981228,59.0461409 C52.2264629,59.7309664 51.6322553,60.1955973 51.6363183,61.2824295 C51.637334,61.6339328 51.7551598,62.0076577 51.7907107,62.2793657 C51.6810108,63.0732785 51.5885785,63.9591073 51.7643015,65.5338019 Z" id="Stroke-455" stroke="#5B5B5B" stroke-width="0.396"></path>
            <path d="M55.6100356,58.6045371 C55.7359496,58.5105726 56.3787203,58.5277489 56.4132451,58.6045371 L56.4132451,59.0804218 L55.6100356,59.0804218 L55.6100356,58.6045371 Z" id="Stroke-456" stroke="#5B5B5B" stroke-width="0.394"></path>
            <path d="M54.9862267,65.5338019 C55.1101469,65.9206576 57.0207526,65.8166207 57.054272,65.5338019 C57.249294,63.7106308 57.1487358,63.1449932 57.0552878,62.3106778 C57.0573192,62.0379597 57.1761607,61.8127147 57.1639719,61.3773758 C57.1588932,60.1471141 56.5128829,59.4643087 56.4082618,59.0461409 L55.620048,59.0461409 C55.4483881,59.7309664 54.8551963,60.1955973 54.8582435,61.2824295 C54.860275,61.6339328 54.977085,62.0076577 55.0126359,62.2793657 C54.9039518,63.0732785 54.8115195,63.9591073 54.9862267,65.5338019 Z" id="Stroke-457" stroke="#5B5B5B" stroke-width="0.396"></path>
            <path d="M58.8320124,58.6045371 C58.9579264,58.5105726 59.600697,58.5277489 59.6352219,58.6045371 L59.6352219,59.0804218 L58.8320124,59.0804218 L58.8320124,58.6045371 Z" id="Stroke-458" stroke="#5B5B5B" stroke-width="0.394"></path>
            <path d="M58.2081519,65.5338019 C58.3320721,65.9206576 60.2426778,65.8166207 60.2761972,65.5338019 C60.4712192,63.7106308 60.370661,63.1449932 60.277213,62.3106778 C60.2792445,62.0379597 60.398086,61.8127147 60.3858971,61.3773758 C60.3808184,60.1471141 59.7348082,59.4643087 59.630187,59.0461409 L58.8419733,59.0461409 C58.6713291,59.7309664 58.0771215,60.1955973 58.0811845,61.2824295 C58.0822002,61.6339328 58.1990103,62.0076577 58.2345611,62.2793657 C58.125877,63.0732785 58.032429,63.9591073 58.2081519,65.5338019 Z" id="Stroke-459" stroke="#5B5B5B" stroke-width="0.396"></path>
            <path d="M27.213671,58.3644968 C27.5114645,58.2530774 27.810271,58.2601677 28.1080645,58.3644968 L28.1080645,58.770671 L27.213671,58.770671 L27.213671,58.3644968 Z" id="Stroke-460" stroke="#5B5B5B" stroke-width="0.397"></path>
            <path d="M27.2318238,59.2720903 C27.2654769,59.2590108 27.2511998,58.813301 27.255279,58.7760747 C27.3123873,58.770038 28.0527555,58.7821114 28.0517358,58.7720502 C28.0598941,58.9712614 28.0405181,59.2318456 28.0609139,59.2710842 C28.5799875,59.5517907 29.2010402,59.4642586 29.0042205,61.5086879 C29.2428516,62.8478293 29.2112381,64.1869707 29.0052403,65.5271183 C28.8869446,65.9205099 26.3405265,65.9315772 26.2885172,65.5140387 C26.0825194,64.1618178 26.0274507,62.810603 26.2660818,61.4593881 C26.0570246,59.6524024 26.6974533,59.4743197 27.2318238,59.2720903 Z" id="Stroke-461" stroke="#5B5B5B" stroke-width="0.394"></path>
            <path d="M34.4802387,58.3644968 C34.7780323,58.2530774 35.0768387,58.2601677 35.3746323,58.3644968 L35.3746323,58.770671 L34.4802387,58.770671 L34.4802387,58.3644968 Z" id="Stroke-462" stroke="#5B5B5B" stroke-width="0.397"></path>
            <path d="M34.4988543,59.2720903 C34.5325074,59.2590108 34.5182303,58.813301 34.5223094,58.7760747 C34.5794177,58.770038 35.319786,58.7821114 35.3187662,58.7720502 C35.3269245,58.9712614 35.3075485,59.2318456 35.3269245,59.2710842 C35.8470179,59.5517907 36.4680706,59.4642586 36.271251,61.5086879 C36.509882,62.8478293 36.4782685,64.1869707 36.2722707,65.5271183 C36.153975,65.9205099 33.6075569,65.9315772 33.5555476,65.5140387 C33.3495498,64.1618178 33.2944811,62.810603 33.5331122,61.4593881 C33.3230353,59.6524024 33.9644838,59.4743197 34.4988543,59.2720903 Z" id="Stroke-463" stroke="#5B5B5B" stroke-width="0.394"></path>
            <path d="M30.8469548,58.3644968 C31.1447484,58.2530774 31.4435548,58.2601677 31.7413484,58.3644968 L31.7413484,58.770671 L30.8469548,58.770671 L30.8469548,58.3644968 Z" id="Stroke-464" stroke="#5B5B5B" stroke-width="0.397"></path>
            <path d="M30.865339,59.2720903 C30.8989921,59.2590108 30.8847151,58.813301 30.8887942,58.7760747 C30.9459025,58.770038 31.6862708,58.7821114 31.685251,58.7720502 C31.6934093,58.9712614 31.6740333,59.2318456 31.6934093,59.2710842 C32.2135027,59.5517907 32.8345554,59.4642586 32.6377357,61.5086879 C32.8773866,62.8478293 32.8447533,64.1869707 32.6387555,65.5271183 C32.5204598,65.9205099 29.9740417,65.9315772 29.9220324,65.5140387 C29.7160346,64.1618178 29.6609659,62.810603 29.899597,61.4593881 C29.68952,59.6524024 30.3309686,59.4743197 30.865339,59.2720903 Z" id="Stroke-465" stroke="#5B5B5B" stroke-width="0.394"></path>
            <polygon id="Stroke-466" stroke="#5B5B5B" stroke-width="0.638" stroke-linejoin="round" points="8.3139036 12.3018008 8.3139036 92.8481449 67.4125648 92.8481449 67.4125648 12.3018008"></polygon>
            <polygon id="Stroke-467" stroke="#5B5B5B" stroke-width="0.662" stroke-linejoin="round" points="8.5232079 15.8207368 67.4148236 15.8207368 67.4148236 12.4387636 8.5232079 12.4387636"></polygon>
            <polygon id="Stroke-468" stroke="#5B5B5B" stroke-width="0.625" stroke-linejoin="round" points="8.27326643 92.8436653 67.4944347 92.8436653 67.4944347 86.7375476 8.27326643 86.7375476"></polygon>
            <polygon id="Stroke-469" stroke="#5B5B5B" stroke-width="0.609" stroke-linejoin="round" points="13.0644253 15.8126316 62.8684731 15.8126316 62.8684731 12.4312284 13.0644253 12.4312284"></polygon>
            <polygon id="Stroke-470" stroke="#5B5B5B" stroke-width="0.564" stroke-linejoin="round" points="36.5624699 145.336658 37.7973773 145.336658 37.7973773 93.0005986 36.5624699 93.0005986"></polygon>
            <polygon id="Stroke-471" stroke="#5B5B5B" stroke-width="0.563" stroke-linejoin="round" points="18.0071155 92.9963652 16.7726908 92.9970892 0.172879385 154.896843 1.4080156 154.896833"></polygon>
            <polygon id="Stroke-472" stroke="#5B5B5B" stroke-width="0.563" stroke-linejoin="round" points="56.3593407 92.9937162 57.5936736 92.9930904 74.1934849 154.892844 72.959152 154.89347"></polygon>
        </g>
    </g>
</svg>