<svg id="Layer_1" data-name="Layer 1" xmlns="http://www.w3.org/2000/svg" viewBox="0 0 357.34 93.96"><defs><style>.cls-1{fill:#ea2131;}.cls-1,.cls-2{fill-rule:evenodd;}.cls-2{fill:#303740;}</style></defs><title>logo</title><path class="cls-1" d="M60.08,9.26A6.06,6.06,0,1,1,48,9.26a6.06,6.06,0,1,1,12.12,0" transform="translate(-3.33 -3)"/><path class="cls-1" d="M17.14,97a2.06,2.06,0,0,0,2-2.09,2.11,2.11,0,0,0,0-.36c-0.12-1.36-1.37-12,.16-22,2.11-13.73,8.22-24.07,13.25-23.25,4.27,0.7,10,8.82,13.67,9.42,2.82,0.46,4.36-1.76,5.21-7.34,1.88-12.28-3-33.79-9-34.77C31.93,14.85,4.2,25.82,3.36,31.31c-0.62,4,7.08,5.39,8.84,5.68s7.08,0.49,7.42-1.69C20,32.75,15.71,32.62,16.89,31c1.59-2.19,15.92-8.88,22.48-7.81,3.69,0.61,5.3,11.63,4.18,18.91-0.23,1.53-.84,1.73-1.69,1.59-1.45-.24-6.13-7.61-11.74-8.53C20.5,33.59,12.76,50,11.14,60.59A66.94,66.94,0,0,0,15.3,95.73,2,2,0,0,0,17.14,97" transform="translate(-3.33 -3)"/><path class="cls-2" d="M113.15,38.51a0.82,0.82,0,0,0-.51.91V79.34a0.81,0.81,0,0,0,.95.91h3.94a0.81,0.81,0,0,0,1-.91V66.14h0.15a14.7,14.7,0,0,0,1.46,2.42l8.18,10.87a1.58,1.58,0,0,0,1.39.83h4.53a0.81,0.81,0,0,0,.95-0.91,1.07,1.07,0,0,0-.22-0.75L124,64.78l9.86-10.72a1.29,1.29,0,0,0,.37-0.75,0.81,0.81,0,0,0-1-.91h-3.79a1.7,1.7,0,0,0-1.39.91l-9.42,11.17h-0.15V39.42a0.81,0.81,0,0,0-1-.91h-3.94a1.87,1.87,0,0,0-.44,0" transform="translate(-3.33 -3)"/><path class="cls-2" d="M139.72,38.51a0.87,0.87,0,0,0-.58.91V79.34a0.81,0.81,0,0,0,.95.91h4a0.81,0.81,0,0,0,.95-0.91V66.14h0.07a14.7,14.7,0,0,0,1.46,2.42l8.25,10.87a1.47,1.47,0,0,0,1.31.83h4.6a0.81,0.81,0,0,0,1-.91,1.16,1.16,0,0,0-.29-0.75L150.53,64.78l9.78-10.72a1.28,1.28,0,0,0,.37-0.75,0.81,0.81,0,0,0-1-.91H156a1.7,1.7,0,0,0-1.39.91l-9.49,11.17h-0.07V39.42a0.81,0.81,0,0,0-.95-0.91h-4a1.28,1.28,0,0,0-.36,0" transform="translate(-3.33 -3)"/><path class="cls-2" d="M209.74,38.51a0.84,0.84,0,0,0-.51.91V79.34a0.81,0.81,0,0,0,.95.91h4.16a0.76,0.76,0,0,0,.88-0.91V39.42a0.76,0.76,0,0,0-.88-0.91h-4.16a1.86,1.86,0,0,0-.44,0" transform="translate(-3.33 -3)"/><path class="cls-2" d="M288.88,38.51a0.82,0.82,0,0,0-.51.91V74.21c0,1.93-1.27,3-3.87,3-3.59,0-7.37-3.51-7.37-10.87,0-6.77,2.86-11.32,7.23-11.32a8.4,8.4,0,0,1,1.24.08,1.52,1.52,0,0,0,.29.07,0.76,0.76,0,0,0,.88-0.9V53.08a0.73,0.73,0,0,0-.44-0.83,10,10,0,0,0-3-.45c-8.16,0-12.19,7.85-12.19,15.32s3.6,13.81,13.22,13.81c3.27,0,6.63-.84,8-1.81a4,4,0,0,0,1.9-3.92V39.42a0.76,0.76,0,0,0-.88-0.91h-4.09a1.86,1.86,0,0,0-.44,0" transform="translate(-3.33 -3)"/><path class="cls-2" d="M68.83,41.68a0.81,0.81,0,0,0-.88,1V79.34a0.75,0.75,0,0,0,.88.91H83.21a0.75,0.75,0,0,0,.88-0.91V76.71a0.75,0.75,0,0,0-.88-0.91H74.53V42.67a0.81,0.81,0,0,0-.88-1H68.83Z" transform="translate(-3.33 -3)"/><path class="cls-2" d="M98.25,51.72c-6.19,0-12,4.5-12,14.49,0,10.53,5.68,14.72,12,14.72,6.65,0,10.29-5.83,10.29-9.05a1.29,1.29,0,0,0-1.17-1.36,1.71,1.71,0,0,0-1.39,1c-1.09,2-3.25,4.6-6.57,4.6-5,0-7.51-4.1-7.89-10.94-0.34-5.38,1.9-10,6.06-10,3.69,0,5,3.16,5.11,6.49l-9,1.58a0.75,0.75,0,0,0-.58.91v1.21a0.76,0.76,0,0,0,.88.9,1.45,1.45,0,0,0,.29,0l12.56-2.11a1.48,1.48,0,0,0,1.53-1.73c0-5.43-3.65-10.64-10.15-10.64" transform="translate(-3.33 -3)"/><path class="cls-2" d="M174.4,51.72c-6.18,0-11.9,4.5-11.9,14.49,0,10.53,5.61,14.72,11.9,14.72,6.66,0,10.37-5.83,10.37-9.05a1.28,1.28,0,0,0-1.17-1.36,1.71,1.71,0,0,0-1.39,1c-1.09,2-3.25,4.6-6.57,4.6-5,0-7.51-4.1-7.88-10.94-0.34-5.38,1.9-10,6.06-10,3.69,0,5,3.16,5.11,6.49l-9,1.58a0.75,0.75,0,0,0-.58.91v1.21a0.76,0.76,0,0,0,.88.9,0.8,0.8,0,0,0,.22,0l12.63-2.11a1.48,1.48,0,0,0,1.53-1.73c0-5.43-3.72-10.64-10.22-10.64" transform="translate(-3.33 -3)"/><path class="cls-2" d="M198.93,51.72a20.26,20.26,0,0,0-8,1.59,3.12,3.12,0,0,0-2.11,3.32V79.34a0.76,0.76,0,0,0,.88.91h4.16a0.76,0.76,0,0,0,.88-0.91V57.84c0-1.72,1.31-2.72,3.29-2.72,3,0,2.38,3.25,5.19,3.25a2.41,2.41,0,0,0,2.48-2.72c0-2.15-2-3.92-6.79-3.92" transform="translate(-3.33 -3)"/><path class="cls-2" d="M231.42,51.72c-7.85,0-10.88,4.43-10.88,6.79A2.42,2.42,0,0,0,223.17,61a2.65,2.65,0,0,0,2.7-1.81c0.47-1.72,1.83-4.23,4.75-4.23,2.24,0,3.79,1.69,3.79,4.38V74.59c0,2.31-2.11,3-4.09,3-3.38,0-5.19-2.1-5.19-4.68,0-4,3.21-5.69,7.15-6.72a0.71,0.71,0,0,0,.51-0.83v-0.9a0.76,0.76,0,0,0-.88-0.91,1.94,1.94,0,0,0-.37,0c-5.87,1.32-12.19,3.58-12.19,9.81,0,5.21,5,7.55,11,7.55,3.27,0,6.6-.85,7.74-1.66,1.46-1,2-2,2-4.3V59.8c0-5.48-4-8.08-8.69-8.08" transform="translate(-3.33 -3)"/><path class="cls-2" d="M255.81,51.72a20.79,20.79,0,0,0-8.69,1.59A3.16,3.16,0,0,0,245,56.63V79.34a0.81,0.81,0,0,0,1,.91H250a0.81,0.81,0,0,0,1-.91V58.59c0-1.72.46-3.55,4.67-3.55s5.4,2.57,5.4,5.21V79.34a0.76,0.76,0,0,0,.88.91h4.16a0.76,0.76,0,0,0,.88-0.91V60c0-6.45-5.66-8.3-11.17-8.3" transform="translate(-3.33 -3)"/><path class="cls-1" d="M330.41,79H307a1,1,0,0,1-1.13-1.16,1.66,1.66,0,0,1,.39-1l13.21-17.28c3.22-4.16,4.52-7,4.52-9.71,0-4.22-2.2-7.28-6.6-7.28s-6.55,3.81-7.06,7.11a1.78,1.78,0,0,1-1.81,1.73c-1.35,0-1.92-1.16-1.92-2.66,0-5.37,4.12-11.44,12.48-11.44,7.9,0,11.58,5.6,11.58,10.69,0,4.56-2.71,8.73-5.48,12.08l-11,13.17h16.15a0.87,0.87,0,0,1,1,1v3.64a0.87,0.87,0,0,1-1,1" transform="translate(-3.33 -3)"/><path class="cls-1" d="M359.71,69.77h-3.5v8.14a0.89,0.89,0,0,1-1,1h-4c-0.85,0-1-.35-1-1.16v-8H335.83A1.61,1.61,0,0,1,334.08,68a2.89,2.89,0,0,1,.56-1.73l16.43-27.21a1.75,1.75,0,0,1,1.58-.92h2.54a0.91,0.91,0,0,1,1,1V66.07h3.5a0.83,0.83,0,0,1,1,1v1.73A0.83,0.83,0,0,1,359.71,69.77Zm-9.37-24a45.05,45.05,0,0,1-2.15,4.39L339,66.07h11.24V50.18c0-2,.23-4.39.23-4.39h-0.11Z" transform="translate(-3.33 -3)"/></svg>