<?xml version="1.0" encoding="UTF-8"?>
<svg width="151px" height="157px" viewBox="0 0 151 157" version="1.1" xmlns="http://www.w3.org/2000/svg" xmlns:xlink="http://www.w3.org/1999/xlink">
    <!-- Generator: Sketch 42 (36781) - http://www.bohemiancoding.com/sketch -->
    <title>Group 3</title>
    <desc>Created with Sketch.</desc>
    <defs></defs>
    <g id="Page-1" stroke="none" stroke-width="1" fill="none" fill-rule="evenodd">
        <g id="Group-3">
            <path d="M93.429,56.074 C96.781,53.864 99.846,53.401 100.645,53.917 C101.908,54.77 102.251,57.225 101.709,60.967 C101.205,61.546 100.079,60.416 99.219,59.807 C98.22,59.099 97.177,59.259 96.361,62.752 C96.084,63.937 96.126,65.609 95.992,68.211 C94.77,67.277 93.138,59.383 97.897,57.164 C98.702,57.014 99.464,57.689 100.487,58.573 C100.761,56.917 101.027,55.336 99.896,55.001 C99.239,54.807 97.73,54.841 95.565,56.078 C96.042,56.573 96.103,56.751 96.331,56.941 C95.247,57.607 93.385,57.266 93.429,56.074" id="Fill-211" fill="#E31E24"></path>
            <path d="M101.908,51.252 C102.484,51.252 102.951,51.719 102.951,52.296 C102.951,52.872 102.484,53.339 101.908,53.339 C101.331,53.339 100.864,52.872 100.864,52.296 C100.864,51.719 101.331,51.252 101.908,51.252" id="Fill-212" fill="#E31E24"></path>
            <path d="M40.5052574,18.9377704 C40.7126156,18.4006156 41.2586264,17.8104557 41.9734556,17.0378821 C42.7874762,16.4634787 43.3901306,15.9489816 43.5999132,15.7179747 C43.764928,15.2647857 43.5718142,14.4766415 43.1654312,14.683225 C42.935735,14.7985139 42.7210608,15.0882717 42.5041792,15.2910826 C42.0894888,15.6773751 41.6789948,16.0169462 41.6359352,16.0917285 C41.405807,16.4849165 41.0718632,17.0087974 40.7916674,17.5404947 C40.5192378,18.0600745 40.2581316,18.5894129 40.4501596,18.9950248 C40.3972944,19.1646817 40.4764118,19.7993878 40.6930728,20.0880202 C40.7689432,20.2999157 40.7268616,20.6483369 40.811946,20.8820381 C40.9083734,21.1452967 41.2049514,21.4477838 41.3028154,21.733652 C41.3935916,22.0026378 41.257201,22.7991254 41.3628256,23.0672193 C41.8710938,24.3513672 42.420175,25.4341883 42.8206448,26.3972362 C43.1041638,27.0796032 43.3021734,27.8132391 43.4169322,28.0225293 C43.3217248,29.7059258 41.7776182,32.7840948 41.2752108,34.5630689" id="Stroke-213" stroke="#5B5B5B" stroke-width="0.182"></path>
            <path d="M48.611,32.149 C48.626,31.815 48.192,30.163 48.894,28.784 C49.547,27.499 52.79,24.916 53.644,23.611 C53.602,23.434 53.539,21.354 53.651,20.649" id="Stroke-214" stroke="#5B5B5B" stroke-width="0.369"></path>
            <path d="M47.81637,16.3016114 C47.7985425,16.5346023 47.7775743,16.9245227 47.9082543,17.0816529 C48.0887796,17.2975083 48.5102808,17.2026364 48.6280509,17.2655359 C49.1866191,17.5648789 49.5337608,17.6711407 50.1069018,17.3375306 C50.4515925,17.1367575 50.7866532,17.2595599 51.0130746,17.118575 C51.1078092,17.0598873 51.1782138,16.9153208 51.124245,16.3176091" id="Stroke-215" stroke="#5B5B5B" stroke-width="0.245" stroke-linejoin="round"></path>
            <path d="M39.0322602,38.8148038 C40.197349,40.0265076 43.6887404,41.20935 44.759885,41.248992" id="Stroke-216" stroke="#5B5B5B" stroke-width="0.213" stroke-linejoin="round"></path>
            <path d="M49.4159209,52.098121 C49.9714487,53.8026762 50.5735816,57.3428713 50.1564293,58.2230441" id="Stroke-217" stroke="#5B5B5B" stroke-width="0.213" stroke-linejoin="round"></path>
            <path d="M52.089,18.773 L52,18.894 C51.5,19.575 50.543,20.515 49.526,20.495 C48.874,20.525 47.07,19.337 47.125,18.579 L47.13,18.546 L47.131,18.539 C47.151,18.44 47.221,18.373 47.29,18.382 C47.988,18.379 48.865,18.431 49.671,18.424 C50.489,18.416 51.299,18.434 52.012,18.446 C52.087,18.447 52.143,18.536 52.135,18.643 C52.131,18.693 52.114,18.739 52.089,18.773 Z M51.795,18.743 C49.203,19.005 49.965,19.014 47.462,18.647 C47.821,18.784 48.624,19.696 49.726,19.678 C50.319,19.668 51.108,19.136 51.795,18.743 L51.795,18.743 Z" id="Fill-218" fill="#5B5B5B"></path>
            <path d="M52.32,13.363 C51.511,13.484 50.937,13.743 50.824,14.026 C50.925,14.078 51.513,13.726 51.738,13.779 C51.86,13.808 51.764,14.106 51.83,14.166 C52.015,14.331 52.472,14.289 52.742,14.173 C52.854,14.125 52.735,13.688 52.839,13.7 C53.08,13.728 53.716,13.811 53.955,13.784 C53.91,13.51 53.129,13.242 52.32,13.363" id="Fill-219" fill="#5B5B5B"></path>
            <path d="M46.697,13.233 C47.593,13.277 48.247,13.497 48.402,13.794 C48.296,13.862 47.617,13.542 47.377,13.624 C47.247,13.668 47.384,13.984 47.319,14.056 C47.135,14.255 46.631,14.259 46.324,14.162 C46.197,14.122 46.279,13.632 46.167,13.656 C45.907,13.713 45.223,13.873 44.958,13.868 C44.977,13.564 45.801,13.188 46.697,13.233" id="Fill-220" fill="#5B5B5B"></path>
            <path d="M46.628,12.191 C47.597,12.232 48.535,12.526 48.703,12.8 C48.585,13.021 47.426,12.794 46.246,12.555 C45.715,12.448 45.431,12.726 44.8,12.869 C44.82,12.588 45.659,12.149 46.628,12.191" id="Fill-221" fill="#5B5B5B"></path>
            <path d="M52.422,12.215 C51.459,12.257 50.456,12.752 50.289,13.026 C50.407,13.247 51.629,12.819 52.802,12.58 C53.329,12.473 53.696,12.938 54.324,13.082 C54.303,12.8 53.385,12.174 52.422,12.215" id="Fill-222" fill="#5B5B5B"></path>
            <path d="M45.9077666,36.2627193 C46.7989032,37.0463178 51.9549243,37.335781 53.1493868,35.6057617 C56.258202,31.5805654 57.2896332,26.4003819 57.4258481,26.4235789 C57.9453471,26.6311922 58.8226817,26.8905377 59.6422513,27.1931319 C61.100883,27.733083 62.7196904,28.335455 63.3668752,28.8733733 C64.458928,29.7822871 64.4869714,30.7938671 65.1638395,32.1600354 C66.9189146,35.6988193 66.6343299,36.7057526 66.4492795,39.3436653 C65.5083076,39.2023027 64.7514957,38.6599209 62.5482009,38.7824261 C60.5538461,38.8930508 59.4210851,39.5708023 59.4831539,39.5982871" id="Stroke-223" stroke="#5B5B5B" stroke-width="0.832"></path>
            <path d="M40.3378816,24.5411688 C39.9413503,24.5636352 35.1498947,25.1347913 34.6453605,25.4347662 C32.9396941,26.4483528 32.425919,28.0245726 31.9525321,29.4491193 C31.5671945,30.6034465 31.0894497,31.579836 30.960856,32.7032219 C30.8558865,33.6088902 31.0764533,35.0803381 31.8314941,36.4419432 C32.7999806,34.6164244 35.8571538,33.6099039 38.5112626,34.161513" id="Stroke-224" stroke="#5B5B5B" stroke-width="0.832"></path>
            <path d="M42.5292782,31.0517716 C42.256122,30.644896 41.3288144,26.9240248 41.3281941,26.3621646" id="Stroke-225" stroke="#5B5B5B" stroke-width="0.415"></path>
            <path d="M58.5989902,51.6810294 C58.3507542,51.0663971 58.014406,47.3415252 58.4339731,45.1554217 C59.002609,44.1720834 59.5801853,42.3778391 59.6106518,41.1611979 C59.685472,38.1300536 58.9515705,37.0513551 58.6045929,36.5070728" id="Stroke-226" stroke="#5B5B5B" stroke-width="0.832"></path>
            <path d="M33.2354877,70.8791337 C38.7020949,73.006001 62.6735412,71.1957073 63.3516255,69.7363281 C63.3696225,65.3972557 61.570326,59.167397 61.5707601,59.1308619" id="Stroke-227" stroke="#5B5B5B" stroke-width="0.832"></path>
            <path d="M33.082513,70.8494545 C32.57033,62.1143667 35.9993202,55.3654358 36.1936613,55.5110675" id="Stroke-228" stroke="#5B5B5B" stroke-width="0.832"></path>
            <path d="M43.0519293,11.3363249 C42.9588867,10.3293869 42.7867724,8.4501358 43.2893892,6.3711022 C43.7144262,4.6126369 45.5337445,3.2298396 46.7373348,2.9085611 C46.8222241,1.237708 49.5296375,0.8068991 50.3666641,0.7900163 C51.5458505,0.7661079 52.6540452,1.8931924 52.7092686,2.7168609 C52.856763,2.7602136 54.5267908,3.3867455 55.7272541,5.3764556 C56.8746147,7.2789827 56.7829612,11.1718074 56.6821109,10.9003079 C56.7474574,10.9396308 56.1501754,11.1252209 55.9917917,11.382275 C56.3071223,11.1222321 56.8461622,10.7852621 57.0824174,11.3524519 C57.4404465,11.8960228 57.3740805,13.9404854 56.8399931,14.7874185 C56.8220884,15.9399809 56.0686007,15.3933833 55.7209485,15.322074 C55.5855477,16.3863031 54.9360706,18.5040368 54.6399994,19.3937966 C54.2742124,20.4941622 52.422715,21.4946581 51.8739298,22.3194944 C51.3190495,23.15517 50.0268017,23.0700616 49.0980361,23.0103921 C48.4285751,22.9679956 48.1826112,22.8334815 47.6622108,22.3306009" id="Stroke-229" stroke="#5B5B5B" stroke-width="0.602" stroke-linejoin="round"></path>
            <path d="M55.9449948,12.4343884 C56.8548174,11.6853742 56.6865132,12.9678556 56.5031286,13.7188438 C56.3896878,14.1979774 56.3248296,14.9502568 55.8993978,14.4300874" id="Stroke-230" stroke="#5B5B5B" stroke-width="0.26"></path>
            <path d="M43.7761695,11.2636673 C43.7518335,10.3080061 44.2676732,8.0365705 45.1311918,7.5569724 C46.056108,7.0439365 48.2666579,6.155016 49.7723483,6.6149429 C51.5334385,6.1596411 53.3124097,6.6842989 53.9463328,7.3276803 C55.1874106,7.8966021 55.5828321,9.3965602 55.8036211,11.6778203" id="Stroke-231" stroke="#5B5B5B" stroke-width="0.415" stroke-linejoin="round"></path>
            <path d="M39.3338157,37.5740362 C39.102687,37.4020962 38.528088,33.997804 38.20821,33.9902452 C33.4419099,33.8786104 32.727768,35.6441296 32.4104193,35.8918032 C31.9557465,36.0456306 32.5717869,41.6103254 33.0991467,45.6459028 C33.219492,46.5729088 34.0297308,49.8330156 36.1021251,51.768056 C36.4992438,52.1388632 39.0323922,53.848588 40.1748849,53.083533 C40.9393527,52.5725206 41.8937811,51.6618898 42.4366464,50.3678936 C42.8690394,49.336113 42.9236208,48.001887 43.4817768,46.9643876 C43.9979742,46.0065756 45.1908873,42.958419 44.7811068,41.2810448 C44.9425143,40.543062 45.2164713,39.7493116 45.39564,38.6872698 C45.6882312,36.9514472 45.9208611,35.4008808 45.8268342,36.0574636 C45.7990788,36.258605 44.3290068,35.8289754 43.335957,35.412131 C41.9871426,34.8467296 41.0103177,34.1899888 41.0142609,34.1178186 C40.8502635,35.133721 40.1002587,35.9556864 38.8754358,38.7920884 C38.1347529,39.3813094 37.4920692,40.9989136 36.8734689,41.7846888 C35.5855557,43.4247158 34.5598413,45.7404784 34.8853476,47.9788628" id="Stroke-232" stroke="#5B5B5B" stroke-width="0.555" stroke-linejoin="round"></path>
            <path d="M33.0849102,70.5279745 C33.472605,90.4571719 33.8502378,96.1262509 34.7949618,107.599965 C39.906018,108.66149 53.0202156,109.432836 60.7067298,107.339405" id="Stroke-233" stroke="#5B5B5B" stroke-width="0.665" stroke-linejoin="round"></path>
            <path d="M63.3120258,69.8482551 C62.7358326,84.5369244 61.1274873,102.391208 60.5751597,107.455041" id="Stroke-234" stroke="#5B5B5B" stroke-width="0.646" stroke-linejoin="round"></path>
            <path d="M59.8589409,39.3155724 C60.4399146,39.1251118 61.3663074,38.9535548 62.6651937,38.8521302 C63.9923976,38.7496238 65.1973659,39.1477216 65.5951836,39.2832042 C65.6663721,40.4245876 65.5608585,42.0072468 65.5789881,43.625298 C65.6139522,46.8861336 65.6709231,50.5304742 65.3370783,52.6733026 C65.1960912,53.576025 63.9706446,58.0573646 62.9013864,58.942827 C62.5117908,59.2649328 57.3888042,58.9389302 53.7670743,59.281786 C51.1363566,59.531624 50.5064577,59.042697 50.2393059,58.3197362 C49.5501018,58.302454 47.2831668,58.155638 45.4270674,58.221531 C44.996421,57.7710048 44.0431563,53.567436 44.4957105,52.4413926 C45.4473543,52.219221 47.3988831,52.2449566 49.503213,51.9422714 C50.2928412,51.2755552 54.0723315,51.7943814 54.8921856,51.9093624 C55.7155584,52.0250918 57.8771679,51.8121732 58.3522476,51.6727948 M58.6133892,51.398678 C58.7912091,51.0889354 58.502169,47.3287352 59.3843439,42.6786126" id="Stroke-235" stroke="#5B5B5B" stroke-width="0.555" stroke-linejoin="round"></path>
            <path d="M48.6830805,29.6884307 C49.9104794,27.8384854 52.2365486,26.9462178 53.7141447,25.4403041 C53.8147915,27.8047501 54.4987464,28.9428408 54.7294165,28.7202595 C54.6827558,28.126185 55.1209058,26.8648814 55.2192646,26.137705 C55.3476514,25.1811678 55.969493,24.6370734 55.8086612,24.4364108 C55.80735,24.4339044 53.6125607,21.4633281 53.6040821,21.5294883" id="Stroke-236" stroke="#5B5B5B" stroke-width="0.555"></path>
            <path d="M49.3641945,36.9570881 C49.440271,35.833935 49.5882897,34.9423897 49.3560836,34.4176804 C48.870131,33.324019 48.7987979,32.4765427 48.5385868,31.7948716 C47.912577,30.1574634 47.259594,29.3342756 46.9083684,28.9989428" id="Stroke-237" stroke="#5B5B5B" stroke-width="0.555"></path>
            <path d="M49.3934816,34.8443552 C48.7952528,33.4890116 47.2868626,31.3122637 46.5128892,30.5600118" id="Stroke-238" stroke="#5B5B5B" stroke-width="0.416"></path>
            <path d="M58.1709501,26.4739111 C56.8506155,25.9275091 56.656178,26.1544106 55.6546061,24.7237617" id="Stroke-239" stroke="#5B5B5B" stroke-width="0.269"></path>
            <path d="M42.3882138,25.7144042 C41.5879052,26.277166 39.5917154,27.5761666 38.9857551,27.6103175 C38.5331662,26.8357358 41.0837103,23.3986679 41.3564609,23.1549049" id="Stroke-240" stroke="#5B5B5B" stroke-width="0.555"></path>
            <path d="M42.7576356,40.7921381 C42.4819112,41.6348634 42.3856364,43.3701863 41.713356,44.0280046" id="Stroke-241" stroke="#5B5B5B" stroke-width="0.138"></path>
            <path d="M49.7860734,54.0798877 C50.6627862,53.9468881 52.2565924,53.2539342 53.1461498,53.5593429" id="Stroke-242" stroke="#5B5B5B" stroke-width="0.138"></path>
            <path d="M41.1996396,40.2166031 C40.9656032,40.6870024 40.6937492,41.4817265 40.1865396,42.1797841" id="Stroke-243" stroke="#5B5B5B" stroke-width="0.138"></path>
            <path d="M50.4470074,56.5507567 C50.973018,56.924921 51.8038952,56.8665146 52.6559504,56.5747257" id="Stroke-244" stroke="#5B5B5B" stroke-width="0.138"></path>
            <path d="M33.7533568,51.6877552 C33.2282134,52.1983117 32.2690976,52.1859932 31.659575,52.5275353" id="Stroke-245" stroke="#5B5B5B" stroke-width="0.114"></path>
            <path d="M34.3217778,50.270381 C34.053783,50.4639248 33.648378,50.8255332 33.2271816,51.0596363 C32.7016518,51.3521629 32.1807984,51.5768872 31.8780906,51.9467758" id="Stroke-246" stroke="#5B5B5B" stroke-width="0.114"></path>
            <path d="M43.159,16.151 C43.432,16.008 43.862,15.913 44.029,16.019 C44.346,16.219 44.236,16.976 43.679,17.259 C43.053,17.577 42.763,17.919 42.272,18.747 M40.768,20.189 C40.86,20.07 41.803,19.035 42.281,18.748 C42.584,18.806 44.002,18.621 44.114,18.692 C44.28,18.797 44.294,19.266 43.984,19.494 C43.704,19.699 42.931,19.611 42.666,19.746 C42.691,19.944 42.412,20.619 42.377,20.739 C42.596,20.917 43.122,21.17 43.668,21.603 C43.889,21.779 43.925,22.085 44.134,22.328 C44.311,22.52 44.472,22.766 44.635,23.15 C45.295,24.099 45.788,25.029 46.168,25.46 M46.216,23.054 C46.527,23.537 47.302,24.873 47.384,26.062 C47.476,27.392 45.18,35.104 45.67,35.909" id="Stroke-247" stroke="#5B5B5B" stroke-width="0.216"></path>
            <path d="M42.27,15.544 C41.758,13.764 41.274,11.243 43.938,11.229 C44.407,11.971 44.632,13.277 44.592,14.494 L44.084,14.825 L44.337,15.952" id="Stroke-248" stroke="#5B5B5B" stroke-width="0.567"></path>
            <path d="M43.161,18.662 L42.966,17.794" id="Stroke-249" stroke="#5B5B5B" stroke-width="0.567"></path>
            <path d="M44.355,15.761 C44.389,15.942 45.276,19.725 45.392,19.758 C45.695,19.841 46.089,19.588 46.598,19.636 C47.528,20.392 47.911,22.064 47.986,22.638 C46.758,23.452 44.828,23.673 44.128,21.914 L43.44,19.64" id="Stroke-250" stroke="#5B5B5B" stroke-width="0.567"></path>
            <path d="M58.183,51.709 C58.635,51.715 59.765,51.248 61.797,51.395" id="Stroke-251" stroke="#5B5B5B" stroke-width="0.183"></path>
            <path d="M58.143,51.886 C58.791,51.853 58.993,51.762 60.693,52.14" id="Stroke-252" stroke="#5B5B5B" stroke-width="0.183"></path>
            <path d="M31.816,54.25 C31.87,54.204 32.292,53.804 32.708,53.745 C33.053,53.697 33.59,53.703 34.096,53.891 C35.626,54.462 36.693,56.236 38.614,56.468 C39.499,56.574 40.514,56.445 41.217,56.558 C42.761,56.805 44.046,57.387 45.034,57.558 M41.09,52.421 C42.079,52.341 43.458,52.371 44.511,52.607 M34.224,54.032 C34.542,54.394 35.038,55.185 34.789,55.265 C34.632,55.602 34.308,55.461 33.931,55.242 C33.134,55.568 33.075,54.751 32.816,54.45 C32.203,54.951 31.822,54.59 31.411,54.074 C31.299,54.037 31.263,53.207 31.398,52.721 C31.458,52.504 31.774,52.414 31.818,52.271 C31.889,52.032 31.844,51.814 31.866,51.595 C31.895,51.311 31.954,51.007 31.976,51.009 C32.064,50.707 31.845,50.289 32.16,50.007 C32.705,49.521 33.409,49.158 33.968,48.836" id="Stroke-253" stroke="#5B5B5B" stroke-width="0.183"></path>
            <path d="M34.138599,49.3133113 C34.0996794,49.4447988 33.7054128,49.7342963 33.338877,50.0275876 C32.6987538,50.5401257 32.080263,50.9224894 31.9286922,51.2999289" id="Stroke-254" stroke="#5B5B5B" stroke-width="0.114"></path>
            <path d="M39.671,108.302 C42.785,108.792 46.066,108.877 49.179,108.8 C48.801,123.003 46.309,132.531 44.926,143.718 L45.094,150.281 C42.352,151.277 39.535,152.196 37.767,151.815 L40.434,143.144 C40.279,134.121 37.653,126.467 38.124,117.697 C38.261,115.148 39.29,110.858 39.671,108.302 Z M55.072,108.423 L49.097,108.7 C48.691,122.192 46.684,129.579 45.636,140.305 C47.268,143.373 52.516,149.112 56.586,149.31 C57.335,149.346 57.463,149.098 58.396,148.629 C54.291,145.013 54.319,144.804 51.79,140.103 C50.746,136.397 55.178,113.228 55.072,108.423 Z" id="Stroke-255" stroke="#5B5B5B" stroke-width="0.567" stroke-linejoin="round"></path>
            <path d="M37.762,152.069 C40.15,151.917 42.743,151.344 44.958,150.244 C45,152.019 44.882,153.919 44.815,154.916 C44.792,155.261 42.73,156.299 41.336,156.352 C40.568,156.382 38.39,155.574 37.51,154.528 L37.762,152.069 Z" id="Stroke-256" stroke="#5B5B5B" stroke-width="0.709" stroke-linejoin="round"></path>
            <path d="M45.73,140.891 C48.019,143.727 50.45,146.636 52.891,148.162 C56.006,149.669 57.364,149.433 58.294,148.648 C60.149,149.659 62.99,150.551 62.774,151.381 C62.375,152.924 54.837,152.455 53.503,151.908 C53.021,151.71 49.524,147.618 46.724,146.192 L46.404,150.502 C46.101,150.522 46.026,150.563 45.505,150.487 C45.165,148.143 45.164,143.512 45.73,140.891 Z" id="Stroke-257" stroke="#5B5B5B" stroke-width="0.709" stroke-linejoin="round"></path>
            <path d="M150.606,76.613 L150.625,114.447 L56.399,114.447 M36.612,114.447 L17.553,114.466 L17.553,76.613" id="Stroke-258" stroke="#5B5B5B" stroke-width="0.709" stroke-linejoin="round"></path>
            <polyline id="Stroke-259" stroke="#5B5B5B" stroke-width="0.709" points="150.539 76.941 150.539 143.62 133.601 131.242 133.73 114.36"></polyline>
            <path d="M0.952,65.438 L17.638,76.564 L17.42,142.527 L0.775,130.363 L0.952,65.438 Z M117.051,65.456 L120.758,65.423 L117.051,65.456 Z M139.947,68.753 L150.75,76.63 L64.363,76.672 L139.947,68.753 Z M31.637,76.686 L17.867,76.692 L0.848,65.361 L14.187,65.365 L31.637,76.686 Z M30.281,65.37 L32.275,65.371 L30.281,65.37 Z M64.182,65.423 L75.087,65.428 L64.182,65.423 Z" id="Stroke-260" stroke="#5B5B5B" stroke-width="0.709" stroke-linejoin="round"></path>
            <polygon id="Stroke-261" stroke="#5B5B5B" stroke-width="0.287" stroke-linejoin="round" points="121.737023 54.0829382 121.887413 51.7307026 122.405686 51.4361173 121.985719 50.3631708 121.896126 46.9140313 125.716123 50.7296861 125.666706 52.9450751 126.047033 54.5886331 125.569516 55.8768453 125.487178 58.0367189 125.764009 60.9324277 124.774959 61.8780161 124.481345 67.3544535 125.197026 67.8220802 125.188265 69.0819792 124.538412 69.3821439 124.787596 73.086135 121.508084 69.3405899 121.468072 65.5919317 121.621199 65.4565217 121.659654 63.728627 121.434224 62.8983794 121.491271 58.0059201 121.804179 57.0968915"></polygon>
            <polygon id="Stroke-262" stroke="#5B5B5B" stroke-width="0.286" stroke-linejoin="round" points="125.929 58.216 126.143 55.358 126.654 54.594 126.088 53.399 126.178 50.799 139.344 50.112 139.456 53.976 139.677 54.689 139.285 55.138 138.949 57.635 139.246 60.257 139.679 60.46 139.23 61.771 139.044 64.326 139 65.485 138.956 66.181 139.395 67.302 138.965 68.152 139.175 70.653 139.71 70.859 139.067 71.862 139.087 72.759 125.166 73.207 125.008 69.61 125.62 69.3 125.773 67.576 124.872 67.032 125.1 62.211 126.345 60.964"></polygon>
            <polyline id="Fill-263" fill="#5B5B5B" points="125.971 59.183 138.994 58.784 139.111 59.318 126.065 59.691 125.971 59.183"></polyline>
            <polyline id="Fill-264" fill="#5B5B5B" points="122.004 47.793 125.73 51.621 125.821 52.109 122.004 48.255 122.004 47.793"></polyline>
            <polyline id="Fill-265" fill="#5B5B5B" points="121.757 56.045 125.623 59.85 125.714 60.339 121.757 56.507 121.757 56.045"></polyline>
            <polyline id="Fill-266" fill="#5B5B5B" points="121.801 49.016 125.628 52.725 125.755 53.292 121.825 49.413 121.801 49.016"></polyline>
            <polyline id="Fill-267" fill="#5B5B5B" points="121.594 57.611 125.622 61.177 125.435 61.416 121.508 58.211 121.594 57.611"></polyline>
            <polyline id="Fill-268" fill="#5B5B5B" points="121.972 50.405 125.992 54.342 126.006 54.518 125.969 54.808 122.379 51.438 121.972 50.405"></polyline>
            <polyline id="Fill-269" fill="#5B5B5B" points="121.44 58.58 124.823 61.796 124.703 62.125 121.44 59.042 121.44 58.58"></polyline>
            <polyline id="Fill-270" fill="#5B5B5B" points="121.765 52.021 125.733 55.299 125.613 55.628 121.717 52.627 121.765 52.021"></polyline>
            <polyline id="Fill-271" fill="#5B5B5B" points="121.752 54.084 125.515 57.027 125.57 57.536 121.646 54.381 121.752 54.084"></polyline>
            <polyline id="Fill-272" fill="#5B5B5B" points="121.384 66.107 125.085 68.887 124.964 69.149 121.384 66.475 121.384 66.107"></polyline>
            <polyline id="Fill-273" fill="#5B5B5B" points="121.473 60.887 124.734 63.876 124.613 64.205 121.473 61.349 121.473 60.887"></polyline>
            <polyline id="Fill-274" fill="#5B5B5B" points="121.423 67.37 124.516 69.548 124.64 70.218 121.448 67.695 121.423 67.37"></polyline>
            <polyline id="Fill-275" fill="#5B5B5B" points="121.449 62.691 124.581 65.483 124.577 65.833 121.449 63.194 121.449 62.691"></polyline>
            <polyline id="Fill-276" fill="#5B5B5B" points="121.525 68.317 124.774 71.514 124.722 71.926 121.558 68.735 121.525 68.317"></polyline>
            <polyline id="Fill-277" fill="#5B5B5B" points="121.6 64.932 125.177 67.802 125.191 68.481 121.621 65.412 121.6 64.932"></polyline>
            <polyline id="Fill-278" fill="#5B5B5B" points="126.123 52.878 139.523 52.461 139.523 52.737 126.171 53.154 126.123 52.878"></polyline>
            <polyline id="Fill-279" fill="#5B5B5B" points="126.137 51.86 139.328 51.311 139.328 51.587 126.185 52.136 126.137 51.86"></polyline>
            <polyline id="Fill-280" fill="#5B5B5B" points="126.338 60.664 139.141 60.188 139.756 60.541 126.338 60.94 126.338 60.664"></polyline>
            <polyline id="Fill-281" fill="#5B5B5B" points="126.5 54.246 139.427 53.782 139.462 54.11 126.625 54.56 126.5 54.246"></polyline>
            <polyline id="Fill-282" fill="#5B5B5B" points="124.877 67.01 139.298 66.934 139.429 67.39 125.835 67.594 124.877 67.01"></polyline>
            <polyline id="Fill-283" fill="#5B5B5B" points="125.047 62.307 139.242 61.76 139.389 61.995 139.185 62.339 125.047 62.593 125.047 62.307"></polyline>
            <polyline id="Fill-284" fill="#5B5B5B" points="126.253 55.162 139.607 54.536 139.683 54.745 139.224 55.168 126.073 55.422 126.253 55.162"></polyline>
            <polyline id="Fill-285" fill="#5B5B5B" points="125.609 68.724 138.861 68.246 138.861 68.532 125.609 68.945 125.609 68.724"></polyline>
            <polyline id="Fill-286" fill="#5B5B5B" points="125.168 72.267 139.04 71.786 139.04 72.062 125.168 72.543 125.168 72.267"></polyline>
            <polyline id="Fill-287" fill="#5B5B5B" points="124.95 65.533 139.137 65.134 139.058 65.479 124.95 65.809 124.95 65.533"></polyline>
            <polyline id="Fill-288" fill="#5B5B5B" points="125.954 58.362 138.999 57.963 139.076 58.281 125.954 58.637 125.954 58.362"></polyline>
            <polyline id="Fill-289" fill="#5B5B5B" points="125.035 71.437 139.694 70.903 139.366 71.293 125.035 71.713 125.035 71.437"></polyline>
            <polyline id="Fill-290" fill="#5B5B5B" points="125.02 64.081 139.137 63.681 139.137 63.957 125.02 64.356 125.02 64.081"></polyline>
            <polyline id="Fill-291" fill="#5B5B5B" points="126.019 56.909 139.179 56.51 138.999 56.812 126.019 57.185 126.019 56.909"></polyline>
            <polyline id="Fill-292" fill="#5B5B5B" points="125.005 69.984 139.082 69.564 139.082 69.84 125.005 70.26 125.005 69.984"></polyline>
            <polygon id="Stroke-293" stroke="#5B5B5B" stroke-width="0.286" stroke-linejoin="round" points="122.231 46.36 134.937 45.965 139.373 49.601 126.172 50.116"></polygon>
            <path d="M113.700687,63.9505796 L117.220149,47.0711874 C117.36298,46.3826782 116.916717,45.8549237 116.229182,45.8548097 L81.6747039,45.8489057 C80.9871683,45.8487917 80.308848,46.4105397 80.1660176,47.0990489 L75.005677,71.9321236 C74.8620119,72.6200916 75.3068948,73.1828927 75.9952651,73.1835479 L107.652901,73.1885236" id="Stroke-294" stroke="#5B5B5B" stroke-width="0.597" stroke-linejoin="round"></path>
            <path d="M75.887,67.344 L67.893,67.204 L75.053,71.723 L75.887,67.344 Z M74.936,71.575 L67.84,67.2 L67.877,68.056 L75.535,73.108 C75.131,72.923 74.77,72.366 74.936,71.575 Z" id="Stroke-295" stroke="#5B5B5B" stroke-width="0.603" stroke-linejoin="round"></path>
            <polygon id="Stroke-296" stroke="#5B5B5B" stroke-width="0.85" points="105.023 29.615 124.608 29.615 124.608 9.88 105.023 9.88"></polygon>
            <polygon id="Fill-297" fill="#5B5B5B" points="114.288 11.995 115.192 11.995 115.192 9.886 114.288 9.886"></polygon>
            <polygon id="Fill-298" fill="#5B5B5B" points="104.966 20.1 107.075 20.1 107.075 19.196 104.966 19.196"></polygon>
            <polygon id="Fill-299" fill="#5B5B5B" points="114.288 29.817 115.192 29.817 115.192 27.708 114.288 27.708"></polygon>
            <polygon id="Fill-300" fill="#5B5B5B" points="122.504 20.1 124.613 20.1 124.613 19.196 122.504 19.196"></polygon>
            <path d="M114.804,18.932 C115.241,18.932 115.595,19.286 115.595,19.723 C115.595,20.159 115.241,20.514 114.804,20.514 C114.368,20.514 114.013,20.159 114.013,19.723 C114.013,19.286 114.368,18.932 114.804,18.932" id="Fill-301" fill="#5B5B5B"></path>
            <polyline id="Fill-302" fill="#5B5B5B" points="120.617 15.425 121.053 15.631 121.067 16.12 115.28 19.863 114.83 19.167 120.617 15.425"></polyline>
            <polyline id="Fill-303" fill="#5B5B5B" points="110.597 17.253 110.61 16.77 111.052 16.561 115.228 19.519 114.773 20.211 110.597 17.253"></polyline>
            <path d="M108.803014,65.3903097 C109.186519,66.0022528 115.248008,66.0355623 116.005562,65.3903097 L116.005562,74.4048121 C115.898391,75.4221794 109.152897,75.2699074 108.803014,74.4048121 L108.803014,65.3903097 Z M116.005562,67.1661819 C119.612615,65.6329932 117.781245,72.3729326 115.981396,72.1207321 L116.005562,67.1661819 Z" id="Stroke-304" stroke="#5B5B5B" stroke-width="0.455" stroke-linejoin="round"></path>
            <path d="M115.982447,67.5411517 C118.954877,66.0964711 117.399841,71.8590146 115.925709,71.7210181" id="Stroke-305" stroke="#5B5B5B" stroke-width="0.455" stroke-linejoin="round"></path>
            <path d="M108.848194,65.3922131 C108.64751,64.7755115 116.075959,64.8297584 115.965636,65.4036335" id="Stroke-306" stroke="#5B5B5B" stroke-width="0.455" stroke-linejoin="round"></path>
            <path d="M20.072,61.651 L20.072,60.06 L21.406,60.06 L21.406,61.651 L24.784,61.651 L24.784,59.826 L26.119,59.826 L26.119,61.651 C29.306,61.712 29.659,67.963 29.739,71.364 C29.766,72.491 29.098,72.655 28.467,72.62 L17.398,72.62 C16.425,72.43 16.389,72.405 16.224,71.436 C16.157,68.214 16.474,62.152 20.072,61.651 Z" id="Stroke-307" stroke="#5B5B5B" stroke-width="0.652"></path>
            <path d="M16.535,72.382 C15.999,72.047 14.255,71.121 14.21,70.288 C14.382,67.959 14.987,65.323 16.134,63.445 C16.601,62.679 17.24,62.039 17.849,61.597 C18.346,61.237 19.567,60.973 20.251,60.951 M21.599,60.91 C23.856,60.854 24.164,60.906 24.567,60.887" id="Stroke-308" stroke="#5B5B5B" stroke-width="0.652" stroke-linejoin="round"></path>
            <path d="M45.934,23.245 C48.067,42.113 48.758,63.899 42.83,67.809 C40.428,69.394 36.827,55.815 34.581,55.356 C31.264,62.889 31.995,64.332 30.399,63.886 C30.048,63.788 28.467,60.633 26.236,61.499" id="Stroke-309" stroke="#5B5B5B" stroke-width="0.567"></path>
            <path d="M23.238,63.811 C25.093,63.811 26.596,65.189 26.596,66.889 C26.596,68.589 25.093,69.966 23.238,69.966 C21.384,69.966 19.881,68.589 19.881,66.889 C19.881,65.189 21.384,63.811 23.238,63.811 Z M24.403,67.943 C24.687,68.271 25.157,68.918 25.375,69.263 L24.403,67.943 Z" id="Stroke-310" stroke="#5B5B5B" stroke-width="0.593"></path>
            <path d="M86.1846784,126.138458 C91.66944,124.104717 107.959462,125.039219 108.898963,125.593331 L113.624512,134.656806 L111.814621,135.246861 L114.045184,145.261811 C104.017165,147.641997 93.5334176,148.041357 84.763408,145.261811 L86.1846784,126.138458 Z" id="Stroke-311" stroke="#5B5B5B" stroke-width="0.71"></path>
            <path d="M86.201,126.713 C86.78,128.29 86.568,136.153 87.236,136.277 C94.694,137.663 109.703,136.293 112.836,134.874" id="Stroke-312" stroke="#5B5B5B" stroke-width="0.709"></path>
            <path d="M92.43555,124.871731 C94.7440824,117.992059 102.314915,119.015963 104.220797,124.888829" id="Stroke-313" stroke="#5B5B5B" stroke-width="0.706"></path>
            <path d="M94.211993,124.873716 C95.811181,120.032756 101.165071,120.863322 102.548907,124.886757" id="Stroke-314" stroke="#5B5B5B" stroke-width="0.704"></path>
            <path d="M84.7071168,145.16558 C83.3165312,144.507563 81.9259456,143.695183 81.4479318,141.657803 C82.1887016,137.72355 83.375146,133.645821 86.2593984,126.026671" id="Stroke-315" stroke="#5B5B5B" stroke-width="0.701"></path>
            <path d="M100.911,134.02 C102.186,134.02 103.22,135.054 103.22,136.329 C103.22,137.604 102.186,138.638 100.911,138.638 C99.636,138.638 98.602,137.604 98.602,136.329 C98.602,135.054 99.636,134.02 100.911,134.02 Z" id="Stroke-316" stroke="#5B5B5B" stroke-width="0.708"></path>
        </g>
    </g>
</svg>