<svg style="position: absolute; width: 0; height: 0;" width="0" height="0" version="1.1" xmlns="http://www.w3.org/2000/svg" xmlns:xlink="http://www.w3.org/1999/xlink">
<defs>
<symbol id="icon-check" viewBox="0 0 24 24">
<title>check</title>
<path class="path1" d="M9 16.172l10.594-10.594 1.406 1.406-12 12-5.578-5.578 1.406-1.406z"></path>
</symbol>
<symbol id="icon-close" viewBox="0 0 24 24">
<title>close</title>
<path class="path1" d="M18.984 6.422l-5.578 5.578 5.578 5.578-1.406 1.406-5.578-5.578-5.578 5.578-1.406-1.406 5.578-5.578-5.578-5.578 1.406-1.406 5.578 5.578 5.578-5.578z"></path>
</symbol>
<symbol id="icon-keyboard_arrow_down" viewBox="0 0 24 24">
<title>keyboard_arrow_down</title>
<path class="path1" d="M7.406 7.828l4.594 4.594 4.594-4.594 1.406 1.406-6 6-6-6z"></path>
</symbol>
<symbol id="icon-keyboard_arrow_left" viewBox="0 0 24 24">
<title>keyboard_arrow_left</title>
<path class="path1" d="M15.422 16.078l-1.406 1.406-6-6 6-6 1.406 1.406-4.594 4.594z"></path>
</symbol>
<symbol id="icon-keyboard_arrow_right" viewBox="0 0 24 24">
<title>keyboard_arrow_right</title>
<path class="path1" d="M8.578 16.359l4.594-4.594-4.594-4.594 1.406-1.406 6 6-6 6z"></path>
</symbol>
<symbol id="icon-keyboard_arrow_up" viewBox="0 0 24 24">
<title>keyboard_arrow_up</title>
<path class="path1" d="M7.406 15.422l-1.406-1.406 6-6 6 6-1.406 1.406-4.594-4.594z"></path>
</symbol>
<symbol id="icon-toc" viewBox="0 0 24 24">
<title>toc</title>
<path class="path1" d="M18.984 12.984v-1.969h2.016v1.969h-2.016zM18.984 6.984h2.016v2.016h-2.016v-2.016zM18.984 17.016v-2.016h2.016v2.016h-2.016zM3 17.016v-2.016h14.016v2.016h-14.016zM3 12.984v-1.969h14.016v1.969h-14.016zM3 9v-2.016h14.016v2.016h-14.016z"></path>
</symbol>
<symbol id="icon-file-text2" viewBox="0 0 16 16">
<title>file-text2</title>
<path class="path1" d="M14.341 3.579c-0.347-0.473-0.831-1.027-1.362-1.558s-1.085-1.015-1.558-1.362c-0.806-0.591-1.197-0.659-1.421-0.659h-7.75c-0.689 0-1.25 0.561-1.25 1.25v13.5c0 0.689 0.561 1.25 1.25 1.25h11.5c0.689 0 1.25-0.561 1.25-1.25v-9.75c0-0.224-0.068-0.615-0.659-1.421zM12.271 2.729c0.48 0.48 0.856 0.912 1.134 1.271h-2.406v-2.405c0.359 0.278 0.792 0.654 1.271 1.134zM14 14.75c0 0.136-0.114 0.25-0.25 0.25h-11.5c-0.135 0-0.25-0.114-0.25-0.25v-13.5c0-0.135 0.115-0.25 0.25-0.25 0 0 7.749-0 7.75 0v3.5c0 0.276 0.224 0.5 0.5 0.5h3.5v9.75z"></path>
<path class="path2" d="M11.5 13h-7c-0.276 0-0.5-0.224-0.5-0.5s0.224-0.5 0.5-0.5h7c0.276 0 0.5 0.224 0.5 0.5s-0.224 0.5-0.5 0.5z"></path>
<path class="path3" d="M11.5 11h-7c-0.276 0-0.5-0.224-0.5-0.5s0.224-0.5 0.5-0.5h7c0.276 0 0.5 0.224 0.5 0.5s-0.224 0.5-0.5 0.5z"></path>
<path class="path4" d="M11.5 9h-7c-0.276 0-0.5-0.224-0.5-0.5s0.224-0.5 0.5-0.5h7c0.276 0 0.5 0.224 0.5 0.5s-0.224 0.5-0.5 0.5z"></path>
</symbol>
<symbol id="icon-barcode" viewBox="0 0 16 16">
<title>barcode</title>
<path class="path1" d="M0 2h2v10h-2zM3 2h1v10h-1zM5 2h1v10h-1zM8 2h1v10h-1zM12 2h1v10h-1zM15 2h1v10h-1zM10 2h0.5v10h-0.5zM7 2h0.5v10h-0.5zM13.5 2h0.5v10h-0.5zM0 13h1v1h-1zM3 13h1v1h-1zM5 13h1v1h-1zM10 13h1v1h-1zM15 13h1v1h-1zM12 13h2v1h-2zM7 13h2v1h-2z"></path>
</symbol>
<symbol id="icon-spinner3" viewBox="0 0 16 16">
<title>spinner3</title>
<path class="path1" d="M8 4.736c-0.515 0-0.933-0.418-0.933-0.933v-2.798c0-0.515 0.418-0.933 0.933-0.933s0.933 0.418 0.933 0.933v2.798c0 0.515-0.418 0.933-0.933 0.933z"></path>
<path class="path2" d="M8 15.577c-0.322 0-0.583-0.261-0.583-0.583v-2.798c0-0.322 0.261-0.583 0.583-0.583s0.583 0.261 0.583 0.583v2.798c0 0.322-0.261 0.583-0.583 0.583z"></path>
<path class="path3" d="M5.902 5.24c-0.302 0-0.596-0.157-0.758-0.437l-1.399-2.423c-0.241-0.418-0.098-0.953 0.32-1.194s0.953-0.098 1.194 0.32l1.399 2.423c0.241 0.418 0.098 0.953-0.32 1.194-0.138 0.079-0.288 0.117-0.436 0.117z"></path>
<path class="path4" d="M11.498 14.582c-0.181 0-0.358-0.094-0.455-0.262l-1.399-2.423c-0.145-0.251-0.059-0.572 0.192-0.717s0.572-0.059 0.717 0.192l1.399 2.423c0.145 0.251 0.059 0.572-0.192 0.717-0.083 0.048-0.173 0.070-0.262 0.070z"></path>
<path class="path5" d="M4.365 6.718c-0.138 0-0.279-0.035-0.407-0.109l-2.423-1.399c-0.39-0.225-0.524-0.724-0.299-1.115s0.724-0.524 1.115-0.299l2.423 1.399c0.39 0.225 0.524 0.724 0.299 1.115-0.151 0.262-0.425 0.408-0.707 0.408z"></path>
<path class="path6" d="M14.057 11.964c-0.079 0-0.159-0.020-0.233-0.063l-2.423-1.399c-0.223-0.129-0.299-0.414-0.171-0.637s0.414-0.299 0.637-0.171l2.423 1.399c0.223 0.129 0.299 0.414 0.171 0.637-0.086 0.15-0.243 0.233-0.404 0.233z"></path>
<path class="path7" d="M3.803 8.758h-2.798c-0.418 0-0.758-0.339-0.758-0.758s0.339-0.758 0.758-0.758h2.798c0.419 0 0.758 0.339 0.758 0.758s-0.339 0.758-0.758 0.758z"></path>
<path class="path8" d="M14.995 8.466c-0 0 0 0 0 0h-2.798c-0.258-0-0.466-0.209-0.466-0.466s0.209-0.466 0.466-0.466c0 0 0 0 0 0h2.798c0.258 0 0.466 0.209 0.466 0.466s-0.209 0.466-0.466 0.466z"></path>
<path class="path9" d="M1.943 12.197c-0.242 0-0.477-0.125-0.606-0.35-0.193-0.335-0.079-0.762 0.256-0.955l2.423-1.399c0.335-0.193 0.762-0.079 0.955 0.256s0.079 0.762-0.256 0.955l-2.423 1.399c-0.11 0.064-0.23 0.094-0.349 0.094z"></path>
<path class="path10" d="M11.635 6.368c-0.161 0-0.318-0.084-0.404-0.233-0.129-0.223-0.052-0.508 0.171-0.637l2.423-1.399c0.223-0.129 0.508-0.052 0.637 0.171s0.052 0.508-0.171 0.637l-2.423 1.399c-0.073 0.042-0.154 0.063-0.233 0.063z"></path>
<path class="path11" d="M4.502 14.699c-0.109 0-0.219-0.028-0.32-0.086-0.307-0.177-0.412-0.569-0.235-0.876l1.399-2.423c0.177-0.307 0.569-0.412 0.876-0.235s0.412 0.569 0.235 0.876l-1.399 2.423c-0.119 0.206-0.334 0.321-0.556 0.321z"></path>
<path class="path12" d="M10.098 4.832c-0.079 0-0.159-0.020-0.233-0.063-0.223-0.129-0.299-0.414-0.171-0.637l1.399-2.423c0.129-0.223 0.414-0.299 0.637-0.171s0.299 0.414 0.171 0.637l-1.399 2.423c-0.086 0.15-0.243 0.233-0.404 0.233z"></path>
</symbol>
<symbol id="icon-cog" viewBox="0 0 16 16">
<title>cog</title>
<path class="path1" d="M14.59 9.535c-0.839-1.454-0.335-3.317 1.127-4.164l-1.572-2.723c-0.449 0.263-0.972 0.414-1.529 0.414-1.68 0-3.042-1.371-3.042-3.062h-3.145c0.004 0.522-0.126 1.051-0.406 1.535-0.839 1.454-2.706 1.948-4.17 1.106l-1.572 2.723c0.453 0.257 0.845 0.634 1.123 1.117 0.838 1.452 0.336 3.311-1.12 4.16l1.572 2.723c0.448-0.261 0.967-0.41 1.522-0.41 1.675 0 3.033 1.362 3.042 3.046h3.145c-0.001-0.517 0.129-1.040 0.406-1.519 0.838-1.452 2.7-1.947 4.163-1.11l1.572-2.723c-0.45-0.257-0.839-0.633-1.116-1.113zM8 11.24c-1.789 0-3.24-1.45-3.24-3.24s1.45-3.24 3.24-3.24c1.789 0 3.24 1.45 3.24 3.24s-1.45 3.24-3.24 3.24z"></path>
</symbol>
<symbol id="icon-plus" viewBox="0 0 16 16">
<title>plus</title>
<path class="path1" d="M15.5 6h-5.5v-5.5c0-0.276-0.224-0.5-0.5-0.5h-3c-0.276 0-0.5 0.224-0.5 0.5v5.5h-5.5c-0.276 0-0.5 0.224-0.5 0.5v3c0 0.276 0.224 0.5 0.5 0.5h5.5v5.5c0 0.276 0.224 0.5 0.5 0.5h3c0.276 0 0.5-0.224 0.5-0.5v-5.5h5.5c0.276 0 0.5-0.224 0.5-0.5v-3c0-0.276-0.224-0.5-0.5-0.5z"></path>
</symbol>
<symbol id="icon-minus" viewBox="0 0 16 16">
<title>minus</title>
<path class="path1" d="M0 6.5v3c0 0.276 0.224 0.5 0.5 0.5h15c0.276 0 0.5-0.224 0.5-0.5v-3c0-0.276-0.224-0.5-0.5-0.5h-15c-0.276 0-0.5 0.224-0.5 0.5z"></path>
</symbol>
<symbol id="icon-cross" viewBox="0 0 16 16">
<title>cross</title>
<path class="path1" d="M15.854 12.854c-0-0-0-0-0-0l-4.854-4.854 4.854-4.854c0-0 0-0 0-0 0.052-0.052 0.090-0.113 0.114-0.178 0.066-0.178 0.028-0.386-0.114-0.529l-2.293-2.293c-0.143-0.143-0.351-0.181-0.529-0.114-0.065 0.024-0.126 0.062-0.178 0.114 0 0-0 0-0 0l-4.854 4.854-4.854-4.854c-0-0-0-0-0-0-0.052-0.052-0.113-0.090-0.178-0.114-0.178-0.066-0.386-0.029-0.529 0.114l-2.293 2.293c-0.143 0.143-0.181 0.351-0.114 0.529 0.024 0.065 0.062 0.126 0.114 0.178 0 0 0 0 0 0l4.854 4.854-4.854 4.854c-0 0-0 0-0 0-0.052 0.052-0.090 0.113-0.114 0.178-0.066 0.178-0.029 0.386 0.114 0.529l2.293 2.293c0.143 0.143 0.351 0.181 0.529 0.114 0.065-0.024 0.126-0.062 0.178-0.114 0-0 0-0 0-0l4.854-4.854 4.854 4.854c0 0 0 0 0 0 0.052 0.052 0.113 0.090 0.178 0.114 0.178 0.066 0.386 0.029 0.529-0.114l2.293-2.293c0.143-0.143 0.181-0.351 0.114-0.529-0.024-0.065-0.062-0.126-0.114-0.178z"></path>
</symbol>
<symbol id="icon-checkmark" viewBox="0 0 16 16">
<title>checkmark</title>
<path class="path1" d="M13.5 2l-7.5 7.5-3.5-3.5-2.5 2.5 6 6 10-10z"></path>
</symbol>
<symbol id="icon-arrow-up2" viewBox="0 0 16 16">
<title>arrow-up2</title>
<path class="path1" d="M13.707 6.293l-5-5c-0.39-0.391-1.024-0.391-1.414 0l-5 5c-0.391 0.391-0.391 1.024 0 1.414s1.024 0.391 1.414 0l3.293-3.293v9.586c0 0.552 0.448 1 1 1s1-0.448 1-1v-9.586l3.293 3.293c0.195 0.195 0.451 0.293 0.707 0.293s0.512-0.098 0.707-0.293c0.391-0.391 0.391-1.024 0-1.414z"></path>
</symbol>
<symbol id="icon-arrow-right2" viewBox="0 0 16 16">
<title>arrow-right2</title>
<path class="path1" d="M9.707 13.707l5-5c0.391-0.39 0.391-1.024 0-1.414l-5-5c-0.391-0.391-1.024-0.391-1.414 0s-0.391 1.024 0 1.414l3.293 3.293h-9.586c-0.552 0-1 0.448-1 1s0.448 1 1 1h9.586l-3.293 3.293c-0.195 0.195-0.293 0.451-0.293 0.707s0.098 0.512 0.293 0.707c0.391 0.391 1.024 0.391 1.414 0z"></path>
</symbol>
<symbol id="icon-arrow-down2" viewBox="0 0 16 16">
<title>arrow-down2</title>
<path class="path1" d="M13.707 9.707l-5 5c-0.39 0.391-1.024 0.391-1.414 0l-5-5c-0.391-0.391-0.391-1.024 0-1.414s1.024-0.391 1.414 0l3.293 3.293v-9.586c0-0.552 0.448-1 1-1s1 0.448 1 1v9.586l3.293-3.293c0.195-0.195 0.451-0.293 0.707-0.293s0.512 0.098 0.707 0.293c0.391 0.391 0.391 1.024 0 1.414z"></path>
</symbol>
<symbol id="icon-arrow-left2" viewBox="0 0 16 16">
<title>arrow-left2</title>
<path class="path1" d="M6.293 13.707l-5-5c-0.391-0.39-0.391-1.024 0-1.414l5-5c0.391-0.391 1.024-0.391 1.414 0s0.391 1.024 0 1.414l-3.293 3.293h9.586c0.552 0 1 0.448 1 1s-0.448 1-1 1h-9.586l3.293 3.293c0.195 0.195 0.293 0.451 0.293 0.707s-0.098 0.512-0.293 0.707c-0.391 0.391-1.024 0.391-1.414 0z"></path>
</symbol>
<symbol id="icon-circle-up" viewBox="0 0 16 16">
<title>circle-up</title>
<path class="path1" d="M0 8c0 4.418 3.582 8 8 8s8-3.582 8-8-3.582-8-8-8-8 3.582-8 8zM14.5 8c0 3.59-2.91 6.5-6.5 6.5s-6.5-2.91-6.5-6.5 2.91-6.5 6.5-6.5 6.5 2.91 6.5 6.5z"></path>
<path class="path2" d="M11.043 10.457l1.414-1.414-4.457-4.457-4.457 4.457 1.414 1.414 3.043-3.043z"></path>
</symbol>
<symbol id="icon-circle-right" viewBox="0 0 16 16">
<title>circle-right</title>
<path class="path1" d="M8 0c-4.418 0-8 3.582-8 8s3.582 8 8 8 8-3.582 8-8-3.582-8-8-8zM8 14.5c-3.59 0-6.5-2.91-6.5-6.5s2.91-6.5 6.5-6.5 6.5 2.91 6.5 6.5-2.91 6.5-6.5 6.5z"></path>
<path class="path2" d="M5.543 11.043l1.414 1.414 4.457-4.457-4.457-4.457-1.414 1.414 3.043 3.043z"></path>
</symbol>
<symbol id="icon-circle-down" viewBox="0 0 16 16">
<title>circle-down</title>
<path class="path1" d="M16 8c0-4.418-3.582-8-8-8s-8 3.582-8 8 3.582 8 8 8 8-3.582 8-8zM1.5 8c0-3.59 2.91-6.5 6.5-6.5s6.5 2.91 6.5 6.5-2.91 6.5-6.5 6.5-6.5-2.91-6.5-6.5z"></path>
<path class="path2" d="M4.957 5.543l-1.414 1.414 4.457 4.457 4.457-4.457-1.414-1.414-3.043 3.043z"></path>
</symbol>
<symbol id="icon-circle-left" viewBox="0 0 16 16">
<title>circle-left</title>
<path class="path1" d="M8 16c4.418 0 8-3.582 8-8s-3.582-8-8-8-8 3.582-8 8 3.582 8 8 8zM8 1.5c3.59 0 6.5 2.91 6.5 6.5s-2.91 6.5-6.5 6.5-6.5-2.91-6.5-6.5 2.91-6.5 6.5-6.5z"></path>
<path class="path2" d="M10.457 4.957l-1.414-1.414-4.457 4.457 4.457 4.457 1.414-1.414-3.043-3.043z"></path>
</symbol>
<symbol id="icon-sort-alpha-asc" viewBox="0 0 16 16">
<title>sort-alpha-asc</title>
<path class="path1" d="M5 12v-12h-2v12h-2.5l3.5 3.5 3.5-3.5h-2.5z"></path>
<path class="path2" d="M14.5 16h-4c-0.184 0-0.354-0.101-0.441-0.264s-0.077-0.36 0.025-0.513l3.482-5.223h-3.066c-0.276 0-0.5-0.224-0.5-0.5s0.224-0.5 0.5-0.5h4c0.184 0 0.354 0.101 0.441 0.264s0.077 0.36-0.025 0.513l-3.482 5.223h3.066c0.276 0 0.5 0.224 0.5 0.5s-0.224 0.5-0.5 0.5z"></path>
<path class="path3" d="M15.947 6.276l-3-6c-0.085-0.169-0.258-0.276-0.447-0.276s-0.363 0.107-0.447 0.276l-3 6c-0.123 0.247-0.023 0.547 0.224 0.671 0.072 0.036 0.148 0.053 0.223 0.053 0.183 0 0.36-0.101 0.448-0.277l0.862-1.724h3.382l0.862 1.724c0.123 0.247 0.424 0.347 0.671 0.224s0.347-0.424 0.224-0.671zM11.309 4l1.191-2.382 1.191 2.382h-2.382z"></path>
</symbol>
<symbol id="icon-sort-alpha-desc" viewBox="0 0 16 16">
<title>sort-alpha-desc</title>
<path class="path1" d="M5 12v-12h-2v12h-2.5l3.5 3.5 3.5-3.5h-2.5z"></path>
<path class="path2" d="M14.5 7h-4c-0.184 0-0.354-0.101-0.441-0.264s-0.077-0.36 0.025-0.513l3.482-5.223h-3.066c-0.276 0-0.5-0.224-0.5-0.5s0.224-0.5 0.5-0.5h4c0.184 0 0.354 0.102 0.441 0.264s0.077 0.36-0.025 0.513l-3.482 5.223h3.066c0.276 0 0.5 0.224 0.5 0.5s-0.224 0.5-0.5 0.5z"></path>
<path class="path3" d="M15.947 15.276l-3-6c-0.085-0.169-0.258-0.276-0.447-0.276s-0.363 0.107-0.447 0.276l-3 6c-0.123 0.247-0.023 0.547 0.224 0.671 0.072 0.036 0.148 0.053 0.223 0.053 0.183 0 0.36-0.101 0.448-0.277l0.862-1.724h3.382l0.862 1.724c0.123 0.247 0.424 0.347 0.671 0.224s0.347-0.424 0.224-0.671zM11.309 13l1.191-2.382 1.191 2.382h-2.382z"></path>
</symbol>
<symbol id="icon-checkmark3" viewBox="0 0 32 32">
<title>checkmark3</title>
<path class="path1" d="M30.721 2c-10.453 7.911-20.478 18.494-20.478 18.494l-7.224-6.494-3.018 3.074c2.969 2.791 9.849 10.162 12.176 12.926 6.55-10.943 13.359-19.104 19.824-26.567l-1.279-1.433z"></path>
</symbol>
<symbol id="icon-remove2" viewBox="0 0 32 32">
<title>remove2</title>
<path class="path1" d="M25 4h-18c-1.657 0-3 1.343-3 3v1h24v-1c0-1.657-1.343-3-3-3zM19.76 2l0.441 3.156h-8.402l0.441-3.156h7.52zM20 0h-8c-0.825 0-1.593 0.668-1.708 1.486l-0.585 4.185c-0.114 0.817 0.467 1.486 1.292 1.486h10c0.825 0 1.407-0.668 1.292-1.486l-0.585-4.185c-0.114-0.817-0.883-1.486-1.708-1.486v0zM25.5 10h-19c-1.1 0-1.918 0.896-1.819 1.992l1.638 18.016c0.1 1.095 1.081 1.992 2.181 1.992h15c1.1 0 2.081-0.896 2.181-1.992l1.638-18.016c0.1-1.095-0.719-1.992-1.819-1.992zM12 28h-3l-1-14h4v14zM18 28h-4v-14h4v14zM23 28h-3v-14h4l-1 14z"></path>
</symbol>
<symbol id="icon-burg" viewBox="0 0 45 32">
<title>burg</title>
<path class="path1" d="M3.202 6.4h38.395c0 0 0 0 0 0 1.767 0 3.2-1.433 3.2-3.2s-1.433-3.2-3.2-3.2c0 0 0 0 0 0h-38.395c0 0 0 0 0 0-1.767 0-3.2 1.433-3.2 3.2s1.433 3.2 3.2 3.2c0 0 0 0 0 0zM41.598 12.8h-38.395c0 0 0 0 0 0-1.767 0-3.2 1.433-3.2 3.2s1.433 3.2 3.2 3.2c0 0 0 0 0 0h38.395c0 0 0 0 0 0 1.767 0 3.2-1.433 3.2-3.2s-1.433-3.2-3.2-3.2c0 0 0 0 0 0zM41.598 25.6h-38.395c-1.767 0-3.2 1.433-3.2 3.2s1.433 3.2 3.2 3.2h38.395c1.767 0 3.2-1.433 3.2-3.2s-1.433-3.2-3.2-3.2z"></path>
</symbol>
<symbol id="icon-magn" viewBox="0 0 32 32">
<title>magn</title>
<path class="path1" d="M31.597 27.918l-7.732-7.975c-0.553-0.573-1.246-0.803-1.546-0.51s-0.803-0.153-1.356-0.723l-0.113-0.113c1.462-1.918 2.343-4.348 2.343-6.983 0-6.396-5.185-11.581-11.581-11.581s-11.581 5.185-11.581 11.581c0 6.396 5.185 11.581 11.581 11.581 2.749 0 5.275-0.958 7.261-2.559l0.024 0.067c0.553 0.57 1.2 1.030 0.896 1.333s-0.097 1 0.46 1.563l7.748 7.962c0.263 0.271 0.63 0.439 1.036 0.439 0.39 0 0.744-0.155 1.003-0.406l1.536-1.639c0.272-0.263 0.441-0.631 0.441-1.038 0-0.389-0.154-0.742-0.404-1.002zM17.96 17.95c-1.63 1.637-3.885 2.649-6.377 2.649-4.97 0-8.998-4.029-8.998-8.998s4.029-8.998 8.998-8.998c2.492 0 4.747 1.013 6.376 2.649 1.62 1.627 2.622 3.871 2.622 6.349s-1.002 4.722-2.622 6.349z"></path>
</symbol>
<symbol id="icon-cart" viewBox="0 0 32 32">
<title>cart</title>
<path class="path1" d="M11.435 24.724c-1.488 0-2.705 1.217-2.705 2.739s1.217 2.739 2.705 2.739c1.488 0 2.705-1.217 2.705-2.739s-1.217-2.739-2.705-2.739zM24.217 24.724c-1.488 0-2.705 1.217-2.705 2.739s1.217 2.739 2.705 2.739c1.488 0 2.705-1.217 2.705-2.739 0.034-1.522-1.183-2.739-2.705-2.739zM31.216 9.406c-0.169-0.203-0.406-0.338-0.71-0.338h-21.573c-0.338 0-0.643-0.203-0.778-0.507l-2.671-5.579c-0.237-0.473-0.676-0.744-1.183-0.744h-3.584c-0.372 0-0.676 0.304-0.676 0.676v0.913c0 0.372 0.304 0.676 0.676 0.676h2.536c0.169 0 0.338 0.135 0.372 0.304l4.261 16.298c0.406 1.555 1.826 2.671 3.415 2.671h13.255c1.555 0 2.908-1.014 3.381-2.502l3.415-11.091c0.068-0.271 0.034-0.541-0.135-0.778zM28.004 12.416l-2.502 8.082c-0.135 0.406-0.507 0.71-0.947 0.71h-13.255c-0.44 0-0.845-0.304-0.947-0.744l-2.097-8.048c-0.034-0.203 0-0.406 0.101-0.541s0.304-0.237 0.473-0.237h18.53c0.203 0 0.372 0.101 0.507 0.271 0.135 0.135 0.169 0.338 0.135 0.507z"></path>
</symbol>
</defs>
</svg>
